<svg width="15" height="15" viewBox="0 0 15 15" fill="none" xmlns="http://www.w3.org/2000/svg">
<path fill-rule="evenodd" clip-rule="evenodd" d="M4.09091 0.681818C4.09091 0.305264 3.78565 0 3.40909 0C3.03254 0 2.72727 0.305264 2.72727 0.681818V1.36364H2.04545C0.915784 1.36364 0 2.27942 0 3.40909V12.9545C0 14.0843 0.915784 15 2.04545 15H12.9545C14.0843 15 15 14.0843 15 12.9545V3.40909C15 2.27942 14.0843 1.36364 12.9545 1.36364H12.2727V0.681818C12.2727 0.305264 11.9675 0 11.5909 0C11.2143 0 10.9091 0.305264 10.9091 0.681818V1.36364H4.09091V0.681818ZM7.5 4.77273C7.87657 4.77273 8.18182 5.07799 8.18182 5.45455V7.5H10.2273C10.6038 7.5 10.9091 7.80525 10.9091 8.18182C10.9091 8.55839 10.6038 8.86364 10.2273 8.86364H8.18182V10.9091C8.18182 11.2856 7.87657 11.5909 7.5 11.5909C7.12343 11.5909 6.81818 11.2856 6.81818 10.9091V8.86364H4.77273C4.39617 8.86364 4.09091 8.55839 4.09091 8.18182C4.09091 7.80525 4.39617 7.5 4.77273 7.5H6.81818V5.45455C6.81818 5.07799 7.12343 4.77273 7.5 4.77273Z" fill="black"/>
</svg>
