<svg width="14" height="15" viewBox="0 0 14 15" fill="none" xmlns="http://www.w3.org/2000/svg">
<path d="M12.6923 1.15385H10.9615V0.576923C10.9615 0.423912 10.9007 0.277171 10.7926 0.168975C10.6844 0.0607847 10.5376 0 10.3846 0C10.2316 0 10.0848 0.0607847 9.97667 0.168975C9.8685 0.277171 9.80769 0.423912 9.80769 0.576923V1.15385H4.03846V0.576923C4.03846 0.423912 3.97765 0.277171 3.86948 0.168975C3.76131 0.0607847 3.61454 0 3.46154 0C3.30853 0 3.16179 0.0607847 3.05359 0.168975C2.9454 0.277171 2.88462 0.423912 2.88462 0.576923V1.15385H1.15385C0.847829 1.15385 0.554342 1.27541 0.337956 1.4918C0.121564 1.70819 0 2.00167 0 2.30769V13.8462C0 14.1522 0.121564 14.4456 0.337956 14.662C0.554342 14.8784 0.847829 15 1.15385 15H12.6923C12.9983 15 13.2918 14.8784 13.5082 14.662C13.7246 14.4456 13.8462 14.1522 13.8462 13.8462V2.30769C13.8462 2.00167 13.7246 1.70819 13.5082 1.4918C13.2918 1.27541 12.9983 1.15385 12.6923 1.15385ZM9.91587 8.49519L6.54808 11.6683C6.49569 11.7196 6.43373 11.7601 6.36565 11.7873C6.29758 11.8145 6.22477 11.828 6.15144 11.8269C6.00363 11.8275 5.86142 11.7706 5.75481 11.6683L3.93029 9.9375C3.87167 9.88638 3.82402 9.8239 3.79015 9.75387C3.75629 9.68388 3.73696 9.60773 3.73327 9.53002C3.72963 9.45237 3.74169 9.37471 3.76875 9.30179C3.79587 9.22892 3.8374 9.16223 3.89094 9.10581C3.94448 9.04938 4.00881 9.00433 4.08017 8.9734C4.15154 8.94248 4.22844 8.92633 4.30621 8.92587C4.38398 8.9254 4.46106 8.94069 4.53277 8.97075C4.60448 9.00086 4.66938 9.04517 4.72356 9.10096L6.15144 10.4567L9.1226 7.65865C9.17706 7.60575 9.24161 7.56427 9.31235 7.53663C9.38313 7.50906 9.45865 7.49585 9.53458 7.49787C9.61056 7.49988 9.68527 7.51708 9.7545 7.5484C9.82367 7.57973 9.88592 7.62456 9.9375 7.68029C10.0426 7.79129 10.0993 7.93944 10.0952 8.09221C10.0912 8.24498 10.0267 8.3899 9.91587 8.49519ZM12.6923 4.61538H1.15385V2.30769H2.88462V2.88462C2.88462 3.03763 2.9454 3.18437 3.05359 3.29256C3.16179 3.40075 3.30853 3.46154 3.46154 3.46154C3.61454 3.46154 3.76131 3.40075 3.86948 3.29256C3.97765 3.18437 4.03846 3.03763 4.03846 2.88462V2.30769H9.80769V2.88462C9.80769 3.03763 9.8685 3.18437 9.97667 3.29256C10.0848 3.40075 10.2316 3.46154 10.3846 3.46154C10.5376 3.46154 10.6844 3.40075 10.7926 3.29256C10.9007 3.18437 10.9615 3.03763 10.9615 2.88462V2.30769H12.6923V4.61538Z" fill="black"/>
</svg>
