<svg width="18" height="18" viewBox="0 0 18 18" fill="none" xmlns="http://www.w3.org/2000/svg">
<g clip-path="url(#clip0_359_111)">
<path d="M11.1176 14.5587C11.1176 13.3893 12.0657 12.441 13.2345 12.441H15.8831C17.0518 12.441 18 13.3904 18 14.5587C18 15.728 17.052 16.6763 15.8831 16.6763H13.2345C12.0659 16.6763 11.1176 15.7269 11.1176 14.5587ZM12.1765 14.5587C12.1765 15.1424 12.6509 15.6175 13.2345 15.6175H15.8831C16.4672 15.6175 16.9412 15.1433 16.9412 14.5587C16.9412 13.9749 16.4667 13.4998 15.8831 13.4998H13.2345C12.6505 13.4998 12.1765 13.974 12.1765 14.5587ZM16.0591 11.387C16.0009 11.3838 15.9422 11.3822 15.8831 11.3822H13.2345C11.4808 11.3822 10.0588 12.8046 10.0588 14.5587C10.0588 15.4044 10.3899 16.1734 10.9294 16.7429C10.0772 17.0427 9.16059 17.2057 8.20588 17.2057C3.6739 17.2057 0 13.5318 0 8.99983C0 4.46784 3.6739 0.793945 8.20588 0.793945C12.7379 0.793945 16.4118 4.46784 16.4118 8.99983C16.4118 9.83012 16.2885 10.6316 16.0591 11.387ZM11.1176 8.73512H8.47059V4.49983C8.47059 4.20744 8.23356 3.97042 7.94118 3.97042C7.64879 3.97042 7.41177 4.20744 7.41177 4.49983V9.26453C7.41177 9.55692 7.64879 9.79394 7.94118 9.79394H11.1176C11.41 9.79394 11.6471 9.55692 11.6471 9.26453C11.6471 8.97215 11.41 8.73512 11.1176 8.73512ZM13.2353 15.0881C12.9429 15.0881 12.7059 14.851 12.7059 14.5587C12.7059 14.2663 12.9429 14.0292 13.2353 14.0292H14.5588C14.8512 14.0292 15.0882 14.2663 15.0882 14.5587C15.0882 14.851 14.8512 15.0881 14.5588 15.0881H13.2353Z" fill="#D79E0C"/>
</g>
<defs>
<clipPath id="clip0_359_111">
<rect width="18" height="18" fill="white"/>
</clipPath>
</defs>
</svg>
