<svg width="20" height="20" viewBox="0 0 20 20" fill="none" xmlns="http://www.w3.org/2000/svg">
<path d="M17.5 5.83317V14.1665C17.5 16.6665 16.25 18.3332 13.3333 18.3332H6.66667C3.75 18.3332 2.5 16.6665 2.5 14.1665V5.83317C2.5 3.33317 3.75 1.6665 6.66667 1.6665H13.3333C16.25 1.6665 17.5 3.33317 17.5 5.83317Z" stroke="#201B53" stroke-width="1.5" stroke-miterlimit="10" stroke-linecap="round" stroke-linejoin="round"/>
<path d="M12.9173 1.6665V8.21649C12.9173 8.58316 12.484 8.76649 12.2173 8.52482L10.284 6.74153C10.1257 6.59153 9.87563 6.59153 9.7173 6.74153L7.78401 8.52482C7.51734 8.76649 7.08398 8.58316 7.08398 8.21649V1.6665H12.9173Z" stroke="#201B53" stroke-width="1.5" stroke-miterlimit="10" stroke-linecap="round" stroke-linejoin="round"/>
<path d="M11.041 11.6665H14.5827" stroke="#201B53" stroke-width="1.5" stroke-miterlimit="10" stroke-linecap="round" stroke-linejoin="round"/>
<path d="M7.5 15H14.5833" stroke="#201B53" stroke-width="1.5" stroke-miterlimit="10" stroke-linecap="round" stroke-linejoin="round"/>
</svg>
