<svg width="20" height="20" viewBox="0 0 20 20" fill="none" xmlns="http://www.w3.org/2000/svg">
<path d="M10.0007 9.99983C11.1057 9.99983 12.1655 9.56084 12.9469 8.77944C13.7283 7.99804 14.1673 6.93823 14.1673 5.83316C14.1673 4.72809 13.7283 3.66829 12.9469 2.88688C12.1655 2.10548 11.1057 1.6665 10.0007 1.6665C8.89557 1.6665 7.83577 2.10548 7.05436 2.88688C6.27296 3.66829 5.83398 4.72809 5.83398 5.83316C5.83398 6.93823 6.27296 7.99804 7.05436 8.77944C7.83577 9.56084 8.89557 9.99983 10.0007 9.99983Z" stroke="#F47817" stroke-width="1.5" stroke-linecap="round" stroke-linejoin="round"/>
<path opacity="0.4" d="M2.8418 18.3333C2.8418 15.1083 6.05013 12.5 10.0001 12.5C10.8001 12.5 11.5751 12.6083 12.3001 12.8083" stroke="#F47817" stroke-width="1.5" stroke-linecap="round" stroke-linejoin="round"/>
<path d="M16.2427 14.9832H13.7593M14.9993 13.7665V16.2582M18.3327 14.9999C18.3327 15.2665 18.2993 15.5249 18.2327 15.7749C18.1577 16.1082 18.0243 16.4332 17.8493 16.7165C17.5556 17.2103 17.1383 17.619 16.6385 17.9025C16.1388 18.1859 15.5739 18.3344 14.9993 18.3332C14.1789 18.3356 13.3876 18.0292 12.7827 17.4749C12.5327 17.2582 12.316 16.9999 12.1493 16.7165C11.8321 16.2002 11.6648 15.6058 11.666 14.9999C11.6655 14.562 11.7513 14.1283 11.9186 13.7236C12.086 13.3189 12.3315 12.9513 12.6411 12.6416C12.9507 12.332 13.3184 12.0865 13.7231 11.9191C14.1278 11.7518 14.5615 11.666 14.9993 11.6665C15.9827 11.6665 16.8743 12.0915 17.4743 12.7749C18.0077 13.3665 18.3327 14.1499 18.3327 14.9999Z" stroke="#F47817" stroke-width="1.5" stroke-miterlimit="10" stroke-linecap="round" stroke-linejoin="round"/>
</svg>
