<svg width="18" height="18" viewBox="0 0 18 18" fill="none" xmlns="http://www.w3.org/2000/svg">
<path d="M17.0705 6.69729C16.9342 6.56095 16.7138 6.56095 16.5775 6.69729L7.0601 16.2147C6.35851 16.9162 5.42226 17.3023 4.42289 17.3023C3.42317 17.3023 2.48657 16.9162 1.78534 16.2147C1.0841 15.5131 0.697745 14.5768 0.697745 13.5771C0.697745 12.5777 1.08375 11.6411 1.78534 10.9399L11.3024 1.42218C12.3125 0.412353 13.8984 0.474072 14.9912 1.5662C16.0837 2.65867 16.1458 4.2449 15.1356 5.25508L6.19498 14.196C5.69529 14.6957 4.88143 14.6961 4.3807 14.196C3.88066 13.6957 3.88066 12.8818 4.3807 12.3818L10.4372 6.32523C10.5736 6.18889 10.5736 5.96851 10.4372 5.83217C10.3009 5.69583 10.0805 5.69583 9.94418 5.83217L3.88764 11.8884C3.11562 12.6604 3.11562 13.9164 3.88764 14.6888C4.66035 15.4615 5.91671 15.4601 6.68803 14.6888L15.629 5.74779C16.9202 4.45621 16.8582 2.44631 15.4846 1.07279C14.1115 -0.300387 12.1012 -0.362804 10.8096 0.928775L1.29193 10.4465C0.458538 11.2795 0 12.3912 0 13.5771C0 14.763 0.458538 15.875 1.29193 16.7081C2.12497 17.5415 3.23662 18 4.42289 18C5.60846 18 6.72046 17.5415 7.5535 16.7081L17.0705 7.19035C17.2069 7.05401 17.2069 6.83328 17.0705 6.69729Z" fill="black"/>
</svg>
