<svg width="20" height="20" viewBox="0 0 20 20" fill="none" xmlns="http://www.w3.org/2000/svg">
<path d="M14.375 0.900391C15.6711 0.900469 16.7246 1.95421 16.7246 3.25V7.75C16.7246 8.11574 16.4286 8.41202 16.0625 8.41211C15.6964 8.41211 15.3995 8.1158 15.3994 7.75V3.25C15.3994 2.68485 14.9399 2.22469 14.375 2.22461H6.63477C6.36616 2.22469 6.10222 2.33447 5.91113 2.52539L3.52539 4.91113C3.33445 5.10252 3.22469 5.36675 3.22461 5.63477V16.75C3.22471 17.3151 3.6851 17.7744 4.25 17.7744H7.625C7.99114 17.7745 8.28711 18.0717 8.28711 18.4375C8.287 18.8032 7.99107 19.0996 7.625 19.0996H4.25C2.95394 19.0996 1.90049 18.0458 1.90039 16.75V5.63477C1.90048 5.01731 2.15135 4.41284 2.58887 3.97461V3.97363L4.97363 1.58887C5.41087 1.15105 6.01669 0.900474 6.63477 0.900391H14.375Z" fill="#4A4674" stroke="#4A4674" stroke-width="0.2"/>
<path opacity="0.4" d="M13.6055 10.3159C14.4932 9.42712 16.0383 9.42599 16.9277 10.3159L17.7236 11.1108C18.1676 11.5545 18.4121 12.1455 18.4121 12.7729C18.412 13.4004 18.1674 13.9906 17.7236 14.4341C17.4649 14.6928 17.0459 14.6927 16.7871 14.4341C16.5284 14.1753 16.5283 13.7561 16.7871 13.4976C16.9807 13.3039 17.0868 13.0469 17.0869 12.7729C17.0869 12.499 16.981 12.2412 16.7871 12.0474L15.9912 11.2524C15.6051 10.8663 14.9281 10.8664 14.542 11.2524L10.5645 15.23C10.3707 15.4238 10.2637 15.6807 10.2637 15.9546C10.2637 16.2285 10.3706 16.4854 10.5645 16.6792L11.3594 17.4751C11.7455 17.8612 12.4235 17.8612 12.8096 17.4751L14.7979 15.4858C14.978 15.3054 14.978 15.0119 14.7979 14.8315C14.6239 14.658 14.3176 14.659 14.1445 14.8315L12.5527 16.4233C12.294 16.6818 11.8749 16.6818 11.6162 16.4233C11.3575 16.1646 11.3574 15.7444 11.6162 15.4858L13.207 13.895C13.8822 13.219 15.059 13.2178 15.7354 13.895C16.4323 14.5919 16.4324 15.7265 15.7354 16.4233L13.7461 18.4116C13.3027 18.8556 12.712 19.1001 12.084 19.1001C11.4567 19.1 10.8667 18.8554 10.4229 18.4116L9.62793 17.6157C9.18401 17.1721 8.93945 16.582 8.93945 15.9546C8.93946 15.3272 9.18399 14.7361 9.62793 14.2925L13.6055 10.3159Z" fill="#4A4674" stroke="#4A4674" stroke-width="0.2"/>
<path d="M12.125 5.96289C12.4911 5.96293 12.7871 6.25919 12.7871 6.625C12.7871 6.99081 12.4911 7.28707 12.125 7.28711H6.5C6.13384 7.28711 5.83789 6.99083 5.83789 6.625C5.83789 6.25917 6.13383 5.96289 6.5 5.96289H12.125Z" fill="#4A4674" stroke="#4A4674" stroke-width="0.2"/>
<path d="M9.3125 8.77539C9.67865 8.77541 9.97461 9.07168 9.97461 9.4375C9.97461 9.80332 9.67865 10.0996 9.3125 10.0996H6.5C6.13384 10.0996 5.83789 9.80333 5.83789 9.4375C5.83789 9.07167 6.13383 8.77539 6.5 8.77539H9.3125Z" fill="#4A4674" stroke="#4A4674" stroke-width="0.2"/>
</svg>
