<svg width="300" height="215" viewBox="0 0 300 215" fill="none" xmlns="http://www.w3.org/2000/svg">
<g clip-path="url(#clip0_299_42)">
<g opacity="0.35">
<path d="M277.928 150.958C273.138 133.766 288.368 133.106 288.705 110.956C288.841 101.894 283.883 92.6706 271.94 88.4374C266.069 86.3596 260.218 84.9291 255.001 81.6215C243.098 74.0872 243.318 59.7436 240.068 47.523C232.948 20.6675 177.095 -0.673264 149.32 0.0193223C129.3 0.517726 120.063 10.1686 101.81 27.1597C89.324 38.8106 67.3166 37.7362 73.7311 67.7763C79.4401 94.5347 65.9637 92.5476 53.6655 102.425C41.3672 112.302 32.3377 124.044 37.2376 137.378C42.6423 152.091 9.56648 160.538 3.66332 179.619C-0.336857 192.565 20.6802 193.652 34.9851 193.652C49.2899 193.652 171.664 192.552 223.42 194.079C237.356 194.494 281.805 198.287 288.09 180.92C292.336 169.114 281.274 162.965 277.928 150.958Z" fill="#EED5D5"/>
</g>
<path d="M293.818 145.605C283.462 169.677 263.545 189.329 239.654 199.976" stroke="#C3ECFE" stroke-width="1.39" stroke-miterlimit="10"/>
<path d="M290.809 152.007C294.446 148.958 296.868 144.704 297.631 140.019C297.812 138.88 297.851 137.585 297.087 136.724C296.886 136.475 296.6 136.309 296.285 136.258C296.03 136.267 295.78 136.335 295.555 136.456C295.331 136.578 295.137 136.749 294.99 136.957C293.191 138.977 292.569 141.773 292.258 144.459C291.948 147.146 291.365 149.113 290.809 152.007Z" fill="#50B259"/>
<path d="M285.87 160.207C287.997 155.963 288.533 151.097 287.378 146.492C287.093 145.378 286.614 144.174 285.572 143.689C285.288 143.539 284.958 143.499 284.646 143.579C284.416 143.689 284.215 143.851 284.058 144.052C283.901 144.253 283.792 144.488 283.74 144.737C282.892 147.327 283.43 150.116 284.206 152.699C284.983 155.282 285.229 157.333 285.87 160.207Z" fill="#50B359"/>
<path d="M278.64 170.298C281.273 166.347 282.401 161.581 281.818 156.867C281.669 155.728 281.339 154.473 280.361 153.864C280.099 153.682 279.778 153.604 279.462 153.644C278.963 153.735 278.64 154.22 278.419 154.68C277.261 157.126 277.449 159.981 277.908 162.641C278.368 165.302 278.361 167.36 278.64 170.298Z" fill="#50B259"/>
<path d="M270.335 179.14C272.966 175.188 274.092 170.422 273.507 165.709C273.364 164.57 273.034 163.314 272.057 162.7C271.794 162.518 271.474 162.439 271.157 162.479C270.914 162.561 270.694 162.697 270.513 162.878C270.332 163.059 270.196 163.279 270.115 163.522C268.956 165.962 269.144 168.816 269.603 171.483C270.063 174.15 270.057 176.202 270.335 179.14Z" fill="#50B259"/>
<path d="M257.895 189.341C260.916 185.68 262.523 181.057 262.426 176.312C262.426 175.16 262.206 173.878 261.293 173.172C261.05 172.964 260.739 172.854 260.419 172.862C260.171 172.916 259.938 173.027 259.741 173.186C259.543 173.346 259.385 173.549 259.28 173.781C257.875 176.092 257.765 178.959 257.947 181.652C258.128 184.344 257.908 186.39 257.882 189.341" fill="#C3ECFE"/>
<path d="M248.147 195.86C251.204 192.418 253.056 188.073 253.422 183.484C253.519 182.338 253.487 181.043 252.775 180.247C252.689 180.133 252.582 180.037 252.458 179.966C252.335 179.895 252.198 179.85 252.056 179.833C251.623 179.833 251.254 180.208 250.982 180.61C249.532 182.726 249.137 185.555 249.008 188.254C248.878 190.953 248.464 192.953 248.134 195.879" fill="#C3ECFE"/>
<path d="M283.41 163.793C288.314 164.554 293.329 163.594 297.605 161.075C298.654 160.428 299.741 159.618 299.967 158.486C300.043 158.17 299.997 157.837 299.838 157.554C299.663 157.362 299.445 157.214 299.202 157.122C298.959 157.029 298.698 156.996 298.44 157.023C295.637 156.984 292.945 158.363 290.543 159.916C288.142 161.47 286.142 162.331 283.423 163.8" fill="#50B259"/>
<path d="M277.565 171.457C282.149 173.364 287.25 173.629 292.006 172.208C293.171 171.858 294.427 171.302 294.925 170.227C295.073 169.94 295.108 169.607 295.022 169.295C294.898 169.065 294.722 168.868 294.507 168.72C294.292 168.571 294.045 168.476 293.786 168.441C291.074 167.735 288.135 168.441 285.43 169.366C282.724 170.292 280.582 170.661 277.565 171.464" fill="#50B259"/>
<path d="M268.847 180.357C272.952 183.146 277.898 184.425 282.841 183.975C284.051 183.865 285.397 183.574 286.077 182.616C286.278 182.364 286.377 182.045 286.355 181.723C286.284 181.218 285.792 180.881 285.32 180.648C282.808 179.406 279.779 179.503 276.944 179.878C274.109 180.254 271.941 180.176 268.827 180.357" fill="#50B259"/>
<path d="M256.639 190.636C261.26 192.444 266.365 192.594 271.086 191.063C272.245 190.688 273.494 190.105 273.96 189.018C274.103 188.726 274.13 188.391 274.037 188.08C273.909 187.854 273.728 187.663 273.511 187.521C273.294 187.379 273.046 187.291 272.788 187.264C270.063 186.617 267.131 187.374 264.451 188.371C261.772 189.368 259.636 189.769 256.639 190.636Z" fill="#50B259"/>
<path d="M246.794 196.533C250.11 200.225 254.602 202.655 259.506 203.413C260.71 203.601 262.096 203.64 262.995 202.883C263.252 202.685 263.425 202.399 263.481 202.08C263.469 201.82 263.395 201.568 263.265 201.342C263.136 201.117 262.955 200.926 262.736 200.785C260.594 198.979 257.636 198.339 254.794 198.021C251.953 197.704 249.862 197.102 246.794 196.533Z" fill="#C3ECFE"/>
<path d="M235.331 94.962C235.268 94.9576 235.209 94.9312 235.164 94.8873C235.119 94.8435 235.091 94.785 235.085 94.7225L234.994 93.4279C234.992 93.3607 235.016 93.2952 235.06 93.2447C235.105 93.1943 235.167 93.1626 235.234 93.156C235.267 93.1534 235.301 93.1576 235.333 93.1683C235.365 93.1789 235.395 93.196 235.42 93.2183C235.446 93.2406 235.466 93.2678 235.481 93.2983C235.496 93.3287 235.504 93.3618 235.506 93.3955L235.596 94.6901C235.599 94.7238 235.595 94.7576 235.584 94.7897C235.573 94.8217 235.556 94.8513 235.534 94.8767C235.512 94.902 235.484 94.9226 235.454 94.9373C235.424 94.9519 235.39 94.9603 235.357 94.962H235.331Z" fill="#599FD2"/>
<path d="M241.111 153.469L237.712 153.709L233.926 98.8455L235.622 98.7289L237.324 98.606L241.111 153.469Z" fill="#C3ECFE"/>
<path d="M235.648 94.1724L234.961 94.2177L233.926 98.8457L237.324 98.6062L235.648 94.1724Z" fill="#C3ECFE"/>
<path d="M69.1611 107.823C75.2067 140.893 98.2886 170.376 128.892 184.202" stroke="#C3ECFE" stroke-width="1.39" stroke-miterlimit="10"/>
<path d="M70.6888 114.749C67.8243 110.961 66.4141 106.271 66.7146 101.532C66.7858 100.386 67.0447 99.1111 67.9767 98.4444C68.2286 98.2473 68.5445 98.1505 68.8635 98.1725C69.1112 98.2362 69.3405 98.3573 69.5327 98.526C69.725 98.6946 69.8749 98.9061 69.9704 99.1434C71.2649 101.512 71.2649 104.373 70.9607 107.06C70.6565 109.746 70.7924 111.798 70.6888 114.749Z" fill="#50B259"/>
<path d="M73.6538 123.837C72.5291 119.222 73.1012 114.356 75.2655 110.128C75.7898 109.105 76.5277 108.037 77.654 107.797C77.9615 107.711 78.2904 107.746 78.5731 107.895C78.7778 108.051 78.9431 108.253 79.0555 108.484C79.1679 108.716 79.2244 108.971 79.2204 109.228C79.4793 111.921 78.3271 114.536 76.9873 116.885C75.6474 119.235 74.9613 121.17 73.6991 123.837" fill="#50B259"/>
<path d="M78.4499 135.313C76.7627 130.874 76.726 125.977 78.3463 121.513C78.7412 120.432 79.3431 119.287 80.4306 118.924C80.7305 118.808 81.0627 118.808 81.3626 118.924C81.5801 119.059 81.7638 119.241 81.8996 119.458C82.0354 119.674 82.1196 119.919 82.1458 120.173C82.7284 122.814 81.9064 125.552 80.8513 128.044C79.7962 130.536 79.3625 132.575 78.4369 135.346" fill="#50B259"/>
<path d="M84.5735 145.754C82.8885 141.314 82.854 136.417 84.4764 131.954C84.8713 130.873 85.4732 129.721 86.5607 129.365C86.8587 129.251 87.1883 129.251 87.4863 129.365C87.7039 129.497 87.8879 129.679 88.0238 129.894C88.1596 130.11 88.2437 130.354 88.2695 130.608C88.852 133.249 88.0365 135.993 86.9749 138.485C85.9134 140.977 85.4797 142.984 84.5541 145.786" fill="#50B259"/>
<path d="M94.4309 158.473C92.2956 154.232 91.7514 149.365 92.8968 144.757C93.1816 143.637 93.6606 142.433 94.7027 141.948C94.9851 141.799 95.3124 141.76 95.6219 141.838C95.8534 141.947 96.0564 142.109 96.2148 142.31C96.3732 142.511 96.4827 142.746 96.5345 142.997C97.3889 145.586 96.8582 148.369 96.075 150.958C95.2918 153.547 95.0587 155.593 94.4309 158.473Z" fill="#C3ECFE"/>
<path d="M102.451 167.03C100.237 162.995 99.3984 158.348 100.062 153.793C100.224 152.654 100.548 151.398 101.409 150.758C101.629 150.575 101.913 150.486 102.198 150.512C102.632 150.589 102.904 151.062 103.079 151.508C104.017 153.903 103.771 156.745 103.299 159.405C102.826 162.065 102.774 164.104 102.451 167.03Z" fill="#C3ECFE"/>
<path d="M75.2658 127.908C70.3148 127.555 65.6394 125.496 62.0355 122.083C61.1487 121.248 60.2749 120.193 60.3137 119.008C60.3074 118.682 60.4281 118.367 60.6503 118.128C60.8629 117.978 61.1084 117.88 61.3663 117.844C61.6242 117.808 61.8869 117.834 62.1326 117.921C64.8706 118.51 67.1878 120.452 69.1814 122.503C71.1751 124.555 72.9292 125.831 75.2658 127.908Z" fill="#50B259"/>
<path d="M79.2331 136.647C74.3411 137.49 69.308 136.609 64.993 134.155C63.9315 133.553 62.8311 132.737 62.5852 131.566C62.5059 131.251 62.5475 130.919 62.7017 130.634C62.8729 130.437 63.0884 130.284 63.3304 130.187C63.5723 130.091 63.8338 130.053 64.0933 130.077C66.8896 129.993 69.6081 131.326 72.0354 132.841C74.4627 134.355 76.4693 135.177 79.2267 136.634" fill="#C3ECFE"/>
<path d="M85.7574 147.275C81.1304 149.074 76.0234 149.215 71.3037 147.676C70.1451 147.301 68.9023 146.718 68.4363 145.631C68.2935 145.339 68.2658 145.004 68.3586 144.692C68.4892 144.467 68.671 144.276 68.8891 144.135C69.1073 143.993 69.3557 143.904 69.6144 143.877C72.3394 143.229 75.2651 143.993 77.9448 144.99C80.6245 145.987 82.7606 146.401 85.7574 147.275Z" fill="#50B259"/>
<path d="M95.3631 160.014C90.4532 160.745 85.4416 159.752 81.1812 157.204C80.1326 156.557 79.0517 155.742 78.8381 154.576C78.7581 154.261 78.8045 153.926 78.9675 153.644C79.1436 153.452 79.3627 153.305 79.6069 153.214C79.851 153.122 80.1132 153.09 80.3721 153.12C83.1748 153.12 85.861 154.492 88.2495 156.059C90.6379 157.625 92.6315 158.499 95.3695 160.014" fill="#50B259"/>
<path d="M103.668 167.962C99.6132 170.828 94.6909 172.2 89.7384 171.846C88.528 171.762 87.1493 171.496 86.4632 170.551C86.2523 170.306 86.1454 169.987 86.1655 169.664C86.2237 169.153 86.7092 168.81 87.1817 168.564C89.6737 167.269 92.6965 167.321 95.538 167.638C98.3796 167.956 100.548 167.845 103.668 167.975" fill="#C3ECFE"/>
<path d="M9.53418 154C43.1149 152.466 77.0193 168.305 97.3891 195.044" stroke="#C3ECFE" stroke-width="1.39" stroke-miterlimit="10"/>
<path d="M16.6223 153.935C12.2872 151.995 7.40022 151.674 2.84829 153.029C1.74791 153.359 0.56987 153.89 0.123249 154.971C-0.0119553 155.261 -0.0350138 155.591 0.0585206 155.897C0.178064 156.122 0.348515 156.317 0.556364 156.465C0.764213 156.613 1.00375 156.711 1.25598 156.751C3.84509 157.489 6.64133 156.829 9.1916 155.935C11.7419 155.042 13.7743 154.731 16.6223 153.935Z" fill="#50B259"/>
<path d="M26.1436 154.777C21.3909 154.713 16.7727 156.355 13.1269 159.405C12.2466 160.149 11.3728 161.107 11.3922 162.259C11.3825 162.578 11.4908 162.889 11.6964 163.133C11.8961 163.291 12.1296 163.402 12.3787 163.456C12.6279 163.51 12.8861 163.505 13.1334 163.444C15.8131 163.088 18.1109 161.379 20.0981 159.56C22.0852 157.741 23.8134 156.621 26.1307 154.79" fill="#50B259"/>
<path d="M38.3709 156.88C33.6652 156.245 28.8878 157.32 24.9076 159.91C23.9431 160.557 22.9657 161.379 22.8298 162.499C22.7788 162.816 22.8481 163.142 23.024 163.411C23.2034 163.593 23.4223 163.731 23.6637 163.814C23.9051 163.897 24.1625 163.923 24.4156 163.89C27.1213 163.89 29.5939 162.453 31.8011 160.88C34.0083 159.308 35.853 158.414 38.3709 156.88Z" fill="#50B259"/>
<path d="M49.95 160.499C45.2454 159.856 40.4663 160.922 36.4802 163.502C35.5158 164.15 34.5384 164.972 34.4089 166.091C34.3579 166.409 34.4272 166.735 34.6031 167.004C34.7825 167.186 35.0014 167.324 35.2428 167.407C35.4842 167.49 35.7416 167.516 35.9948 167.483C38.6939 167.483 41.173 166.046 43.3802 164.473C45.5874 162.9 47.4321 162.007 49.95 160.473" fill="#50B259"/>
<path d="M64.5597 167.244C59.9466 166.117 55.0823 166.682 50.8504 168.836C49.8277 169.36 48.7597 170.098 48.5202 171.224C48.4367 171.534 48.4713 171.864 48.6173 172.15C48.7737 172.354 48.9757 172.519 49.2072 172.632C49.4387 172.744 49.6933 172.801 49.9506 172.797C52.6433 173.056 55.2648 171.904 57.6079 170.564C59.9511 169.224 61.8929 168.532 64.5597 167.27" fill="#50B259"/>
<path d="M74.6765 173.173C70.2462 171.921 65.5285 172.148 61.239 173.82C60.1646 174.234 59.0124 174.83 58.5852 175.814C58.4555 176.071 58.4322 176.368 58.5205 176.642C58.6952 177.043 59.2131 177.199 59.692 177.289C62.2358 177.665 64.9479 176.791 67.4594 175.736C69.9708 174.681 71.9256 174.17 74.7024 173.192" fill="#50B259"/>
<path d="M30.4671 155.418C29.0107 150.672 25.9548 146.578 21.8195 143.832C20.8033 143.184 19.5799 142.537 18.4342 142.848C18.1166 142.918 17.837 143.105 17.651 143.372C17.5544 143.613 17.5164 143.874 17.54 144.133C17.5636 144.392 17.6483 144.641 17.787 144.861C18.9715 147.398 21.3858 149.224 23.8325 150.686C26.2792 152.149 27.9233 153.593 30.4671 155.399" fill="#50B259"/>
<path d="M39.8788 157.321C39.5958 152.367 37.6086 147.663 34.2539 144.006C33.4319 143.113 32.3833 142.22 31.1988 142.246C30.8746 142.236 30.5591 142.352 30.3185 142.569C30.1655 142.779 30.0651 143.023 30.0256 143.28C29.9862 143.536 30.009 143.799 30.0919 144.045C30.6357 146.796 32.5451 149.139 34.5646 151.165C36.5841 153.191 37.8463 154.965 39.8788 157.321Z" fill="#50B259"/>
<path d="M51.6976 161.308C52.4119 156.398 51.4057 151.392 48.8495 147.139C48.2023 146.09 47.3738 145.01 46.2087 144.802C45.8919 144.729 45.5592 144.778 45.2766 144.938C45.0865 145.116 44.9407 145.335 44.8507 145.579C44.7608 145.823 44.7293 146.085 44.7588 146.343C44.7588 149.146 46.1504 151.825 47.7233 154.214C49.2962 156.602 50.17 158.589 51.6976 161.334" fill="#50B259"/>
<path d="M66.2746 167.806C65.8907 162.862 63.8072 158.204 60.3779 154.621C59.53 153.741 58.4684 152.874 57.2839 152.926C56.959 152.921 56.6453 153.044 56.4101 153.269C56.2624 153.483 56.1678 153.729 56.134 153.986C56.1002 154.244 56.1283 154.506 56.2159 154.751C56.8179 157.482 58.805 159.787 60.8504 161.767C62.8958 163.748 64.2098 165.489 66.3005 167.806" fill="#C3ECFE"/>
<path d="M75.9124 174.15C77.7886 169.555 78.0173 164.453 76.5596 159.709C76.2036 158.544 75.6405 157.288 74.5595 156.803C74.2726 156.652 73.9381 156.62 73.6275 156.712C73.3995 156.837 73.2043 157.014 73.058 157.229C72.9118 157.444 72.8185 157.691 72.786 157.949C72.0934 160.667 72.786 163.606 73.7634 166.305C74.7408 169.004 75.0579 171.108 75.9124 174.15Z" fill="#50B259"/>
<path d="M115.655 168.208C113.2 165.939 110.293 164.214 107.126 163.146C103.958 162.077 100.601 161.689 97.2727 162.007C92.7806 162.46 87.8872 164.861 86.9163 169.256C86.4438 171.354 86.6121 174.137 84.6249 174.959C82.6378 175.781 80.806 173.768 78.7994 173.095C75.4854 171.981 71.6794 175.775 72.8186 179.095C73.3235 180.603 74.6051 181.917 74.495 183.503C74.3526 185.665 71.6794 186.791 69.5369 186.455C67.3944 186.118 65.5043 184.869 63.4072 184.338C61.31 183.807 58.585 184.338 57.8471 186.377C57.1998 188.202 58.326 190.655 56.8956 191.963C56.2191 192.462 55.3992 192.727 54.5589 192.72C36.3769 194.448 16.3695 197.711 18.3826 200.941C18.9392 201.821 20.3632 201.543 21.4054 201.523C60.1125 200.921 95.2726 200.345 133.96 201.523" fill="#EED5D5"/>
<path d="M224.495 107.409L235.965 152.401L233.784 152.958L219.589 108.658" fill="#88D2FF"/>
<path d="M213.873 108.438C208.015 109.927 201.776 105.383 199.97 98.3085C198.164 91.2338 201.465 84.2496 207.323 82.7738C213.181 81.2981 219.42 85.829 221.226 92.9037C223.032 99.9785 219.731 106.943 213.873 108.438ZM208.326 86.6963C204.643 87.6349 202.656 92.3924 203.912 97.3052C205.167 102.218 209.18 105.441 212.87 104.496C216.559 103.551 218.54 98.8004 217.291 93.8876C216.042 88.9748 212.015 85.7513 208.326 86.6963Z" fill="#9BDFFF"/>
<path d="M219.906 95.9329C220.094 96.6773 223.395 109.61 223.395 109.61C223.477 109.94 223.427 110.29 223.253 110.583C223.08 110.876 222.798 111.089 222.469 111.176C222.139 111.259 221.789 111.208 221.496 111.035C221.203 110.862 220.989 110.58 220.903 110.251L220.508 108.704C220.508 108.704 218.676 104.82 213.614 106.406C213.614 106.406 219.653 105.649 219.86 105.668C220.068 105.687 219.718 95.1821 219.906 95.9329Z" fill="#C0EDFF"/>
<path d="M222.968 113.144C222.115 113.36 221.212 113.229 220.456 112.78C219.7 112.331 219.153 111.601 218.935 110.749C218.816 110.16 218.597 109.595 218.288 109.079C217.641 108.147 216.294 107.784 213.847 108.432L213.2 104.975C214.495 104.561 215.414 103.946 216.437 104.017L217.835 103.849C217.835 102.787 217.835 101.389 217.796 100.321C217.757 99.2532 219.252 97.9004 219.252 97.0849C219.252 95.6155 217.744 94.1398 219.563 93.8938L221.349 93.6543L225.304 109.124C225.518 109.967 225.394 110.86 224.957 111.611C224.52 112.363 223.806 112.913 222.968 113.144Z" fill="#9BDFFF"/>
<path d="M226.185 107.002L226.217 153.431H228.469L231.246 106.995" fill="#88D2FF"/>
<path d="M225.744 92.1205C225.744 84.8192 230.657 78.8707 236.703 78.8643C242.748 78.8578 247.674 84.7998 247.706 92.1076C247.739 99.4153 242.793 105.357 236.748 105.364C230.702 105.37 225.751 99.4283 225.744 92.1205ZM229.809 92.1205C229.809 97.1822 232.909 101.305 236.722 101.299C240.534 101.292 243.622 97.1757 243.615 92.1076C243.609 87.0394 240.509 82.9227 236.703 82.9292C232.897 82.9356 229.803 87.0523 229.809 92.1205Z" fill="#9BDFFF"/>
<path d="M227.776 94.7484C227.776 95.5186 227.776 108.865 227.776 108.865C227.776 109.209 227.913 109.538 228.156 109.781C228.398 110.024 228.728 110.16 229.071 110.16C229.414 110.16 229.744 110.024 229.986 109.781C230.229 109.538 230.365 109.209 230.365 108.865V107.267C230.365 107.267 231.175 103.027 236.476 103.331C236.476 103.331 230.437 104.102 230.242 104.166C230.048 104.231 227.776 93.9781 227.776 94.7484Z" fill="#C0EDFF"/>
<path d="M229.078 112.18C229.958 112.178 230.801 111.827 231.422 111.205C232.043 110.582 232.392 109.739 232.392 108.859C232.357 108.261 232.422 107.662 232.586 107.086C232.988 106.024 234.198 105.351 236.729 105.351L236.47 101.843C235.124 101.765 234.069 101.39 233.085 101.72L231.687 101.901C231.428 100.878 231.104 99.5189 230.852 98.4768C230.599 97.4347 228.839 96.4767 228.67 95.7C228.314 94.2825 229.402 92.4636 227.583 92.6902L225.79 92.9038V108.866C225.792 109.74 226.138 110.578 226.753 111.198C227.369 111.818 228.204 112.171 229.078 112.18Z" fill="#9BDFFF"/>
<path d="M249.83 93.3461L254.181 94.132C254.378 94.1677 254.554 94.2804 254.668 94.4454C254.783 94.6105 254.827 94.8142 254.791 95.0118L245.718 145.237L239.877 144.182L248.95 93.9567C248.986 93.759 249.099 93.5836 249.264 93.4691C249.429 93.3546 249.633 93.3104 249.83 93.3461Z" fill="#88D2FF"/>
<path d="M249.828 93.3436L254.179 94.1295C254.277 94.1472 254.37 94.184 254.454 94.2378C254.537 94.2916 254.61 94.3613 254.666 94.443C254.723 94.5247 254.763 94.6168 254.784 94.714C254.805 94.8112 254.807 94.9115 254.789 95.0094L253.917 99.8376L248.076 98.7824L248.948 93.9542C248.984 93.7566 249.097 93.5812 249.262 93.4667C249.427 93.3522 249.631 93.3079 249.828 93.3436Z" fill="#FE7D90"/>
<g opacity="0.5">
<path d="M248.105 98.7747L247.788 100.526L253.629 101.582L253.946 99.8299L248.105 98.7747Z" fill="#599FD2"/>
</g>
<path d="M270.633 105.174L261.101 101.417L240.78 152.978L250.313 156.735L270.633 105.174Z" fill="#C3ECFE"/>
<path d="M266.827 105.616L269.966 106.853" stroke="#CCF3FF" stroke-width="1.39" stroke-miterlimit="10"/>
<path d="M265.766 108.296L268.911 109.532" stroke="#CCF3FF" stroke-width="1.39" stroke-miterlimit="10"/>
<path d="M264.711 110.969L267.857 112.212" stroke="#CCF3FF" stroke-width="1.39" stroke-miterlimit="10"/>
<path d="M262.121 113.041L266.801 114.885" stroke="#CCF3FF" stroke-width="1.39" stroke-miterlimit="10"/>
<path d="M262.601 116.329L265.74 117.565" stroke="#CCF3FF" stroke-width="1.39" stroke-miterlimit="10"/>
<path d="M261.545 119.008L264.684 120.245" stroke="#CCF3FF" stroke-width="1.39" stroke-miterlimit="10"/>
<path d="M260.49 121.682L263.63 122.924" stroke="#CCF3FF" stroke-width="1.39" stroke-miterlimit="10"/>
<path d="M257.901 123.759L262.575 125.598" stroke="#CCF3FF" stroke-width="1.39" stroke-miterlimit="10"/>
<path d="M258.38 127.041L261.519 128.277" stroke="#CCF3FF" stroke-width="1.39" stroke-miterlimit="10"/>
<path d="M257.325 129.721L260.464 130.957" stroke="#CCF3FF" stroke-width="1.39" stroke-miterlimit="10"/>
<path d="M256.27 132.394L259.409 133.637" stroke="#CCF3FF" stroke-width="1.39" stroke-miterlimit="10"/>
<path d="M253.675 134.472L258.355 136.31" stroke="#CCF3FF" stroke-width="1.39" stroke-miterlimit="10"/>
<path d="M254.16 137.753L257.299 138.99" stroke="#CCF3FF" stroke-width="1.39" stroke-miterlimit="10"/>
<path d="M253.099 140.433L256.244 141.669" stroke="#CCF3FF" stroke-width="1.39" stroke-miterlimit="10"/>
<path d="M252.043 143.106L255.189 144.349" stroke="#CCF3FF" stroke-width="1.39" stroke-miterlimit="10"/>
<path d="M249.454 145.184L254.134 147.022" stroke="#CCF3FF" stroke-width="1.39" stroke-miterlimit="10"/>
<path d="M249.934 148.466L253.073 149.702" stroke="#CCF3FF" stroke-width="1.39" stroke-miterlimit="10"/>
<path d="M248.878 151.146L252.017 152.382" stroke="#CCF3FF" stroke-width="1.39" stroke-miterlimit="10"/>
<path d="M247.823 153.819L250.963 155.062" stroke="#CCF3FF" stroke-width="1.39" stroke-miterlimit="10"/>
<path d="M257.267 203.808H209.744L201.763 131.921C201.739 131.706 201.762 131.487 201.828 131.281C201.894 131.074 202.003 130.884 202.148 130.722C202.292 130.56 202.47 130.43 202.668 130.342C202.866 130.253 203.08 130.207 203.297 130.206H263.714C263.931 130.207 264.146 130.253 264.344 130.342C264.542 130.43 264.719 130.56 264.863 130.722C265.008 130.884 265.117 131.074 265.183 131.281C265.25 131.487 265.272 131.706 265.248 131.921L257.267 203.808Z" fill="#5D66D3"/>
<path d="M197.679 206.941L283.547 208.112C284.511 208.112 287.534 207.187 282.317 203.821C277.902 200.973 263.934 203.536 263.934 203.536C263.934 203.536 267.17 202.242 267.17 200.552C267.17 198.863 265.876 197.393 264.348 196.668C262.774 196.055 261.075 195.833 259.397 196.021C255.97 196.217 252.599 196.972 249.416 198.254C249.754 198.047 250.046 197.772 250.273 197.447C250.501 197.121 250.659 196.753 250.738 196.364C250.817 195.975 250.815 195.574 250.732 195.186C250.65 194.798 250.488 194.431 250.258 194.108C250.027 193.785 249.733 193.513 249.393 193.308C249.052 193.104 248.674 192.972 248.28 192.92C247.887 192.868 247.487 192.898 247.106 193.007C246.724 193.116 246.369 193.303 246.063 193.555C248.205 190.649 251.526 177.774 241.331 172.104C228.554 164.984 218.851 170.842 216.78 175.121C215.731 170.92 210.909 167.742 207.718 166.952C200.475 165.153 195.756 165.657 188.999 168.842C186.604 169.962 183.406 173.774 181.814 175.884C179.322 179.186 178.934 183.574 178.798 187.704C178.694 190.802 178.681 193.905 178.759 197.012" fill="#EED5D5"/>
<path opacity="0.4" d="M214.43 211.517C214.43 213 185.6 214.203 150.039 214.203C114.478 214.203 85.6221 212.987 85.6221 211.517C85.6221 210.048 114.452 208.831 150.013 208.831C185.575 208.831 214.43 210.035 214.43 211.517Z" fill="#A1D7E5"/>
<path d="M151.236 24.0981C149.52 24.0981 147.873 24.7801 146.66 25.994C145.446 27.2079 144.764 28.8542 144.764 30.5709V38.869H157.709C157.709 38.869 157.709 32.2927 157.709 30.5903C157.712 29.7387 157.546 28.8949 157.222 28.1073C156.898 27.3198 156.422 26.6039 155.82 26.0008C155.219 25.3977 154.505 24.9192 153.718 24.5927C152.931 24.2662 152.088 24.0981 151.236 24.0981ZM151.236 34.2669C150.52 34.2669 149.819 34.0543 149.223 33.656C148.627 33.2577 148.162 32.6916 147.888 32.0292C147.613 31.3669 147.541 30.6381 147.681 29.935C147.821 29.2318 148.166 28.586 148.673 28.079C149.18 27.5721 149.826 27.2269 150.529 27.087C151.232 26.9471 151.961 27.0189 152.624 27.2933C153.286 27.5676 153.852 28.0322 154.25 28.6283C154.649 29.2244 154.861 29.9252 154.861 30.6421C154.861 31.6035 154.479 32.5254 153.8 33.2052C153.12 33.885 152.198 34.2669 151.236 34.2669Z" fill="#E8505B"/>
<g opacity="0.45">
<path d="M154.88 30.6422C154.88 29.6809 154.499 28.7589 153.819 28.0792C153.139 27.3994 152.217 27.0175 151.256 27.0175C151.073 27.0216 150.892 27.0389 150.712 27.0693C151.158 26.814 151.668 26.6926 152.181 26.7197C152.658 26.7189 153.129 26.8121 153.569 26.9939C154.01 27.1758 154.41 27.4428 154.746 27.7795C155.083 28.1163 155.35 28.5162 155.532 28.9564C155.714 29.3965 155.807 29.8683 155.806 30.3445C155.874 31.0645 155.675 31.7843 155.246 32.3668C154.818 32.9493 154.19 33.3538 153.482 33.5032C153.9 33.1485 154.24 32.7112 154.48 32.2189C154.721 31.7265 154.857 31.1897 154.88 30.6422ZM146.77 38.0147V29.7296C146.737 28.6769 146.968 27.6327 147.441 26.6921C147.915 25.7514 148.617 24.9443 149.482 24.3442C148.133 24.7317 146.946 25.5473 146.101 26.6682C145.256 27.789 144.798 29.1543 144.796 30.5581V38.8691H157.741V38.0471L146.77 38.0147Z" fill="#B03D44"/>
</g>
<path d="M204.604 39.2705H95.4148C91.933 39.2705 89.1104 42.0931 89.1104 45.575V205.181C89.1104 208.662 91.933 211.485 95.4148 211.485H204.604C208.086 211.485 210.908 208.662 210.908 205.181V45.575C210.908 42.0931 208.086 39.2705 204.604 39.2705Z" fill="#474EBB"/>
<path d="M203.854 46.0278H96.1729V204.734H203.854V46.0278Z" fill="#D67086"/>
<path d="M199.718 50.876H100.315V199.886H199.718V50.876Z" fill="white"/>
<path d="M189.186 42.1052V48.5779H110.865V42.1052C110.864 41.6462 110.934 41.1899 111.072 40.7524C111.361 39.8311 111.935 39.026 112.713 38.4543C113.491 37.8827 114.431 37.5743 115.396 37.5742H184.655C185.857 37.5742 187.009 38.0516 187.859 38.9013C188.708 39.751 189.186 40.9035 189.186 42.1052Z" fill="#E8505B"/>
<path opacity="0.45" d="M189.186 46.9792V48.5779H110.866V43.8916C110.853 42.8414 110.922 41.7918 111.073 40.7524C111.361 39.8311 111.936 39.026 112.714 38.4543C113.491 37.8827 114.431 37.5743 115.397 37.5742H115.953C114.669 38.8106 113.925 40.5041 113.882 42.2864V46.9727L189.186 46.9792Z" fill="#B03D44"/>
<g opacity="0.15">
<path d="M127.876 66.7148H144.026" stroke="#0964AF" stroke-width="3.12" stroke-linecap="round" stroke-linejoin="round"/>
<path d="M180.26 71.8672H192.532" stroke="#0964AF" stroke-width="3.12" stroke-linecap="round" stroke-linejoin="round"/>
<path d="M127.876 71.8672H174.939" stroke="#0964AF" stroke-width="3.12" stroke-linecap="round" stroke-linejoin="round"/>
<path d="M127.876 77.0132H192.532" stroke="#0964AF" stroke-width="3.12" stroke-linecap="round" stroke-linejoin="round"/>
<path d="M171.981 82.1587H192.532" stroke="#0964AF" stroke-width="3.12" stroke-linecap="round" stroke-linejoin="round"/>
<path d="M127.876 82.1587H166.868" stroke="#0964AF" stroke-width="3.12" stroke-linecap="round" stroke-linejoin="round"/>
<path d="M149.32 66.7148H192.533" stroke="#0964AF" stroke-width="3.12" stroke-linecap="round" stroke-linejoin="round"/>
</g>
<g opacity="0.15">
<path d="M127.876 103.72H144.026" stroke="#0964AF" stroke-width="3.12" stroke-linecap="round" stroke-linejoin="round"/>
<path d="M180.26 108.872H192.532" stroke="#0964AF" stroke-width="3.12" stroke-linecap="round" stroke-linejoin="round"/>
<path d="M127.876 108.872H174.939" stroke="#0964AF" stroke-width="3.12" stroke-linecap="round" stroke-linejoin="round"/>
<path d="M127.876 114.018H192.532" stroke="#0964AF" stroke-width="3.12" stroke-linecap="round" stroke-linejoin="round"/>
<path d="M171.981 119.164H192.532" stroke="#0964AF" stroke-width="3.12" stroke-linecap="round" stroke-linejoin="round"/>
<path d="M127.876 119.164H166.868" stroke="#0964AF" stroke-width="3.12" stroke-linecap="round" stroke-linejoin="round"/>
<path d="M149.32 103.72H192.533" stroke="#0964AF" stroke-width="3.12" stroke-linecap="round" stroke-linejoin="round"/>
</g>
<g opacity="0.15">
<path d="M127.876 139.43H144.026" stroke="#0964AF" stroke-width="3.12" stroke-linecap="round" stroke-linejoin="round"/>
<path d="M180.26 144.583H192.532" stroke="#0964AF" stroke-width="3.12" stroke-linecap="round" stroke-linejoin="round"/>
<path d="M127.876 144.583H174.939" stroke="#0964AF" stroke-width="3.12" stroke-linecap="round" stroke-linejoin="round"/>
<path d="M127.876 149.729H192.532" stroke="#0964AF" stroke-width="3.12" stroke-linecap="round" stroke-linejoin="round"/>
<path d="M171.981 154.874H192.532" stroke="#0964AF" stroke-width="3.12" stroke-linecap="round" stroke-linejoin="round"/>
<path d="M127.876 154.874H166.868" stroke="#0964AF" stroke-width="3.12" stroke-linecap="round" stroke-linejoin="round"/>
<path d="M149.32 139.43H192.533" stroke="#0964AF" stroke-width="3.12" stroke-linecap="round" stroke-linejoin="round"/>
</g>
<g opacity="0.15">
<path d="M127.876 175.788H144.026" stroke="#0964AF" stroke-width="3.12" stroke-linecap="round" stroke-linejoin="round"/>
<path d="M180.26 180.934H192.532" stroke="#0964AF" stroke-width="3.12" stroke-linecap="round" stroke-linejoin="round"/>
<path d="M127.876 180.934H174.939" stroke="#0964AF" stroke-width="3.12" stroke-linecap="round" stroke-linejoin="round"/>
<path d="M127.876 186.086H192.532" stroke="#0964AF" stroke-width="3.12" stroke-linecap="round" stroke-linejoin="round"/>
<path d="M171.981 191.231H192.532" stroke="#0964AF" stroke-width="3.12" stroke-linecap="round" stroke-linejoin="round"/>
<path d="M127.876 191.231H166.868" stroke="#0964AF" stroke-width="3.12" stroke-linecap="round" stroke-linejoin="round"/>
<path d="M149.32 175.788H192.533" stroke="#0964AF" stroke-width="3.12" stroke-linecap="round" stroke-linejoin="round"/>
</g>
<path d="M121.067 65.1616H108.982C108.232 65.1616 107.623 65.7702 107.623 66.5209V78.6056C107.623 79.3563 108.232 79.9649 108.982 79.9649H121.067C121.818 79.9649 122.426 79.3563 122.426 78.6056V66.5209C122.426 65.7702 121.818 65.1616 121.067 65.1616Z" stroke="#2396B5" stroke-width="1.16" stroke-miterlimit="10"/>
<path d="M121.067 102.05H108.982C108.232 102.05 107.623 102.658 107.623 103.409V115.494C107.623 116.244 108.232 116.853 108.982 116.853H121.067C121.818 116.853 122.426 116.244 122.426 115.494V103.409C122.426 102.658 121.818 102.05 121.067 102.05Z" stroke="#2396B5" stroke-width="1.16" stroke-miterlimit="10"/>
<path d="M121.067 138.932H108.982C108.232 138.932 107.623 139.54 107.623 140.291V152.376C107.623 153.126 108.232 153.735 108.982 153.735H121.067C121.818 153.735 122.426 153.126 122.426 152.376V140.291C122.426 139.54 121.818 138.932 121.067 138.932Z" stroke="#2396B5" stroke-width="1.16" stroke-miterlimit="10"/>
<path d="M121.067 175.82H108.982C108.232 175.82 107.623 176.428 107.623 177.179V189.264C107.623 190.014 108.232 190.623 108.982 190.623H121.067C121.818 190.623 122.426 190.014 122.426 189.264V177.179C122.426 176.428 121.818 175.82 121.067 175.82Z" stroke="#2396B5" stroke-width="1.16" stroke-miterlimit="10"/>
<path d="M109.448 69.9579L115.028 76.6961L125.76 59.7568" stroke="#FFA829" stroke-width="3.47" stroke-linecap="round" stroke-linejoin="round"/>
<path d="M109.448 106.536L115.028 113.274L125.76 96.3345" stroke="#FFA829" stroke-width="3.47" stroke-linecap="round" stroke-linejoin="round"/>
<path d="M68.3071 117.28C68.3917 117.962 68.5435 118.635 68.7602 119.287C68.6782 119.395 68.5714 119.483 68.4486 119.541C68.3258 119.6 68.1907 119.628 68.0547 119.623" fill="#FFB392"/>
<path opacity="0.4" d="M82.1462 211.692C82.1462 212.456 75.2333 213.084 66.7087 213.084C58.184 213.084 51.2646 212.436 51.2646 211.692C51.2646 210.948 58.1776 210.3 66.7087 210.3C75.2398 210.3 82.1462 210.896 82.1462 211.692Z" fill="#A1D7E5"/>
<path d="M73.7568 125.902L70.3457 140.886C70.3231 140.984 70.3211 141.085 70.3398 141.183C70.3584 141.281 70.3973 141.374 70.454 141.456C70.5106 141.538 70.5837 141.608 70.6687 141.66C70.7537 141.713 70.8487 141.747 70.9476 141.76L81.563 143.281C81.7418 143.31 81.9249 143.269 82.0743 143.167C82.2237 143.064 82.328 142.908 82.3656 142.731L85.7768 127.747C85.7993 127.65 85.8015 127.55 85.7833 127.452C85.765 127.354 85.7267 127.261 85.6707 127.179C85.6148 127.097 85.5424 127.027 85.4581 126.975C85.3739 126.922 85.2796 126.887 85.1813 126.873L74.5594 125.352C74.3812 125.328 74.2004 125.371 74.0521 125.472C73.9038 125.574 73.7985 125.727 73.7568 125.902Z" fill="#57C6F2"/>
<path d="M74.4244 126.381L71.1621 140.737L81.7063 142.246L84.975 127.895L74.4244 126.381Z" fill="#E5F8FF"/>
<path d="M83.8544 128.957L74.8896 127.669" stroke="#A1D2F0" stroke-width="0.57" stroke-linecap="round" stroke-linejoin="round"/>
<path d="M83.5501 130.31L74.5918 129.022" stroke="#A1D2F0" stroke-width="0.57" stroke-linecap="round" stroke-linejoin="round"/>
<path d="M79.8226 131.436L74.2236 130.633" stroke="#A1D2F0" stroke-width="0.57" stroke-linecap="round" stroke-linejoin="round"/>
<path d="M79.4212 132.601L73.8223 131.798" stroke="#A1D2F0" stroke-width="0.57" stroke-linecap="round" stroke-linejoin="round"/>
<path d="M79.0257 133.766L73.4268 132.964" stroke="#A1D2F0" stroke-width="0.57" stroke-linecap="round" stroke-linejoin="round"/>
<path d="M81.0775 140.213L75.4785 139.404" stroke="#A1D2F0" stroke-width="0.57" stroke-linecap="round" stroke-linejoin="round"/>
<path d="M69.6733 141.068C70.251 140.745 70.754 140.304 71.1491 139.773C71.5698 139.268 71.9906 138.763 72.4437 138.265C72.6227 138.088 72.7464 137.863 72.7997 137.618C72.0941 137.559 71.6346 138.479 70.929 138.53C71.2592 137.366 71.7309 136.246 72.3336 135.197C72.426 135.081 72.4923 134.946 72.528 134.802C72.5637 134.658 72.5681 134.508 72.5408 134.362C71.7919 134.686 71.1275 135.177 70.5989 135.799C70.2055 136.219 69.8482 136.671 69.5309 137.152C68.6291 138.591 67.9851 140.177 67.6279 141.838" fill="#F2A181"/>
<path d="M66.6312 153.139L59.0451 146.744C59.0451 146.744 55.5174 151.528 56.8444 156.149C57.4916 158.421 58.3201 159.547 58.6761 160.622C59.0321 161.696 61.2653 175.878 61.1229 176.92C60.9805 177.962 59.7247 180.875 59.2587 183.943C58.6956 187.626 58.7927 199.64 58.3525 202.824C57.9124 206.009 60.8575 206.546 61.0193 205.472C62.4045 196.261 66.0551 181.911 66.5665 177.309C67.0778 172.706 66.8513 164.272 66.6312 153.139Z" fill="#FFBE9D"/>
<path d="M66.6501 162.214L63.3555 169.781C64.7624 172.197 65.5516 174.922 65.6533 177.716C65.7116 179.179 65.5821 180.642 65.6209 182.098C65.6233 182.206 65.6385 182.312 65.6662 182.416C66.1064 180.254 66.4365 178.467 66.566 177.309C66.9284 174.072 66.9284 168.894 66.8119 162.208L66.6501 162.214Z" fill="#F2A181"/>
<path d="M61.5305 202.514C61.5305 202.514 60.8249 205.854 61.0126 206.281C61.3713 207.094 61.9089 207.815 62.5855 208.391C63.3234 208.864 64.9481 209.42 65.0775 209.621C65.1527 209.725 65.1851 209.854 65.1683 209.982C65.1514 210.109 65.0866 210.226 64.9869 210.307C64.3124 210.78 63.4881 210.989 62.6697 210.896C60.4624 210.527 60.2359 209.556 58.9478 209.401C58.7277 209.401 58.3005 209.699 57.705 209.401C57.4349 209.279 57.208 209.079 57.0543 208.826C56.9006 208.573 56.8273 208.279 56.8442 207.983C57.0053 207.139 57.338 206.337 57.8216 205.627C58.1905 204.941 58.4688 201.828 58.4688 201.828" fill="#FFBE9D"/>
<path d="M65.1554 210.469C65.3172 210.19 65.356 209.776 65.2072 209.673C64.7681 209.369 64.3097 209.094 63.8349 208.851C63.4077 208.65 62.7281 208.475 62.9676 208.605C63.2071 208.734 62.7669 209.219 62.3721 209.194C60.9869 209.109 59.9707 208.19 59.181 207.996C58.0483 207.711 57.5693 206.371 57.5175 206.151C57.1628 206.621 56.8873 207.146 56.7019 207.705C56.5599 208.085 56.5025 208.491 56.5336 208.896C56.6558 209.26 56.6999 209.646 56.6631 210.029C56.9128 210.179 57.1901 210.278 57.4787 210.32C57.7707 210.36 58.0669 210.36 58.359 210.32L58.4561 209.608C58.691 209.605 58.9256 209.629 59.1551 209.679C59.5375 209.787 59.9003 209.955 60.2296 210.177C60.3914 210.365 60.5144 210.708 60.7215 210.825C61.2868 211.101 61.9048 211.254 62.5339 211.271C64.0162 211.368 64.9094 210.935 65.1554 210.469Z" fill="#1B227A"/>
<path d="M76.9803 210.326C76.8185 210.145 75.0385 209.86 74.2423 209.517C73.432 209.107 72.7577 208.471 72.3005 207.686C72.1128 207.239 72.1581 204.973 72.1775 204.022C72.3458 197.465 73.5562 181.438 73.731 177.6C74.0352 170.933 73.1678 164.046 70.6046 153.34L61.0508 146C61.0508 146 58.3711 150.978 59.2643 155.709C59.7886 158.467 62.0735 158.894 62.4619 159.968C62.8502 161.043 68.6304 178.331 68.6304 178.331C67.919 180.887 67.5191 183.519 67.4394 186.17C67.3877 189.665 68.9735 200.216 69.2648 204.229C69.3036 205.019 69.4395 206.896 69.2065 207.498C68.9217 208.229 68.1968 209.09 68.2356 210.016C68.2607 210.313 68.3796 210.595 68.5749 210.821C68.7703 211.046 69.0322 211.204 69.323 211.271C69.9703 211.485 70.3781 211.09 70.6176 211.084C71.9639 211.025 72.3329 211.951 74.6631 211.951C75.5197 211.912 76.3353 211.573 76.9674 210.993C77.0528 210.904 77.1016 210.786 77.104 210.662C77.1064 210.539 77.0623 210.419 76.9803 210.326Z" fill="#FFBE9D"/>
<path d="M77.207 211.148C77.3365 210.851 77.3171 210.43 77.1488 210.359C76.6535 210.126 76.1431 209.927 75.6212 209.763C75.1487 209.64 74.4237 209.582 74.6891 209.666C74.9545 209.75 74.5661 210.313 74.1519 210.346C72.7149 210.488 71.5304 209.75 70.6954 209.698C69.4785 209.608 69.0384 208.358 68.9543 208.151C68.576 208.656 68.285 209.22 68.0934 209.821C68.0027 210.218 68.0027 210.629 68.0934 211.025C68.2667 211.367 68.3638 211.743 68.3782 212.126C68.6614 212.233 68.9622 212.285 69.2649 212.281C69.5713 212.276 69.8758 212.233 70.1711 212.152V211.427C70.4151 211.388 70.6622 211.373 70.909 211.381C71.3338 211.416 71.7422 211.561 72.0936 211.802C72.2822 211.99 72.5009 212.146 72.7408 212.262C73.3536 212.43 73.9932 212.478 74.6244 212.404C76.1326 212.223 76.9675 211.692 77.207 211.148Z" fill="#1B227A"/>
<path d="M59.245 145.935C58.5977 146.654 56.2869 150.505 56.261 153.638C56.2485 155.641 56.6541 157.626 57.452 159.463C58.041 161.172 59.1414 162.7 59.1414 163.023C59.1414 163.347 60.8696 163.554 64.5203 163.321C71.2779 162.894 73.7569 161.625 73.7569 161.625C73.7569 161.625 73.977 158.816 73.2844 152.725C72.9543 149.825 70.4946 145.243 70.4946 145.243" fill="#1B227A"/>
<path d="M53.083 133.41C53.083 133.41 54.1704 138.815 54.4552 139.78C54.74 140.744 56.1511 146.848 57.491 146.744C58.8308 146.641 66.1515 140.492 66.1515 140.492L65.1159 138.42L58.6431 141.495C58.6431 141.495 58.0606 134.511 57.5492 132.847" fill="#FFBE9D"/>
<path d="M55.5752 136.737C56.2225 139.152 57.6594 141.695 58.0737 143.566C58.1578 143.941 62.6046 142.317 62.6046 140.64" fill="#F2A181"/>
<path d="M57.4523 125.921C57.4523 125.921 55.3098 126.148 54.2159 126.976C51.4521 129.093 53.5687 136.776 53.5687 136.776C53.5687 136.776 53.4327 137.184 55.2904 137.08C56.429 137.009 57.5538 136.792 58.6368 136.433L58.0996 130.142" fill="#E8505B"/>
<path d="M55.0051 130.271C55.0051 130.271 54.7656 134.802 55.5877 137.061C56.0983 137.049 56.6061 136.981 57.1023 136.86L55.0051 130.271Z" fill="#B03D44"/>
<path d="M67.6731 111.752C68.9677 113.422 68.7023 115.772 68.3851 117.856C68.2298 118.911 68.068 119.966 67.9062 121.021C67.9296 121.28 67.8893 121.541 67.7887 121.781C67.6881 122.02 67.5304 122.232 67.3293 122.397C67.1281 122.561 66.8897 122.674 66.6349 122.726C66.38 122.777 66.1165 122.765 65.8672 122.691V125.313C64.3699 125.343 62.8768 125.343 61.3881 125.313C61.3867 124.698 61.2543 124.092 60.9997 123.533C60.2683 123.533 59.7828 122.782 59.4915 122.115C59.1748 121.332 58.9067 120.53 58.6889 119.714C58.3355 118.652 58.118 117.549 58.0416 116.432C57.9703 115.304 58.3056 114.188 58.9867 113.286C59.4958 112.716 60.1143 112.254 60.8055 111.927C61.7311 111.442 62.8444 111.06 63.8024 111.487" fill="#FFBE9D"/>
<path d="M66.1254 119.714C65.9297 119.073 65.9734 118.383 66.2484 117.772C66.3353 117.577 66.4713 117.407 66.6433 117.28C66.757 117.198 66.8904 117.147 67.0301 117.132C67.1698 117.117 67.311 117.139 67.4394 117.196C67.6086 117.274 67.749 117.403 67.8407 117.565C68.1309 116.369 68.2249 115.134 68.1191 113.908C68.0648 113.001 67.7519 112.129 67.2173 111.395C66.6827 110.661 65.9489 110.095 65.1028 109.765C61.9376 108.471 57.3937 109.765 56.1121 112.853C55.6314 114.141 55.5057 115.536 55.7482 116.89C55.9908 118.243 56.5926 119.507 57.4908 120.549C59.1349 122.29 61.4974 122.549 63.6852 122.187C64.7985 122.005 66.5268 122.115 67.1028 120.594C67.1115 120.568 67.1135 120.54 67.1086 120.512C67.1037 120.485 67.092 120.459 67.0747 120.437C67.0574 120.415 67.0349 120.398 67.0093 120.387C66.9837 120.376 66.9558 120.372 66.9281 120.374C66.475 120.387 66.1578 119.876 66.1254 119.714Z" fill="#1B227A"/>
<path d="M66.3715 115.584C66.488 115.765 66.4556 116.011 66.5721 116.231C66.7531 116.507 67.0225 116.712 67.3359 116.814C67.8731 117.06 67.7437 117.843 67.7307 118.193C68.132 117.927 68.2032 117.189 68.3003 116.82C68.3974 116.451 68.4751 115.973 68.5981 115.558C68.7608 115.169 68.8823 114.763 68.9606 114.348C68.9767 113.577 68.8132 112.813 68.4829 112.117C68.1526 111.42 67.6646 110.81 67.0576 110.335C66.6212 110.039 66.1059 109.88 65.5785 109.88C65.0512 109.88 64.5359 110.039 64.0995 110.335C63.7165 110.602 63.4232 110.979 63.2581 111.416C63.2136 111.505 63.1904 111.604 63.1904 111.704C63.1904 111.804 63.2136 111.902 63.2581 111.992" fill="#1B227A"/>
<path d="M59.1807 125.94C59.2583 125.429 59.3943 124.834 59.8733 124.646C60.0075 124.592 60.1497 124.562 60.294 124.555C61.7509 124.392 63.2167 124.323 64.6825 124.348C65.2896 124.317 65.8959 124.423 66.4561 124.659C67.2582 125.183 67.8655 125.956 68.1843 126.86" fill="#B03D44"/>
<path d="M71.5239 144.679C71.2244 144.366 70.9434 144.035 70.6824 143.689C70.2747 142.893 69.9187 139.54 70.0352 138.686C70.1517 137.831 70.9931 137.275 71.3621 135.236C71.6971 133.297 71.2628 131.305 70.1517 129.682C69.2973 128.446 69.8021 128.452 69.5044 126.938C69.4817 126.661 69.3781 126.398 69.2066 126.18C68.6757 125.84 68.1037 125.568 67.5043 125.371C65.1353 125.002 63.7372 125.293 61.3422 125.371C60.1555 125.417 58.9751 125.566 57.8146 125.818C56.52 126.103 55.4067 126.465 55.1413 128.187C54.7743 130.876 55.0335 133.614 55.8986 136.187C56.4423 137.883 59.6917 143.76 58.8891 144.899C58.5958 145.216 58.3574 145.579 58.1835 145.974C57.9829 147.165 60.6626 147.586 61.8147 147.676C63.6499 147.776 65.4893 147.765 67.3231 147.644C68.6565 147.579 71.5627 147.113 71.7699 145.476C71.783 145.19 71.696 144.908 71.5239 144.679Z" fill="#E8505B"/>
<path d="M71.0189 135.74C70.9686 136.213 70.8486 136.675 70.6629 137.113C69.8929 137.417 69.0431 137.456 68.2486 137.223C67.9892 135.66 67.6259 134.116 67.1611 132.601C67.1611 132.601 71.0189 135.313 71.0189 135.74Z" fill="#B03D44"/>
<path d="M69.3174 134.666C69.3174 134.666 73.6994 145.243 75.596 145.243C76.9747 145.243 80.3664 135.482 80.3664 135.482L78.2239 134.465L75.8355 138.55L73.4211 130.925" fill="#FFBE9D"/>
<path d="M77.7959 135.171C78.1644 134.597 78.3867 133.941 78.4432 133.261C78.3422 132.591 78.3248 131.91 78.3914 131.235C78.5862 130.752 78.8268 130.288 79.1099 129.85C79.317 129.669 80.0743 129.378 80.262 129.507C80.4497 129.637 80.6763 129.048 80.987 129.099C81.1341 129.118 81.2703 129.187 81.3729 129.294C81.4754 129.401 81.538 129.541 81.5501 129.688C81.5501 129.973 81.9644 130.025 82.0161 130.226C82.0345 130.409 82.067 130.591 82.1132 130.769C82.1909 130.918 82.4174 130.847 82.5016 131.229C82.5857 131.611 82.5016 131.617 82.5016 131.792C82.5016 131.967 82.6828 131.96 82.6311 132.303C82.525 132.716 82.3592 133.111 82.1391 133.475C81.8526 133.965 81.4475 134.374 80.9611 134.666C80.6471 134.92 80.4059 135.253 80.262 135.63" fill="#FFBE9D"/>
<path d="M78.9744 126.996C78.9583 126.963 78.9354 126.933 78.907 126.91C78.8787 126.886 78.8457 126.869 78.8101 126.859C78.7746 126.849 78.7374 126.847 78.7009 126.853C78.6645 126.859 78.6297 126.872 78.5989 126.892C78.5382 126.942 78.4965 127.011 78.4811 127.087C78.4658 127.164 78.4777 127.244 78.5148 127.313L79.8094 130.245C79.8094 130.245 79.9129 130.362 80.1136 130.187C80.3142 130.012 80.2625 129.902 80.2625 129.902C80.2625 129.902 79.0261 127.08 78.9744 126.996Z" fill="#1B227A"/>
<path d="M80.3404 129.708C80.1299 130.03 79.8623 130.311 79.5507 130.536C79.3501 130.724 79.3695 130.847 79.1494 131.041C79.5378 131.041 79.4731 130.782 79.9779 130.394C80.2288 130.254 80.4147 130.022 80.4958 129.747C80.5052 129.726 80.5061 129.702 80.4982 129.681C80.4903 129.66 80.4743 129.643 80.4537 129.633C80.4331 129.624 80.4096 129.623 80.3883 129.631C80.3671 129.639 80.3498 129.655 80.3404 129.675V129.708Z" fill="#F2A181"/>
<path d="M65.2969 125.209C66.4361 125.267 69.7501 124.685 71.5949 126.614C73.1419 128.232 74.0286 132.439 74.65 134.18C73.103 135.76 71.6078 137.035 69.2647 136.524C69.1741 136.452 68.0154 132.795 67.1675 132.465" fill="#E8505B"/>
<path d="M73.7635 158.79C73.7635 158.79 74.5144 176.914 74.3784 178.208C74.2425 179.503 72.7732 204.507 72.7732 204.507C72.7732 204.507 69.7569 205.031 67.9575 204.507C67.9575 204.507 65.6273 185.05 67.9575 178.991L66.9218 173.166C66.9218 173.166 67.0772 177.49 66.9218 178.344C66.7665 179.199 62.1061 203.925 62.1061 203.925C62.1061 203.925 59.025 203.84 57.6204 202.63C57.6204 202.63 57.1803 185.522 60.3908 178.325L57.4521 159.495L59.1415 154.706L73.7635 158.79Z" fill="#1B227A"/>
<path d="M66.922 173.179C66.4883 170.395 63.8345 160.531 63.6856 160.291C62.2357 159.165 60.9088 158.175 60.4492 157.236C61.2389 159.618 62.7665 159.741 63.3425 160.971C64.7536 164.013 63.6727 163.34 66.9673 173.528" fill="#170D54"/>
<path d="M53.9575 125.086C53.8863 126.051 54.0869 127.028 54.0999 127.979C54.1424 128.461 54.0844 128.946 53.9295 129.404C53.7746 129.862 53.5263 130.283 53.2002 130.64C52.4882 131.287 51.1742 131.319 50.6758 130.497C50.9498 131.021 51.3424 131.473 51.8223 131.818C52.3021 132.163 52.856 132.392 53.4397 132.485C54.6148 132.663 55.8164 132.478 56.8832 131.954C58.2962 131.3 59.4887 130.249 60.3161 128.93C61.1434 127.611 61.5698 126.08 61.5436 124.523C61.4724 121.934 59.5111 119.442 56.7731 120.801C55.977 121.216 55.3002 121.827 54.8074 122.577C54.3145 123.327 54.0219 124.191 53.9575 125.086Z" fill="#1B227A"/>
</g>
<defs>
<clipPath id="clip0_299_42">
<rect width="300" height="214.203" fill="white"/>
</clipPath>
</defs>
</svg>
