<svg width="11" height="14" viewBox="0 0 11 14" fill="none" xmlns="http://www.w3.org/2000/svg">
<g clip-path="url(#clip0_333_6)">
<path d="M1.75 12.6875H8.75C8.99063 12.6875 9.1875 12.4906 9.1875 12.25V4.375H7C6.51602 4.375 6.125 3.98398 6.125 3.5V1.3125H1.75C1.50937 1.3125 1.3125 1.50937 1.3125 1.75V12.25C1.3125 12.4906 1.50937 12.6875 1.75 12.6875ZM0 1.75C0 0.784766 0.784766 0 1.75 0H6.27539C6.74023 0 7.18594 0.183203 7.51406 0.511328L9.98867 2.98594C10.3168 3.31406 10.5 3.75977 10.5 4.22461V12.25C10.5 13.2152 9.71523 14 8.75 14H1.75C0.784766 14 0 13.2152 0 12.25V1.75ZM5.25 7.4375V10.9375C5.25 11.1152 5.14336 11.2738 4.9793 11.3422C4.81523 11.4105 4.62656 11.3723 4.50352 11.2465L3.53828 10.2812H3.0625C2.82187 10.2812 2.625 10.0844 2.625 9.84375V8.53125C2.625 8.29062 2.82187 8.09375 3.0625 8.09375H3.53828L4.50352 7.12852C4.6293 7.00273 4.81797 6.96719 4.9793 7.03281C5.14063 7.09844 5.25 7.25977 5.25 7.4375ZM7.59609 7.32812C7.91328 7.875 8.09375 8.51211 8.09375 9.1875C8.09375 9.86289 7.91328 10.5 7.59609 11.0469C7.41562 11.3613 7.01367 11.468 6.69922 11.2875C6.38477 11.107 6.27812 10.7051 6.45859 10.3906C6.66367 10.0379 6.78125 9.62773 6.78125 9.1875C6.78125 8.74727 6.66367 8.33711 6.45859 7.98438C6.27812 7.66992 6.38477 7.26797 6.69922 7.0875C7.01367 6.90703 7.41562 7.01367 7.59609 7.32812Z" fill="#201B53"/>
</g>
<defs>
<clipPath id="clip0_333_6">
<rect width="10.5" height="14" fill="white"/>
</clipPath>
</defs>
</svg>
