<svg role="img" aria-hidden="true" focusable="false" data-prefix="fal" data-icon="cake-candles" class="svg-inline--fa fa-cake-candles fa-fw" xmlns="http://www.w3.org/2000/svg" viewBox="0 0 17 19.429" width="17" height="19.429"><path fill="currentColor" d="M3.131 2.69c-0.061 0.099 -0.095 0.216 -0.095 0.334C3.036 3.37 3.317 3.643 3.643 3.643s0.607 -0.273 0.607 -0.619c0 -0.121 -0.034 -0.239 -0.095 -0.334L3.643 1.886zm-1.025 -0.649L3.271 0.205C3.351 0.076 3.491 0 3.643 0s0.292 0.076 0.372 0.205l1.165 1.833c0.186 0.292 0.285 0.637 0.285 0.987 0 1.006 -0.816 1.833 -1.821 1.833s-1.821 -0.827 -1.821 -1.833c0 -0.349 0.099 -0.691 0.285 -0.987zM14.571 9.714h-0.607v0.607c0 0.334 -0.273 0.607 -0.607 0.607s-0.607 -0.273 -0.607 -0.607v-0.607h-3.643v0.607c0 0.334 -0.273 0.607 -0.607 0.607s-0.607 -0.273 -0.607 -0.607v-0.607h-3.643v0.607c0 0.334 -0.273 0.607 -0.607 0.607s-0.607 -0.273 -0.607 -0.607v-0.607H2.429c-0.672 0 -1.214 0.543 -1.214 1.214v3.036c0.505 0 0.99 -0.228 1.377 -0.497 0.083 -0.057 0.178 -0.148 0.281 -0.243C3.108 13.004 3.377 12.75 3.643 12.75s0.535 0.254 0.77 0.474c0.102 0.095 0.197 0.186 0.281 0.243 0.387 0.269 0.873 0.497 1.377 0.497s0.99 -0.228 1.377 -0.497c0.083 -0.057 0.178 -0.148 0.281 -0.243 0.235 -0.22 0.505 -0.474 0.77 -0.474s0.535 0.254 0.77 0.474c0.102 0.095 0.197 0.186 0.281 0.243 0.387 0.269 0.873 0.497 1.377 0.497s0.99 -0.228 1.377 -0.497c0.083 -0.057 0.178 -0.148 0.281 -0.243 0.228 -0.216 0.493 -0.467 0.751 -0.471 0.273 -0.008 0.573 0.258 0.827 0.474 0.106 0.091 0.201 0.175 0.285 0.228 0.391 0.254 0.861 0.471 1.336 0.505V10.929c0 -0.672 -0.543 -1.214 -1.214 -1.214M1.214 15.179v3.036h14.571v-3.04c-0.801 -0.034 -1.51 -0.387 -1.996 -0.702 -0.156 -0.102 -0.296 -0.205 -0.414 -0.296 -0.106 0.091 -0.231 0.19 -0.372 0.285C12.515 14.799 11.786 15.179 10.929 15.179s-1.586 -0.379 -2.072 -0.717c-0.133 -0.091 -0.254 -0.186 -0.357 -0.273 -0.102 0.087 -0.224 0.178 -0.357 0.273 -0.486 0.338 -1.214 0.717 -2.072 0.717s-1.586 -0.379 -2.072 -0.717c-0.133 -0.091 -0.254 -0.186 -0.357 -0.273 -0.102 0.087 -0.224 0.178 -0.357 0.273C2.8 14.799 2.072 15.179 1.214 15.179m1.214 -6.679h0.607v-1.821c0 -0.334 0.273 -0.607 0.607 -0.607s0.607 0.273 0.607 0.607v1.821h3.643v-1.821c0 -0.334 0.273 -0.607 0.607 -0.607s0.607 0.273 0.607 0.607v1.821h3.643v-1.821c0 -0.334 0.273 -0.607 0.607 -0.607s0.607 0.273 0.607 0.607v1.821h0.607c1.34 0 2.429 1.089 2.429 2.429v7.286c0 0.672 -0.543 1.214 -1.214 1.214H1.214c-0.672 0 -1.214 -0.543 -1.214 -1.214V10.929c0 -1.34 1.089 -2.429 2.429 -2.429M8.5 1.886l-0.512 0.804c-0.061 0.099 -0.095 0.216 -0.095 0.334 0 0.345 0.281 0.619 0.607 0.619s0.607 -0.273 0.607 -0.619c0 -0.121 -0.034 -0.239 -0.095 -0.334zm-0.372 -1.681C8.208 0.076 8.348 0 8.5 0s0.292 0.076 0.372 0.205l1.165 1.833c0.186 0.292 0.285 0.637 0.285 0.987 0 1.006 -0.816 1.833 -1.821 1.833s-1.821 -0.827 -1.821 -1.833c0 -0.349 0.099 -0.691 0.285 -0.987zm4.717 2.485c-0.061 0.099 -0.095 0.216 -0.095 0.334 0 0.345 0.281 0.619 0.607 0.619s0.607 -0.273 0.607 -0.619c0 -0.121 -0.034 -0.239 -0.095 -0.334L13.357 1.886zm-1.025 -0.649 1.165 -1.837C13.065 0.076 13.205 0 13.357 0s0.292 0.076 0.372 0.205l1.165 1.833c0.186 0.292 0.285 0.637 0.285 0.987 0 1.006 -0.816 1.833 -1.821 1.833s-1.821 -0.827 -1.821 -1.833c0 -0.349 0.099 -0.691 0.285 -0.987z"/></svg>