<svg width="400" height="231" viewBox="0 0 400 231" fill="none" xmlns="http://www.w3.org/2000/svg">
<g opacity="0.5">
<path d="M174.556 188.719C163.416 188.751 152.275 189.02 141.154 190.257C136.957 190.723 132.855 191.751 128.65 192.162C120.256 192.988 112.009 194.533 103.583 195.244C96.8014 195.817 89.9882 196.153 83.2225 196.88C76.6736 197.584 70.059 197.382 63.5654 196.28C58.906 195.446 54.2229 194.975 49.6426 193.64C44.505 192.142 38.9723 191.071 33.6134 191.11C25.998 191.162 18.5959 191.17 11.2967 193.814C8.73973 194.742 5.60977 196.268 3.66541 198.216C-0.796367 202.674 -1.39707 213.799 3.04099 218.422C10.5181 226.204 26.4801 229.259 36.9607 229.405C48.4452 229.559 59.6016 228.709 71.1057 228.219C81.7761 227.753 92.4464 227.089 103.16 227.113C125.026 227.16 146.897 227.113 168.719 225.655C189.226 224.279 209.784 224.754 230.334 224.754C251.41 224.754 272.34 224.916 293.266 227.718C302.379 228.939 311.666 229.365 320.831 230.219C329.035 230.986 336.919 230.219 345.092 229.5C351.996 228.925 358.74 227.117 365.006 224.161C369.942 221.79 378.739 214.478 380.252 208.847C384.497 193.067 320.459 193.434 310.627 193.482C299.628 193.521 288.543 193.877 277.553 193.482C272.929 193.308 268.372 192.403 263.863 191.411C259.354 190.419 254.841 190.676 250.28 190.261C231.275 188.534 212.227 188.787 193.162 188.787C186.958 188.755 180.749 188.7 174.556 188.719Z" fill="#EED5D5"/>
</g>
<g clip-path="url(#clip0_307_200)">
<path opacity="0.4" d="M31.2803 206.249C31.2803 206.249 -14.456 157.142 23.5465 103.978C57.2639 56.8063 96.5718 60.0298 125.418 79.173C137.702 87.3265 173.118 80.1775 203.264 32.1791C244.372 -33.2791 386.869 6.42231 360.887 107.129C348.315 155.865 399.155 157.636 373.249 206.347L31.2803 206.249Z" fill="#EED5D5"/>
<path d="M263.785 183.033C263.785 183.033 267.474 178.728 264.012 175.992C264.012 175.992 261.482 174.461 259.419 174.586C259.419 174.586 262.342 179.487 261.398 179.973C260.453 180.459 258.534 174.278 258.534 174.278C258.534 174.278 252.778 173.721 250.926 174.61C250.926 174.61 255.847 178.637 254.81 178.878C253.773 179.118 248.459 175.164 248.459 175.164C248.459 175.164 243.102 176.075 243.387 179.344C243.672 182.612 245.518 183.621 246.33 183.535C247.141 183.448 251.885 181.637 251.991 182.3C252.098 182.964 249.237 185.138 247.237 185.232C247.237 185.232 251.014 189.398 253.525 188.196C256.035 186.994 256.248 185.087 257.813 184.373C259.378 183.658 260.714 183.66 260.067 184.39C259.421 185.119 256.591 185.826 255.696 187.409C254.801 188.992 253.999 190.06 256.594 189.668C259.189 189.276 263.414 187.378 263.6 185.193L263.785 183.033Z" fill="#248B2D"/>
<path d="M246.02 179.432C246.02 179.432 260.571 178.872 263.785 183.033C263.785 183.033 264.495 185.161 266.683 187.101L267.022 188.027C267.022 188.027 264.501 185.37 263.6 185.208C263.6 185.209 265.01 180.054 246.02 179.432Z" fill="#248B2D"/>
<path d="M266.682 187.101C266.682 187.101 269.805 189.415 270.021 193.537L269.455 193.588C269.455 193.588 268.457 189.32 266.654 187.651C264.852 185.983 266.682 187.101 266.682 187.101Z" fill="#248B2D"/>
<path d="M276.688 177.619C276.688 177.619 270.824 174.33 273.557 169.869C273.557 169.869 275.748 167.129 278.097 166.425C278.097 166.425 276.844 173.079 278.097 173.235C279.35 173.391 278.958 165.72 278.958 165.72C278.958 165.72 285.142 162.747 287.568 162.981C287.568 162.981 283.733 169.477 284.985 169.322C286.236 169.166 290.54 162.589 290.54 162.589C290.54 162.589 296.88 161.415 297.897 165.172C298.914 168.93 297.271 170.809 296.333 171.036C295.394 171.263 289.366 171.19 289.521 171.974C289.677 172.758 293.749 174.009 296.019 173.306C296.019 173.306 293.515 179.489 290.227 179.169C286.938 178.85 285.921 176.822 283.886 176.665C281.851 176.508 280.363 177.057 281.382 177.605C282.4 178.153 285.843 177.784 287.488 179.182C289.133 180.58 290.461 181.441 287.409 182.066C284.357 182.691 278.876 182.302 277.78 179.953L276.688 177.619Z" fill="#248B2D"/>
<path d="M295.01 166.347C295.01 166.347 278.573 171.67 276.694 177.611C276.694 177.611 276.772 180.273 275.129 183.32V184.495C275.129 184.495 276.849 180.503 277.789 179.955C277.783 179.967 274.104 174.801 295.01 166.347Z" fill="#6BB7BF"/>
<path d="M275.123 183.332C275.123 183.332 272.587 187.19 274.032 191.869L274.684 191.693C274.684 191.693 274.052 186.531 275.377 183.936C276.703 181.34 275.123 183.332 275.123 183.332Z" fill="#6BB7BF"/>
<path d="M267.348 173.085C267.348 173.085 275.086 168.751 271.475 162.868C271.475 162.868 268.587 159.258 265.491 158.329C265.491 158.329 267.141 167.099 265.491 167.306C263.842 167.513 264.356 157.4 264.356 157.4C264.356 157.4 256.204 153.479 253.005 153.789C253.005 153.789 258.062 162.353 256.41 162.146C254.759 161.939 249.084 153.274 249.084 153.274C249.084 153.274 240.727 151.731 239.386 156.678C238.045 161.625 240.211 164.107 241.449 164.418C242.687 164.728 250.632 164.623 250.427 165.652C250.221 166.681 244.855 168.335 241.861 167.407C241.861 167.407 245.163 175.557 249.498 175.145C253.832 174.733 255.173 172.05 257.855 171.843C260.537 171.636 262.498 172.36 261.157 173.077C259.816 173.795 255.276 173.313 253.108 175.156C250.94 176.998 249.187 178.132 253.212 178.958C257.236 179.783 264.459 179.266 265.903 176.18L267.348 173.085Z" fill="#248B2D"/>
<path d="M243.203 158.226C243.203 158.226 264.871 165.242 267.347 173.085C267.347 173.085 267.244 176.593 269.412 180.617V182.16C269.412 182.16 267.141 176.898 265.903 176.176C265.903 176.181 270.753 169.37 243.203 158.226Z" fill="#248B2D"/>
<path d="M269.412 180.617C269.412 180.617 272.753 185.692 270.849 191.869L269.988 191.637C269.988 191.637 270.822 184.834 269.074 181.411C267.326 177.989 269.412 180.617 269.412 180.617Z" fill="#248B2D"/>
<path d="M267.763 205.264C271.783 205.264 275.639 203.666 278.482 200.823C281.325 197.98 282.922 194.124 282.922 190.104H252.604C252.603 192.094 252.995 194.066 253.757 195.905C254.519 197.744 255.635 199.416 257.043 200.824C258.451 202.231 260.122 203.348 261.961 204.11C263.8 204.872 265.772 205.264 267.763 205.264Z" fill="#EE9849"/>
<path d="M271.492 205.147C269.359 205.414 267.194 205.224 265.14 204.591C263.087 203.957 261.191 202.894 259.58 201.472C257.968 200.05 256.677 198.301 255.793 196.343C254.909 194.384 254.451 192.259 254.45 190.11H258.217C258.218 193.803 259.568 197.369 262.012 200.138C264.456 202.906 267.827 204.688 271.492 205.147Z" fill="#F3B175"/>
<path d="M283.128 206.034H252.394C252.394 205.538 252.591 205.063 252.941 204.712C253.292 204.361 253.768 204.164 254.264 204.164H281.267C281.762 204.167 282.235 204.365 282.584 204.715C282.932 205.066 283.128 205.54 283.128 206.034Z" fill="#EE9849"/>
<path d="M283.265 190.105H252.104V190.569H283.265V190.105Z" fill="#EE9849"/>
<path d="M60.3287 57.9698C60.2871 57.7337 59.73 55.1923 55.8106 55.6321C55.8106 55.6321 57.7611 55.5812 58.2163 56.3774C58.2163 56.3774 56.7581 55.5241 55.7474 56.0132C54.7367 56.5024 54.3787 58.4574 54.4605 59.0716C54.5422 59.6857 55.4218 61.5759 56.1208 61.6454C56.3985 61.6614 56.6766 61.6216 56.9386 61.5281C56.7899 61.8572 56.6605 62.1946 56.5513 62.5388C55.4573 65.9613 57.5157 68.8499 58.7841 68.3145C59.5973 67.9704 60.0463 69.3777 60.0463 69.3777L67.2987 61.5389C67.2987 61.5389 63.3655 55.7355 60.3287 57.9698Z" fill="#2C3A64"/>
<path d="M69.7692 152.385L68.007 153.041C68.007 153.041 60.3519 142.424 59.4106 133.083C59.222 131.485 59.3071 129.868 59.6622 128.299C59.6622 128.299 59.5865 127.872 59.4554 127.117C59.3952 126.764 59.3211 126.346 59.2363 125.853C58.9863 124.428 58.6437 122.477 58.2533 120.255C57.3522 115.143 56.1856 108.608 55.2783 103.803L55.7536 103.649L60.892 102.001L61.9536 98.6292L65.7804 97.6216C65.7804 97.6216 66.6337 99.2943 67.3991 107.189C67.5395 108.224 67.6676 109.366 67.7632 110.605C68.1153 115.217 67.9933 119.853 67.3991 124.44C67.2242 125.811 67.0004 127.227 66.7278 128.686C66.5272 129.753 66.4964 131.208 66.5735 132.879C66.967 140.517 69.7692 152.385 69.7692 152.385Z" fill="#2B478B"/>
<path d="M67.7632 110.608L59.4554 127.119C59.3952 126.765 59.3211 126.347 59.2363 125.855C58.9863 124.429 58.6437 122.479 58.2533 120.257C57.3522 115.145 56.1856 108.61 55.2783 103.805L55.7536 103.65L60.892 102.001L61.9536 98.6292L65.7804 97.6216C65.7804 97.6216 66.6337 99.2943 67.3991 107.189C67.5395 108.227 67.6676 109.369 67.7632 110.608Z" fill="#233862"/>
<path d="M64.1087 99.742L63.9158 98.0924C60.6939 98.9473 52.0852 95.7007 52.0852 95.7007C52.0852 95.7007 48.9636 98.4442 49.374 105.021C49.5731 108.232 49.9388 121.873 50.3199 125.909C50.4588 127.372 50.5792 128.414 50.6285 128.83C50.6374 128.957 50.6043 129.082 50.5344 129.188C49.9798 130.133 49.5084 131.124 49.1256 132.151C45.3806 142.131 49.7027 154.423 49.7027 154.423L50.8245 153.971C50.8245 153.971 53.2841 140.292 55.2824 134.249C55.6219 133.223 55.9475 132.418 56.2453 131.935C57.114 130.532 57.921 128.241 58.6525 125.516C60.0412 120.362 61.1507 113.659 61.8929 108.483C61.9947 108.493 64.1087 99.742 64.1087 99.742Z" fill="#2B478B"/>
<path d="M65.1602 86.1971C65.1835 86.286 65.2129 86.3731 65.2482 86.4579C66.5073 90.0069 68.7494 93.7303 70.2785 95.0898C71.2831 95.9878 74.0421 96.9198 76.3891 97.5865C77.946 98.0494 79.3363 98.375 79.9057 98.5123C80.0878 98.5586 80.1927 98.5771 80.1927 98.5771L80.7158 97.034C80.7158 97.034 79.4968 96.2718 78.0108 95.2719C75.9462 93.8692 73.3662 92.0222 72.8709 91.229C71.7275 89.3774 70.9683 83.7436 69.9869 79.9354C69.9391 79.7301 69.8882 79.5311 69.8326 79.3351C69.7956 79.1916 69.7585 79.0512 69.72 78.9108C69.714 78.8755 69.702 78.8416 69.6845 78.8105C69.6305 78.6562 69.5903 78.5019 69.5456 78.3784C69.5456 78.3661 69.5363 78.3507 69.5255 78.3352C69.3415 77.8149 69.1203 77.3085 68.8636 76.8199C68.5781 76.3755 68.2649 76.1564 67.9269 76.2305C67.5523 76.3623 67.198 76.5462 66.8746 76.7767C66.7511 76.8616 66.62 76.9588 66.4873 77.0684C66.4039 77.1211 66.3286 77.1856 66.2635 77.2597C65.7102 77.7551 65.2612 78.3557 64.9426 79.0265C64.6255 79.6932 64.4171 80.4064 64.3254 81.139C64.1449 82.5046 64.509 84.3192 65.1602 86.1971Z" fill="#FFB27D"/>
<path d="M66.9064 79.7254C65.823 80.4109 64.6182 80.8823 63.3573 81.1141C57.918 82.2112 55.9769 77.5851 55.2871 74.4296C55.8617 74.1315 56.4926 73.9575 57.1388 73.9188C57.5307 73.8833 57.9412 73.8633 58.2822 73.8571C58.8994 73.4096 59.8592 71.5333 60.1431 68.5845L60.3946 68.6601L64.6211 69.9455C64.6211 69.9455 64.3881 71.2941 64.2554 72.5687C64.1535 73.567 64.115 74.5237 64.2986 74.7629C64.6288 74.8447 64.8263 74.8971 64.8263 74.8971C65.6732 76.436 66.3698 78.0529 66.9064 79.7254Z" fill="#FFB27D"/>
<path d="M64.6179 69.95C64.6179 69.95 64.3833 71.2971 64.2522 72.5732C61.8466 72.2646 60.7926 69.9346 60.3945 68.6631L64.6179 69.95Z" fill="#ED985F"/>
<path d="M65.3017 71.2415C65.3017 71.2415 59.5847 70.7631 59.9365 67.2079C60.2883 63.6527 59.7822 61.19 63.4531 61.3443C67.1241 61.4986 67.6935 62.9305 67.8709 64.1465C68.0484 65.3624 66.7985 71.2739 65.3017 71.2415Z" fill="#FFB27D"/>
<path d="M69.8368 79.3398C69.7998 79.1963 69.7627 79.0559 69.7242 78.9155C69.7182 78.8802 69.7062 78.8463 69.6887 78.8152C69.6347 78.6608 69.5945 78.5065 69.5498 78.3831C69.5498 78.3708 69.5405 78.3553 69.5297 78.3399C69.3457 77.8196 69.1245 77.3132 68.8678 76.8246C68.661 76.5021 68.4527 76.2197 68.2243 76.1163C68.0438 76.0037 67.0516 75.4251 64.8296 74.9035C64.8867 75.0347 66.4097 78.505 66.1582 79.329C65.9066 80.153 58.5262 78.6516 58.0602 78.1285C57.6852 77.7088 57.321 75.2569 57.1914 74.3002C57.1575 74.0625 57.1405 73.9175 57.1405 73.9175C57.1405 73.9175 54.4726 73.9422 53.0884 74.7507C53.5838 75.5449 53.9797 76.3969 54.2673 77.2875C54.3074 77.4171 54.3429 77.5468 54.3753 77.6779C54.4451 77.9509 54.4926 78.229 54.5173 78.5096C54.5482 78.8738 54.4093 79.221 54.1562 79.5774C53.8788 79.9468 53.5689 80.2907 53.2304 80.6051C52.9866 80.8412 52.7243 81.0896 52.4589 81.3581C52.6718 82.9999 53.1779 85.6787 53.2921 88.5951C53.3273 89.6298 53.0405 90.6499 52.4712 91.5145C51.1781 93.4711 48.9391 97.3226 49.848 99.3842C50.1859 101.406 67.675 101.588 66.9868 99.4135C66.9868 99.4135 67.7583 86.6539 68.7135 83.4629C68.7474 83.3456 68.7767 83.2314 68.803 83.1172C69.0684 81.9028 68.8369 80.7301 68.5406 79.687C68.9582 79.5226 69.393 79.4062 69.8368 79.3398Z" fill="#FF9843"/>
<path d="M67.8929 62.1529C67.1214 60.9941 66.427 61.1623 66.0212 61.4462C63.0724 59.4186 60.8088 61.7548 60.8088 61.7548C60.4003 63.2845 59.4731 64.6247 58.1855 65.5461C58.1855 65.5461 59.1608 66.293 61.6219 65.9165C62.3734 65.8007 63.0801 65.3455 63.6989 64.77C62.9621 65.7391 62.0967 66.6035 61.1266 67.3392C64.1248 66.3022 65.674 62.4322 65.8299 62.0218C66.1477 62.3705 66.7665 63.1189 66.91 63.8055C67.1044 64.7406 67.0458 66.617 67.5951 66.6077C67.5936 66.6062 69.0549 63.8873 67.8929 62.1529Z" fill="#2C3A64"/>
<path d="M61.7749 95.9261C58.3956 96.3798 55.0317 93.2921 52.8792 90.7461C53.1732 90.07 53.3114 89.3364 53.2834 88.5997C53.1693 85.6818 52.6662 83.0045 52.4502 81.3627C52.7187 81.0942 52.981 80.8458 53.2217 80.6097C53.5603 80.2953 53.8701 79.9514 54.1476 79.582C57.5932 83.8501 66.3547 95.3104 61.7749 95.9261Z" fill="#ED7D2B"/>
<path d="M85.51 99.2931C84.7509 99.5122 83.6105 100.458 82.0675 99.6187C81.1333 99.1367 80.1701 98.7131 79.1835 98.3503C78.9505 98.2778 78.8193 98.2269 78.8193 98.2269L79.685 96.4292C79.7089 96.4424 79.7343 96.4528 79.7606 96.4601C80.168 96.6005 82.2295 97.3026 83.2587 97.1946C84.4068 97.0665 86.1226 98.6311 86.1226 98.6311C86.1226 98.6311 86.2677 99.0848 85.51 99.2931Z" fill="#FFB27D"/>
<path d="M56.2259 155.343H47.3487C47.3487 155.343 47.1358 153.99 47.5987 152.964C48.0431 151.979 48.739 151.532 48.5723 150.34C49.1371 150.921 50.0568 151.575 51.3391 151.399C51.4934 151.653 52.3544 153.018 52.8821 153.396C53.4608 153.812 56.0485 153.663 56.2259 155.343Z" fill="#233862"/>
<path d="M75.2856 155.343H66.4084C66.4084 155.343 66.0767 153.928 66.6599 152.964C67.1753 152.112 66.9778 151.626 66.5951 150.921C67.0663 151.125 67.5771 151.221 68.0903 151.203C68.5598 151.15 69.0112 150.992 69.4112 150.74C69.7923 151.175 71.428 153.03 71.9403 153.397C72.5189 153.812 75.1066 153.663 75.2856 155.343Z" fill="#233862"/>
<path d="M63.9395 69.1848C63.9395 69.1848 64.0197 69.6477 65.1739 69.657C65.1739 69.657 66.1476 69.657 66.1491 69.1462C66.1522 69.1462 65.2356 68.7234 63.9395 69.1848Z" fill="white"/>
<path d="M73.4883 97.0894C73.9422 97.0674 74.3876 96.9579 74.7999 96.7669C75.3508 96.4737 77.15 96.9458 76.9756 97.185C76.8012 97.4242 75.7936 97.1295 75.6995 97.2653C75.5639 97.3938 75.4074 97.4982 75.2366 97.5739L73.4883 97.0894Z" fill="#FFB27D"/>
<path d="M84.1038 71.3447H119.232C121.652 71.3447 123.974 72.3063 125.685 74.018C127.397 75.7297 128.359 78.0513 128.359 80.4719V115.6C128.359 118.02 127.397 120.342 125.685 122.054C123.974 123.765 121.652 124.727 119.232 124.727H84.1038C81.6831 124.727 79.3615 123.765 77.6499 122.054C75.9382 120.342 74.9766 118.02 74.9766 115.6V80.4735C74.9766 78.0527 75.9381 75.731 77.6498 74.019C79.3614 72.3071 81.6829 71.3451 84.1038 71.3447Z" fill="#EED5D5"/>
<path d="M121.445 84.4839V110.551C121.447 112.19 120.853 113.775 119.775 115.01C118.696 116.244 117.206 117.045 115.581 117.263C115.274 117.304 114.965 117.325 114.655 117.325H88.6051C87.7152 117.326 86.8338 117.152 86.0113 116.812C85.1889 116.472 84.4417 115.973 83.8124 115.344C83.1832 114.714 82.6842 113.967 82.3442 113.145C82.0042 112.322 81.8298 111.441 81.8311 110.551V84.4839C81.8311 83.5944 82.0063 82.7136 82.3467 81.8918C82.6872 81.0701 83.1862 80.3234 83.8152 79.6945C84.4443 79.0656 85.191 78.5668 86.0129 78.2265C86.8348 77.8862 87.7156 77.7112 88.6051 77.7114H114.67C115.56 77.7112 116.441 77.8862 117.263 78.2265C118.085 78.5668 118.831 79.0656 119.46 79.6945C120.089 80.3234 120.588 81.0701 120.929 81.8918C121.269 82.7136 121.445 83.5944 121.445 84.4839Z" fill="#D2E4FF"/>
<path d="M98.2344 95.6746C98.2344 95.6746 98.1017 99.756 97.5802 101.583L93.4463 104.47L109.007 106.8L105.295 101.673C105.295 101.673 104.175 96.2024 104.763 94.1779C105.351 92.1534 98.2344 95.6746 98.2344 95.6746Z" fill="#FFB27D"/>
<path d="M98.2109 96.2422C98.2109 96.2422 99.4454 99.2049 101.76 99.1401C104.075 99.0753 104.605 96.4536 104.605 96.4536L98.2109 96.2422Z" fill="#ED985F"/>
<path d="M96.8287 93.8442C96.8287 93.8442 96.0803 90.1084 95.5572 88.9758C95.0341 87.8432 94.6005 82.7958 100.389 82.5351C100.389 82.5351 102.609 82.7958 103.828 82.0552C103.828 82.0552 103.828 82.7958 103.519 83.0566C104.173 82.9416 104.845 82.9974 105.47 83.2185C106.095 83.4397 106.653 83.8187 107.089 84.3188C108.656 86.0594 106.044 92.153 106.175 93.5896L96.8287 93.8442Z" fill="#B64C41"/>
<path d="M101.495 97.989C99.8127 97.9659 96.7266 95.73 96.7266 92.9602V88.6396C96.7266 87.6274 97.4317 86.8003 98.2928 86.8003H104.701C105.562 86.8003 106.267 87.6274 106.267 88.6396V92.7164C106.264 95.6189 103.42 98.0291 101.495 97.989Z" fill="#FFB27D"/>
<path d="M96.7267 90.9462C96.7267 90.9462 96.7359 88.3493 98.7928 87.9496C100.85 87.55 105.451 89.2149 106.104 87.3216C106.757 85.4283 97.2081 85.4699 96.7267 86.6689C96.2452 87.8678 96.7267 90.9462 96.7267 90.9462Z" fill="#B64C41"/>
<path d="M111.254 102.824C111.041 102.737 110.818 102.677 110.59 102.645C109.016 102.246 107.418 101.941 105.807 101.733C105.637 101.71 105.469 101.691 105.302 101.671C104.282 103.027 103.465 103.646 102.607 104.077C102.415 104.172 102.224 104.259 102.026 104.342C101.855 104.415 101.681 104.486 101.502 104.555C101.276 104.523 101.054 104.468 100.84 104.39C100.716 104.345 100.594 104.293 100.476 104.236C98.8308 103.464 97.5871 101.634 97.5871 101.583C97.3557 101.608 97.1319 101.634 96.9159 101.66C95.6169 101.809 94.3334 102.071 93.0798 102.442C92.9595 102.456 88.7222 103.04 82.2383 112.838C82.7119 114.149 83.5785 115.283 84.7197 116.084C85.861 116.884 87.2215 117.314 88.6158 117.313H114.67C114.98 117.313 115.289 117.293 115.596 117.251C116.837 117.08 118.006 116.569 118.974 115.775C119.943 114.981 120.673 113.935 121.083 112.752C116.169 105.311 112.65 103.339 111.254 102.824Z" fill="#2F5196"/>
<path d="M97.7959 100.594C97.5792 100.697 97.3877 100.846 97.2347 101.031C97.0818 101.216 96.971 101.432 96.9102 101.665C96.9102 101.665 99.6877 104.515 101.495 104.559L97.7959 100.594Z" fill="#EE9849"/>
<path d="M101.494 104.559L105.071 100.449C105.071 100.449 105.81 100.935 105.799 101.736C105.799 101.736 103.033 104.667 101.494 104.559Z" fill="#EE9849"/>
<path d="M103.095 117.325H99.5195C99.9408 112.526 100.455 107.778 100.702 105.558C100.752 105.107 100.791 104.76 100.817 104.538C100.817 104.501 100.817 104.468 100.828 104.437C100.839 104.407 100.828 104.405 100.828 104.393C100.839 104.303 100.845 104.255 100.845 104.255H101.203L101.766 104.246H102.005C102.005 104.246 102.005 104.283 102.005 104.354C102.005 104.393 102.013 104.442 102.019 104.508C102.025 104.575 102.027 104.609 102.032 104.663C102.055 104.927 102.086 105.306 102.126 105.785C102.334 108.09 102.72 112.708 103.095 117.325Z" fill="#EE9849"/>
<path d="M100.135 103.101C100.135 103.101 101.785 102.936 102.789 103.038C102.835 103.043 102.879 103.059 102.917 103.085C102.955 103.111 102.985 103.146 103.007 103.187C103.028 103.228 103.038 103.273 103.038 103.319C103.037 103.365 103.025 103.41 103.002 103.45C102.721 103.958 102.147 104.839 101.545 104.839C100.701 104.836 99.3867 103.158 100.135 103.101Z" fill="#E58638"/>
<path d="M78.7067 98.9983C78.2438 99.634 76.9985 100.603 75.4015 99.8624C74.4396 99.4368 73.4522 99.0714 72.445 98.7684C72.2104 98.7097 72.0762 98.6681 72.0762 98.6681L72.8307 96.8164C72.8559 96.828 72.8823 96.8368 72.9094 96.8426C73.3245 96.9584 75.3783 96.9661 76.5032 97.5694C77.8102 98.2715 79.2576 98.2499 78.7067 98.9983Z" fill="#FFB27D"/>
<path d="M73.562 97.0833L73.2441 98.8239L71.7011 98.6773C71.4171 98.648 71.2551 98.6218 71.2551 98.6218C70.4975 98.54 69.5902 98.4181 68.6026 98.29H68.5887C66.8914 98.0354 64.9903 97.7175 63.3763 97.3225C62.2406 97.034 61.2484 96.7053 60.5617 96.3488C60.4929 96.3149 60.4269 96.2757 60.3642 96.2316C58.7116 95.2378 56.576 92.0761 54.8323 88.6397C54.5901 88.166 54.3602 87.6907 54.1333 87.2278C53.3641 85.6381 52.7118 83.9945 52.1814 82.3101C51.9253 81.5362 51.7369 80.7417 51.6181 79.9353C51.5815 79.711 51.5573 79.4848 51.5456 79.2579C51.5364 79.136 51.5286 79.0156 51.5225 78.8984C52.1906 78.3135 53.7321 77.2226 55.8322 77.3352C55.877 77.4108 55.9202 77.4895 55.9634 77.5636C56.8692 79.2116 57.8598 81.3611 58.7949 83.5013C59.3118 84.6756 59.8149 85.8499 60.3102 86.9315C60.5957 87.5889 60.8765 88.2076 61.1404 88.774C61.6496 89.8541 62.1001 90.7259 62.4813 91.2675C62.7266 91.6224 63.3824 92.0869 64.2435 92.6007C65.7402 93.5019 67.9082 94.5589 69.7892 95.4122C70.57 95.7733 71.3076 96.0973 71.9202 96.3658C72.9093 96.8056 73.562 97.0833 73.562 97.0833Z" fill="#FFB27D"/>
<path d="M55.9589 77.5713C53.3357 77.0883 51.5411 79.2578 51.5411 79.2578C51.2325 75.4002 53.1074 74.715 53.1074 74.715C53.8511 74.3293 54.8587 75.5853 55.9589 77.5713Z" fill="#FF9843"/>
<path d="M347.044 126.951H307.442C306.777 126.951 306.237 127.49 306.237 128.156V133.561C306.237 134.227 306.777 134.766 307.442 134.766H347.044C347.709 134.766 348.249 134.227 348.249 133.561V128.156C348.249 127.49 347.709 126.951 347.044 126.951Z" fill="#EE9849"/>
<path d="M316.417 134.766L315.918 139.343L308.694 205.54C308.692 205.643 308.653 205.741 308.583 205.816C308.513 205.892 308.418 205.938 308.316 205.946C307.945 205.946 307.657 205.562 307.698 205.121L313.428 137.322L313.645 134.76L316.417 134.766Z" fill="#EFCBAB"/>
<path d="M316.417 134.766L315.918 139.343C315.576 137.52 313.425 137.337 313.425 137.337L313.642 134.775L316.417 134.766Z" fill="#CCA07F"/>
<path d="M346.168 205.952C346.066 205.944 345.971 205.898 345.901 205.823C345.831 205.748 345.791 205.649 345.79 205.547L338.566 139.343L338.257 136.49L338.07 134.77H340.848L341.064 137.331L341.235 139.337L346.79 205.127C346.827 205.568 346.539 205.952 346.168 205.952Z" fill="#EFCBAB"/>
<path d="M341.229 139.343C340.522 137.164 338.255 136.494 338.255 136.494L338.068 134.774H340.846L341.062 137.335L341.229 139.343Z" fill="#CCA07F"/>
<path d="M77.8018 155.345H37.7193C37.1867 155.345 36.7549 155.777 36.7549 156.309V159.388C36.7549 159.92 37.1867 160.352 37.7193 160.352H77.8018C78.3345 160.352 78.7663 159.92 78.7663 159.388V156.309C78.7663 155.777 78.3345 155.345 77.8018 155.345Z" fill="#EE9849"/>
<path d="M46.9367 160.35L46.4368 163.282L39.2122 205.694C39.1897 205.775 39.1395 205.846 39.0703 205.893C39.0012 205.94 38.9176 205.962 38.8341 205.954C38.4638 205.954 38.1752 205.708 38.2169 205.424L43.9478 161.992L44.1639 160.352L46.9367 160.35Z" fill="#EFCBAB"/>
<path d="M46.9363 160.35L46.4364 163.282C46.0938 162.114 43.9443 161.992 43.9443 161.992L44.1604 160.352L46.9363 160.35Z" fill="#CCA07F"/>
<path d="M76.6864 205.952C76.6031 205.96 76.5198 205.938 76.4507 205.891C76.3817 205.843 76.3314 205.773 76.3084 205.693L69.0838 163.28L68.7752 161.452L68.5869 160.35H71.3644L71.582 161.99L71.7517 163.279L77.3068 205.423C77.3469 205.707 77.0583 205.952 76.6864 205.952Z" fill="#EFCBAB"/>
<path d="M71.7477 163.279C71.0409 161.89 68.7742 161.454 68.7742 161.454L68.5859 160.352H71.3634L71.581 161.992L71.7477 163.279Z" fill="#CCA07F"/>
<path d="M138.787 6.13037H103.292C98.1973 6.13037 94.0674 10.2603 94.0674 15.3548V50.8498C94.0674 55.9443 98.1973 60.0742 103.292 60.0742H138.787C143.881 60.0742 148.011 55.9443 148.011 50.8498V15.3548C148.011 10.2603 143.881 6.13037 138.787 6.13037Z" fill="#EED5D5"/>
<path d="M141.025 19.407V45.7486C141.027 47.1308 140.609 48.481 139.828 49.621C139.046 50.761 137.937 51.6372 136.647 52.1338C136.57 52.1647 136.493 52.1924 136.414 52.2187C135.695 52.4681 134.939 52.5949 134.178 52.5936H107.837C107.495 52.5938 107.153 52.568 106.815 52.5165C105.195 52.2732 103.716 51.456 102.647 50.2139C101.579 48.9717 100.992 47.3871 100.993 45.7486V19.407C100.993 18.5082 101.17 17.6181 101.514 16.7877C101.857 15.9572 102.362 15.2026 102.997 14.567C103.633 13.9313 104.387 13.4271 105.217 13.0831C106.048 12.7391 106.938 12.562 107.837 12.562H134.177C135.076 12.5616 135.966 12.7384 136.797 13.0822C137.628 13.426 138.383 13.9301 139.019 14.5658C139.655 15.2014 140.159 15.9562 140.503 16.7868C140.848 17.6175 141.025 18.5079 141.025 19.407Z" fill="#D2E4FF"/>
<path d="M118.769 29.2813C118.769 29.2813 118.654 32.8674 118.194 34.4737L114.562 37.0074L128.236 39.0535L124.974 34.5478C124.974 34.5478 123.99 29.7396 124.511 27.962C125.033 26.1844 118.769 29.2813 118.769 29.2813Z" fill="#FFB27D"/>
<path d="M118.749 29.7764C118.749 29.7764 119.829 32.3795 121.868 32.3224C123.906 32.2653 124.367 29.9615 124.367 29.9615L118.749 29.7764Z" fill="#ED985F"/>
<path d="M117.533 27.6687C117.533 27.6687 116.875 24.3851 116.415 23.3913C115.956 22.3976 115.575 17.9598 120.662 17.7298C120.662 17.7298 122.612 17.9598 123.683 17.3086C123.683 17.3086 123.683 17.9598 123.416 18.1881C123.99 18.0868 124.58 18.1352 125.129 18.3287C125.679 18.5223 126.169 18.8544 126.552 19.293C127.93 20.8237 125.634 26.1781 125.749 27.4403L117.533 27.6687Z" fill="#2C3A64"/>
<path d="M125.826 23.0936V26.6766C125.821 27.2619 125.695 27.84 125.455 28.374C125.054 29.2629 124.421 30.0274 123.622 30.5867C122.957 31.0496 122.244 31.3212 121.635 31.3104C121.105 31.2996 120.416 31.0404 119.747 30.5975C118.848 30.0019 117.991 29.0761 117.627 27.9867V27.9697L117.613 27.9249C117.506 27.5887 117.45 27.238 117.448 26.8849V23.0936C117.448 22.2048 118.065 21.478 118.825 21.478H124.455C125.205 21.478 125.826 22.2048 125.826 23.0936Z" fill="#FFB27D"/>
<path d="M129.623 35.4072C129.623 35.4072 126.411 34.7159 124.973 34.5477C123.705 36.2343 122.793 36.6864 121.634 37.1462C119.767 36.8885 118.193 34.523 118.193 34.4736C116.848 34.6065 115.52 34.8801 114.232 35.2899C114.101 35.3069 109.129 35.9982 101.861 49.1466C102.371 50.0589 103.082 50.8425 103.941 51.4373C104.801 52.0322 105.784 52.4225 106.818 52.5784C107.754 51.7698 109.765 50.0231 111.342 48.6528C111.325 49.0957 111.322 49.4953 111.331 49.8441C111.359 50.7853 111.388 51.7204 111.408 52.6555H131.233C131.195 52.1803 131.164 51.722 131.141 51.2853C131.073 49.9228 131.01 48.6775 130.951 47.5418C130.952 47.5321 130.952 47.5223 130.951 47.5125C130.951 47.5002 130.951 47.4894 130.951 47.477L131.954 48.3473L132.181 48.5433L132.382 48.7176L132.662 48.963L133.178 49.4089L133.417 49.6172L133.543 49.7283C133.593 49.77 133.642 49.8117 133.69 49.8549C133.738 49.8981 133.764 49.9166 133.8 49.949L134.053 50.1696L134.259 50.3502L134.432 50.5045C134.638 50.6866 134.844 50.8635 135.049 51.0353L135.284 51.239C135.364 51.31 135.438 51.3794 135.523 51.4458L135.687 51.5877L135.759 51.6494C135.841 51.722 135.921 51.7929 135.998 51.8578L136.231 52.0614L136.324 52.1401C136.356 52.1695 136.387 52.1957 136.42 52.2219C136.497 52.1957 136.574 52.1679 136.653 52.137C137.665 51.7448 138.57 51.1178 139.293 50.3077C140.016 49.4976 140.536 48.5274 140.811 47.477C133.999 35.7575 129.623 35.4072 129.623 35.4072Z" fill="#F99746"/>
<path d="M117.442 25.1212C117.442 25.1212 117.442 22.8406 119.257 22.4888C121.071 22.137 125.108 23.6013 125.682 21.9379C126.256 20.2745 117.863 20.3023 117.442 21.3639C117.021 22.4255 117.442 25.1212 117.442 25.1212Z" fill="#2C3A64"/>
<path d="M113.757 52.5935H111.407C111.387 51.6584 111.358 50.7234 111.33 49.7821C111.321 49.4334 111.33 49.0337 111.341 48.5908C111.341 48.4921 111.341 48.3918 111.353 48.2822C111.376 48.3193 111.416 48.3825 111.47 48.472C111.822 49.0507 112.774 50.6477 113.757 52.5935Z" fill="#ED7D2B"/>
<path d="M123.621 29.0144V30.5929C122.956 31.0558 122.243 31.3274 121.633 31.3166C121.104 31.3058 120.414 31.0466 119.746 30.6037V29.0144C119.748 28.5897 119.917 28.1828 120.217 27.8825C120.518 27.5822 120.925 27.4128 121.349 27.4111H122.017C122.442 27.4128 122.849 27.5822 123.149 27.8825C123.45 28.1828 123.619 28.5897 123.621 29.0144Z" fill="#2C3A64"/>
<path d="M136.647 52.134C136.57 52.1649 136.493 52.1927 136.414 52.2189C136.381 52.1927 136.351 52.1664 136.318 52.1371L136.226 52.0584L135.993 51.8516C135.915 51.7868 135.838 51.7158 135.753 51.6433L135.681 51.5816L135.517 51.4396C135.44 51.3733 135.363 51.3038 135.278 51.2329L135.044 51.0292C134.844 50.8584 134.638 50.6815 134.426 50.4984L134.254 50.3441L134.047 50.1635L133.794 49.9429C133.758 49.9105 133.72 49.8796 133.684 49.8487C133.649 49.8179 133.587 49.7639 133.538 49.7222L133.411 49.6111L133.172 49.4028L132.657 48.9568L132.376 48.7115L132.175 48.5371L131.948 48.3412L130.945 47.4709L130.927 47.4539L130.944 47.4416C131.132 47.3089 132.846 46.1763 133.928 48.0896C134.698 49.446 135.92 51.1449 136.647 52.134Z" fill="#ED7D2B"/>
<path d="M125.454 28.3799C124.698 30.1051 122.929 31.3395 121.633 31.3117C120.388 31.2886 118.26 29.886 117.621 27.988V27.971L117.607 27.9263C117.607 27.9263 118.945 29.0666 119.829 28.5018H123.544C123.544 28.5018 124.517 29.062 125.454 28.3799Z" fill="#2C3A64"/>
<path d="M122.083 28.8215H121.282C121.099 28.8215 120.864 28.5206 120.864 28.3369C120.985 28.2402 121.129 28.1769 121.282 28.1533H122.083C122.18 28.1587 122.274 28.1849 122.36 28.2302C122.445 28.2755 122.52 28.3387 122.579 28.4156C122.579 28.4156 122.468 28.8215 122.083 28.8215Z" fill="#FFB27D"/>
<path d="M203.324 5.02881H167.829C162.734 5.02881 158.604 9.15872 158.604 14.2532V49.7483C158.604 54.8428 162.734 58.9727 167.829 58.9727H203.324C208.418 58.9727 212.548 54.8428 212.548 49.7483V14.2532C212.548 9.15872 208.418 5.02881 203.324 5.02881Z" fill="#EED5D5"/>
<path d="M205.56 18.3069V44.647C205.561 46.4612 204.841 48.2013 203.559 49.4849C202.277 50.7684 200.537 51.4904 198.723 51.492H172.375C170.56 51.4912 168.82 50.7697 167.536 49.4862C166.253 48.2027 165.531 46.4621 165.53 44.647V18.3069C165.53 16.4915 166.251 14.7505 167.535 13.4668C168.819 12.1831 170.56 11.4619 172.375 11.4619H198.723C200.537 11.4636 202.277 12.1855 203.559 13.469C204.841 14.7526 205.561 16.4927 205.56 18.3069Z" fill="#D2E4FF"/>
<path d="M182.749 35.9716C182.749 35.9716 178.452 35.7556 178.332 33.2759C178.211 30.7962 174.661 28.9877 175.69 26.9972C176.951 24.556 175.799 22.2137 177.387 20.5672C179.14 18.7572 181.356 19.7401 182.526 18.6862C183.695 17.6323 185.831 16.6617 187.939 17.9625C190.047 19.2633 191.656 18.5643 193.042 19.8142C194.572 21.203 193.992 22.9435 195.254 23.891C196.412 24.7597 195.941 27.1314 194.966 29.0572C194.264 30.4459 195.882 31.7482 193.102 33.3438C191.946 34.0088 192.196 35.68 188.684 35.967C187.105 36.1012 183.672 35.3606 182.749 35.9716Z" fill="#2C3A64"/>
<path d="M182.877 33.7731C182.877 33.7731 182.752 37.6477 182.26 39.3836L178.334 42.121L193.109 44.3322L189.586 39.4639C189.586 39.4639 188.521 34.2684 189.08 32.3473C189.638 30.4262 182.877 33.7731 182.877 33.7731Z" fill="#B56F40"/>
<path d="M182.855 34.3066C182.855 34.3066 184.025 37.1196 186.226 37.0579C188.426 36.9962 188.927 34.5072 188.927 34.5072L182.855 34.3066Z" fill="#99592E"/>
<path d="M185.972 35.9719C184.378 35.9442 181.443 33.8194 181.443 31.1885V27.087C181.443 26.1272 182.113 25.3418 182.931 25.3418H189.015C189.833 25.3418 190.503 26.1272 190.503 27.087V30.9585C190.503 33.716 187.802 36.0043 185.972 35.9719Z" fill="#B56F40"/>
<path d="M194.608 40.4516C192.956 40.0156 191.279 39.6858 189.585 39.464C188.212 41.2848 187.229 41.7709 185.974 42.2662C183.957 41.9869 182.259 39.4409 182.259 39.3838C180.804 39.5249 179.369 39.8187 177.977 40.2602C177.801 40.2834 173.872 40.8929 167.871 49.855C169.118 50.9518 170.722 51.5554 172.383 51.5524H195.946C195.946 51.5323 195.946 51.5107 195.946 51.4906H198.723C199.717 51.4918 200.698 51.2762 201.6 50.8588C202.502 50.4415 203.301 49.8324 203.943 49.0742C199.726 41.8218 194.608 40.4516 194.608 40.4516Z" fill="#B64C41"/>
<path d="M181.441 28.7503C181.441 28.7503 182.547 25.3725 186.173 25.8987C189.799 26.4249 190.114 27.2011 190.494 28.0991C190.873 28.9972 191.623 24.814 191.623 24.814L187.346 23.5425C187.346 23.5425 182.169 24.1319 181.791 25.0007L181.419 25.8679L181.441 28.7503Z" fill="#2C3A64"/>
<path d="M190.113 29.1978C189.998 29.0696 189.856 28.9682 189.698 28.901C189.539 28.8338 189.368 28.8024 189.196 28.809H187.272C186.905 28.809 186.655 28.9124 186.511 29.1176C186.449 29.2133 186.412 29.3231 186.403 29.437C186.121 29.3735 185.827 29.3788 185.547 29.4524C185.539 29.3338 185.501 29.2191 185.437 29.1191C185.3 28.9108 185.044 28.8105 184.678 28.8105H182.752C182.58 28.8037 182.409 28.835 182.25 28.9022C182.092 28.9695 181.95 29.0709 181.836 29.1994C181.743 29.3174 181.679 29.4549 181.648 29.6014C181.617 29.748 181.62 29.8997 181.657 30.045C181.876 31.1344 183.129 31.2794 183.755 31.2794C183.872 31.2802 183.989 31.2745 184.106 31.2624C184.692 31.2624 185.104 30.9276 185.403 30.2116C185.487 30.0244 185.539 29.8247 185.558 29.6206C185.834 29.5415 186.127 29.5357 186.406 29.6036C186.42 29.813 186.469 30.0184 186.551 30.2116C186.86 30.9276 187.264 31.2609 187.851 31.2624C187.967 31.2745 188.084 31.2802 188.201 31.2794C188.827 31.2794 190.08 31.1405 190.299 30.0527C190.336 29.9054 190.338 29.7517 190.306 29.6034C190.274 29.4551 190.207 29.3163 190.113 29.1978ZM185.42 29.653C185.398 29.8258 185.354 29.995 185.288 30.1561C185.01 30.8196 184.633 31.1282 184.102 31.1282C183.746 31.1639 183.386 31.1473 183.035 31.0788C182.32 30.9338 181.9 30.5773 181.788 30.0187C181.755 29.8917 181.753 29.7589 181.779 29.6305C181.806 29.5022 181.862 29.3816 181.942 29.2781C182.045 29.1642 182.171 29.0745 182.313 29.0153C182.454 28.956 182.607 28.9288 182.76 28.9355H184.681C185.002 28.9355 185.221 29.0204 185.335 29.1916C185.391 29.2818 185.422 29.3851 185.425 29.491C185.367 29.5082 185.311 29.5294 185.257 29.5543C185.248 29.5583 185.239 29.5641 185.232 29.5713C185.225 29.5785 185.22 29.587 185.216 29.5964C185.213 29.6057 185.211 29.6156 185.211 29.6256C185.212 29.6356 185.214 29.6455 185.218 29.6546C185.224 29.6675 185.234 29.6785 185.247 29.6861C185.259 29.6938 185.273 29.6978 185.288 29.6978C185.298 29.7 185.309 29.7 185.32 29.6978C185.354 29.6823 185.388 29.6689 185.423 29.6577L185.42 29.653ZM190.168 30.0187C190.056 30.5773 189.636 30.9338 188.921 31.0788C188.57 31.1473 188.21 31.1639 187.854 31.1282C187.323 31.1282 186.946 30.8196 186.67 30.1561C186.599 29.9921 186.554 29.8183 186.536 29.6407C186.574 29.6551 186.61 29.6721 186.645 29.6916C186.663 29.7008 186.684 29.7025 186.703 29.6965C186.722 29.6904 186.738 29.677 186.747 29.6592C186.752 29.6505 186.755 29.641 186.756 29.6311C186.757 29.6212 186.756 29.6112 186.753 29.6017C186.751 29.5922 186.746 29.5834 186.739 29.5758C186.733 29.5682 186.725 29.5619 186.716 29.5573C186.658 29.5271 186.598 29.5013 186.536 29.4802C186.541 29.3789 186.571 29.2806 186.625 29.1947C186.738 29.0235 186.959 28.9386 187.28 28.9386H189.204C189.357 28.9319 189.51 28.9591 189.651 29.0183C189.792 29.0776 189.919 29.1673 190.022 29.2811C190.1 29.385 190.154 29.5053 190.18 29.6331C190.205 29.7608 190.201 29.8927 190.168 30.0187Z" fill="#2C3A64"/>
<path d="M276.357 57.7152L241.095 53.6492C239.892 53.5105 238.728 53.1361 237.669 52.5474C236.611 51.9587 235.678 51.1673 234.926 50.2183C234.173 49.2693 233.615 48.1813 233.282 47.0165C232.95 45.8517 232.851 44.6328 232.99 43.4295L237.056 8.1675C237.194 6.96421 237.569 5.80003 238.157 4.74145C238.746 3.68286 239.537 2.7506 240.486 1.9979C241.435 1.2452 242.523 0.686811 243.688 0.354614C244.853 0.0224174 246.072 -0.0770802 247.275 0.0618055L282.537 4.12777C283.741 4.26628 284.906 4.6408 285.966 5.2299C287.025 5.81899 287.958 6.61112 288.711 7.56098C289.464 8.51085 290.022 9.59982 290.354 10.7656C290.686 11.9314 290.784 13.1512 290.644 14.3552L286.579 49.6172C286.296 52.0459 285.06 54.263 283.144 55.7815C281.227 57.2999 278.786 57.9954 276.357 57.7152Z" fill="#EED5D5"/>
<path d="M283.239 17.5754L280.221 43.7426C280.109 44.7314 279.781 45.6834 279.259 46.5309C278.643 47.5373 277.778 48.3672 276.746 48.9402C275.715 49.5131 274.552 49.8095 273.373 49.8007C273.127 49.7994 272.882 49.7845 272.638 49.7559L261.545 48.4767L259.351 48.2237L252.183 47.3966L251.257 47.2901L246.474 46.7377C245.253 46.596 244.092 46.1277 243.115 45.382C242.137 44.6363 241.378 43.6409 240.919 42.5005C240.859 42.3539 240.805 42.2073 240.757 42.0576C240.558 41.4516 240.446 40.8203 240.425 40.1828C240.413 39.8391 240.427 39.4951 240.467 39.1536L243.471 12.9894C243.574 12.0962 243.851 11.2319 244.288 10.4459C244.725 9.65997 245.312 8.96778 246.016 8.4089C246.721 7.85003 247.528 7.43543 248.393 7.18879C249.257 6.94214 250.162 6.8683 251.055 6.97148L277.223 9.98816C278.116 10.0912 278.98 10.3693 279.766 10.8064C280.552 11.2435 281.244 11.8311 281.802 12.5356C282.361 13.2402 282.775 14.0479 283.022 14.9126C283.268 15.7773 283.342 16.6822 283.239 17.5754Z" fill="#D2E4FF"/>
<path d="M272.157 23.6135C272.157 23.5919 272.157 23.5703 272.146 23.5502C272.062 23.0734 271.966 22.5981 271.862 22.1321C272.444 18.3902 271.008 16.7916 269.765 15.98C269.097 14.6761 268.377 13.7564 267.709 13.4447C266.474 12.8753 265.058 12.9201 264.076 13.062C264.308 12.7781 264.798 12.6408 264.798 12.6408C264.181 12.6007 262.865 13.3228 262.865 13.3228C254.069 10.7613 253.795 23.4067 254.224 26.303C254.653 29.1994 251.69 30.406 247.454 33.074C243.606 35.4981 241.534 38.1121 240.418 40.1844C240.439 40.8219 240.551 41.4532 240.75 42.0592C240.87 41.9439 241.011 41.8523 241.165 41.7892C241.165 41.8154 241.052 42.0978 240.912 42.5021C241.371 43.6425 242.13 44.6379 243.107 45.3836C244.085 46.1293 245.245 46.5976 246.467 46.7393L251.25 47.2918L252.176 47.3982L259.344 48.2253C260.097 47.159 260.918 46.0527 261.769 44.9571C263.843 42.2845 266.11 39.6613 268.082 37.7525C268.733 37.1214 269.35 36.5706 269.92 36.12L269.981 36.0706C270.266 35.5471 270.494 34.9946 270.66 34.4226C271.267 32.4398 271.381 30.2317 271.39 30.0126C271.39 32.0617 271.211 33.4829 270.977 34.4674C270.9 34.7997 270.801 35.1265 270.68 35.4457C270.938 35.1625 271.163 34.852 271.353 34.5198C272.853 31.9645 272.872 27.6702 272.157 23.6135Z" fill="#163560"/>
<path d="M268.6 36.8716C268.628 36.8886 265.707 38.0011 263.701 37.1941C261.814 36.438 260.831 33.7639 260.859 33.7623C261.703 33.6929 262.072 32.5865 262.617 27.7104L262.981 27.8262L269.113 29.7859C269.113 29.7859 268.741 31.744 268.523 33.6034C268.338 35.1711 268.263 36.6633 268.6 36.8716Z" fill="#FFB27D"/>
<path d="M260.799 16.0943C260.799 16.0943 263.626 12.5267 267.787 15.3351C267.787 15.3351 265.485 15.1268 260.799 16.0943Z" fill="#BC3F3F"/>
<path d="M269.113 29.7857C269.113 29.7857 268.741 31.7438 268.523 33.6032C265.023 33.1002 263.536 29.6838 262.98 27.8198L269.113 29.7857Z" fill="#EF9E67"/>
<path d="M270.096 30.9107C270.096 30.9107 261.775 31.7516 261.331 26.5608C260.887 21.3699 259.516 17.9845 264.811 17.2299C270.105 16.4753 271.307 18.3656 271.876 20.0614C272.446 21.7572 272.248 30.5573 270.096 30.9107Z" fill="#FFB27D"/>
<path d="M268.594 16.7825C268.594 16.7825 266.825 23.0643 263.4 24.2587C259.974 25.453 258.377 24.6444 258.377 24.6444C258.377 24.6444 260.883 22.2851 261.127 18.5139C261.127 18.5216 266.628 14.0297 268.594 16.7825Z" fill="#163560"/>
<path d="M268.069 17.324C268.069 17.324 269.889 18.5399 270.415 19.8269C270.941 21.1138 271.358 23.8188 272.143 23.6598C272.143 23.6598 273.513 19.3763 271.384 17.1975C269.126 14.8875 268.069 17.324 268.069 17.324Z" fill="#163560"/>
<path d="M275.721 36.4627C274.857 35.3826 273.098 34.8163 271.358 34.5247L270.981 34.4676L270.672 34.4228C269.941 34.3287 269.241 34.2793 268.643 34.2531L268.489 34.0247V34.017L261.453 33.4476H261.379H261.349C260.819 33.3905 253.531 32.6684 252.12 35.2391C251.194 36.9195 251.181 40.1352 251.617 43.7028C251.485 44.9141 251.377 46.1455 251.279 47.3012L252.205 47.4077L259.373 48.2348L261.567 48.4878L272.66 49.767C272.904 49.7956 273.149 49.8105 273.394 49.8118C274.574 49.8206 275.736 49.5242 276.768 48.9512C277.799 48.3783 278.665 47.5484 279.281 46.542C278.19 42.1644 276.859 37.8885 275.721 36.4627Z" fill="#BC3F3F"/>
<path d="M281.251 70.9946H245.775C240.684 70.9946 236.557 75.1218 236.557 80.2129V115.689C236.557 120.78 240.684 124.908 245.775 124.908H281.251C286.342 124.908 290.47 120.78 290.47 115.689V80.2129C290.47 75.1218 286.342 70.9946 281.251 70.9946Z" fill="#EED5D5"/>
<path d="M283.487 84.2648V110.591C283.492 112.349 282.819 114.042 281.607 115.316C280.395 116.59 278.738 117.348 276.982 117.431C276.871 117.431 276.76 117.431 276.647 117.431H250.179H250.045C248.279 117.362 246.609 116.612 245.385 115.337C244.161 114.063 243.478 112.364 243.48 110.597V84.2648C243.48 82.4505 244.201 80.7104 245.484 79.4274C246.767 78.1443 248.507 77.4233 250.321 77.4229H276.647C278.461 77.4233 280.201 78.1443 281.484 79.4274C282.767 80.7104 283.487 82.4505 283.487 84.2648Z" fill="#D2E4FF"/>
<path d="M259.544 96.4632C259.544 96.4632 259.39 101.145 258.794 103.242L254.051 106.55L271.904 109.223L267.647 103.339C267.647 103.339 266.361 97.0619 267.029 94.7396C267.698 92.4173 259.544 96.4632 259.544 96.4632Z" fill="#FFB27D"/>
<path d="M259.52 97.1094C259.52 97.1094 260.93 100.504 263.59 100.433C266.25 100.362 266.854 97.347 266.854 97.347L259.52 97.1094Z" fill="#ED985F"/>
<path d="M257.932 94.3565C257.932 94.3565 257.072 90.0699 256.474 88.7721C255.875 87.4744 255.375 81.6741 262.016 81.3809C262.016 81.3809 264.564 81.6802 265.962 80.8315C265.962 80.8315 265.962 81.6802 265.613 81.9796C266.362 81.8475 267.133 81.9116 267.851 82.1655C268.568 82.4193 269.207 82.8545 269.707 83.4285C271.505 85.4252 268.509 92.4168 268.659 94.0648L257.932 94.3565Z" fill="#2C3A64"/>
<path d="M263.285 99.1198C261.359 99.0859 257.812 96.5198 257.812 93.3426V88.3848C257.812 87.2244 258.622 86.2754 259.609 86.2754H266.96C267.949 86.2754 268.76 87.2244 268.76 88.3848V93.0618C268.76 96.3932 265.494 99.1584 263.285 99.1198Z" fill="#FFB27D"/>
<path d="M257.811 91.0314C257.811 91.0314 257.822 88.0533 260.181 87.595C262.54 87.1367 267.822 89.0471 268.571 86.8744C269.319 84.7018 258.363 84.7388 257.811 86.126C257.259 87.5133 257.811 91.0314 257.811 91.0314Z" fill="#2C3A64"/>
<path d="M275.304 117.432H250.179C250.811 111.707 252.168 104.805 253.252 104.35C253.252 104.35 253.376 104.305 253.615 104.231C254.766 103.888 255.941 103.63 257.13 103.459H257.143C257.647 103.381 258.195 103.311 258.787 103.25C258.787 103.319 260.841 106.322 263.278 106.658C264.793 106.058 265.983 105.549 267.64 103.347C268.186 103.412 268.746 103.486 269.319 103.575C270.708 103.79 272.178 104.081 273.709 104.467C273.891 104.512 274.073 104.558 274.257 104.607L274.474 104.664C274.474 104.664 274.493 104.74 274.536 105.189C274.641 106.2 274.862 109.132 275.304 117.432Z" fill="#739AF0"/>
<path d="M253.451 104.26H253.432C253.303 104.29 253.176 104.326 253.051 104.37L253.023 104.379H253.002H252.986C251.669 104.842 248.368 106.51 243.759 112.511C244.16 113.886 244.982 115.1 246.11 115.983C247.238 116.866 248.614 117.373 250.045 117.432H250.179H256.954C257.026 113.205 257.077 109.528 257.108 107.007C257.12 105.893 257.131 105.001 257.139 104.396C257.146 103.791 257.148 103.452 257.148 103.452H257.136C255.89 103.633 254.658 103.903 253.451 104.26Z" fill="#2B478B"/>
<path d="M274.487 104.657C274.267 104.571 274.04 104.506 273.808 104.462C272.334 104.08 270.84 103.781 269.333 103.567C269.333 103.603 269.333 104.365 269.348 105.68C269.348 106.522 269.365 107.593 269.376 108.843C269.399 111.173 269.43 114.133 269.475 117.432H276.647C276.76 117.432 276.871 117.432 276.982 117.432C278.407 117.361 279.774 116.847 280.893 115.962C282.011 115.077 282.826 113.864 283.222 112.494C278.912 106.843 275.834 105.157 274.487 104.657Z" fill="#2B478B"/>
<path d="M267.938 90.7889C267.809 90.6441 267.65 90.5297 267.472 90.4539C267.294 90.3781 267.101 90.3429 266.907 90.3507H264.747C264.337 90.3507 264.048 90.4695 263.892 90.7025C263.824 90.8105 263.782 90.9332 263.77 91.0605C263.453 90.9881 263.123 90.994 262.809 91.0775C262.8 90.9441 262.757 90.8152 262.685 90.7025C262.531 90.4695 262.243 90.3507 261.831 90.3507H259.67C259.477 90.3429 259.284 90.3781 259.106 90.4539C258.927 90.5297 258.768 90.6441 258.64 90.7889C258.536 90.9218 258.464 91.0766 258.428 91.2416C258.393 91.4066 258.397 91.5773 258.437 91.741C258.684 92.9631 260.093 93.1205 260.797 93.1205C260.929 93.1211 261.06 93.1149 261.192 93.102C261.851 93.102 262.314 92.7254 262.652 91.92C262.742 91.7092 262.797 91.4851 262.815 91.2564C263.126 91.1684 263.454 91.1614 263.769 91.2364C263.785 91.472 263.84 91.7031 263.934 91.92C264.272 92.7254 264.735 93.102 265.394 93.102C265.525 93.115 265.657 93.1212 265.789 93.1205C266.492 93.1205 267.901 92.9662 268.148 91.741C268.188 91.5768 268.189 91.4056 268.153 91.2407C268.117 91.0757 268.043 90.9211 267.938 90.7889ZM262.661 91.2997C262.636 91.4942 262.584 91.6843 262.506 91.8644C262.198 92.6128 261.77 92.96 261.175 92.96H261.166C260.765 92.999 260.36 92.9803 259.965 92.9044C259.161 92.7409 258.69 92.3397 258.564 91.7132C258.527 91.5704 258.524 91.4212 258.554 91.2768C258.583 91.1325 258.645 90.9968 258.735 90.8799C258.851 90.7509 258.994 90.6492 259.155 90.5822C259.315 90.5153 259.488 90.4847 259.661 90.4926H261.821C262.182 90.4926 262.439 90.5898 262.557 90.7812C262.621 90.882 262.656 90.9983 262.659 91.1176C262.595 91.1369 262.531 91.1601 262.469 91.187C262.459 91.1917 262.45 91.1983 262.443 91.2065C262.435 91.2146 262.429 91.2242 262.425 91.2347C262.421 91.2452 262.42 91.2563 262.42 91.2674C262.42 91.2786 262.423 91.2895 262.428 91.2997C262.434 91.3148 262.445 91.3277 262.459 91.3368C262.472 91.3459 262.488 91.3506 262.505 91.3506C262.517 91.3529 262.529 91.3529 262.54 91.3506C262.578 91.3337 262.617 91.3187 262.656 91.3058L262.661 91.2997ZM268 91.7132C267.873 92.3397 267.401 92.7409 266.599 92.9044C266.203 92.9803 265.799 92.999 265.398 92.96H265.383C264.787 92.96 264.364 92.6128 264.051 91.8644C263.972 91.6799 263.92 91.485 263.897 91.2858C263.939 91.3014 263.98 91.32 264.02 91.3413C264.041 91.352 264.065 91.354 264.087 91.3471C264.108 91.3401 264.127 91.3247 264.137 91.3043C264.148 91.2838 264.15 91.26 264.143 91.238C264.136 91.216 264.121 91.1976 264.1 91.187C264.035 91.1519 263.966 91.1224 263.895 91.0991C263.901 90.9854 263.936 90.8751 263.996 90.7781C264.124 90.5868 264.372 90.4895 264.732 90.4895H266.892C267.065 90.4817 267.238 90.5123 267.398 90.5793C267.558 90.6463 267.702 90.7479 267.818 90.8768C267.911 90.9926 267.976 91.1282 268.009 91.2732C268.042 91.4181 268.041 91.5687 268.006 91.7132H268Z" fill="#B64C41"/>
<path d="M194.899 68.8667H153.758C147.853 68.8667 143.066 73.6536 143.066 79.5586V120.7C143.066 126.605 147.853 131.392 153.758 131.392H194.899C200.804 131.392 205.591 126.605 205.591 120.7V79.5586C205.591 73.6536 200.804 68.8667 194.899 68.8667Z" fill="#EED5D5"/>
<path d="M197.488 84.2557V114.787C197.488 116.367 197.017 117.911 196.134 119.221C195.251 120.532 193.998 121.549 192.533 122.142C192.362 122.212 192.189 122.275 192.012 122.332C191.218 122.591 190.388 122.722 189.554 122.721H159.027C157.985 122.721 156.953 122.516 155.991 122.117C155.028 121.718 154.154 121.134 153.417 120.397C152.68 119.66 152.095 118.786 151.697 117.823C151.298 116.86 151.093 115.829 151.093 114.787V84.2557C151.093 83.2137 151.298 82.182 151.697 81.2193C152.095 80.2567 152.68 79.382 153.417 78.6452C154.154 77.9084 155.028 77.324 155.991 76.9253C156.953 76.5265 157.985 76.3213 159.027 76.3213H189.558C191.662 76.3225 193.679 77.159 195.166 78.6469C196.653 80.1347 197.488 82.1522 197.488 84.2557Z" fill="#D2E4FF"/>
<path d="M174.557 84.41C173.571 84.1898 172.551 84.1599 171.554 84.3221C170.12 84.5215 168.749 85.0398 167.542 85.8389C165.999 86.8836 163.762 89.1395 166.258 95.3272L167.442 97.4551C167.047 102.084 165.15 102.084 165.15 102.084C165.15 102.084 165.98 102.493 166.385 102.493C166.385 102.493 166.97 102.271 167.085 101.947C167.085 101.947 166.97 102.455 166.82 102.617C166.82 102.617 170.039 102.925 171.647 101.706C172.52 101.046 173.477 99.4965 174.094 97.9164L176.529 98.0877C176.555 99.1339 176.18 100.333 175.009 101.583C175.009 101.583 178.012 101.877 179.021 101.046C178.918 101.257 178.788 101.455 178.635 101.634C178.635 101.634 181.993 101.754 183.378 100.708C184.764 99.6616 183.875 82.4951 174.557 84.41Z" fill="#233862"/>
<path d="M186.19 122.721H162.427C162.139 120.877 161.964 119.157 162.072 117.506C162.213 115.433 163.128 113.566 164.208 112.049C165.316 110.519 166.651 109.166 168.166 108.038L168.32 108.011C168.49 107.98 168.783 107.934 169.092 107.905C169.386 107.75 169.507 106.67 169.544 105.413C169.553 105.061 169.556 104.698 169.556 104.333C169.556 104.024 169.556 103.705 169.544 103.393C169.544 103.248 169.536 103.104 169.531 102.962C169.531 102.921 169.531 102.882 169.531 102.842C169.531 102.802 169.531 102.722 169.531 102.663V102.524C169.531 102.453 169.531 102.384 169.531 102.314C169.531 102.22 169.524 102.129 169.521 102.038C169.521 102.018 169.521 102 169.521 101.979C169.521 101.895 169.521 101.811 169.51 101.729C169.499 101.648 169.499 101.534 169.494 101.442V101.371C169.487 101.225 169.479 101.088 169.471 100.963V100.864C169.471 100.825 169.471 100.79 169.471 100.754C169.471 100.719 169.471 100.686 169.471 100.656C169.471 100.552 169.459 100.464 169.454 100.393C169.454 100.378 169.454 100.362 169.454 100.347C169.454 100.331 169.454 100.314 169.454 100.301C169.454 100.234 169.454 100.2 169.454 100.2L173.466 99.4056L176.214 98.8609L176.537 98.7977L176.617 98.7822C176.613 99.735 176.664 100.687 176.772 101.634C176.848 102.311 176.96 102.984 177.108 103.649C177.608 105.866 178.387 107.198 178.95 107.422C178.969 107.43 178.988 107.437 179.007 107.442C181.685 108.007 185.843 115.105 186.19 122.721Z" fill="#D9935C"/>
<path d="M169.394 100.199C169.394 100.199 169.548 102.327 169.548 104.333C173.333 104.226 175.333 100.773 176.152 98.8594L169.394 100.199Z" fill="#CB7D45"/>
<path d="M168.13 102.097C168.13 102.097 177.08 102.251 177.089 96.6681C177.098 91.0853 178.256 87.3526 172.538 87.0224C166.821 86.6922 165.709 88.8201 165.255 90.681C164.802 92.542 165.8 101.915 168.13 102.097Z" fill="#D9935C"/>
<path d="M168.46 86.8865C168.46 86.8865 170.912 93.4291 174.674 94.3966C178.436 95.3641 180.075 94.3565 180.075 94.3565C180.075 94.3565 177.189 92.0635 176.59 88.0623C176.584 88.0623 170.31 83.7711 168.46 86.8865Z" fill="#233862"/>
<path d="M169.068 87.4173C169.068 87.4173 167.244 88.8848 166.791 90.2982C166.337 91.7117 166.144 94.642 165.292 94.5432C165.292 94.5432 163.441 90.0961 165.521 87.5794C167.721 84.9114 169.068 87.4173 169.068 87.4173Z" fill="#233862"/>
<path d="M168.729 87.638C168.729 87.638 170.475 94.4908 175.222 96.685C175.222 96.685 170.475 92.4755 170.071 87.9513C169.667 83.427 168.729 87.638 168.729 87.638Z" fill="#233862"/>
<path d="M191.375 119.336C191.221 118.972 191.066 118.612 190.924 118.256C190.849 118.078 190.77 117.904 190.702 117.731C190.703 117.726 190.703 117.722 190.702 117.717C188.633 112.804 186.999 109.094 186.834 108.823C186.371 108.042 180.066 107.269 179.142 107.28C178.47 107.28 178.103 105.059 177.955 103.843C177.946 103.767 177.917 103.693 177.871 103.631C177.825 103.569 177.764 103.519 177.694 103.487C177.623 103.455 177.546 103.441 177.468 103.448C177.391 103.454 177.317 103.481 177.253 103.524L177.054 103.655L176.807 103.809L176.557 103.964L176.39 104.059L176.194 104.161L176.022 104.252L175.849 104.339L175.677 104.422L175.54 104.485C175.457 104.524 175.374 104.561 175.289 104.595L175.11 104.67C175.068 104.689 175.025 104.706 174.983 104.721C174.753 104.812 174.52 104.894 174.295 104.97C172.372 105.601 170.575 105.661 169.539 105.416L169.464 105.397C169.343 105.366 169.216 105.366 169.095 105.398C168.974 105.43 168.863 105.492 168.774 105.579C168.684 105.666 168.618 105.775 168.582 105.894C168.546 106.014 168.541 106.141 168.569 106.263C168.707 106.896 168.743 107.587 168.387 107.936C166.785 108.292 162.887 109.287 162.157 110.674C161.633 111.668 161.585 117.523 161.301 122.727H189.557C190.392 122.729 191.222 122.597 192.015 122.338C192.193 122.281 192.366 122.218 192.537 122.149C192.145 121.184 191.755 120.245 191.375 119.336Z" fill="#F99746"/>
<path d="M182.804 122.721H179.015C179.973 121.135 180.888 119.982 181.416 119.917C181.869 119.863 182.352 121.055 182.804 122.721Z" fill="#ED7D2B"/>
<path d="M179.137 107.277C179.137 107.277 174.415 110.267 170.843 109.559C170.843 109.559 169.986 109.017 171.168 108.479C172.279 107.97 174.862 106.459 174.296 104.97C175.343 104.63 176.337 104.144 177.248 103.527C177.312 103.484 177.386 103.457 177.463 103.451C177.54 103.444 177.618 103.458 177.688 103.49C177.758 103.522 177.819 103.572 177.865 103.634C177.911 103.697 177.939 103.77 177.949 103.846C178.098 105.056 178.467 107.277 179.137 107.277Z" fill="#ED7D2B"/>
<path d="M228.13 123.732C228.13 123.732 235.319 131.086 235.669 133.916C236.02 136.746 232.207 141.195 232.207 141.195L228.13 123.732Z" fill="#ED7D2B"/>
<path d="M224.92 201.683C224.92 201.683 224.673 205.681 223.898 205.738C223.796 205.738 219.976 205.738 219.976 205.738L215.1 205.71C215.1 205.71 215.13 204.534 216.556 204.286C217.982 204.037 220.368 203.036 221.232 201.152C222.139 199.172 224.92 201.683 224.92 201.683Z" fill="#163560"/>
<path d="M235.783 201.683C235.783 201.683 235.534 205.681 234.761 205.738C234.658 205.738 230.837 205.738 230.837 205.738L225.961 205.71C225.961 205.71 225.993 204.534 227.418 204.286C228.842 204.037 231.23 203.036 232.093 201.152C233.002 199.172 235.783 201.683 235.783 201.683Z" fill="#163560"/>
<path d="M219.519 158.708C219.519 158.708 220.795 166.866 225.552 181.346C230.309 195.827 230.953 202.099 230.953 202.099L236.057 201.956C236.057 201.956 236.1 186.13 233.908 178.848C231.715 171.567 233.434 152.596 233.434 152.596L219.519 158.708Z" fill="#163560"/>
<path d="M217.034 153.042C217.034 153.042 216.854 165.336 218.981 180.429C221.109 195.521 220.387 201.93 220.387 201.93L225.479 202.099C225.479 202.099 228.524 187.001 227.65 179.446C226.777 171.891 231.817 153.522 231.817 153.522L217.034 153.042Z" fill="#1C468A"/>
<path d="M226.896 124.276L224.183 126.056L220.261 125.324C220.315 125.008 220.569 123.695 220.81 122.506C220.824 122.437 220.839 122.366 220.852 122.298C221.054 121.286 221.228 120.417 221.228 120.417L224.891 118.802L226.259 118.198C226.259 118.22 226.152 119.322 226.138 119.482C225.881 122.337 226.896 124.276 226.896 124.276Z" fill="#FFB27D"/>
<path d="M221.264 123.378C221.341 123.346 225.988 121.974 226.493 122.144C226.998 122.314 227.297 123.287 227.297 123.287L219.694 125.006C219.694 125.006 220.293 123.787 221.264 123.378Z" fill="#ED7D2B"/>
<path d="M233.778 154.561C232.991 158.154 219.882 158.58 216.496 155.318C216.11 154.946 216.092 153.217 216.237 150.884C216.521 146.327 217.431 139.465 217.471 135.97C217.506 134.292 217.694 132.622 218.031 130.978C218.432 128.947 218.987 126.949 219.693 125.003C219.693 125.003 226.097 122.933 227.296 123.284C233.069 124.98 234.567 150.967 233.778 154.561Z" fill="#FF9843"/>
<path d="M216.242 150.884C216.526 146.327 217.437 139.465 217.477 135.97C217.511 134.293 217.699 132.622 218.037 130.978L221.894 130.298C221.894 130.298 225.65 145.681 216.242 150.884Z" fill="#ED7D2B"/>
<path d="M218.329 144.532C218.401 144.715 218.411 144.916 218.359 145.105C218.307 145.294 218.195 145.461 218.04 145.582C217.488 146.003 217.131 146.685 217.258 147.185C217.385 147.685 218.593 148.496 219.012 148.365C219.432 148.234 220.285 147.577 220.193 147.314C220.1 147.052 220.767 145 219.745 144.217C218.724 143.435 218.329 144.532 218.329 144.532Z" fill="#FFB27D"/>
<path d="M222.64 124.081C222.64 124.081 218.884 124.784 215.891 129.196C212.897 133.607 210.928 136.886 211.479 138.476C212.03 140.065 217.057 145.574 217.923 145.574C218.789 145.574 220.188 144.944 220.267 143.526C220.267 143.526 216.729 138.223 217.426 137.428C217.724 137.089 222.02 133.6 222.634 135.177C223.643 137.789 222.64 124.081 222.64 124.081Z" fill="#FF9843"/>
<path d="M225.862 119.532C225.057 120.896 222.058 122.073 220.809 122.507C220.822 122.437 220.838 122.366 220.85 122.298C221.052 121.286 221.227 120.417 221.227 120.417L224.89 118.802C225.7 118.789 226.189 118.975 225.862 119.532Z" fill="#FCA56B"/>
<path d="M219.845 120.195C219.845 120.195 225.748 122.036 226.837 118.343C227.926 114.651 229.423 112.401 225.701 111.069C221.979 109.738 220.828 110.93 220.165 112.074C219.501 113.217 218.339 119.621 219.845 120.195Z" fill="#FFB27D"/>
<path d="M220.396 111.722C220.396 111.722 220.773 116.018 221.661 115.831C222.55 115.645 223.359 115.507 223.225 116.802C223.09 118.097 222.492 120.157 225.231 120.385C227.97 120.613 231.278 112.989 230.525 111.651C228.349 107.79 217.258 107.011 220.396 111.722Z" fill="#163560"/>
<path d="M323.523 43.2104C323.523 43.2104 320.829 46.406 317.398 45.062C317.398 45.062 316.661 43.2783 316.65 41.962C316.65 41.8 316.65 41.6442 316.65 41.4991C316.631 40.0178 316.582 39.1845 316.582 39.1845C316.736 39.1197 321.828 37.0242 321.828 37.2032C321.731 41.2167 323.523 43.2104 323.523 43.2104Z" fill="#FFB27D"/>
<path d="M321.308 38.1647C320.817 39.0751 319.134 40.8542 316.643 41.5039C316.625 40.0225 316.575 39.1893 316.575 39.1893C316.72 39.1522 321.453 37.8977 321.308 38.1647Z" fill="#ED975D"/>
<path d="M315.511 39.0439C315.511 39.0439 321.231 40.3895 322.015 36.8142C322.799 33.2389 324.063 31.003 320.443 29.9923C316.823 28.9816 315.813 30.1914 315.261 31.3209C314.708 32.4504 314.042 38.5949 315.511 39.0439Z" fill="#FFB27D"/>
<path d="M321.819 37.7804C321.897 37.8298 323.127 38.2094 325.459 33.5648C325.826 32.8349 326.076 31.2579 325.221 29.8614C324.366 28.4649 321.343 27.3709 318.83 26.8941C316.316 26.4173 315.713 27.8323 315.126 29.2535C314.509 30.7456 312.71 31.9739 312.71 31.9739C314.878 33.1836 317.493 31.4523 318.393 31.7378C319.293 32.0232 319.617 33.4475 319.685 33.8981C319.752 34.3486 319.856 34.7344 320.993 34.327C322.13 33.9197 321.507 35.938 321.325 36.3238C321.32 36.333 321.166 37.3622 321.819 37.7804Z" fill="#A9453D"/>
<path d="M336.558 126.959H340.022C340.749 126.959 341.556 126.232 341.758 124.9C341.96 123.569 343.456 122.842 343.777 121.752C344.097 120.663 342.443 119.129 342.443 119.129L342.167 118.774L341.879 118.402L339.135 119.049C339.135 119.049 339.067 119.702 339.024 120.535C338.995 121.135 338.979 121.829 339.013 122.439C339.095 123.893 338.606 125.457 337.316 125.74C336.026 126.022 336.558 126.959 336.558 126.959Z" fill="#2C3A64"/>
<path d="M312.446 126.958H321.629C321.696 126.948 321.761 126.928 321.823 126.901C322.441 126.593 322.245 124.247 322.172 123.522L322.148 123.309C322.148 123.309 318.918 120.726 318.473 122.704C318.46 122.766 318.443 122.826 318.426 122.886C317.866 124.738 315.36 125.577 313.912 125.818C312.8 125.993 312.513 126.636 312.446 126.958Z" fill="#2C3A64"/>
<path d="M314.298 74.0004C314.298 74.0004 314.789 80.1187 315.366 87.4744C316.148 97.4658 317.091 109.738 317.183 112.063C317.338 116.1 317.992 122.556 317.992 122.556C317.992 122.556 319.524 124.099 322.593 123.445C322.593 123.445 325.328 114.225 326.108 104.465C326.121 104.311 326.133 104.144 326.144 103.984C326.871 94.0541 327.996 73.144 327.996 73.144L314.298 74.0004Z" fill="#2B478B"/>
<path d="M314.298 74.0007C314.298 74.0007 314.789 80.1189 315.366 87.4747L326.101 104.47C326.113 104.316 326.125 104.149 326.136 103.989C326.863 94.0589 327.988 73.1489 327.988 73.1489L314.298 74.0007Z" fill="#233862"/>
<path d="M316.529 74.7276C316.529 74.7276 325.369 96.8875 331.188 107.302C337.007 117.716 338.817 120.621 338.817 120.621C338.817 120.621 342.147 119.29 342.45 118.381C342.45 118.381 340.228 98.2762 336.334 93.3832C334.136 90.6057 331.551 82.3025 331.431 79.3969C331.31 76.4913 330.644 70.7388 330.644 70.7388L316.529 74.7276Z" fill="#2B478B"/>
<path d="M336.689 70.7001L336.783 72.1259C336.783 72.1259 335.842 74.6581 338.481 75.9558C338.481 75.9558 339.609 76.411 339.653 75.533C339.698 74.655 339.556 74.9852 339.653 73.7492C339.751 72.5132 339.258 71.3467 338.442 70.9532L337.771 70.1816L336.689 70.7001Z" fill="#FFB27D"/>
<path d="M337.719 71.7385C336.741 72.0471 336.583 71.9807 336.583 71.9807C336.583 71.9807 331.821 63.3103 331.337 62.5171C330.852 61.724 321.227 52.7959 321.227 52.7959L323.695 43.5684C323.695 43.5684 334.651 57.7506 335.83 59.7859C337.784 63.1483 338.929 70.9577 338.929 70.9577C338.599 71.3171 338.182 71.5859 337.719 71.7385Z" fill="#1E3D70"/>
<path d="M312.425 56.4173C312.459 58.3122 312.568 60.4416 312.717 62.6066L312.744 62.9908C312.84 64.3317 312.942 65.6742 313.061 66.9842C313.108 67.5099 313.159 68.0284 313.215 68.5396L313.223 68.6075C313.223 68.7989 313.25 69.0056 313.271 69.1954C313.753 74.1008 314.26 77.9785 314.351 78.0372C314.46 78.1144 314.594 78.149 314.727 78.1344C316.014 77.9724 319.853 78.264 322.996 77.5804C325.649 77.0203 327.934 75.9602 330.354 74.5298C330.675 74.34 331.406 73.8369 331.347 73.4604C331.289 73.0484 331.181 72.4513 331.039 71.6998C330.562 69.0905 329.738 64.6017 329.457 59.3461C329.403 58.3678 329.323 57.4003 329.22 56.4497C328.979 54.1143 328.551 51.802 327.939 49.5353C326.859 45.6545 325.277 42.6826 323.29 41.5191C323.03 41.374 321.634 42.2628 320.358 43.0868C319.275 43.7795 317.99 44.0837 316.712 43.9494L315.644 45.1314C314.351 46.6343 312.974 48.6341 312.599 51.4795C312.57 51.6894 312.547 51.9116 312.525 52.1492C312.419 53.5693 312.386 54.9939 312.425 56.4173Z" fill="#2A4E96"/>
<path d="M312.425 56.4176C312.459 58.3125 312.569 60.4419 312.717 62.6068L312.744 62.9911C320.096 58.3896 321.231 49.9707 321.231 49.9707C317.616 50.125 314.743 50.9613 312.528 52.1495C312.422 53.5695 312.387 54.9941 312.425 56.4176Z" fill="#1E3D70"/>
<path d="M290.706 48.3146L289.368 47.6279C289.368 47.6279 288.504 44.781 285.278 45.1883C285.278 45.1883 283.964 45.4553 284.506 46.2685C285.048 47.0817 284.969 46.7036 285.713 47.8732C286.456 49.0429 287.682 49.8052 288.677 49.6694L289.796 49.9656L290.706 48.3146Z" fill="#ED975D"/>
<path d="M289.396 48.6866C289.774 47.662 290.364 47.7284 290.364 47.7284C290.364 47.7284 301.293 50.4519 302.273 50.5691C303.253 50.6864 314.042 46.3566 314.042 46.3566C314.042 46.3566 318.289 44.4509 320.278 46.1915C322.006 47.7037 322.084 49.6186 321.68 51.228C321.441 52.1641 320.925 53.0064 320.2 53.6451C319.475 54.2839 318.575 54.6896 317.616 54.8095C313.213 55.3711 304.433 56.4251 302.592 56.1689C298.496 55.5995 289.214 50.242 289.214 50.242C289.155 49.7164 289.217 49.1843 289.396 48.6866Z" fill="#2A4E96"/>
<path d="M135.24 130.338C135.24 130.338 135.548 126.943 131.766 126.943C131.766 126.943 132.913 127.251 133.505 127.869C133.505 127.869 131.092 126.451 128.466 128.628C125.839 130.805 127.472 136.266 126.673 137.303C125.873 138.34 122.762 138.548 123.144 141.9C123.525 145.251 133.019 149.451 132.402 152.224C132.402 152.224 136.122 146.757 133.462 144.262C133.462 144.262 134.758 145.483 134.891 146.935C134.891 146.935 135.243 144.1 133.439 143.194C131.843 142.392 130.536 139.457 130.675 138.934C130.814 138.411 135.24 130.338 135.24 130.338Z" fill="#2C3A64"/>
<path d="M131.803 146.272C131.22 143.462 127.577 142.59 125.852 144.883C125.525 145.313 125.318 145.822 125.253 146.358C124.86 149.547 129.959 162.54 130.691 163.716C132.019 165.858 139.849 173.199 139.849 173.199L141.292 172.325C141.292 172.325 135.737 162.923 134.879 162.043C133.885 161.029 132.911 151.607 131.803 146.272Z" fill="#ED985F"/>
<path d="M130.964 144.529C130.964 144.529 132.074 145.682 132.581 147.065C132.581 147.065 130.81 152.157 126.673 152.786C126.673 152.786 129.946 144.526 130.964 144.529Z" fill="#AA413E"/>
<path d="M134.168 129.861C134.219 129.654 129.693 131.91 129.456 132.166C127.329 134.524 127.934 137.602 129.147 137.633C129.928 137.652 129.777 138.949 129.777 138.949L138.47 135.271C138.47 135.271 137.429 129.166 134.168 129.861Z" fill="#2C3A64"/>
<path d="M124.609 203.573L122.729 203.297C122.729 203.297 116.402 198.269 115.461 188.888C115.362 187.924 115.347 186.954 115.416 185.988C115.429 185.877 115.406 185.764 115.35 185.667C115.147 185.359 114.643 184.578 113.961 183.473C113.279 182.368 112.137 180.324 110.875 178.012C108.594 173.846 105.937 168.871 105.028 167.286C102.127 162.231 103.516 158.832 103.516 158.832C103.516 158.832 111.614 158.032 113.833 156.091L114.631 157.326C114.631 157.326 116.385 165.092 116.303 165.127C116.39 165.393 116.477 165.662 116.566 165.934C117.954 170.209 119.544 175.549 120.411 179.899C120.9 182.346 121.158 184.479 121.019 185.933C120.971 186.431 121.03 187.196 121.162 188.142C121.948 193.713 124.609 203.573 124.609 203.573Z" fill="#2B478B"/>
<path d="M128.557 205.952H120.707C120.707 205.952 120.519 204.756 120.929 203.849C121.321 202.977 121.881 202.95 121 201.585C121.499 202.099 123.102 202.311 124.241 202.158C124.38 202.383 125.137 203.897 125.602 204.23C126.111 204.599 128.399 204.46 128.557 205.952Z" fill="#233862"/>
<path d="M116.567 165.931C115.882 169.713 114.261 176.008 110.868 178.01C108.588 173.844 105.93 168.869 105.022 167.285C102.127 162.231 103.516 158.832 103.516 158.832C103.516 158.832 111.614 158.032 113.833 156.091L114.63 157.326C114.63 157.326 116.385 165.092 116.303 165.127C116.39 165.391 116.478 165.659 116.567 165.931Z" fill="#233862"/>
<path d="M111.063 159.417L111.089 157.948C108.157 158.316 101.004 154.453 101.004 154.453C101.004 154.453 97.944 156.488 97.5242 162.301C97.3206 165.138 96.0259 177.136 95.884 180.719C95.8315 182.016 95.8145 182.944 95.8084 183.314C95.8028 183.428 95.7593 183.536 95.6849 183.623C95.0886 184.385 94.5594 185.197 94.1033 186.05C89.6407 194.353 91.9739 205.638 91.9739 205.638L93.0108 205.374C93.0108 205.374 96.7851 193.676 99.2509 188.616C99.6706 187.758 100.05 187.091 100.368 186.704C101.294 185.578 102.274 183.664 103.238 181.362C105.061 177.011 106.829 171.267 108.091 166.82C108.174 166.836 111.063 159.417 111.063 159.417Z" fill="#2B478B"/>
<path d="M128.18 149.618C123.396 148.521 126.453 141.801 126.729 141.92C127.391 141.784 128.846 140.621 130.149 138.349L130.325 138.503L133.256 141.079C133.256 141.079 132.578 142.08 132.007 143.06C131.561 143.832 131.181 144.585 131.235 144.845C131.482 145.029 129.454 149.911 128.18 149.618Z" fill="#FFB27D"/>
<path d="M133.261 141.077C133.261 141.077 132.582 142.077 132.011 143.06C130.186 141.934 130.184 139.673 130.325 138.502L133.261 141.077Z" fill="#ED985F"/>
<path d="M133.343 142.368C133.343 142.368 128.91 139.899 130.488 137.163C132.067 134.427 132.558 132.264 135.455 133.723C138.353 135.183 138.296 136.541 137.991 137.581C137.685 138.621 134.531 142.938 133.343 142.368Z" fill="#FFB27D"/>
<path d="M138.74 135.987C138.537 134.771 137.919 134.655 137.489 134.736C135.852 132.029 133.176 133.086 133.176 133.086C132.29 134.169 131.055 134.911 129.683 135.185C129.683 135.185 130.196 136.141 132.317 136.728C132.963 136.908 133.705 136.799 134.407 136.561C133.461 137.074 132.448 137.455 131.399 137.695C134.193 137.95 136.85 135.396 137.126 135.123C137.254 135.52 137.481 136.348 137.345 136.953C137.162 137.777 136.43 139.268 136.883 139.46C136.876 139.467 139.044 137.809 138.74 135.987Z" fill="#2C3A64"/>
<path d="M98.212 205.952H90.3624C90.3624 205.952 90.1742 204.757 90.5846 203.849C90.9766 202.977 91.5922 202.582 91.4441 201.535C91.9441 202.049 92.7557 202.624 93.8914 202.471C94.0303 202.697 94.7895 203.903 95.2539 204.237C95.7662 204.599 98.053 204.46 98.212 205.952Z" fill="#233862"/>
<path d="M128.741 154.945C127.732 155.297 126.314 155.49 124.864 155.649C122.801 155.874 120.668 156.027 119.552 156.473C119.145 156.627 118.873 156.835 118.789 157.09C118.304 158.545 116.165 160.793 116.165 160.793C102.497 160.176 100.997 154.454 100.997 154.454C110.192 143.761 125.763 140.666 125.763 140.666C125.763 140.666 126.876 140.203 129.676 142.42C131.545 143.906 131.3 144.477 131.3 144.477C131.3 144.477 131.713 153.908 128.741 154.945Z" fill="#C65447"/>
<path d="M124.865 155.649C122.801 155.874 120.669 156.027 119.553 156.473C119.09 149.655 122.314 144.528 122.314 144.528C122.314 144.528 124.412 153.076 124.865 155.649Z" fill="#AA413E"/>
<path d="M185.969 148.245H148.134C142.704 148.245 138.303 152.647 138.303 158.076V195.912C138.303 201.341 142.704 205.743 148.134 205.743H185.969C191.399 205.743 195.8 201.341 195.8 195.912V158.076C195.8 152.647 191.399 148.245 185.969 148.245Z" fill="#EED5D5"/>
<path d="M188.354 162.396V190.472C188.353 192.407 187.584 194.262 186.216 195.63C184.848 196.998 182.993 197.767 181.058 197.768H152.974C151.04 197.767 149.184 196.999 147.816 195.63C146.448 194.262 145.679 192.407 145.679 190.472V162.396C145.679 160.461 146.447 158.606 147.816 157.237C149.184 155.869 151.039 155.101 152.974 155.101H181.058C182.993 155.101 184.849 155.869 186.217 157.237C187.585 158.606 188.354 160.461 188.354 162.396Z" fill="#D2E4FF"/>
<path d="M161.521 176.235C161.521 176.235 157.447 168.844 161.185 165.588C164.922 162.332 171.501 164.273 172.713 165.588C173.924 166.902 175.535 170.647 172.193 175.969L161.521 176.235Z" fill="#2C3A64"/>
<path d="M163.21 179.276C163.21 179.276 163.064 183.84 162.479 185.885L157.85 189.11L175.252 191.713L171.101 185.979C171.101 185.979 169.848 179.861 170.506 177.597C171.163 175.333 163.21 179.276 163.21 179.276Z" fill="#B56F40"/>
<path d="M163.186 179.907C163.186 179.907 164.562 183.22 167.154 183.148C169.747 183.075 170.33 180.142 170.33 180.142L163.186 179.907Z" fill="#99592E"/>
<path d="M166.857 181.867C164.979 181.833 161.521 179.331 161.521 176.234V171.402C161.521 170.27 162.312 169.346 163.274 169.346H170.44C171.405 169.346 172.193 170.272 172.193 171.402V175.961C172.193 179.209 169.011 181.904 166.857 181.867Z" fill="#B56F40"/>
<path d="M186.394 195.446C185.712 196.179 184.887 196.764 183.968 197.164C183.05 197.563 182.059 197.769 181.058 197.768H152.974C151.945 197.769 150.928 197.552 149.989 197.131C149.05 196.71 148.211 196.095 147.527 195.325C153.545 187.329 157.36 186.826 157.458 186.815C159.098 186.318 160.783 185.986 162.489 185.826C162.489 185.893 164.504 188.847 166.882 189.175C168.359 188.591 169.465 188.02 171.081 185.874C173.093 186.135 175.087 186.525 177.049 187.041V187.024C177.049 187.024 180.621 187.925 186.394 195.446Z" fill="#74ACBE"/>
<path d="M161.521 173.361C161.521 173.361 162.825 169.382 167.098 170.004C171.371 170.625 171.738 171.536 172.19 172.596C172.642 173.656 173.52 168.726 173.52 168.726L168.482 167.228C168.482 167.228 162.384 167.922 161.947 168.943L161.509 169.966L161.521 173.361Z" fill="#2C3A64"/>
<path d="M166.509 165.663C166.509 165.663 161.994 161.56 163.932 160.684C165.87 159.807 166.509 165.663 166.509 165.663Z" fill="#2C3A64"/>
<path d="M166.326 165.771C166.326 165.771 160.617 163.62 162.095 162.092C163.573 160.565 166.326 165.771 166.326 165.771Z" fill="#2C3A64"/>
<path d="M166.7 165.884C166.7 165.884 165.774 160.593 168.022 160.637C170.27 160.682 166.7 165.884 166.7 165.884Z" fill="#2C3A64"/>
<path d="M167.016 165.544C167.016 165.544 169.461 159.853 171.737 160.386C174.013 160.918 167.016 165.544 167.016 165.544Z" fill="#2C3A64"/>
<path d="M166.891 165.884C166.891 165.884 170.782 161.065 172.83 162.191C174.878 163.318 166.891 165.884 166.891 165.884Z" fill="#2C3A64"/>
<path d="M126.989 143.21C126.989 143.21 121.815 143.721 121.402 147.081C120.988 150.442 126.361 164.134 127.131 165.373C128.532 167.63 136.783 175.366 136.783 175.366L138.303 174.44C138.303 174.44 132.45 164.532 131.544 163.606C130.121 162.154 128.74 144.373 126.989 143.21Z" fill="#FFB27D"/>
<path d="M121.551 149.104C121.563 149.18 126.324 150.658 129.388 149.104C129.388 149.104 130.044 142.036 126.385 142.418C122.727 142.801 120.562 143.961 120.471 145.705C120.38 147.449 121.551 149.104 121.551 149.104Z" fill="#C65447"/>
<path d="M136.783 175.366C136.783 175.366 136.144 177.793 136.783 178.89C137.208 179.599 137.719 180.253 138.303 180.837V174.444L136.783 175.366Z" fill="#FFB27D"/>
<path d="M310.927 205.741H270.54L283.813 148.245H322.253L324.021 149.021L310.927 205.741Z" fill="#CCA07F"/>
<path d="M308.979 205.741H268.593L281.866 148.245H322.253L308.979 205.741Z" fill="#E3F0FF"/>
<path d="M311.409 156.328H292.769C292.555 156.337 292.349 156.415 292.183 156.55C292.016 156.684 291.897 156.869 291.843 157.076C291.816 157.164 291.81 157.258 291.827 157.349C291.843 157.44 291.881 157.526 291.937 157.599C291.994 157.672 292.067 157.731 292.151 157.77C292.234 157.809 292.326 157.828 292.419 157.824H311.057C311.271 157.815 311.477 157.737 311.643 157.603C311.81 157.468 311.929 157.283 311.983 157.076C312.011 156.988 312.016 156.894 312 156.803C311.984 156.712 311.946 156.626 311.89 156.553C311.834 156.48 311.761 156.421 311.677 156.382C311.593 156.342 311.501 156.324 311.409 156.328Z" fill="#CBE2F7"/>
<path d="M311.009 160.316H291.33C291.265 160.32 291.202 160.343 291.152 160.384C291.101 160.425 291.064 160.482 291.048 160.545C291.039 160.572 291.038 160.6 291.043 160.628C291.048 160.655 291.06 160.682 291.077 160.704C291.094 160.726 291.116 160.744 291.142 160.756C291.167 160.768 291.195 160.774 291.223 160.773H310.904C310.969 160.77 311.031 160.746 311.082 160.705C311.133 160.664 311.169 160.608 311.186 160.545C311.195 160.517 311.196 160.489 311.191 160.461C311.186 160.433 311.175 160.406 311.157 160.384C311.14 160.361 311.117 160.344 311.091 160.332C311.065 160.32 311.037 160.315 311.009 160.316Z" fill="#CBE2F7"/>
<path d="M310.764 161.37H291.086C291.021 161.374 290.959 161.398 290.908 161.439C290.858 161.48 290.822 161.536 290.805 161.599C290.797 161.626 290.795 161.654 290.8 161.682C290.804 161.709 290.816 161.736 290.833 161.758C290.85 161.78 290.872 161.798 290.898 161.81C290.923 161.822 290.951 161.828 290.979 161.827H310.659C310.724 161.823 310.786 161.799 310.837 161.758C310.887 161.717 310.924 161.661 310.94 161.599C310.949 161.572 310.951 161.543 310.946 161.515C310.941 161.487 310.929 161.461 310.912 161.439C310.895 161.416 310.872 161.398 310.846 161.386C310.821 161.375 310.793 161.369 310.764 161.37Z" fill="#CBE2F7"/>
<path d="M284.209 157.824H289.244C289.458 157.815 289.663 157.738 289.83 157.603C289.997 157.468 290.116 157.284 290.169 157.076C290.197 156.988 290.203 156.894 290.187 156.803C290.17 156.712 290.132 156.626 290.076 156.552C290.019 156.479 289.946 156.42 289.862 156.381C289.778 156.342 289.686 156.324 289.594 156.328H284.559C284.345 156.337 284.139 156.415 283.973 156.55C283.806 156.684 283.687 156.869 283.633 157.076C283.606 157.164 283.6 157.258 283.617 157.349C283.633 157.44 283.671 157.526 283.727 157.599C283.784 157.672 283.857 157.731 283.941 157.77C284.024 157.809 284.116 157.828 284.209 157.824Z" fill="#CBE2F7"/>
<path d="M308.339 167.933H289.7C289.486 167.942 289.28 168.02 289.114 168.154C288.947 168.289 288.828 168.474 288.774 168.681C288.747 168.769 288.741 168.863 288.757 168.954C288.773 169.046 288.811 169.132 288.868 169.205C288.924 169.279 288.997 169.337 289.081 169.377C289.165 169.416 289.257 169.435 289.35 169.431H307.988C308.203 169.422 308.408 169.344 308.575 169.209C308.742 169.074 308.861 168.889 308.914 168.681C308.942 168.593 308.948 168.499 308.931 168.408C308.915 168.317 308.877 168.231 308.821 168.157C308.764 168.084 308.691 168.025 308.607 167.986C308.523 167.947 308.431 167.929 308.339 167.933Z" fill="#CBE2F7"/>
<path d="M307.937 171.922H288.259C288.194 171.925 288.131 171.95 288.081 171.991C288.03 172.032 287.994 172.088 287.978 172.151C287.969 172.178 287.967 172.207 287.972 172.235C287.977 172.263 287.989 172.289 288.006 172.311C288.024 172.334 288.046 172.352 288.072 172.364C288.097 172.376 288.125 172.381 288.154 172.38H307.832C307.897 172.376 307.959 172.352 308.01 172.311C308.06 172.27 308.096 172.214 308.113 172.151C308.122 172.124 308.123 172.096 308.118 172.068C308.113 172.04 308.102 172.014 308.085 171.991C308.067 171.968 308.045 171.95 308.019 171.938C307.994 171.926 307.966 171.92 307.937 171.922Z" fill="#CBE2F7"/>
<path d="M307.696 172.982H288.015C287.95 172.985 287.888 173.01 287.838 173.051C287.787 173.092 287.751 173.148 287.735 173.211C287.726 173.238 287.724 173.267 287.729 173.295C287.734 173.323 287.746 173.349 287.763 173.371C287.78 173.394 287.803 173.412 287.828 173.424C287.854 173.436 287.882 173.441 287.911 173.44H307.589C307.654 173.437 307.717 173.413 307.768 173.372C307.818 173.331 307.855 173.275 307.872 173.211C307.88 173.184 307.882 173.156 307.877 173.128C307.872 173.1 307.86 173.074 307.843 173.051C307.826 173.029 307.803 173.01 307.778 172.998C307.752 172.986 307.724 172.981 307.696 172.982Z" fill="#CBE2F7"/>
<path d="M281.143 169.433H286.179C286.393 169.423 286.599 169.345 286.766 169.21C286.932 169.075 287.051 168.891 287.105 168.683C287.133 168.595 287.138 168.501 287.122 168.41C287.106 168.319 287.068 168.233 287.012 168.159C286.955 168.086 286.882 168.027 286.798 167.988C286.714 167.949 286.622 167.931 286.529 167.935H281.493C281.279 167.944 281.073 168.022 280.907 168.156C280.74 168.291 280.621 168.476 280.567 168.683C280.54 168.771 280.534 168.865 280.55 168.956C280.566 169.048 280.604 169.134 280.661 169.207C280.717 169.281 280.79 169.339 280.874 169.379C280.958 169.418 281.05 169.437 281.143 169.433Z" fill="#CBE2F7"/>
<path d="M305.893 179.54H287.254C287.04 179.549 286.835 179.627 286.668 179.762C286.502 179.896 286.383 180.081 286.328 180.288C286.301 180.377 286.295 180.47 286.312 180.561C286.328 180.652 286.367 180.738 286.423 180.812C286.48 180.885 286.553 180.944 286.637 180.983C286.721 181.022 286.813 181.04 286.905 181.036H305.544C305.758 181.027 305.964 180.949 306.13 180.815C306.297 180.68 306.416 180.495 306.47 180.288C306.498 180.2 306.503 180.106 306.487 180.014C306.471 179.923 306.433 179.837 306.376 179.764C306.319 179.69 306.246 179.632 306.162 179.593C306.078 179.554 305.985 179.535 305.893 179.54Z" fill="#CBE2F7"/>
<path d="M305.492 183.529H285.813C285.748 183.532 285.686 183.556 285.635 183.597C285.584 183.638 285.548 183.694 285.531 183.757C285.523 183.784 285.521 183.812 285.526 183.84C285.531 183.868 285.543 183.894 285.56 183.916C285.577 183.939 285.6 183.956 285.625 183.968C285.651 183.98 285.679 183.986 285.707 183.985H305.387C305.452 183.982 305.514 183.958 305.564 183.917C305.615 183.876 305.651 183.82 305.668 183.757C305.676 183.73 305.678 183.701 305.673 183.673C305.668 183.646 305.657 183.619 305.639 183.597C305.622 183.574 305.6 183.557 305.574 183.545C305.548 183.533 305.52 183.527 305.492 183.529Z" fill="#CBE2F7"/>
<path d="M305.248 184.583H285.569C285.504 184.586 285.442 184.61 285.392 184.651C285.341 184.692 285.305 184.748 285.288 184.811C285.28 184.838 285.278 184.867 285.283 184.895C285.288 184.922 285.3 184.949 285.317 184.971C285.334 184.993 285.357 185.011 285.382 185.023C285.408 185.035 285.436 185.041 285.464 185.039H305.143C305.208 185.036 305.27 185.012 305.32 184.971C305.371 184.93 305.407 184.874 305.424 184.811C305.432 184.784 305.434 184.755 305.429 184.728C305.424 184.7 305.413 184.673 305.395 184.651C305.378 184.629 305.356 184.611 305.33 184.599C305.304 184.587 305.276 184.581 305.248 184.583Z" fill="#CBE2F7"/>
<path d="M278.696 181.037H283.731C283.945 181.027 284.15 180.949 284.317 180.815C284.484 180.68 284.603 180.496 284.657 180.288C284.684 180.2 284.69 180.106 284.673 180.015C284.657 179.924 284.619 179.839 284.563 179.765C284.506 179.692 284.433 179.633 284.349 179.594C284.266 179.555 284.174 179.536 284.081 179.54H279.045C278.831 179.549 278.625 179.627 278.458 179.761C278.292 179.896 278.173 180.081 278.119 180.288C278.091 180.377 278.085 180.471 278.102 180.562C278.118 180.653 278.156 180.739 278.213 180.813C278.269 180.886 278.343 180.945 278.427 180.984C278.511 181.023 278.603 181.041 278.696 181.037Z" fill="#CBE2F7"/>
<path d="M303.033 191.619H284.399C284.185 191.628 283.98 191.706 283.813 191.84C283.646 191.975 283.527 192.16 283.473 192.367C283.446 192.456 283.44 192.549 283.456 192.641C283.473 192.732 283.51 192.818 283.567 192.891C283.623 192.965 283.696 193.024 283.78 193.063C283.864 193.102 283.956 193.121 284.049 193.117H302.688C302.902 193.107 303.107 193.029 303.274 192.894C303.44 192.759 303.559 192.575 303.613 192.367C303.641 192.278 303.646 192.184 303.63 192.093C303.613 192.002 303.575 191.916 303.518 191.842C303.461 191.769 303.387 191.71 303.303 191.671C303.218 191.632 303.126 191.614 303.033 191.619Z" fill="#CBE2F7"/>
<path d="M302.639 195.608H282.959C282.894 195.611 282.832 195.635 282.781 195.676C282.731 195.717 282.695 195.773 282.678 195.836C282.669 195.863 282.668 195.892 282.673 195.92C282.678 195.947 282.689 195.974 282.706 195.996C282.724 196.019 282.746 196.037 282.772 196.049C282.797 196.061 282.825 196.067 282.854 196.066H302.532C302.598 196.062 302.66 196.038 302.711 195.997C302.762 195.956 302.798 195.899 302.815 195.836C302.823 195.809 302.824 195.78 302.819 195.753C302.814 195.725 302.803 195.699 302.785 195.677C302.768 195.654 302.746 195.636 302.721 195.624C302.695 195.612 302.667 195.607 302.639 195.608Z" fill="#CBE2F7"/>
<path d="M302.395 196.662H282.716C282.651 196.665 282.589 196.689 282.538 196.73C282.487 196.771 282.451 196.827 282.434 196.89C282.425 196.917 282.424 196.946 282.429 196.974C282.433 197.002 282.445 197.028 282.462 197.05C282.48 197.073 282.502 197.091 282.528 197.103C282.553 197.115 282.581 197.121 282.61 197.12H302.288C302.354 197.117 302.416 197.092 302.467 197.051C302.518 197.01 302.554 196.953 302.571 196.89C302.579 196.863 302.58 196.835 302.575 196.807C302.57 196.779 302.558 196.753 302.541 196.731C302.524 196.708 302.502 196.691 302.476 196.679C302.451 196.667 302.423 196.661 302.395 196.662Z" fill="#CBE2F7"/>
<path d="M281.224 191.619H276.185C275.971 191.629 275.765 191.706 275.599 191.841C275.432 191.976 275.313 192.16 275.259 192.367C275.232 192.456 275.226 192.55 275.243 192.641C275.259 192.732 275.297 192.818 275.354 192.891C275.41 192.965 275.484 193.024 275.567 193.063C275.651 193.102 275.743 193.121 275.836 193.117H280.871C281.085 193.108 281.291 193.03 281.458 192.895C281.624 192.76 281.743 192.575 281.797 192.367C281.824 192.279 281.83 192.186 281.814 192.095C281.798 192.004 281.76 191.918 281.704 191.845C281.648 191.772 281.575 191.713 281.492 191.674C281.408 191.634 281.317 191.616 281.224 191.619Z" fill="#CBE2F7"/>
<path d="M308.32 152.484H292.669C292.418 152.484 292.171 152.427 291.945 152.318C291.72 152.209 291.521 152.051 291.365 151.855C291.209 151.659 291.1 151.43 291.044 151.186C290.989 150.942 290.989 150.688 291.045 150.444L291.635 147.89H310.903L310.185 150.998C310.088 151.42 309.851 151.797 309.512 152.066C309.173 152.336 308.753 152.483 308.32 152.484Z" fill="#EE9849"/>
<path d="M310.905 147.892L312.232 148.245H310.823L310.905 147.892Z" fill="#ED7D2B"/>
<path d="M320.144 204.405C320.144 204.708 320.04 205.003 319.85 205.24C319.66 205.476 319.396 205.642 319.1 205.709C319.003 205.73 318.905 205.741 318.806 205.741H281.156C280.809 205.729 280.48 205.583 280.239 205.334C279.998 205.084 279.863 204.751 279.863 204.404C279.863 204.057 279.998 203.724 280.239 203.474C280.48 203.225 280.809 203.079 281.156 203.067H318.806C318.905 203.067 319.003 203.079 319.1 203.101C319.396 203.168 319.66 203.333 319.85 203.57C320.04 203.807 320.144 204.101 320.144 204.405Z" fill="#EE9849"/>
<path d="M319.102 203.067L324.019 204.155L319.102 205.743V203.067Z" fill="#739AF0"/>
<path d="M289.455 203.071V205.745H281.158C280.811 205.734 280.482 205.588 280.241 205.338C280 205.089 279.865 204.755 279.865 204.408C279.865 204.061 280 203.728 280.241 203.479C280.482 203.229 280.811 203.083 281.158 203.071H289.455Z" fill="#739AF0"/>
</g>
<defs>
<clipPath id="clip0_307_200">
<rect width="393.056" height="206.742" fill="white" transform="translate(6.94336)"/>
</clipPath>
</defs>
</svg>
