<svg width="500" height="360" viewBox="0 0 500 360" fill="none" xmlns="http://www.w3.org/2000/svg">
<g clip-path="url(#clip0_294_8)">
<g opacity="0.5">
<path d="M229.407 304.934C214.766 304.976 200.125 305.329 185.51 306.955C179.994 307.567 174.603 308.918 169.077 309.458C158.045 310.543 147.206 312.574 136.133 313.509C127.221 314.262 118.267 314.704 109.375 315.659C100.768 316.584 92.0754 316.318 83.5413 314.87C77.4179 313.774 71.2634 313.156 65.2439 311.4C58.492 309.432 51.2208 308.024 44.1781 308.076C34.1698 308.144 24.4419 308.154 14.8491 311.629C11.4888 312.849 7.37536 314.854 4.82005 317.415C-1.04367 323.273 -1.83311 337.894 3.99944 343.97C13.826 354.197 34.8034 358.211 48.5772 358.404C63.6702 358.606 78.3321 357.489 93.451 356.845C107.474 356.233 121.497 355.36 135.577 355.391C164.314 355.454 193.056 355.391 221.736 353.475C248.686 351.667 275.704 352.291 302.711 352.291C330.41 352.291 357.916 352.504 385.416 356.186C397.393 357.791 409.598 358.352 421.643 359.473C432.425 360.481 442.786 359.473 453.527 358.528C462.6 357.773 471.464 355.396 479.698 351.512C486.185 348.395 497.746 338.787 499.735 331.386C505.313 310.647 421.154 311.13 408.232 311.193C393.778 311.245 379.21 311.712 364.766 311.193C358.689 310.964 352.701 309.775 346.775 308.471C340.849 307.167 334.918 307.505 328.924 306.96C303.947 304.69 278.914 305.022 253.859 305.022C245.705 304.981 237.546 304.908 229.407 304.934Z" fill="#EED5D5"/>
</g>
<path d="M410.216 236.98L411.847 274.795L407.063 339.088L399.917 339.597L391.228 281.199L379.204 231.791L410.216 236.98Z" fill="#8CABEF"/>
<path d="M400.172 342.609L408.175 345.923L411.769 341.784L407.63 338.189L399.896 338.74L400.172 342.609Z" fill="#262B33"/>
<path d="M359.593 223.6L358.024 252.181L362.678 337.166L369.84 337.525L380.57 281.786L390.039 220.661L359.593 223.6Z" fill="#8CABEF"/>
<path d="M369.647 340.542L361.711 344.027L358.034 339.96L362.096 336.283L369.84 336.673L369.647 340.542Z" fill="#262B33"/>
<path d="M401.226 139.4L378.893 137.005C378.893 137.005 366.459 138.335 358.03 167.856C353.355 184.279 351.906 210.154 351.563 229.88C352.083 232.695 355.158 245.019 368.121 242.931C390.381 239.337 402.228 235.748 411.925 237.546C420.183 239.337 419.487 227.968 418.578 219.295L415.285 192.443L401.226 139.4Z" fill="#3B3387"/>
<path d="M396.909 111.587C391.279 110.346 385.483 109.234 379.843 110.351C378.607 110.595 377.282 111.026 376.612 112.091C376.374 112.517 376.199 112.975 376.093 113.452C374.675 118.739 372.868 126.582 376.347 131.453C377.029 132.365 377.883 133.134 378.861 133.718C380.136 134.509 381.544 135.063 383.016 135.354C382.715 136.669 382.294 137.954 381.759 139.192C383.047 141.134 389.062 141.368 390.173 139.504L390.36 134.668C391.095 134.375 391.8 134.009 392.464 133.577C394.96 131.851 396.807 129.339 397.709 126.441C398.784 123.325 400.306 120.333 401.267 117.145C401.625 115.981 401.906 114.657 401.293 113.608C400.68 112.558 399.215 112.107 397.974 111.826L396.909 111.587Z" fill="#AA6755"/>
<path d="M378.165 114.61C380.949 112.823 385.125 112.049 387.743 112.242C395.653 112.813 398.556 118.625 398.977 125.901C401.158 123.133 405.245 119.643 405.495 116.08C405.697 113.161 405.292 109.182 403.656 106.664C402.129 104.306 398.218 103.028 395.866 101.641L389.285 97.7771C388.845 97.4836 388.356 97.2708 387.841 97.1486C387.215 97.0832 386.583 97.1541 385.987 97.3564L370.442 101.371C369.445 101.631 368.313 102.005 367.944 102.966C367.779 103.573 367.793 104.215 367.986 104.815C368.573 107.505 369.705 110.258 369.985 112.979C370.302 114.563 371.242 122.681 374.047 121.741C374.873 120.396 374.992 118.739 375.636 117.295C376.199 116.172 377.078 115.238 378.165 114.61Z" fill="#4F4B47"/>
<path d="M378.882 137.005L370.624 139.519L340.459 171.118L338.667 181.531L353.085 205.339L356.98 196.614L350.872 179.017L360.569 172.193L373.496 143.113L378.882 137.005Z" fill="#A9B4B9"/>
<path d="M416.407 128.155C415.856 127.882 415.3 127.612 414.74 127.345C420.338 119.212 423.372 109.229 423.372 98.6444C423.372 73.1224 405.375 52.3579 383.25 52.3579C361.125 52.3579 343.149 73.1224 343.149 98.6444C343.149 109.234 346.182 119.217 351.781 127.345C350.914 127.745 350.332 128.041 350.078 128.171C338.562 133.455 328.798 141.925 321.94 152.579C315.082 163.234 311.416 175.628 311.374 188.298V204.337C311.378 207.658 312.699 210.842 315.048 213.19C317.396 215.539 320.58 216.86 323.901 216.864H442.625C445.945 216.86 449.129 215.539 451.476 213.19C453.824 210.841 455.144 207.657 455.147 204.337V188.298C455.106 175.621 451.435 163.22 444.57 152.563C437.705 141.905 427.932 133.435 416.407 128.155Z" fill="white"/>
<path d="M414.532 132.066C414.314 132.331 414.106 132.585 413.888 132.861C405.775 142.37 394.894 147.606 383.245 147.606C371.595 147.606 360.714 142.37 352.602 132.861C352.384 132.601 352.176 132.341 351.958 132.066C330.612 141.82 315.68 163.4 315.68 188.298V204.337C315.68 206.509 316.543 208.592 318.079 210.128C319.615 211.664 321.698 212.527 323.87 212.527H442.625C444.796 212.526 446.878 211.662 448.413 210.126C449.948 208.59 450.81 206.508 450.81 204.337V188.298C450.81 163.4 435.878 141.82 414.532 132.066Z" fill="#5D66D3"/>
<path d="M383.25 140.594C392.651 140.594 401.2 136.341 407.588 129.391C414.625 121.731 419.014 110.793 419.014 98.6445C419.014 75.4753 402.992 56.6948 383.229 56.6948C363.467 56.6948 347.439 75.4753 347.439 98.6445C347.439 110.793 351.849 121.731 358.866 129.391C365.295 136.341 373.844 140.594 383.25 140.594Z" fill="#5D66D3"/>
<path d="M318.209 159.557L322.649 157.027L326.674 164.356L322.442 171.876L315.685 168.75L318.209 159.557Z" fill="#AA6755"/>
<path d="M448.286 156.113L443.851 153.583L439.82 160.912L444.053 168.438L450.81 165.306L448.286 156.113Z" fill="#AA6755"/>
<path d="M118.028 240.028L86.9639 228.602L93.3677 283.022L89.6542 329.973L89.5555 330.285L89.6283 330.295L89.6231 330.399L95.7517 330.981V330.976L95.9802 331.002L109.666 289.171L116.906 244.614L118.028 240.028Z" fill="#474EBB"/>
<path d="M95.4349 333.12L89.0778 332.959L87.4521 338.325L87.6132 338.371L87.5716 338.377L98.0785 344.604L103.075 345.16L103.714 339.446L102.363 338.46L95.4349 333.12Z" fill="#292949"/>
<path d="M139.192 240.963L129.864 334.138L123.72 334.419L117.54 284.107L106.83 233.998L139.192 240.963Z" fill="#474EBB"/>
<path d="M129.848 336.304L137.997 340.921L137.233 344.765L122.681 342.573L123.532 337.037L129.848 336.304Z" fill="#292949"/>
<path d="M153.755 264.361C155.718 262.995 155.76 260.621 155.76 258.242C155.76 253.771 154.95 249.2 153.926 244.858C151.974 236.709 149.772 226.898 148.79 216.339C146.276 189.046 137.66 170.739 137.66 170.739L134.881 163.322C134.331 162.356 133.759 161.405 133.157 160.465C129.687 155.017 123.652 145.752 117.222 144.24C117.087 144.202 116.952 144.171 116.817 144.147C110.034 142.656 101.345 143.347 95.2166 146.645C94.0743 147.304 92.9962 148.07 91.9965 148.93C88.9997 151.35 86.5535 152.654 85.2447 156.342C84.1228 159.536 83.8579 163.026 83.2399 166.339C81.983 173.091 81.2351 179.89 80.2327 186.663C78.3526 199.361 76.7529 212.112 74.7429 224.779C73.7042 231.308 72.6655 237.847 72.1461 244.443C71.715 250.27 66.433 256.191 63.4985 261.416C62.4598 263.234 77.2411 267.944 78.5603 268.256C84.6889 269.679 91.2071 269.295 97.5226 269.347C111.373 269.409 125.207 268.981 139.026 268.064C143.612 267.763 149.268 266.885 153.345 264.6C153.506 264.527 153.636 264.444 153.755 264.361Z" fill="#D67086"/>
<path d="M109.193 143.399C109.193 143.399 101.403 141.295 100.317 158.886C99.2317 176.478 97.445 221.003 94.9312 233.198C92.4175 245.393 88.6572 269.367 88.6572 269.367L112.548 270.198L139.841 268.043C139.841 268.043 130.493 250.805 129.07 238.6C127.647 226.394 130.145 180.43 124.042 163.197C117.939 145.964 116.631 143.71 109.193 143.399Z" fill="#D67086"/>
<path d="M144.479 182.585L146.276 184.741L152.737 175.766L126.888 147.04L117.191 144.167L121.861 156.731L144.479 182.585Z" fill="#826656"/>
<path d="M122.873 175.153L117.201 170.827L118.941 168.323L123.48 170.422L123.756 168.858L128.16 173.148L126.7 176L122.873 175.153Z" fill="#EAC1A4"/>
<path d="M145.097 174.047L144.843 174.608L127.158 171.196L124.551 176.997L146.276 184.741L145.097 174.047Z" fill="#826656"/>
<path d="M120.068 129.459C121.247 133.001 119.549 136.782 118.037 140.007C116.708 142.869 116.245 144.754 119.621 145.528C121.522 145.964 124.898 146.775 126.565 145.32C127.827 144.214 127.116 140.812 126.503 139.457C126.036 138.418 124.794 137.899 124.353 136.86C124.194 136.419 124.12 135.952 124.135 135.483C124.111 133.575 124.375 131.673 124.919 129.843C125.371 128.628 125.698 127.37 125.895 126.088C126.056 124.213 124.732 122.027 124.036 120.307C122.743 117.103 118.235 112.808 114.459 115.321C113.644 115.965 113.026 116.826 112.677 117.804C112.395 118.355 112.227 118.957 112.184 119.575C112.153 122.037 114.402 122.447 115.949 123.621C117.868 125.118 119.301 127.149 120.068 129.459Z" fill="#3B3631"/>
<path d="M112.886 143.285C116.163 142.511 118.724 139.763 119.949 136.632C121.175 133.5 121.248 130.025 120.905 126.68C119.773 115.54 105.916 116.257 101.226 124.795C97.1386 132.232 103.366 145.528 112.886 143.285Z" fill="#D5C6AB"/>
<path d="M112.88 142.085C112.828 143.352 112.771 144.619 112.719 145.892C112.731 146.078 112.676 146.262 112.564 146.411C112.479 146.475 112.383 146.522 112.28 146.547C112.177 146.572 112.07 146.575 111.966 146.557L108.85 146.453C108.335 146.472 107.821 146.374 107.349 146.167C106.362 145.648 106.16 144.297 106.31 143.186C106.461 142.074 106.866 140.952 106.632 139.857C108.767 140.895 110.787 138.532 112.927 139.581L112.88 142.085Z" fill="#D5C6AB"/>
<path d="M108.393 107.37C104.757 108.606 102.42 112.283 98.8727 113.753C96.8368 114.599 94.4269 114.703 92.7649 116.152C89.041 119.398 92.0326 126.207 88.9735 130.082C88.3399 130.887 87.4829 131.5 86.8441 132.305C85.4677 134.039 85.286 136.403 85.1613 138.615C85.1222 139.135 85.1414 139.658 85.2184 140.173C85.6963 145.279 93.1077 144.951 96.0525 144.624C99.283 144.266 98.2079 142.474 98.2079 142.474L98.0885 142.329C97.9452 141.287 98.0693 140.226 98.4491 139.246C98.8289 138.265 99.4519 137.398 100.259 136.725C100.918 136.296 101.508 135.771 102.01 135.166C102.965 133.702 102.051 131.77 102.192 130.025C102.758 123.013 114.527 124.519 117.845 119.523C121.943 113.415 115.285 105.033 108.393 107.37Z" fill="#3B3631"/>
<path d="M143.674 128.155C143.123 127.882 142.568 127.612 142.007 127.345C147.611 119.212 150.644 109.229 150.644 98.6444C150.644 73.1224 132.642 52.3579 110.517 52.3579C88.3919 52.3579 70.3905 73.1328 70.3905 98.6444C70.3905 109.234 73.4236 119.217 79.0224 127.345C78.1551 127.745 77.5734 128.041 77.3189 128.171C65.8028 133.455 56.0393 141.925 49.1813 152.579C42.3232 163.234 38.6569 175.628 38.6152 188.298V204.337C38.6194 207.658 39.9405 210.842 42.2889 213.19C44.6374 215.539 47.8213 216.86 51.1425 216.864H169.892C173.213 216.86 176.396 215.539 178.744 213.19C181.091 210.841 182.411 207.657 182.414 204.337V188.298C182.373 175.621 178.703 163.22 171.838 152.563C164.973 141.905 155.2 133.435 143.674 128.155Z" fill="white"/>
<path d="M141.799 132.066C141.586 132.331 141.378 132.585 141.155 132.861C133.043 142.37 122.162 147.606 110.512 147.606C98.8626 147.606 87.9869 142.37 79.8692 132.861C79.6458 132.601 79.4381 132.341 79.2199 132.066C57.8841 141.82 42.9522 163.4 42.9522 188.298V204.337C42.9515 205.412 43.1627 206.477 43.5737 207.471C43.9848 208.464 44.5876 209.367 45.3477 210.128C46.1079 210.889 47.0104 211.492 48.0039 211.904C48.9973 212.315 50.0621 212.527 51.1375 212.527H169.892C172.063 212.526 174.145 211.662 175.68 210.126C177.215 208.59 178.077 206.508 178.077 204.337V188.298C178.077 163.4 163.145 141.82 141.799 132.066Z" fill="#5D66D3"/>
<path d="M110.517 140.594C119.917 140.594 128.466 136.341 134.855 129.391C141.892 121.731 146.281 110.793 146.281 98.6445C146.281 75.4753 130.258 56.6948 110.496 56.6948C90.7339 56.6948 74.7061 75.4753 74.7061 98.6445C74.7061 110.793 79.1155 121.731 86.1323 129.391C92.5621 136.341 101.121 140.594 110.517 140.594Z" fill="#5D66D3"/>
<path d="M45.4812 159.557L49.9166 157.027L53.9418 164.356L49.7141 171.876L42.957 168.75L45.4812 159.557Z" fill="#EAC1A4"/>
<path d="M175.553 156.113L171.117 153.583L167.087 160.912L171.32 168.438L178.077 165.306L175.553 156.113Z" fill="#EAC1A4"/>
<path d="M277.698 334.341L278.279 338.875L269.793 344.578L264.672 340.625L268.624 335.504L277.111 329.802L277.698 334.341Z" fill="#1B1B30"/>
<path d="M277.984 332.814L271.44 274.966L279.313 210.206L277.542 196.427L242.36 195.092L241.093 217.513L246.998 275.054L269.217 335.774L277.984 332.814Z" fill="#353A85"/>
<path d="M239.057 131.084L221.362 135.904L200.894 172.167L210.59 181.147L224.234 164.989L239.057 131.084Z" fill="#BABCBE"/>
<path d="M216.547 201.574L216.453 259.951L228.201 335.105L236.662 335.016L241.31 265.519L252.191 195.959L216.547 201.574Z" fill="#353A85"/>
<path d="M236.646 338.584L227.547 343.248L222.93 338.724L227.453 334.102L236.605 334.014L236.646 338.584Z" fill="#1B1B30"/>
<path d="M282.954 221.43C282.871 218.9 282.731 216.786 282.715 216.033C282.533 209.245 281.926 202.478 281.079 195.736C280.316 189.701 279.355 174.712 278.321 168.729C277.469 163.774 274.493 151.408 272.348 146.811C267.004 135.385 268.656 134.346 245.19 130.934C234.907 129.449 232.476 135.858 224.068 143.228C223.237 143.955 223.283 148.281 223.091 149.429C222.754 151.444 222.39 153.459 221.975 155.469C221.647 157.027 221.284 158.617 220.879 160.175C216.698 176.332 211.883 191.856 210.902 208.617C210.621 213.343 209.172 217.929 209.297 222.697C209.262 223.245 209.402 223.791 209.697 224.255C211.12 226.042 218.957 223.31 221.341 223.076C227.428 222.446 233.545 222.137 239.664 222.151C245.922 222.222 252.163 222.802 258.325 223.886C262.434 224.572 266.635 225.574 270.302 227.491C273.808 229.324 276.337 232.014 279.895 233.915C280.218 234.129 280.599 234.237 280.986 234.227C283.027 233.931 283.125 226.753 282.954 221.43Z" fill="#BABCBE"/>
<path d="M245.164 134.133C246.348 134.72 249.142 134.928 252.056 133.791C252.342 133.676 252.587 133.479 252.761 133.224C252.935 132.97 253.029 132.67 253.033 132.362C253.008 130.591 252.865 128.823 252.607 127.07C254.793 126.301 257.317 125.148 257.702 122.863C257.781 122.135 257.737 121.4 257.572 120.687L256.014 111.764C255.903 110.724 255.589 109.717 255.089 108.798C254.108 107.24 252.202 106.575 250.415 106.259C245.813 105.459 240.796 106.461 237.223 109.474C236.237 110.243 235.469 111.256 234.995 112.413C234.351 114.221 234.834 116.21 235.322 118.069C235.769 119.78 236.217 121.492 236.667 123.206C237.186 125.174 237.934 127.413 239.83 128.15C240.838 128.545 242.027 128.425 242.946 129.007C244.541 130.03 244.328 132.44 245.164 134.133Z" fill="#D5C6AB"/>
<path d="M219.762 104.347C218.977 96.9616 222.203 89.1866 228.274 90.7343C231.951 91.6692 235.244 93.2221 238.952 91.8354C242.432 90.537 244.946 91.0667 248.582 92.3548C252.518 93.7571 257.801 94.0895 261.363 96.0735C262.837 96.9442 264.073 98.1643 264.963 99.626C266.536 102.133 267.374 105.032 267.382 107.992C267.39 110.951 266.568 113.854 265.009 116.371C264.28 117.48 263.455 118.523 262.542 119.487C260.688 121.502 258.465 123.99 255.91 124.738C255.848 122.452 257.93 115.244 256.175 113.374C253.391 110.398 247.096 111.436 243.637 112.169C239.872 112.969 236.511 115.633 232.777 116.204C224.524 117.466 220.484 111.068 219.762 104.347Z" fill="#3B3631"/>
<path d="M288.096 88.6257C287.452 88.3037 286.803 87.9869 286.149 87.6805C292.698 78.1708 296.245 66.4953 296.245 54.1238C296.224 24.2807 275.174 0 249.304 0C223.434 0 202.4 24.2807 202.4 54.1238C202.4 66.5057 205.947 78.176 212.496 87.6857C211.458 88.1479 210.803 88.4907 210.507 88.6465C183.006 101.267 165.249 128.851 165.249 158.954V177.709C165.253 181.592 166.798 185.315 169.543 188.06C172.289 190.806 176.012 192.351 179.895 192.355H318.739C322.622 192.351 326.345 190.806 329.091 188.06C331.837 185.315 333.381 181.592 333.386 177.709V158.954C333.375 128.836 315.623 101.241 288.096 88.6257Z" fill="white"/>
<path d="M285.883 93.2012C285.634 93.5076 285.363 93.8244 285.13 94.1257C275.641 105.245 262.921 111.374 249.293 111.374C235.665 111.374 222.956 105.245 213.456 94.1257C213.197 93.8244 212.937 93.5076 212.703 93.2012C187.742 104.627 170.286 129.838 170.286 158.954V177.708C170.286 180.247 171.295 182.682 173.09 184.477C174.885 186.272 177.32 187.28 179.858 187.28H318.738C321.277 187.28 323.712 186.272 325.507 184.477C327.302 182.682 328.31 180.247 328.31 177.708V158.954C328.3 129.843 310.844 104.607 285.883 93.2012Z" fill="#474EBB"/>
<path d="M249.304 103.173C260.299 103.173 270.297 98.1976 277.765 90.0694C285.998 81.1154 291.15 68.3284 291.15 54.1236C291.15 27.0331 272.416 5.06885 249.304 5.06885C226.192 5.06885 207.458 27.0331 207.458 54.1236C207.458 68.3284 212.61 81.131 220.842 90.0694C228.311 98.1976 238.309 103.173 249.304 103.173Z" fill="#474EBB"/>
<path d="M201.995 192.126L200.062 187.4L207.848 184.356L214.761 189.524L210.788 195.819L201.995 192.126Z" fill="#EAC1A4"/>
<path d="M288.947 192.1L290.864 187.369L283.063 184.346L276.171 189.545L280.17 195.824L288.947 192.1Z" fill="#EAC1A4"/>
<g style="mix-blend-mode:color-burn">
<circle cx="126.987" cy="32.98" r="14.2827" fill="#3492C7"/>
</g>
<path opacity="0.5" d="M464.319 96.6035L466.768 104.14L474.692 104.14L468.281 108.798L470.73 116.334L464.319 111.676L457.908 116.334L460.357 108.798L453.946 104.14L461.87 104.14L464.319 96.6035Z" fill="#5D66D3"/>
<rect opacity="0.6" x="168.796" y="273.19" width="38.4336" height="2.59686" fill="#7F348B"/>
<rect opacity="0.6" x="186.455" y="292.407" width="38.4336" height="2.59686" transform="rotate(-90 186.455 292.407)" fill="#7F348B"/>
</g>
<defs>
<clipPath id="clip0_294_8">
<rect width="500" height="359.873" fill="white"/>
</clipPath>
</defs>
</svg>
