<svg width="108" height="102" viewBox="0 0 108 102" fill="none" xmlns="http://www.w3.org/2000/svg">
<mask id="mask0_2762_137" style="mask-type:luminance" maskUnits="userSpaceOnUse" x="0" y="0" width="108" height="102">
<path d="M108 0H0V102H108V0Z" fill="white"/>
</mask>
<g mask="url(#mask0_2762_137)">
<path d="M50.2818 1.95961C58.5778 2.54739 66.0908 6.97536 73.7608 9.79672C82.9958 13.245 93.0518 13.2058 102.443 16.0272C103.656 16.3799 104.165 14.4989 102.952 14.1463C93.5219 11.3249 83.6218 11.0506 74.2688 7.91581C66.2088 5.2512 58.8908 0.588119 50.2818 0.00033625C48.9908 -0.0780349 49.0298 1.88124 50.2818 1.95961Z" fill="#D2544A"/>
<path d="M49.4216 0.470641C42.8476 11.5601 34.0036 21.5916 25.8646 31.5839C21.9906 36.3646 17.4516 40.5574 13.2256 44.9854C9.74264 48.6296 7.74762 52.9401 4.81262 56.8978C4.06862 57.9166 5.7516 58.8963 6.4956 57.8774C9.7426 53.4495 12.2476 48.8256 16.1216 44.7503C20.5036 40.1656 24.9256 35.7768 28.9556 30.8394C36.5866 21.4349 44.9216 11.8736 51.1036 1.45028C51.7686 0.39227 50.0476 -0.587369 49.4216 0.470641Z" fill="#D2544A"/>
<path d="M102.325 14.3816C96.2604 21.7877 89.8824 29.1154 84.7174 37.2268C80.6474 43.614 76.9304 50.2364 72.7824 56.5845C69.1434 62.188 65.2694 69.6724 60.4954 74.3747C59.5954 75.276 60.9644 76.6475 61.8644 75.7462C65.6214 72.0236 68.1254 66.6943 71.1774 62.3839C75.6384 56.1142 79.5904 49.4527 83.5824 42.8303C89.4124 33.1123 96.4954 24.5307 103.656 15.7923C104.517 14.8127 103.147 13.402 102.325 14.3816Z" fill="#D2544A"/>
<path d="M5.596 59.3662C24.535 61.1296 42.613 70.7692 60.535 76.3727C61.748 76.7646 62.256 74.8445 61.043 74.4918C42.926 68.8099 24.691 59.2095 5.55602 57.4069C4.34302 57.2894 4.383 59.2487 5.596 59.3662Z" fill="#D2544A"/>
<path d="M4.57825 57.1722C-3.09075 64.8134 -0.89977 82.8387 9.70423 86.9532C10.8782 87.4235 11.3873 85.5034 10.2133 85.0723C0.939263 81.4672 -0.54775 65.0485 5.94825 58.5437C6.84825 57.6816 5.47825 56.2709 4.57825 57.1722Z" fill="#D2544A"/>
<path d="M9.97904 86.9921C19.331 87.4623 28.018 91.616 36.549 95.0643C45.353 98.6302 54.666 100.785 64.058 102C65.31 102.157 65.31 100.198 64.058 100.041C53.805 98.7086 44.062 96.0048 34.475 92.1254C26.531 88.9122 18.588 85.4638 9.94004 85.0328C8.68804 84.9936 8.68804 86.9529 9.97904 86.9921Z" fill="#D2544A"/>
<path d="M102.09 14.8125C101.112 19.0837 99.4683 23.7859 100.329 28.2139C100.995 31.5839 103.225 36.051 106.512 37.4617C107.647 37.9711 108.664 36.2861 107.49 35.7767C104.555 34.4836 103.029 30.6042 102.208 27.7045C101.151 23.9035 103.108 19.0445 103.968 15.3219C104.242 14.1071 102.364 13.5977 102.09 14.8125Z" fill="#D2544A"/>
<path d="M106.317 35.9333C101.974 39.8519 99.5088 45.573 95.8688 50.0793C92.2688 54.5465 89.0997 58.8177 85.8127 63.5592C81.9387 69.1627 77.5167 74.296 74.0347 80.1738C70.1997 86.6394 68.6347 94.7117 63.3907 100.276C62.5297 101.177 63.8997 102.588 64.7607 101.648C68.3607 97.8073 70.3558 92.7916 72.4298 88.0109C75.2478 81.6629 78.7298 76.1769 82.9167 70.6909C87.2217 65.009 90.7038 58.3083 95.6348 53.2142C100.291 48.4335 102.756 41.7328 107.687 37.2656C108.626 36.4819 107.256 35.1104 106.317 35.9333Z" fill="#D2544A"/>
<path d="M59.8701 75.4327C60.1051 79.8214 58.149 84.1318 58.892 88.4814C59.675 93.027 61.084 97.3766 63.236 101.491C63.823 102.627 65.505 101.608 64.918 100.511C62.688 96.2402 61.201 91.5771 60.653 86.7965C60.223 83.113 62.023 79.1945 61.827 75.4327C61.749 74.1787 59.7921 74.1787 59.8701 75.4327Z" fill="#D2544A"/>
<path d="M7.63075 61.522C7.51275 64.9312 6.80877 68.2619 7.04377 71.6711C7.31777 75.3545 8.49078 79.038 8.21778 82.7606C8.13878 84.0145 10.0958 84.0145 10.1738 82.7606C10.4088 79.4298 9.50877 75.9815 9.07777 72.6899C8.56977 68.9673 9.43074 65.2446 9.54774 61.522C9.62574 60.2681 7.66975 60.2681 7.63075 61.522Z" fill="#D2544A"/>
<path d="M12.3649 62.5404C12.3649 62.5404 12.3259 62.5012 12.2869 62.462C11.8959 62.9714 11.5039 63.4809 11.1129 63.9903C18.1559 67.2035 24.6909 70.2991 32.1259 72.7678C41.2039 75.7459 49.617 80.7225 59.361 80.9968C60.613 81.036 60.613 79.0767 59.361 79.0375C50.713 78.8024 43.1219 74.6487 35.1389 71.749C27.2349 68.8493 19.722 65.7928 12.13 62.3445C11.152 61.9134 10.096 63.0498 10.956 63.8727C10.996 63.9119 10.9959 63.9119 11.0349 63.9511C11.8559 64.8132 13.2259 63.4025 12.3649 62.5404Z" fill="#D2544A"/>
<path d="M12.1298 69.3194C19.5648 71.4355 26.5688 75.6675 33.9258 78.2537C42.2608 81.1927 51.1038 82.7209 59.3608 85.8165C60.5348 86.2476 61.0428 84.3667 59.8688 83.9356C52.5128 81.1927 44.6868 79.4685 37.1738 77.2741C28.6828 74.8054 21.0907 69.8288 12.6387 67.3993C11.4257 67.0859 10.9168 68.9668 12.1298 69.3194Z" fill="#D2544A"/>
<path d="M11.1917 73.5122C19.1747 75.1971 26.8837 80.1345 34.5137 83.1126C42.6527 86.2866 51.2228 87.6973 59.4008 90.4795C60.6138 90.9105 61.1227 88.9904 59.9097 88.5986C51.7317 85.8164 43.2007 84.249 35.0227 81.2317C27.2357 78.332 19.8788 73.3554 11.7398 71.6312C10.4878 71.3569 9.97872 73.2379 11.1917 73.5122Z" fill="#D2544A"/>
<path d="M15.1818 80.6834C24.6518 84.0925 34.5908 86.9139 43.8648 90.8716C49.3038 93.1836 56.1518 93.8889 61.1208 97.1021C62.1778 97.7683 63.1558 96.0833 62.0998 95.4171C56.6608 91.9296 48.9908 90.95 43.0428 88.4421C34.1608 84.6803 24.7298 82.094 15.6908 78.8025C14.5168 78.3714 14.0078 80.2523 15.1818 80.6834Z" fill="#D2544A"/>
<path d="M61.5132 81.0362C70.9042 72.4546 75.8352 60.072 84.0912 50.4323C90.6262 42.8303 97.3172 33.3474 101.896 24.4131C102.482 23.2767 100.8 22.2971 100.213 23.4335C95.3222 32.9164 88.1221 42.7519 81.1961 50.8242C73.4481 59.876 68.9482 71.5925 60.1042 79.6647C59.2042 80.4876 60.5742 81.8591 61.5132 81.0362Z" fill="#D2544A"/>
<path d="M101.074 30.0555C96.4563 40.8315 87.3784 49.2173 80.5304 58.4651C76.9304 63.3241 73.8784 68.5357 70.1614 73.3555C66.6004 77.9794 65.2694 86.2477 59.9484 89.3433C58.8524 89.9703 59.8304 91.6552 60.9264 91.0282C64.1354 89.1865 65.8174 85.2679 67.5394 82.1723C71.1004 75.6675 75.6784 70.0247 79.3954 63.5983C86.0484 52.0778 97.3953 43.5354 102.756 31.0352C103.265 29.8988 101.582 28.9191 101.074 30.0555Z" fill="#D2544A"/>
<path d="M102.601 34.3659C99.745 37.6967 97.397 41.3801 95.049 45.1027C90.862 51.8035 86.166 57.5637 81.236 63.7551C77.518 68.4181 73.566 73.3163 70.632 78.528C67.501 84.1707 66.014 90.5972 61.592 95.5345C60.771 96.475 62.062 97.8073 62.962 96.906C63.314 96.5534 63.666 96.2007 64.018 95.848C64.918 94.9468 63.549 93.5753 62.649 94.4765C62.297 94.8292 61.945 95.1819 61.592 95.5345C62.062 96.0048 62.532 96.475 62.962 96.906C65.701 93.8104 67.462 90.0486 69.34 86.4043C70.866 83.4262 71.923 80.213 73.566 77.2741C75.132 74.4919 77.792 71.9448 79.632 69.241C83.623 63.4024 88.788 58.5434 92.818 52.7439C96.692 47.1012 99.432 40.9882 103.932 35.7374C104.792 34.7969 103.423 33.4254 102.601 34.3659Z" fill="#D2544A"/>
</g>
</svg>
