<svg width="18" height="18" viewBox="0 0 18 18" fill="none" xmlns="http://www.w3.org/2000/svg">
<path d="M15.3 1.8H14.4V0.9C14.4 0.405176 13.9948 0 13.5 0C13.0052 0 12.6 0.405176 12.6 0.9V1.8H5.4V0.9C5.4 0.405176 4.99482 0 4.5 0C4.00518 0 3.6 0.405176 3.6 0.9V1.8H2.7C1.21509 1.8 0 3.01509 0 4.5V15.3C0 16.7849 1.21509 18 2.7 18H15.3C16.7849 18 18 16.7849 18 15.3V4.5C18 3.01509 16.7849 1.8 15.3 1.8ZM12.339 11.961C12.6901 12.3122 12.6901 12.8878 12.339 13.239C12.1588 13.4099 11.9338 13.5 11.7 13.5C11.4662 13.5 11.2412 13.4099 11.061 13.239L9 11.1691L6.93896 13.239C6.75879 13.4099 6.53379 13.5 6.3 13.5C6.06621 13.5 5.84121 13.4099 5.66104 13.239C5.30991 12.8878 5.30991 12.3122 5.66104 11.961L7.73086 9.9L5.66104 7.83896C5.30991 7.48784 5.30991 6.91216 5.66104 6.56103C6.01216 6.20991 6.58784 6.20991 6.93896 6.56103L9 8.63086L11.061 6.56103C11.4122 6.20991 11.9878 6.20991 12.339 6.56103C12.6901 6.91216 12.6901 7.48784 12.339 7.83896L10.2691 9.9L12.339 11.961Z" fill="#EF2E2E"/>
</svg>
