<svg width="40" height="37" viewBox="0 0 40 37" fill="none" xmlns="http://www.w3.org/2000/svg">
<g clip-path="url(#clip0_2746_151)">
<path d="M34.8837 36.279H5.11628C3.75978 36.2776 2.45924 35.7381 1.50005 34.7789C0.540857 33.8197 0.00137906 32.5192 0 31.1627V6.97663C0.00137906 5.62013 0.540857 4.31959 1.50005 3.3604C2.45924 2.40121 3.75978 1.86173 5.11628 1.86035H34.8837C36.2402 1.86173 37.5408 2.40121 38.5 3.3604C39.4591 4.31959 39.9986 5.62013 40 6.97663V31.1627C39.9986 32.5192 39.4591 33.8197 38.5 34.7789C37.5408 35.7381 36.2402 36.2776 34.8837 36.279ZM5.11628 4.65105C4.49967 4.65162 3.90848 4.89682 3.47248 5.33283C3.03647 5.76883 2.79127 6.36002 2.7907 6.97663V31.1627C2.79127 31.7793 3.03647 32.3705 3.47248 32.8065C3.90848 33.2425 4.49967 33.4877 5.11628 33.4883H34.8837C35.5003 33.4877 36.0915 33.2425 36.5275 32.8065C36.9635 32.3705 37.2087 31.7793 37.2093 31.1627V6.97663C37.2087 6.36002 36.9635 5.76883 36.5275 5.33283C36.0915 4.89682 35.5003 4.65162 34.8837 4.65105H5.11628Z" fill="#CD4236"/>
<path d="M10.6981 8.37209C10.328 8.37199 9.97319 8.22495 9.71153 7.9633C9.44987 7.70164 9.30283 7.34678 9.30273 6.97674V1.39535C9.30273 1.02528 9.44974 0.670367 9.71142 0.408688C9.9731 0.147009 10.328 0 10.6981 0C11.0682 0 11.4231 0.147009 11.6847 0.408688C11.9464 0.670367 12.0934 1.02528 12.0934 1.39535V6.97674C12.0933 7.34678 11.9463 7.70164 11.6846 7.9633C11.423 8.22495 11.0681 8.37199 10.6981 8.37209Z" fill="#CD4236"/>
<path d="M19.9998 8.37209C19.6298 8.37199 19.2749 8.22495 19.0133 7.9633C18.7516 7.70164 18.6046 7.34678 18.6045 6.97674V1.39535C18.6045 1.02528 18.7515 0.670367 19.0132 0.408688C19.2749 0.147009 19.6298 0 19.9998 0C20.3699 0 20.7248 0.147009 20.9865 0.408688C21.2482 0.670367 21.3952 1.02528 21.3952 1.39535V6.97674C21.3951 7.34678 21.248 7.70164 20.9864 7.9633C20.7247 8.22495 20.3699 8.37199 19.9998 8.37209Z" fill="#CD4236"/>
<path d="M29.3026 8.37209C28.9325 8.37199 28.5777 8.22495 28.316 7.9633C28.0544 7.70164 27.9073 7.34678 27.9072 6.97674V1.39535C27.9072 1.02528 28.0542 0.670367 28.3159 0.408688C28.5776 0.147009 28.9325 0 29.3026 0C29.6726 0 30.0276 0.147009 30.2892 0.408688C30.5509 0.670367 30.6979 1.02528 30.6979 1.39535V6.97674C30.6978 7.34678 30.5508 7.70164 30.2891 7.9633C30.0275 8.22495 29.6726 8.37199 29.3026 8.37209Z" fill="#CD4236"/>
<path opacity="0.4" d="M33.0233 13.9533H1.39535C1.02528 13.9533 0.670367 13.8063 0.408688 13.5446C0.14701 13.2829 0 12.928 0 12.5579C0 12.1879 0.14701 11.833 0.408688 11.5713C0.670367 11.3096 1.02528 11.1626 1.39535 11.1626H33.0233C33.3933 11.1626 33.7482 11.3096 34.0099 11.5713C34.2716 11.833 34.4186 12.1879 34.4186 12.5579C34.4186 12.928 34.2716 13.2829 34.0099 13.5446C33.7482 13.8063 33.3933 13.9533 33.0233 13.9533Z" fill="#CD4236"/>
<path opacity="0.4" d="M24.651 29.7675C24.4677 29.7677 24.2862 29.7317 24.1169 29.6616C23.9476 29.5914 23.7938 29.4885 23.6644 29.3587L14.3621 20.0564C14.102 19.7944 13.9564 19.44 13.957 19.0709C13.9577 18.7017 14.1046 18.3479 14.3657 18.0869C14.6267 17.8258 14.9805 17.6789 15.3497 17.6782C15.7188 17.6776 16.0732 17.8232 16.3352 18.0833L25.6375 27.3856C25.8326 27.5807 25.9655 27.8294 26.0193 28.1C26.0731 28.3706 26.0455 28.6512 25.9399 28.9061C25.8343 29.161 25.6555 29.3789 25.4261 29.5323C25.1966 29.6856 24.9269 29.7675 24.651 29.7675Z" fill="#CD4236"/>
<path opacity="0.4" d="M15.3492 29.7675C15.0733 29.7675 14.8036 29.6856 14.5741 29.5323C14.3447 29.3789 14.1659 29.161 14.0603 28.9061C13.9547 28.6512 13.9271 28.3706 13.9809 28.1C14.0347 27.8294 14.1676 27.5807 14.3627 27.3856L23.665 18.0833C23.927 17.8232 24.2814 17.6776 24.6505 17.6782C25.0197 17.6789 25.3735 17.8258 25.6345 18.0869C25.8955 18.3479 26.0425 18.7017 26.0432 19.0709C26.0438 19.44 25.8982 19.7944 25.6381 20.0564L16.3358 29.3587C16.2064 29.4885 16.0526 29.5914 15.8833 29.6616C15.714 29.7317 15.5325 29.7677 15.3492 29.7675Z" fill="#CD4236"/>
</g>
<defs>
<clipPath id="clip0_2746_151">
<rect width="40" height="37" fill="white"/>
</clipPath>
</defs>
</svg>
