<?xml version="1.0" encoding="UTF-8"?>
<svg version="1.1" xmlns="http://www.w3.org/2000/svg" width="64" height="64">
<path d="M0 0 C1.68222656 -0.05607422 1.68222656 -0.05607422 3.3984375 -0.11328125 C7.27885586 0.39878364 8.86062425 1.60341177 11.625 4.3125 C13.02553506 7.11357012 12.8325504 9.50141681 12.875 12.625 C12.90078125 13.75550781 12.9265625 14.88601562 12.953125 16.05078125 C12.5935426 19.62520151 11.76522123 21.46060326 9.625 24.3125 C6.6379054 25.8060473 3.5876552 25.61881228 0.3125 25.6875 C-1.66169922 25.76097656 -1.66169922 25.76097656 -3.67578125 25.8359375 C-7.375 25.3125 -7.375 25.3125 -10.32421875 23.26171875 C-12.92882845 19.51604194 -12.98293184 17.27864012 -12.875 12.75 C-12.8646875 11.44933594 -12.854375 10.14867187 -12.84375 8.80859375 C-12.36583867 5.24417173 -11.93145032 3.77850986 -9.375 1.3125 C-6.08407406 0.21552469 -3.46387841 0.0753017 0 0 Z M-6.375 8.3125 C-6.81432865 10.44738276 -6.81432865 10.44738276 -6.6875 12.8125 C-6.68363281 13.6065625 -6.67976562 14.400625 -6.67578125 15.21875 C-6.55725165 17.52983036 -6.55725165 17.52983036 -4.375 19.3125 C-2.23681539 19.66859192 -2.23681539 19.66859192 0.125 19.625 C0.9190625 19.64175781 1.713125 19.65851562 2.53125 19.67578125 C3.2221875 19.55589844 3.913125 19.43601562 4.625 19.3125 C7.08824069 15.61763897 7.01491688 13.67956908 6.625 9.3125 C5.70833333 7.22916667 5.70833333 7.22916667 3.625 6.3125 C-0.74206908 5.92258312 -2.68013897 5.84925931 -6.375 8.3125 Z " fill="#000000" transform="translate(17.375,33.6875)"/>
<path d="M0 0 C1.31613281 -0.04898437 2.63226563 -0.09796875 3.98828125 -0.1484375 C7.6875 0.375 7.6875 0.375 10.6328125 2.42578125 C13.23633829 6.16278119 13.32636233 8.4141549 13.25 12.9375 C13.25128906 14.23816406 13.25257812 15.53882813 13.25390625 16.87890625 C12.61477245 20.82390455 11.81113002 21.98702864 8.6875 24.375 C5.89018195 25.77365903 3.49465441 25.62037267 0.375 25.6875 C-0.75550781 25.72488281 -1.88601562 25.76226563 -3.05078125 25.80078125 C-6.95554057 25.29105818 -8.53398129 24.10290817 -11.3125 21.375 C-12.71303506 18.57392988 -12.5200504 16.18608319 -12.5625 13.0625 C-12.58828125 11.93199219 -12.6140625 10.80148437 -12.640625 9.63671875 C-12.2810426 6.06229849 -11.45272123 4.22689674 -9.3125 1.375 C-6.3254054 -0.1185473 -3.2751552 0.06868772 0 0 Z M-4.3125 6.375 C-6.77574069 10.06986103 -6.70241688 12.00793092 -6.3125 16.375 C-5.39583333 18.45833333 -5.39583333 18.45833333 -3.3125 19.375 C1.05456908 19.76491688 2.99263897 19.83824069 6.6875 17.375 C7.12682865 15.24011724 7.12682865 15.24011724 7 12.875 C6.99613281 12.0809375 6.99226563 11.286875 6.98828125 10.46875 C6.86975165 8.15766964 6.86975165 8.15766964 4.6875 6.375 C2.54931539 6.01890808 2.54931539 6.01890808 0.1875 6.0625 C-0.6065625 6.04574219 -1.400625 6.02898438 -2.21875 6.01171875 C-3.25515625 6.19154297 -3.25515625 6.19154297 -4.3125 6.375 Z " fill="#000000" transform="translate(46.3125,4.625)"/>
<path d="M0 0 C1.69576172 -0.03867187 1.69576172 -0.03867187 3.42578125 -0.078125 C7.00020151 0.2814574 8.83560326 1.10977877 11.6875 3.25 C13.1810473 6.2370946 12.99381228 9.2873448 13.0625 12.5625 C13.11148438 13.87863281 13.16046875 15.19476563 13.2109375 16.55078125 C12.6875 20.25 12.6875 20.25 10.63671875 23.1953125 C6.89971881 25.79883829 4.6483451 25.88886233 0.125 25.8125 C-1.17566406 25.81378906 -2.47632813 25.81507812 -3.81640625 25.81640625 C-7.76140455 25.17727245 -8.92452864 24.37363002 -11.3125 21.25 C-12.71115903 18.45268195 -12.55787267 16.05715441 -12.625 12.9375 C-12.66238281 11.80699219 -12.69976562 10.67648438 -12.73828125 9.51171875 C-12.22855818 5.60695943 -11.04040817 4.02851871 -8.3125 1.25 C-5.51142988 -0.15053506 -3.12358319 0.0424496 0 0 Z M-5.25 7.3125 C-6.9082539 10.33637476 -6.61394019 12.87386983 -6.3125 16.25 C-5.3225 17.735 -5.3225 17.735 -4.3125 19.25 C-2.17761724 19.68932865 -2.17761724 19.68932865 0.1875 19.5625 C0.9815625 19.55863281 1.775625 19.55476563 2.59375 19.55078125 C4.90483036 19.43225165 4.90483036 19.43225165 6.6875 17.25 C7.04359192 15.11181539 7.04359192 15.11181539 7 12.75 C7.01675781 11.9559375 7.03351562 11.161875 7.05078125 10.34375 C6.93089844 9.6528125 6.81101562 8.961875 6.6875 8.25 C2.82808026 5.67705351 -1.01399261 4.98952821 -5.25 7.3125 Z " fill="#000000" transform="translate(46.3125,33.75)"/>
<path d="M0 0 C1.30066406 -0.00128906 2.60132813 -0.00257813 3.94140625 -0.00390625 C7.88640455 0.63522755 9.04952864 1.43886998 11.4375 4.5625 C12.83615903 7.35981805 12.68287267 9.75534559 12.75 12.875 C12.78738281 14.00550781 12.82476563 15.13601562 12.86328125 16.30078125 C12.35355818 20.20554057 11.16540817 21.78398129 8.4375 24.5625 C5.63642988 25.96303506 3.24858319 25.7700504 0.125 25.8125 C-1.00550781 25.83828125 -2.13601563 25.8640625 -3.30078125 25.890625 C-6.87520151 25.5310426 -8.71060326 24.70272123 -11.5625 22.5625 C-13.0560473 19.5754054 -12.86881228 16.5251552 -12.9375 13.25 C-12.98648437 11.93386719 -13.03546875 10.61773437 -13.0859375 9.26171875 C-12.5625 5.5625 -12.5625 5.5625 -10.51171875 2.6171875 C-6.77471881 0.01366171 -4.5233451 -0.07636233 0 0 Z M-6.5625 8.5625 C-6.91859192 10.70068461 -6.91859192 10.70068461 -6.875 13.0625 C-6.89175781 13.8565625 -6.90851562 14.650625 -6.92578125 15.46875 C-6.80589844 16.1596875 -6.68601562 16.850625 -6.5625 17.5625 C-2.86763897 20.02574069 -0.92956908 19.95241688 3.4375 19.5625 C5.52083333 18.64583333 5.52083333 18.64583333 6.4375 16.5625 C6.82741688 12.19543092 6.90074069 10.25736103 4.4375 6.5625 C2.30261724 6.12317135 2.30261724 6.12317135 -0.0625 6.25 C-1.25359375 6.25580078 -1.25359375 6.25580078 -2.46875 6.26171875 C-4.77983036 6.38024835 -4.77983036 6.38024835 -6.5625 8.5625 Z " fill="#000000" transform="translate(17.5625,4.4375)"/>
</svg>
