<svg width="23" height="22" viewBox="0 0 23 22" fill="none" xmlns="http://www.w3.org/2000/svg">
<g clip-path="url(#clip0_412_2)">
<path d="M21.2881 3.1505V16.0797C21.2881 17.1081 20.5081 18.0721 19.5481 18.2007L19.2181 18.2435C17.0381 18.5542 13.6781 19.7432 11.7581 20.8786C11.498 21.0393 11.0681 21.0393 10.7981 20.8786L10.7581 20.8571C8.83808 19.7324 5.48809 18.5542 3.31809 18.2435L3.02809 18.2007C2.06809 18.0721 1.28809 17.1081 1.28809 16.0797V3.13979C1.28809 1.86508 2.2581 0.901018 3.44809 1.00813C5.54809 1.19024 8.72808 2.32569 10.5081 3.5147L10.7581 3.67538C11.0481 3.86819 11.528 3.86819 11.8181 3.67538L11.9881 3.55755C12.6181 3.13979 13.418 2.72203 14.288 2.34711C15.5981 1.7901 17.0581 1.34021 18.2881 1.12597C18.5581 1.0724 18.818 1.04027 19.058 1.01885H19.118C20.3081 0.911725 21.2881 1.86508 21.2881 3.1505Z" stroke="white" stroke-width="1.5" stroke-linecap="round" stroke-linejoin="round"/>
<path d="M11.2881 4.0247V20.0924M18.288 1.125V6.71659L16.2881 5.2919L14.2881 6.71659V2.34615C15.5981 1.78914 17.058 1.33924 18.288 1.125Z" stroke="white" stroke-width="1.5" stroke-linecap="round" stroke-linejoin="round"/>
</g>
<defs>
<clipPath id="clip0_412_2">
<rect width="23" height="22" fill="white"/>
</clipPath>
</defs>
</svg>
