<svg width="14" height="18" viewBox="0 0 14 18" fill="none" xmlns="http://www.w3.org/2000/svg">
<path d="M2.76953 7.61523H11.0773V8.30755H2.76953V7.61523ZM2.76953 9.69217H11.0773V10.3845H2.76953V9.69217ZM2.76953 11.7691H11.0773V12.4614H2.76953V11.7691ZM2.76953 13.846H6.9234V14.5383H2.76953V13.846Z" fill="black"/>
<path d="M6.9333 2.59608C7.22006 2.59608 7.45253 2.36362 7.45253 2.07685C7.45253 1.79009 7.22006 1.55762 6.9333 1.55762C6.64653 1.55762 6.41406 1.79009 6.41406 2.07685C6.41406 2.36362 6.64653 2.59608 6.9333 2.59608Z" fill="black"/>
<path d="M13.8462 4.15382C13.8462 3.38912 13.2263 2.7692 12.4616 2.7692H10.5394C10.283 2.48436 9.95361 2.26641 9.57518 2.15754C9.25641 2.0659 9.01108 1.82056 8.91939 1.5018C8.66994 0.634503 7.87062 0 6.92307 0C5.97555 0 5.17628 0.63446 4.92687 1.50171C4.83506 1.82086 4.58911 2.0659 4.26996 2.15789C3.89196 2.26684 3.56289 2.48457 3.30669 2.7692H1.38462C0.619878 2.7692 0 3.38912 0 4.15382V16.6154C0 17.3801 0.619878 18 1.38462 18H12.4616C13.2263 18 13.8462 17.3801 13.8462 16.6154L13.8462 4.15382ZM3.4616 4.14266C3.46636 3.53403 3.87759 2.99143 4.46168 2.82311C5.01164 2.66466 5.43425 2.24218 5.59219 1.69309C5.76167 1.1038 6.30894 0.692311 6.92307 0.692311C7.53723 0.692311 8.0845 1.1038 8.25395 1.69313C8.41197 2.24257 8.83432 2.66492 9.38376 2.8229C9.973 2.99238 10.3846 3.5397 10.3846 4.15378V4.84609H3.4616V4.14266ZM12.4616 17.3077H1.38462C1.00286 17.3077 0.692311 16.9971 0.692311 16.6154V4.15382C0.692311 3.7721 1.00286 3.46151 1.38462 3.46151H2.88789C2.81107 3.6786 2.771 3.90698 2.76933 4.13725V5.53845H11.077V4.15382C11.077 3.91087 11.0341 3.67825 10.9574 3.46151H12.4616C12.8433 3.46151 13.1539 3.7721 13.1539 4.15382C13.1539 6.1331 13.1538 15.4149 13.154 16.6154C13.1539 16.9971 12.8434 17.3077 12.4616 17.3077Z" fill="black"/>
</svg>
