<svg width="13" height="13" viewBox="0 0 13 13" fill="none" xmlns="http://www.w3.org/2000/svg">
<g clip-path="url(#clip0_358_78)">
<path d="M0.634884 13.0001C0.509322 13.0001 0.386574 12.9629 0.282165 12.8931C0.177757 12.8234 0.0963792 12.7243 0.0483256 12.6082C0.000271912 12.4922 -0.0122988 12.3646 0.0122036 12.2414C0.036706 12.1183 0.0971806 12.0052 0.185978 11.9164L11.9164 0.185943C12.0355 0.0668857 12.197 0 12.3654 0C12.5337 0 12.6952 0.0668857 12.8143 0.185943C12.9333 0.305 13.0002 0.466477 13.0002 0.634849C13.0002 0.803222 12.9333 0.964698 12.8143 1.08376L1.08379 12.8142C1.02489 12.8732 0.954917 12.92 0.87788 12.9519C0.800843 12.9838 0.718263 13.0002 0.634884 13.0001Z" fill="white"/>
<path d="M12.3653 13.0001C12.2819 13.0002 12.1994 12.9838 12.1223 12.9519C12.0453 12.92 11.9753 12.8732 11.9164 12.8142L0.185943 1.08376C0.0668857 0.964698 0 0.803222 0 0.634849C0 0.466477 0.0668857 0.305 0.185943 0.185943C0.305 0.0668857 0.466477 0 0.634849 0C0.803222 0 0.964698 0.0668857 1.08376 0.185943L12.8142 11.9164C12.903 12.0052 12.9635 12.1183 12.988 12.2414C13.0125 12.3646 12.9999 12.4922 12.9519 12.6082C12.9038 12.7243 12.8224 12.8234 12.718 12.8931C12.6136 12.9629 12.4909 13.0001 12.3653 13.0001Z" fill="white"/>
</g>
<defs>
<clipPath id="clip0_358_78">
<rect width="13" height="13" fill="white"/>
</clipPath>
</defs>
</svg>
