<svg width="20" height="20" viewBox="0 0 20 20" fill="none" xmlns="http://www.w3.org/2000/svg">
<path d="M18.3327 3.89321V13.9516C18.3327 14.7516 17.6827 15.5016 16.8827 15.6016L16.6077 15.6349C14.791 15.8766 11.991 16.8016 10.391 17.6849C10.1743 17.8099 9.81602 17.8099 9.59102 17.6849L9.55769 17.6682C7.95769 16.7932 5.16602 15.8766 3.35769 15.6349L3.11602 15.6016C2.31602 15.5016 1.66602 14.7516 1.66602 13.9516V3.88488C1.66602 2.89321 2.47436 2.14321 3.46602 2.22654C5.21602 2.36821 7.86602 3.25154 9.34936 4.17654L9.55769 4.30154C9.79936 4.45154 10.1993 4.45154 10.441 4.30154L10.5827 4.20988C11.1077 3.88488 11.7743 3.55988 12.4993 3.26821C13.591 2.83488 14.8077 2.48488 15.8327 2.31821C16.0577 2.27654 16.2743 2.25154 16.4743 2.23488H16.5243C17.516 2.15154 18.3327 2.89321 18.3327 3.89321Z" stroke="#CD4236" stroke-width="1.2" stroke-linecap="round" stroke-linejoin="round"/>
<path opacity="0.4" d="M10 4.57322V17.0732M15.8333 2.31738V6.66739L14.1667 5.55905L12.5 6.66739V3.26738C13.5917 2.83405 14.8083 2.48405 15.8333 2.31738Z" stroke="#CD4236" stroke-width="1.2" stroke-linecap="round" stroke-linejoin="round"/>
</svg>
