<svg width="24" height="24" viewBox="0 0 24 24" fill="none" xmlns="http://www.w3.org/2000/svg">
<path d="M19.8493 22.1155V22.1161H4.00014C2.82667 22.1161 1.87247 21.1613 1.87247 19.9884V9.9118H22.1269V19.9878C22.1269 21.1613 21.1722 22.1155 19.9993 22.1155H19.8493ZM19.9993 2.93063H19.5461V2.41661C19.5461 1.55286 18.8432 0.85 17.9795 0.85H17.5444C16.6807 0.85 15.9778 1.55286 15.9778 2.41661V2.93063H7.9806V2.41661C7.9806 1.55286 7.27774 0.85 6.41399 0.85H5.97894C5.11518 0.85 4.41232 1.55286 4.41232 2.41661V2.93063H4.00074C2.26327 2.93063 0.85 4.34391 0.85 6.08137V19.9878C0.85 21.7253 2.26327 23.1386 4.00074 23.1386H19.9993C21.7367 23.1386 23.15 21.7253 23.15 19.9878V6.08137C23.15 4.34391 21.7367 2.93063 19.9993 2.93063ZM17.0003 2.41661C17.0003 2.11683 17.2441 1.87307 17.5438 1.87307H17.9789C18.2787 1.87307 18.5224 2.11683 18.5224 2.41661V4.67802C18.5224 4.9778 18.2787 5.22156 17.9789 5.22156H17.5438C17.2441 5.22156 17.0003 4.9778 17.0003 4.67802V2.41661ZM5.43479 2.41661C5.43479 2.11692 5.67907 1.87307 5.97834 1.87307H6.41338C6.71316 1.87307 6.95693 2.11683 6.95693 2.41661V4.67802C6.95693 4.9778 6.71316 5.22156 6.41338 5.22156H5.97834C5.67855 5.22156 5.43479 4.9778 5.43479 4.67802V2.41661ZM4.00014 3.9537H4.41172V4.67741C4.41172 5.54117 5.11458 6.24403 5.97834 6.24403H6.41338C7.27714 6.24403 7.98 5.54117 7.98 4.67741V3.9537H15.9772V4.67741C15.9772 5.54117 16.6801 6.24403 17.5438 6.24403H17.9789C18.8426 6.24403 19.5455 5.54117 19.5455 4.67741V3.9537H19.9987C21.1721 3.9537 22.1263 4.90846 22.1263 6.08137V8.88873H1.87247V6.08137C1.87247 4.90791 2.82722 3.9537 4.00014 3.9537Z" fill="#201B53" stroke="#201B53" stroke-width="0.3"/>
<path d="M18.7996 16.5684C18.8737 16.53 18.9567 16.51 19.0416 16.5111C19.1772 16.5128 19.3065 16.5683 19.4012 16.6654L19.4012 16.6654C19.5983 16.8676 19.594 17.1915 19.3919 17.3885C19.3919 17.3885 19.3919 17.3885 19.3919 17.3885L17.1781 19.5469L17.1776 19.5474C17.0782 19.6434 16.9482 19.6919 16.8209 19.6919C16.6935 19.6919 16.5666 19.644 16.4682 19.5507L16.468 19.5505L15.3203 18.457C15.3202 18.457 15.3202 18.4569 15.3202 18.4569L15.3201 18.4568L15.4236 18.3482C15.279 18.2108 15.2735 17.9819 15.4109 17.8373C15.5483 17.6926 15.7773 17.6866 15.9219 17.8246L18.7996 16.5684ZM18.7996 16.5684L18.7834 16.5523L18.6775 16.6555L16.8167 18.4695L16.0254 17.7161L18.7996 16.5684ZM8.29892 11.4188H5.42111C5.13882 11.4188 4.90957 11.6481 4.90957 11.9304V14.8082C4.90957 15.0905 5.13882 15.3197 5.42111 15.3197H8.29892C8.58121 15.3197 8.81046 15.0905 8.81046 14.8082V11.9304C8.81046 11.6481 8.58121 11.4188 8.29892 11.4188ZM7.78739 14.2967H5.93264V12.4419H7.78739V14.2967ZM13.4387 11.4188H10.5609C10.2786 11.4188 10.0494 11.6481 10.0494 11.9304V14.8082C10.0494 15.0905 10.2786 15.3197 10.5609 15.3197H13.4387C13.721 15.3197 13.9503 15.0905 13.9503 14.8082V11.9304C13.9503 11.6481 13.721 11.4188 13.4387 11.4188ZM12.9272 14.2967H11.0725V12.4419H12.9272V14.2967ZM15.673 15.3197H18.5508C18.8331 15.3197 19.0624 15.0905 19.0624 14.8082V11.9304C19.0624 11.6481 18.8331 11.4188 18.5508 11.4188H15.673C15.3907 11.4188 15.1615 11.6481 15.1615 11.9304V14.8082C15.1615 15.0905 15.3907 15.3197 15.673 15.3197ZM16.1846 12.4419H18.0393V14.2967H16.1846V12.4419ZM8.29892 16.1357H5.42111C5.13882 16.1357 4.90957 16.3649 4.90957 16.6472V19.525C4.90957 19.8073 5.13882 20.0366 5.42111 20.0366H8.29892C8.58121 20.0366 8.81046 19.8073 8.81046 19.525V16.6472C8.81046 16.3649 8.58121 16.1357 8.29892 16.1357ZM7.78739 19.0135H5.93264V17.1587H7.78739V19.0135ZM13.4387 16.1357H10.5609C10.2786 16.1357 10.0494 16.3649 10.0494 16.6472V19.525C10.0494 19.8073 10.2786 20.0366 10.5609 20.0366H13.4387C13.721 20.0366 13.9503 19.8073 13.9503 19.525V16.6472C13.9503 16.3649 13.721 16.1357 13.4387 16.1357ZM12.9272 19.0135H11.0725V17.1587H12.9272V19.0135Z" fill="#201B53" stroke="#201B53" stroke-width="0.3"/>
</svg>
