<svg width="20" height="18" viewBox="0 0 20 18" fill="none" xmlns="http://www.w3.org/2000/svg">
<path d="M9.99976 13.6487C9.6053 13.6487 9.28516 13.3465 9.28516 12.952V12.9163C9.28516 12.5218 9.6053 12.2017 9.99976 12.2017C10.3942 12.2017 10.7144 12.5218 10.7144 12.9163C10.7144 13.3107 10.3946 13.6487 9.99976 13.6487Z" fill="#201B53"/>
<path d="M9.99976 10.9866C9.6053 10.9866 9.28516 10.6665 9.28516 10.272V6.49781C9.28516 6.10335 9.6053 5.7832 9.99976 5.7832C10.3942 5.7832 10.7144 6.10335 10.7144 6.49781V10.272C10.7144 10.6665 10.3946 10.9866 9.99976 10.9866Z" fill="#201B53"/>
<path d="M17.1459 17.5021H2.85378C1.82153 17.5021 0.897184 16.9551 0.380524 16.0386C-0.136493 15.1211 -0.126132 14.0463 0.408394 13.1634L7.55446 1.36061C8.07076 0.508442 8.98438 0 9.99948 0C11.0149 0 11.9293 0.508442 12.4452 1.36061L19.5913 13.1634C20.1258 14.0463 20.1365 15.1204 19.6206 16.0368C19.1032 16.9544 18.1781 17.5021 17.1459 17.5021ZM9.99948 1.42921C9.48889 1.42921 9.0319 1.6804 8.77715 2.10058L1.63108 13.9034C1.3674 14.3389 1.36525 14.8749 1.62573 15.3369C1.88548 15.7978 2.34462 16.0729 2.85378 16.0729H17.1459C17.6551 16.0729 18.1145 15.7971 18.375 15.3351C18.6348 14.8742 18.6323 14.3393 18.3682 13.9037L11.2222 2.10058C10.9678 1.68004 10.5108 1.42921 9.99948 1.42921Z" fill="#201B53"/>
</svg>
