<svg width="20" height="20" viewBox="0 0 20 20" fill="none" xmlns="http://www.w3.org/2000/svg">
<path d="M7.22656 11.9417C7.22656 13.0167 8.05156 13.8834 9.07656 13.8834H11.1682C12.0599 13.8834 12.7849 13.125 12.7849 12.1917C12.7849 11.175 12.3432 10.8167 11.6849 10.5834L8.32656 9.4167C7.66823 9.18337 7.22656 8.82503 7.22656 7.80837C7.22656 6.87503 7.95156 6.1167 8.84323 6.1167H10.9349C11.9599 6.1167 12.7849 6.98337 12.7849 8.05837" stroke="#201B53" stroke-width="1.5" stroke-linecap="round" stroke-linejoin="round"/>
<path d="M10 5V15" stroke="#201B53" stroke-width="1.5" stroke-linecap="round" stroke-linejoin="round"/>
<path d="M12.4993 18.3332H7.49935C3.33268 18.3332 1.66602 16.6665 1.66602 12.4998V7.49984C1.66602 3.33317 3.33268 1.6665 7.49935 1.6665H12.4993C16.666 1.6665 18.3327 3.33317 18.3327 7.49984V12.4998C18.3327 16.6665 16.666 18.3332 12.4993 18.3332Z" stroke="#201B53" stroke-width="1.5" stroke-linecap="round" stroke-linejoin="round"/>
</svg>
