<svg width="15" height="9" viewBox="0 0 15 9" fill="none" xmlns="http://www.w3.org/2000/svg">
<path d="M10.3092 0.975079C10.0182 0.680843 9.54406 0.677131 9.24852 0.966809L3.70476 6.44591L1.29484 3.95104C1.0074 3.65146 0.531553 3.64163 0.23201 3.92906C-0.0675654 4.21649 -0.0773983 4.69234 0.210033 4.99189L0.213907 4.99589L3.1523 8.04101C3.22191 8.11204 3.30493 8.16854 3.39655 8.20725C3.48816 8.24596 3.58655 8.2661 3.686 8.26651H3.69427C3.89137 8.26589 4.08033 8.18788 4.22046 8.04928L10.3024 2.03572C10.5962 1.74432 10.5992 1.27023 10.3092 0.975079ZM7.66244 8.04101C7.73188 8.11186 7.81466 8.16826 7.906 8.20696C7.99735 8.24566 8.09545 8.2659 8.19465 8.26651H8.20292C8.40001 8.26589 8.58898 8.18788 8.72911 8.04928L14.8111 2.03572C15.0867 1.7253 15.0586 1.2502 14.7482 0.974525C14.4668 0.724602 14.0439 0.721314 13.7587 0.966809L8.21718 6.44591L8.01948 6.24069C7.73208 5.94111 7.25623 5.93125 6.95666 6.21868C6.65708 6.50608 6.64722 6.98193 6.93465 7.2815L6.93855 7.28554L7.66244 8.04101Z" fill="white"/>
</svg>
