<svg width="15" height="15" viewBox="0 0 15 15" fill="none" xmlns="http://www.w3.org/2000/svg">
<g clip-path="url(#clip0_820_5153)">
<path d="M13.8431 9.44322C13.6853 9.28531 13.4934 9.2063 13.2678 9.2063H9.34153L8.19077 10.357C7.86358 10.6729 7.48001 10.8309 7.04002 10.8309C6.60011 10.8309 6.21642 10.6731 5.88926 10.357L4.74695 9.2063H0.812299C0.5867 9.2063 0.394917 9.2854 0.236921 9.44322C0.0789538 9.60113 0 9.79294 0 10.0187V12.7263C0 12.952 0.0789538 13.1437 0.236921 13.3017C0.394887 13.4596 0.58667 13.5385 0.812299 13.5385H13.2679C13.4934 13.5385 13.6853 13.4596 13.8431 13.3017C14.0011 13.1437 14.08 12.952 14.08 12.7263V10.0187C14.08 9.79294 14.0011 9.60113 13.8431 9.44322ZM10.6702 12.2947C10.5629 12.4019 10.4359 12.4555 10.2892 12.4555C10.1425 12.4555 10.0157 12.4019 9.90846 12.2947C9.80135 12.1875 9.7478 12.0607 9.7478 11.9141C9.7478 11.7674 9.80135 11.6404 9.90846 11.5333C10.0157 11.426 10.1425 11.3724 10.2892 11.3724C10.4359 11.3724 10.5628 11.426 10.6702 11.5333C10.7772 11.6403 10.8308 11.7674 10.8308 11.9141C10.8308 12.0606 10.7772 12.1875 10.6702 12.2947ZM12.8362 12.2947C12.7291 12.4019 12.6021 12.4555 12.4554 12.4555C12.3088 12.4555 12.1819 12.4019 12.0747 12.2947C11.9676 12.1875 11.914 12.0607 11.914 11.9141C11.914 11.7674 11.9676 11.6404 12.0747 11.5333C12.1819 11.426 12.3087 11.3724 12.4554 11.3724C12.6021 11.3724 12.729 11.426 12.8362 11.5333C12.9434 11.6403 12.997 11.7674 12.997 11.9141C12.997 12.0606 12.9435 12.1875 12.8362 12.2947Z" fill="white"/>
<path d="M6.6556 9.58708C6.7572 9.69415 6.8841 9.74774 7.03635 9.74774C7.18871 9.74774 7.31547 9.69415 7.4171 9.58708L11.2079 5.79623C11.3827 5.63266 11.4223 5.43519 11.3264 5.2039C11.2307 4.98396 11.0642 4.87397 10.8272 4.87386H8.66095V1.08307C8.66095 0.936421 8.60727 0.809484 8.50028 0.702316C8.393 0.595118 8.26612 0.541504 8.11953 0.541504H5.95316C5.80658 0.541504 5.67964 0.595118 5.57241 0.702316C5.46528 0.809484 5.41166 0.936391 5.41166 1.08307V4.87388H3.2455C3.00846 4.87388 2.84214 4.98399 2.74623 5.20393C2.65038 5.43513 2.68983 5.63269 2.86475 5.79626L6.6556 9.58708Z" fill="white"/>
</g>
<defs>
<clipPath id="clip0_820_5153">
<rect width="14.08" height="14.08" fill="white"/>
</clipPath>
</defs>
</svg>
