<svg width="20" height="20" viewBox="0 0 20 20" fill="none" xmlns="http://www.w3.org/2000/svg">
<path opacity="0.4" d="M2.9209 6.12402C3.06517 5.97983 3.29069 5.90613 3.48535 5.9834L3.56738 6.02539L3.5752 6.03125L3.57422 6.03223C3.58326 6.04127 3.59209 6.04605 3.60742 6.05371C3.6223 6.06115 3.6431 6.07152 3.66406 6.0918H3.66504L4.06445 6.45996H4.06348C4.67721 7.01232 5.28357 7.55686 5.88965 8.10156C6.49587 8.64639 7.10289 9.19162 7.7168 9.74414H7.71582C7.99204 9.98967 8.2687 10.2349 8.54492 10.4805L8.71484 10.6152C9.11553 10.9056 9.53847 11.0205 9.98535 11.0205C10.4948 11.0204 11.0044 10.8405 11.4248 10.4805C11.701 10.2349 11.9777 9.98966 12.2539 9.74414L14.0801 8.10156C14.6862 7.55683 15.2925 7.01235 15.9062 6.45996L16.3047 6.0918C16.3257 6.07121 16.3473 6.06122 16.3623 6.05371C16.3775 6.04611 16.3865 6.04113 16.3955 6.03223L16.4014 6.02637L16.4082 6.02246C16.5852 5.93397 16.8137 5.94811 16.9814 6.06641L17.0498 6.12402L17.0557 6.12988L17.0586 6.13672L17.1514 6.32129L17.1543 6.32715L17.1533 6.32812C17.2214 6.53266 17.1527 6.73597 17.0186 6.87012L17.0176 6.87109L16.5264 7.33105C16.4653 7.39209 16.4048 7.45361 16.3438 7.51465L16.3369 7.52148L16.3359 7.52051C16.2484 7.57889 16.1902 7.63788 16.1289 7.69922L16.0674 7.75977L16.0361 7.79102V7.79199L16.001 7.75586L16.0352 7.79199C15.4514 8.34497 14.8357 8.86815 14.2539 9.38867V9.38965C14.0216 9.59292 13.8187 9.76742 13.6172 9.96582C13.6359 9.98454 13.6541 10.0037 13.6729 10.0225C14.1485 10.4981 14.6248 10.9655 15.1006 11.4336C15.5762 11.9015 16.0516 12.3699 16.5273 12.8457L16.6543 12.9727L16.6992 13.0381C16.794 13.1979 16.8086 13.4026 16.6846 13.5576C16.5498 13.7259 16.3442 13.7951 16.1387 13.7266C16.0842 13.7083 16.0322 13.6736 15.9883 13.6377C15.944 13.6014 15.9045 13.5607 15.874 13.5303V13.5312C15.3983 13.0709 14.9228 12.6026 14.4473 12.1348C13.9715 11.6666 13.4951 11.1985 13.0195 10.7383L13.0137 10.7324L13.0098 10.7246C12.999 10.703 12.9825 10.6849 12.957 10.6631C12.9412 10.6495 12.9211 10.6323 12.8994 10.6133C12.6377 10.8208 12.4064 11.0522 12.167 11.2617L12.165 11.2627C11.6384 11.6963 11.0464 12.0096 10.3584 12.0723L10.3574 12.0713C10.2305 12.1018 10.1047 12.1025 9.98535 12.1025C9.92039 12.1025 9.85572 12.0945 9.79492 12.0869C9.73315 12.0792 9.6748 12.0723 9.61719 12.0723H9.6123C8.92658 12.0099 8.30273 11.729 7.80371 11.2617L7.07129 10.6162C7.02958 10.6579 7.00055 10.6879 6.95117 10.7373L6.9502 10.7383C6.47467 11.1985 5.99916 11.6667 5.52344 12.1348C5.04939 12.6012 4.57483 13.0674 4.10059 13.5264C4.03356 13.6252 3.93487 13.6897 3.83691 13.7236C3.62257 13.8305 3.41491 13.7197 3.28516 13.5576L3.28125 13.5518C3.17957 13.3822 3.17934 13.144 3.31641 12.9727L3.31934 12.9688L3.44238 12.8457C3.91826 12.3698 4.39443 11.9016 4.87012 11.4336C5.34578 10.9656 5.82141 10.4979 6.29688 10.0225C6.31519 10.0041 6.33324 9.98512 6.35156 9.9668C6.2432 9.87073 6.13991 9.77567 6.04102 9.68359C5.92974 9.57999 5.82324 9.48089 5.7168 9.38965L5.71582 9.38867C5.13402 8.86812 4.51832 8.34501 3.93457 7.79199L3.93359 7.79102L3.90332 7.75977L3.84375 7.70117C3.75027 7.63806 3.68717 7.57487 3.62695 7.51465L3.44336 7.33105L2.95215 6.87109L2.95117 6.87012C2.88284 6.80177 2.83262 6.70914 2.80762 6.61328C2.78346 6.52068 2.78317 6.42115 2.81543 6.33398C2.8185 6.25833 2.85676 6.18816 2.9209 6.12402Z" fill="white" stroke="white" stroke-width="0.1"/>
<path d="M16.707 2.8252C18.2692 2.82533 19.5497 4.10581 19.5498 5.66797V14.0791C19.5186 15.6401 18.2694 16.9219 16.6758 16.9219H3.29297C1.73073 16.9217 0.450195 15.6404 0.450195 14.0781V5.66797C0.45033 4.10581 1.73081 2.82533 3.29297 2.8252H16.707ZM3.29297 3.96875C2.33913 3.96888 1.59388 4.74366 1.59375 5.66797V14.0781C1.59375 15.0321 2.36858 15.7782 3.29297 15.7783H16.707C17.661 15.7782 18.4062 15.0025 18.4062 14.0781V5.66797C18.4061 4.71412 17.6313 3.96888 16.707 3.96875H3.29297Z" fill="white" stroke="white" stroke-width="0.1"/>
</svg>
