<svg width="18" height="18" viewBox="0 0 18 18" fill="none" xmlns="http://www.w3.org/2000/svg">
<path d="M10.897 7.10293L7.10195 10.8979C6.61445 10.4104 6.31445 9.74293 6.31445 9.00043C6.31445 7.51543 7.51445 6.31543 8.99945 6.31543C9.74195 6.31543 10.4095 6.61543 10.897 7.10293Z" stroke="white" stroke-width="1.3" stroke-linecap="round" stroke-linejoin="round"/>
<path d="M13.3659 4.32785C12.0534 3.33785 10.5534 2.79785 9.00086 2.79785C6.35336 2.79785 3.88586 4.35785 2.16836 7.05785C1.49336 8.11535 1.49336 9.89285 2.16836 10.9504C2.76086 11.8804 3.45086 12.6829 4.20086 13.3279" stroke="white" stroke-width="1.3" stroke-linecap="round" stroke-linejoin="round"/>
<path d="M6.31445 14.6473C7.16945 15.0073 8.07695 15.2023 8.99945 15.2023C11.647 15.2023 14.1145 13.6423 15.832 10.9423C16.507 9.88477 16.507 8.10727 15.832 7.04977C15.5845 6.65977 15.3145 6.29227 15.037 5.94727" stroke="white" stroke-width="1.3" stroke-linecap="round" stroke-linejoin="round"/>
<path d="M11.6326 9.52539C11.4376 10.5829 10.5751 11.4454 9.51758 11.6404" stroke="white" stroke-width="1.3" stroke-linecap="round" stroke-linejoin="round"/>
<path d="M7.1025 10.8975L1.5 16.5" stroke="white" stroke-width="1.3" stroke-linecap="round" stroke-linejoin="round"/>
<path d="M16.5009 1.5L10.8984 7.1025" stroke="white" stroke-width="1.3" stroke-linecap="round" stroke-linejoin="round"/>
</svg>
