<svg width="20" height="19" viewBox="0 0 20 19" fill="none" xmlns="http://www.w3.org/2000/svg">
<g clip-path="url(#clip0_1983_20)">
<path d="M19.3718 9.5C19.3718 14.2418 15.8611 18.1721 11.2718 18.8846V12.2461H13.5087L13.9344 9.5H11.2718V7.71801C11.2718 6.96654 11.6438 6.23437 12.8364 6.23437H14.0469V3.89649C14.0469 3.89649 12.9482 3.71094 11.8978 3.71094C9.70512 3.71094 8.27184 5.02609 8.27184 7.40703V9.5H5.83438V12.2461H8.27184V18.8846C3.68262 18.1721 0.171875 14.2418 0.171875 9.5C0.171875 4.25347 4.47013 0 9.77184 0C15.0736 0 19.3718 4.25347 19.3718 9.5Z" fill="#25395C"/>
<path d="M13.5083 12.2461L13.934 9.5H11.2714V7.71797C11.2714 6.96669 11.6434 6.23438 12.8359 6.23438H14.0465V3.89649C14.0465 3.89649 12.9478 3.71094 11.8975 3.71094C9.70473 3.71094 8.27145 5.02609 8.27145 7.40703V9.5H5.83398V12.2461H8.27145V18.8846C8.76025 18.9604 9.26121 19 9.77145 19C10.2818 19 10.7827 18.9604 11.2714 18.8846V12.2461H13.5083Z" fill="white"/>
</g>
<defs>
<clipPath id="clip0_1983_20">
<rect width="20" height="19" fill="white"/>
</clipPath>
</defs>
</svg>
