<svg width="100" height="100" viewBox="0 0 100 100" fill="none" xmlns="http://www.w3.org/2000/svg">
<path d="M84.7262 20.7555L65.8936 2.93867C63.8904 1.04355 61.2686 0 58.5111 0H22.6562C16.733 0 11.9141 4.81895 11.9141 10.7422V89.2578C11.9141 95.1811 16.733 100 22.6562 100H77.3438C83.267 100 88.0859 95.1811 88.0859 89.2578V28.559C88.0859 25.6197 86.8613 22.7754 84.7262 20.7555ZM79.0354 23.4375H64.4531C63.9146 23.4375 63.4766 22.9994 63.4766 22.4609V8.71797L79.0354 23.4375ZM77.3438 94.1406H22.6562C19.9639 94.1406 17.7734 91.9502 17.7734 89.2578V10.7422C17.7734 8.0498 19.9639 5.85938 22.6562 5.85938H57.6172V22.4609C57.6172 26.2303 60.6838 29.2969 64.4531 29.2969H82.2266V89.2578C82.2266 91.9502 80.0361 94.1406 77.3438 94.1406Z" fill="black"/>
<path d="M70.8984 39.0625H27.9297C26.3117 39.0625 25 40.3742 25 41.9922C25 43.6102 26.3117 44.9219 27.9297 44.9219H70.8984C72.5164 44.9219 73.8281 43.6102 73.8281 41.9922C73.8281 40.3742 72.5164 39.0625 70.8984 39.0625Z" fill="black"/>
<path d="M70.8984 54.6875H27.9297C26.3117 54.6875 25 55.9992 25 57.6172C25 59.2352 26.3117 60.5469 27.9297 60.5469H70.8984C72.5164 60.5469 73.8281 59.2352 73.8281 57.6172C73.8281 55.9992 72.5164 54.6875 70.8984 54.6875Z" fill="black"/>
<path d="M42.1328 70.3125H27.9297C26.3117 70.3125 25 71.6242 25 73.2422C25 74.8602 26.3117 76.1719 27.9297 76.1719H42.1328C43.7508 76.1719 45.0625 74.8602 45.0625 73.2422C45.0625 71.6242 43.7508 70.3125 42.1328 70.3125Z" fill="black"/>
</svg>
