<svg width="16" height="14" viewBox="0 0 16 14" fill="none" xmlns="http://www.w3.org/2000/svg">
<path d="M0.567937 14H0.547716C0.418848 13.9957 0.295911 13.9442 0.201754 13.855C0.107598 13.7659 0.0486271 13.6452 0.0358037 13.5154C0.0182433 13.3215 -0.428216 8.679 2.39475 5.50642C3.96028 3.74622 6.20855 2.80446 9.08206 2.70216V0.538647C9.08203 0.434295 9.11196 0.332181 9.16821 0.244723C9.22447 0.157266 9.30463 0.088233 9.39894 0.0460212C9.49325 0.00380937 9.59766 -0.00976265 9.69945 0.00695566C9.80124 0.023674 9.89605 0.0699622 9.97232 0.140191L15.8258 5.52473C15.8807 5.5752 15.9245 5.63671 15.9545 5.70533C15.9845 5.77395 16 5.84815 16 5.92319C16 5.99822 15.9845 6.07243 15.9545 6.14104C15.9245 6.20966 15.8807 6.27118 15.8258 6.32164L9.97232 11.7062C9.89605 11.7764 9.80124 11.8227 9.69945 11.8394C9.59766 11.8561 9.49325 11.8426 9.39894 11.8004C9.30463 11.7581 9.22447 11.6891 9.16821 11.6017C9.11196 11.5142 9.08203 11.4121 9.08206 11.3077V9.10384C7.42394 8.98161 1.92328 8.93046 1.09156 13.5579C1.06925 13.682 1.00461 13.7942 0.908925 13.875C0.813235 13.9558 0.692559 14 0.567937 14ZM10.1463 1.75609V3.23092C10.1463 3.37372 10.0903 3.51068 9.99047 3.61166C9.89068 3.71264 9.75533 3.76937 9.6142 3.76937C6.79921 3.76937 4.63662 4.5959 3.1855 6.22688C2.12984 7.48831 1.45098 9.02783 1.22831 10.6654C3.87567 7.34848 9.6142 8.07108 9.68444 8.08077C9.81243 8.09802 9.92986 8.16177 10.0148 8.26014C10.0998 8.35852 10.1466 8.4848 10.1463 8.61546V10.0903L14.6764 5.92319L10.1463 1.75609Z" fill="black"/>
</svg>
