<svg width="20" height="20" viewBox="0 0 20 20" fill="none" xmlns="http://www.w3.org/2000/svg">
<g clip-path="url(#clip0_2755_103)">
<path d="M10 0C4.47688 0 0 4.4775 0 10C0 15.5225 4.47688 20 10 20C15.5225 20 20 15.5225 20 10C20 4.4775 15.5231 0 10 0ZM10.1081 15.3725C7.14 15.3725 4.73563 12.9681 4.73563 10C4.73563 7.03187 7.14 4.6275 10.1081 4.6275C11.5588 4.6275 12.7712 5.16188 13.7006 6.0275L12.1862 7.54188V7.53875C11.6225 7.00125 10.9069 6.72625 10.1081 6.72625C8.33563 6.72625 6.895 8.22375 6.895 9.99625C6.895 11.7688 8.33563 13.27 10.1081 13.27C11.7163 13.27 12.8112 12.35 13.0362 11.0875H10.1081V8.99188H15.1612C15.2281 9.35063 15.265 9.7275 15.265 10.12C15.265 13.19 13.21 15.3725 10.1081 15.3725Z" fill="#25395C"/>
</g>
<defs>
<clipPath id="clip0_2755_103">
<rect width="20" height="20" fill="white"/>
</clipPath>
</defs>
</svg>
