<svg width="116" height="81" viewBox="0 0 116 81" fill="none" xmlns="http://www.w3.org/2000/svg">
<mask id="mask0_2762_183" style="mask-type:luminance" maskUnits="userSpaceOnUse" x="0" y="0" width="116" height="81">
<path d="M116 0H0V81H116V0Z" fill="white"/>
</mask>
<g mask="url(#mask0_2762_183)">
<path d="M37.6608 9.70887C30.6868 14.8379 44.2478 21.8839 45.7588 15.2289C46.2238 13.1149 45.0608 10.7659 43.5498 9.39588C41.5748 7.59488 39.0168 7.7119 36.9638 9.3169C35.9948 10.0999 37.3508 11.4709 38.3198 10.6879C40.7608 8.76887 43.6278 11.2749 43.8988 13.9759C44.3248 18.4389 34.5228 14.4069 38.6298 11.3919C39.6368 10.6489 38.6688 8.96487 37.6608 9.70887Z" fill="#D2544A"/>
<path d="M41.8444 20.2012C42.2704 22.2762 42.8124 24.5863 42.8904 26.7003C42.9674 28.2663 43.8204 29.7143 43.8974 31.2413C43.9754 32.6113 44.2464 34.5302 45.0984 35.6262C45.4084 36.0172 46.1444 36.0172 46.4544 35.6262C46.7264 35.2742 46.8034 35.0392 46.8034 34.5692C46.8814 33.3162 44.9434 33.3162 44.8664 34.5692C44.9434 34.4512 45.0214 34.3342 45.0604 34.2162C45.5254 34.2162 45.9894 34.2162 46.4164 34.2162C45.8344 33.4732 45.8344 31.0452 45.4474 29.8712C44.4014 26.6222 44.3234 23.0203 43.6264 19.6923C43.4714 18.4393 41.6114 18.9872 41.8444 20.2012Z" fill="#D2544A"/>
<path d="M43.3556 41.0283C41.5346 42.3993 41.3406 45.3742 42.4256 47.2922C43.8976 49.8372 46.8816 48.3492 48.1986 46.5482C49.6706 44.5912 50.2516 41.4982 48.0826 39.8932C45.9126 38.2492 42.9296 40.4412 42.3866 42.6732C42.0766 43.8862 43.9756 44.4342 44.2466 43.1822C44.5176 42.0852 45.7186 40.9112 46.9196 41.4592C48.2756 42.0852 47.3076 44.2392 46.8036 45.1002C46.2996 46.0002 44.7886 47.4882 43.9756 46.0792C43.5106 45.2572 43.4716 43.3382 44.3246 42.7122C45.2926 41.9682 44.3246 40.2853 43.3556 41.0283Z" fill="#D2544A"/>
<path d="M44.4025 53.3612C43.9375 58.4112 44.9065 63.5392 44.7895 68.6682C44.7515 69.8822 44.3255 73.7182 46.3785 73.6792C47.6185 73.6402 47.6185 71.6822 46.3785 71.7222C47.1925 71.7222 46.7275 70.4692 46.6885 69.4902C46.6885 68.1592 46.7275 66.8282 46.8045 65.4972C46.9595 61.4252 45.9525 57.4712 46.3015 53.4002C46.4555 52.1082 44.5185 52.1082 44.4025 53.3612Z" fill="#D2544A"/>
<path d="M40.2949 75.5582C39.6749 78.3772 41.2629 81.1173 44.2859 81.0393C46.3389 81.0003 48.4309 79.6693 48.1599 77.3593C47.9269 75.5973 46.7259 73.9142 45.1769 73.0922C43.3939 72.1522 41.7279 73.1313 41.3019 75.0493C41.0309 76.2633 42.8909 76.8112 43.1619 75.5582C43.2009 75.3232 43.2779 75.0883 43.3939 74.8543C43.4719 74.7363 43.5879 74.6583 43.5489 74.6583C43.7429 74.5793 44.0139 74.6583 44.3629 74.8933C45.2149 75.4023 45.8739 76.3413 46.1449 77.2423C46.4159 78.2593 45.7969 78.7682 44.7499 79.0032C42.8129 79.4342 41.7279 77.8683 42.1549 76.0673C42.4649 74.8143 40.5659 74.3052 40.2949 75.5582Z" fill="#D2544A"/>
<path d="M36.2642 45.5701C35.1412 47.9581 31.3052 49.1721 29.1742 50.5031C27.0822 51.8341 25.3002 53.478 23.8662 55.475C23.1302 56.493 24.8352 57.4711 25.5322 56.4531C27.3532 53.8701 29.9882 52.1471 32.7002 50.6591C34.6372 49.6021 36.9622 48.663 37.9302 46.509C38.4732 45.413 36.8072 44.3951 36.2642 45.5701Z" fill="#D2544A"/>
<path d="M17.0098 55.9443C17.0098 57.1583 17.0098 58.3723 17.7068 59.4293C18.2878 60.3293 19.6828 61.0343 20.6898 61.3083C23.0928 61.9733 25.0688 59.7423 25.4558 57.5893C25.9598 55.0053 24.2938 52.7733 21.6978 52.6173C19.3728 52.4603 17.7848 54.8093 18.0558 57.0013C18.2108 58.2543 20.1478 58.2543 19.9928 57.0013C19.8378 55.9053 20.2258 54.7313 21.4648 54.5743C23.0928 54.3783 23.8288 55.9843 23.5578 57.3543C23.3248 58.6073 22.2788 59.7033 20.9618 59.3113C20.4968 59.1943 19.5278 58.5673 19.2568 58.1763C18.8698 57.5893 18.9858 56.6103 18.9858 55.9443C18.9468 54.6923 17.0098 54.6923 17.0098 55.9443Z" fill="#D2544A"/>
<path d="M23.5949 52.3042C23.2469 46.2752 25.494 40.5591 25.649 34.5691C25.687 33.3161 23.75 33.3161 23.712 34.5691C23.518 40.5591 21.271 46.2752 21.658 52.3042C21.736 53.5562 23.6729 53.5562 23.5949 52.3042Z" fill="#D2544A"/>
<path d="M20.264 26.7781C18.908 28.8141 19.567 31.1631 21.426 32.5721C23.519 34.1381 26.1151 33.042 27.3161 30.967C28.5941 28.736 27.9361 25.956 25.8051 24.547C23.4801 23.02 20.845 24.4681 19.76 26.7781C19.218 27.9131 20.884 28.8921 21.426 27.7571C22.046 26.4651 23.17 25.408 24.642 26.152C26.115 26.856 26.347 28.579 25.65 29.949C24.216 32.885 20.2251 30.3801 21.9301 27.7571C22.6281 26.7001 20.962 25.7211 20.264 26.7781Z" fill="#D2544A"/>
<path d="M27.4712 26.3869C31.0352 23.1759 33.7092 19.1439 37.2732 15.9339C38.2032 15.1119 36.8472 13.7019 35.9172 14.5629C32.3532 17.7349 29.6792 21.8059 26.0762 24.9769C25.1462 25.8389 26.5412 27.2089 27.4712 26.3869Z" fill="#D2544A"/>
<path d="M18.5204 28.8922C17.7454 28.9702 17.0474 29.0882 16.4274 29.6362C15.6534 30.3022 14.5684 30.4972 13.6384 30.8502C12.0114 31.4762 10.3454 32.1812 9.0274 33.3552C8.0974 34.1772 9.49242 35.5872 10.4224 34.7252C11.4294 33.7862 12.8634 33.2382 14.1424 32.7292C14.8784 32.4162 15.6144 32.1812 16.3504 31.9462C17.1254 31.7112 17.6294 30.9282 18.5204 30.8502C19.7594 30.7322 19.7594 28.7752 18.5204 28.8922Z" fill="#D2544A"/>
<path d="M1.27988 34.921C0.388881 35.861 -0.347112 37.114 0.155888 38.445C0.620888 39.619 1.8219 40.285 2.9849 40.48C6.1999 41.029 8.79587 38.836 9.14487 35.626C9.26087 34.373 7.32386 34.373 7.20786 35.626C7.01386 37.583 5.46389 38.68 3.60389 38.562C1.97689 38.484 1.5899 37.466 2.6749 36.291C3.5269 35.391 2.17088 34.021 1.27988 34.921Z" fill="#D2544A"/>
<path d="M8.67916 34.2562C7.40116 33.3942 5.92813 32.4942 4.30113 32.6902C2.63513 32.8852 1.51113 34.2952 0.620135 35.6262C-0.0768654 36.6832 1.58915 37.6622 2.28615 36.6052C2.82915 35.8222 3.52613 34.7252 4.53313 34.6082C5.65713 34.4512 6.81914 35.3523 7.67214 35.9393C8.75714 36.6053 9.72516 34.9212 8.67916 34.2562Z" fill="#D2544A"/>
<path d="M7.16965 42.2032C8.64165 42.9082 8.95159 44.2782 9.76559 45.5312C10.5786 46.7442 11.3536 47.9582 12.2066 49.0932C13.6396 51.0902 15.3056 52.9692 17.4756 54.1832C18.5996 54.8092 19.5676 53.1262 18.4826 52.4992C15.7316 50.9722 13.9496 48.2712 12.2066 45.7262C10.9666 43.8862 10.2696 41.4982 8.13864 40.5202C7.01464 39.9712 6.04565 41.6552 7.16965 42.2032Z" fill="#D2544A"/>
<path d="M50.523 37.6222C55.598 37.9362 59.821 34.6862 64.742 33.9422C65.982 33.7472 65.4389 31.8671 64.2379 32.0631C59.5499 32.7681 55.4039 35.9781 50.5609 35.6651C49.2829 35.5871 49.283 37.5442 50.523 37.6222Z" fill="#D2544A"/>
<path d="M63.5032 32.4553C63.1542 37.7013 69.9732 38.0533 72.1432 34.1773C73.5762 31.5933 72.1812 28.8533 69.8572 27.4833C68.6942 26.7783 67.1452 26.5043 65.8662 27.0133C64.3942 27.6003 63.8902 29.1663 63.0772 30.4583C62.4182 31.5153 64.0842 32.4943 64.7432 31.4373C65.2082 30.6933 65.5562 29.5583 66.2542 29.0103C67.1062 28.3443 68.3852 28.9313 69.1592 29.4013C70.7092 30.3413 71.0972 32.1813 70.1282 33.6683C69.4692 34.6473 68.1522 34.9993 67.0672 34.9603C65.7502 34.8823 65.2852 33.7083 65.3622 32.5333C65.5562 31.2023 63.6192 31.2413 63.5032 32.4553Z" fill="#D2544A"/>
<path d="M70.0881 23.8813C70.7471 20.0053 73.0721 16.6383 73.2271 12.6453C73.2651 11.3923 71.3281 11.3923 71.2891 12.6453C71.1341 16.4033 68.8871 19.6533 68.2291 23.3333C67.9961 24.5863 69.8561 25.0953 70.0881 23.8813Z" fill="#D2544A"/>
<path d="M71.4066 6.92924C70.2436 9.00424 70.6316 11.9412 72.7236 13.2722C73.8086 13.9372 75.0866 13.7022 76.1326 13.1152C77.1016 12.6062 77.6056 11.3532 77.7986 10.2962C78.1866 8.30025 77.5276 5.87222 75.8616 4.65922C73.6536 3.05422 71.5226 5.01124 70.3606 6.92924C69.7406 8.02624 71.4066 9.00425 72.0266 7.90825C72.5686 7.00825 73.5376 5.52021 74.7386 6.26421C75.6686 6.85121 75.9396 8.30022 75.9396 9.31822C75.9396 10.5312 75.1646 12.0582 73.7306 11.6272C72.3746 11.1972 72.4916 8.88725 73.0336 7.94725C73.6926 6.81225 72.0266 5.83324 71.4066 6.92924Z" fill="#D2544A"/>
<path d="M79.117 8.104C79.814 7.477 81.131 7.43798 82.022 7.32098C83.146 7.16398 84.308 7.04701 85.432 6.77301C86.633 6.49901 86.129 4.57998 84.928 4.89398C82.681 5.44198 79.62 5.08897 77.799 6.69397C76.792 7.55597 78.187 8.926 79.117 8.104Z" fill="#D2544A"/>
<path d="M84.463 7.08609C87.485 9.90509 93.413 7.86912 92.522 3.24912C92.173 1.52712 90.779 0.274097 89.113 0.0390974C87.0591 -0.234903 85.2771 0.940086 84.3081 2.74009C83.7271 3.83709 85.3931 4.85409 85.9741 3.71909C86.4781 2.74009 87.253 1.99713 88.377 1.91813C89.268 1.87913 90.1981 2.38812 90.5081 3.24912C91.5541 6.06812 87.563 7.28212 85.819 5.63712C84.928 4.81512 83.534 6.22509 84.463 7.08609Z" fill="#D2544A"/>
<path d="M77.7612 18.5571C79.9302 20.8271 81.6742 23.4901 83.3012 26.1911C83.9602 27.2871 85.6262 26.2691 84.9672 25.2121C83.2622 22.3931 81.4412 19.5751 79.1172 17.1871C78.2642 16.2471 76.8702 17.6561 77.7612 18.5571Z" fill="#D2544A"/>
<path d="M83.1469 28.3052C83.1859 29.7142 83.7278 30.9673 85.0068 31.6333C86.2468 32.2983 87.8348 32.0243 89.0748 31.5153C90.9738 30.7323 91.9809 28.8923 91.3609 26.8563C90.8189 25.1343 89.2689 23.6853 87.5249 23.2553C85.1619 22.6673 83.2639 24.2732 82.2169 26.2692C81.6359 27.4042 83.3018 28.3832 83.8828 27.2482C84.5028 26.0342 85.3938 24.9772 86.8668 25.0952C87.9128 25.1732 88.8429 26.1133 89.3079 27.0133C89.7339 27.7963 89.7728 28.7753 88.9978 29.3623C87.6418 30.4193 85.1228 30.5762 85.0458 28.3442C85.0458 27.0522 83.1089 27.0522 83.1469 28.3052Z" fill="#D2544A"/>
<path d="M93.6845 27.1699C99.3025 24.8599 104.572 21.9239 109.415 18.2039C110.384 17.4609 109.415 15.7379 108.447 16.5209C103.759 20.1229 98.6446 23.0589 93.1816 25.2899C92.0186 25.7209 92.5225 27.6389 93.6845 27.1699Z" fill="#D2544A"/>
<path d="M108.6 15.8161C107.05 17.9301 108.716 20.0051 111.041 20.0841C113.598 20.1231 115.806 17.5781 116 15.1121C116.155 13.1151 114.334 11.6271 112.513 11.4711C110.227 11.2361 108.484 12.8801 107.98 15.0331C107.709 16.2471 109.569 16.7951 109.84 15.5421C110.111 14.3681 110.77 13.4281 112.009 13.3891C112.901 13.3501 113.792 13.8201 114.024 14.7201C114.334 16.0121 112.823 17.6171 111.777 17.9701C111.273 18.1651 110.653 18.1651 110.15 17.8911C109.646 17.6171 110.033 17.1081 110.266 16.7951C111.002 15.7771 109.336 14.7981 108.6 15.8161Z" fill="#D2544A"/>
<path d="M95.2342 31.8682C98.8762 33.0812 99.8842 37.7793 103.487 39.1893C104.649 39.6583 105.153 37.7402 103.991 37.3092C102.286 36.6442 101.201 34.8042 100.116 33.4342C98.9152 31.9462 97.5982 30.6152 95.7382 30.0282C94.5372 29.5582 94.0332 31.4762 95.2342 31.8682Z" fill="#D2544A"/>
<path d="M103.835 41.6163C103.603 43.2993 103.913 45.0223 105.346 46.0403C106.741 47.0583 108.33 46.8623 109.88 46.3923C112.01 45.7263 114.258 44.0433 113.521 41.4983C112.979 39.6583 111.081 38.2103 109.26 37.8573C107.012 37.3883 105.23 38.8363 104.843 41.0683C104.649 42.2813 106.509 42.8293 106.703 41.5773C106.896 40.3633 107.516 39.5413 108.64 39.6973C109.802 39.8543 110.887 40.5983 111.468 41.5773C112.088 42.6343 111.468 43.4563 110.306 44.0823C109.376 44.5523 108.214 44.9833 107.206 44.7483C105.966 44.4743 105.54 43.2213 105.695 42.0863C105.889 40.9113 104.029 40.3633 103.835 41.6163Z" fill="#D2544A"/>
<path d="M86.2453 36.1351C86.2073 39.4231 85.7033 42.673 84.7343 45.805C84.3473 47.018 86.2073 47.5271 86.5943 46.3141C87.6403 43.0251 88.1443 39.5801 88.1833 36.1351C88.2213 34.8821 86.2843 34.8821 86.2453 36.1351Z" fill="#D2544A"/>
<path d="M82.1398 46.8229C81.4808 49.1719 83.4568 52.0289 85.9748 51.7549C87.8348 51.5599 89.5788 50.6589 89.5008 48.5059C89.4618 46.9399 88.4548 45.4129 87.2148 44.5519C85.6268 43.4949 84.1158 44.5909 83.6888 46.2739C83.3788 47.4879 85.2778 48.0359 85.5488 46.7829C85.5878 46.5489 85.6648 46.3529 85.7428 46.1959C85.7818 46.0789 85.8588 46.0789 85.7428 46.1179C85.8198 46.0789 86.0138 46.0789 85.7818 46.0789C86.0138 46.0789 85.5878 46.0399 85.8588 46.0789C86.0528 46.1179 86.0528 46.1179 86.2848 46.2739C86.8658 46.6659 87.3698 47.5269 87.5248 48.3099C87.5638 48.5839 87.5247 48.8969 87.4477 49.0929C87.2927 49.4059 86.8658 49.5629 86.4018 49.6799C85.6268 49.8369 85.0447 49.7979 84.5027 49.1719C84.0767 48.7019 83.8058 47.9189 83.9988 47.2919C84.3478 46.1179 82.4878 45.6089 82.1398 46.8229Z" fill="#D2544A"/>
<path d="M66.0983 39.2669C66.0593 44.7869 65.0132 50.8938 67.7642 55.9438C68.3832 57.0408 70.0492 56.0619 69.4302 54.9659C66.8722 50.3069 67.9572 44.3949 67.9962 39.2669C68.0742 38.0139 66.1363 38.0139 66.0983 39.2669Z" fill="#D2544A"/>
<path d="M65.6348 59.8982C65.2858 61.0342 65.3248 62.0522 66.0608 62.9912C66.7578 63.8132 68.3079 63.8922 69.2379 63.6962C71.6009 63.1872 72.9958 59.9382 73.1898 57.7842C73.3838 55.6702 71.5238 54.0262 69.5478 54.5742C67.4168 55.1612 66.1378 57.5502 66.0998 59.6242C66.0608 60.8772 67.9978 60.8772 68.0368 59.6242C68.0758 58.4502 68.6178 57.3542 69.5868 56.6882C70.5158 56.0622 71.0198 56.5322 71.2528 57.5102C71.5238 58.7242 70.3228 60.4862 69.5478 61.2692C69.0828 61.7392 68.6958 61.7782 68.1138 61.7782C67.1838 61.7392 67.2618 61.1512 67.4938 60.4072C67.8428 59.1942 65.9828 58.6852 65.6348 59.8982Z" fill="#D2544A"/>
<path d="M49.5171 58.7922C54.2821 61.0622 58.04 64.8212 61.721 68.5402C62.612 69.4402 63.9681 68.0312 63.0771 67.1702C59.2801 63.3332 55.406 59.4182 50.485 57.1082C49.362 56.5602 48.3541 58.2442 49.5171 58.7922Z" fill="#D2544A"/>
</g>
</svg>
