<svg width="18" height="17" viewBox="0 0 18 17" fill="none" xmlns="http://www.w3.org/2000/svg">
<path d="M17.8086 6.33749L9.2763 0.0903368C9.19615 0.0316415 9.09938 0 9.00004 0C8.9007 0 8.80393 0.0316415 8.72378 0.0903368L0.191446 6.33749C-0.0169601 6.4901 -0.0622413 6.78274 0.0903717 6.99115C0.242985 7.19955 0.53566 7.24476 0.744031 7.09222L9 1.04732L17.256 7.09218C17.336 7.15095 17.4326 7.18261 17.5319 7.18254C17.6759 7.18254 17.818 7.11627 17.9096 6.99111C18.0622 6.78274 18.017 6.4901 17.8086 6.33749Z" fill="#201B53"/>
<path d="M15.5474 7.19824C15.2892 7.19824 15.0797 7.40763 15.0797 7.66592V15.1102H11.3383V11.0466C11.3383 9.75712 10.2892 8.70806 8.99976 8.70806C7.7103 8.70806 6.66117 9.75719 6.66117 11.0466V15.1102H2.91974V7.66596C2.91974 7.40767 2.71032 7.19828 2.45206 7.19828C2.1938 7.19828 1.98438 7.40767 1.98438 7.66596V15.578C1.98438 15.8363 2.1938 16.0456 2.45206 16.0456H7.12885C7.3748 16.0456 7.57607 15.8556 7.59471 15.6144C7.59583 15.6035 7.59653 15.5915 7.59653 15.578V11.0467C7.59653 10.2729 8.226 9.64346 8.99976 9.64346C9.77351 9.64346 10.403 10.273 10.403 11.0467V15.578C10.403 15.5914 10.4037 15.6032 10.4048 15.614C10.4232 15.8554 10.6246 16.0456 10.8707 16.0456H15.5475C15.8057 16.0456 16.0151 15.8363 16.0151 15.578V7.66596C16.0151 7.40763 15.8057 7.19824 15.5474 7.19824Z" fill="#201B53"/>
</svg>
