<svg width="11" height="14" viewBox="0 0 11 14" fill="none" xmlns="http://www.w3.org/2000/svg">
<g clip-path="url(#clip0_333_4)">
<path d="M1.75 12.6875C1.50937 12.6875 1.3125 12.4906 1.3125 12.25V1.75C1.3125 1.50937 1.50937 1.3125 1.75 1.3125H6.125V3.5C6.125 3.98398 6.51602 4.375 7 4.375H9.1875V12.25C9.1875 12.4906 8.99063 12.6875 8.75 12.6875H1.75ZM1.75 0C0.784766 0 0 0.784766 0 1.75V12.25C0 13.2152 0.784766 14 1.75 14H8.75C9.71523 14 10.5 13.2152 10.5 12.25V4.22461C10.5 3.75977 10.3168 3.31406 9.98867 2.98594L7.51133 0.511328C7.1832 0.183203 6.74023 0 6.27539 0H1.75ZM4.375 7C4.375 6.76794 4.28281 6.54538 4.11872 6.38128C3.95462 6.21719 3.73206 6.125 3.5 6.125C3.26794 6.125 3.04538 6.21719 2.88128 6.38128C2.71719 6.54538 2.625 6.76794 2.625 7C2.625 7.23206 2.71719 7.45462 2.88128 7.61872C3.04538 7.78281 3.26794 7.875 3.5 7.875C3.73206 7.875 3.95462 7.78281 4.11872 7.61872C4.28281 7.45462 4.375 7.23206 4.375 7ZM6.26719 8.28242C6.18516 8.16484 6.05117 8.09375 5.90625 8.09375C5.76133 8.09375 5.62734 8.16484 5.54531 8.28242L4.41602 9.91484L4.09063 9.39258C4.01133 9.26406 3.86914 9.1875 3.71875 9.1875C3.56836 9.1875 3.42891 9.26406 3.34688 9.39258L2.25313 11.1426C2.16836 11.2766 2.16563 11.4461 2.24219 11.5855C2.31875 11.725 2.46641 11.8098 2.625 11.8098H3.9375H4.8125H5.90625H7.875C8.03906 11.8098 8.18672 11.7195 8.26328 11.5746C8.33984 11.4297 8.32891 11.2574 8.23594 11.1234L6.26719 8.27969V8.28242Z" fill="#201B53"/>
</g>
<defs>
<clipPath id="clip0_333_4">
<rect width="10.5" height="14" fill="white"/>
</clipPath>
</defs>
</svg>
