<svg width="98" height="98" viewBox="0 0 98 98" fill="none" xmlns="http://www.w3.org/2000/svg">
<path d="M80.0331 17.9671C72.5601 10.5392 62.6626 6.05005 52.1513 5.32099C41.6399 4.59192 31.2175 7.67166 22.7906 13.9968C14.3637 20.3219 8.49575 29.4696 6.26023 39.7663C4.02471 50.063 5.57107 60.8204 10.6164 70.0704C10.7098 70.3347 10.7098 70.6229 10.6164 70.8871L7.39059 81.6671C7.03384 82.9044 7.01221 84.2142 7.32789 85.4626C7.64358 86.711 8.28525 87.8531 9.18725 88.7721C10.1028 89.6924 11.2518 90.3459 12.5107 90.6625C13.7697 90.979 15.0911 90.9466 16.3331 90.5688L27.1539 87.3429C27.2833 87.289 27.4221 87.2613 27.5623 87.2613C27.7024 87.2613 27.8412 87.289 27.9706 87.3429C34.3947 90.9504 41.6321 92.8617 48.9998 92.8963C52.169 92.8896 55.3293 92.5612 58.4323 91.9163C66.1294 90.228 73.2302 86.4988 78.9892 81.1201C84.7483 75.7414 88.9532 68.9116 91.1627 61.3475C93.3722 53.7835 93.5048 45.7641 91.5465 38.1312C89.5882 30.4982 85.6112 23.5332 80.0331 17.9671Z" fill="#0DB561"/>
<path d="M49.0007 40.0169C53.511 40.0169 57.1673 36.3606 57.1673 31.8503C57.1673 27.3399 53.511 23.6836 49.0007 23.6836C44.4903 23.6836 40.834 27.3399 40.834 31.8503C40.834 36.3606 44.4903 40.0169 49.0007 40.0169Z" fill="white"/>
<path d="M49.0007 44.2227C46.8347 44.2227 44.7575 45.0831 43.2259 46.6146C41.6944 48.1462 40.834 50.2234 40.834 52.3893V66.926C40.834 69.0919 41.6944 71.1692 43.2259 72.7007C44.7575 74.2322 46.8347 75.0927 49.0007 75.0927C51.1666 75.0927 53.2438 74.2322 54.7754 72.7007C56.3069 71.1692 57.1673 69.0919 57.1673 66.926V52.3893C57.1673 50.2234 56.3069 48.1462 54.7754 46.6146C53.2438 45.0831 51.1666 44.2227 49.0007 44.2227Z" fill="white"/>
</svg>
