<svg width="18" height="18" viewBox="0 0 18 18" fill="none" xmlns="http://www.w3.org/2000/svg">
<path d="M9 1C4.592 1 1 4.592 1 9C1 13.408 4.592 17 9 17C13.408 17 17 13.408 17 9C17 4.592 13.408 1 9 1ZM8.4 5.8C8.4 5.472 8.672 5.2 9 5.2C9.328 5.2 9.6 5.472 9.6 5.8V9.8C9.6 10.128 9.328 10.4 9 10.4C8.672 10.4 8.4 10.128 8.4 9.8V5.8ZM9.736 12.504C9.696 12.608 9.64 12.688 9.568 12.768C9.488 12.84 9.4 12.896 9.304 12.936C9.208 12.976 9.104 13 9 13C8.896 13 8.792 12.976 8.696 12.936C8.6 12.896 8.512 12.84 8.432 12.768C8.36 12.688 8.304 12.608 8.264 12.504C8.224 12.408 8.2 12.304 8.2 12.2C8.2 12.096 8.224 11.992 8.264 11.896C8.304 11.8 8.36 11.712 8.432 11.632C8.512 11.56 8.6 11.504 8.696 11.464C8.888 11.384 9.112 11.384 9.304 11.464C9.4 11.504 9.488 11.56 9.568 11.632C9.64 11.712 9.696 11.8 9.736 11.896C9.776 11.992 9.8 12.096 9.8 12.2C9.8 12.304 9.776 12.408 9.736 12.504Z" fill="#F47817"/>
</svg>
