<svg width="20" height="20" viewBox="0 0 20 20" fill="none" xmlns="http://www.w3.org/2000/svg">
<path d="M17.5281 4H2.47185C2.08162 4.00045 1.70751 4.15763 1.43158 4.43704C1.15565 4.71645 1.00044 5.09529 1 5.49043L1 14.5096C1.00044 14.9047 1.15565 15.2835 1.43158 15.563C1.70751 15.8424 2.08162 15.9995 2.47185 16H17.5281C17.9184 15.9995 18.2925 15.8424 18.5684 15.563C18.8444 15.2835 18.9996 14.9047 19 14.5096V5.49043C18.9996 5.09529 18.8444 4.71645 18.5684 4.43704C18.2925 4.15763 17.9184 4.00045 17.5281 4ZM2.47185 5.13918H17.5281C17.6198 5.14041 17.7073 5.17782 17.7721 5.24342C17.8369 5.30903 17.8738 5.39766 17.875 5.49043V7.76522H2.125V5.49043C2.12621 5.39766 2.16314 5.30903 2.22793 5.24342C2.29271 5.17782 2.38023 5.14041 2.47185 5.13918ZM17.5281 14.8608H2.47185C2.38023 14.8596 2.29271 14.8222 2.22793 14.7566C2.16314 14.691 2.12621 14.6023 2.125 14.5096V8.90429H17.875V14.5096C17.8738 14.6023 17.8369 14.691 17.7721 14.7566C17.7073 14.8222 17.6198 14.8596 17.5281 14.8608Z" fill="#F47817" stroke="#F47817" stroke-width="0.1"/>
<path opacity="0.4" d="M7.67567 11.946C7.78116 11.8392 7.84042 11.6943 7.84042 11.5432C7.84042 11.3922 7.78116 11.2473 7.67567 11.1405C7.57018 11.0336 7.42711 10.9736 7.27792 10.9736H4.48926C4.34007 10.9736 4.197 11.0336 4.09151 11.1405C3.98602 11.2473 3.92676 11.3922 3.92676 11.5432C3.92676 11.6943 3.98602 11.8392 4.09151 11.946C4.197 12.0528 4.34007 12.1128 4.48926 12.1128H7.27792C7.42711 12.1128 7.57018 12.0528 7.67567 11.946Z" fill="#F47817" stroke="#F47817" stroke-width="0.1"/>
</svg>
