<svg width="24" height="24" viewBox="0 0 24 24" fill="none" xmlns="http://www.w3.org/2000/svg">
<path fill-rule="evenodd" clip-rule="evenodd" d="M2.5875 19.4125C2.97917 19.8042 3.45 20 4 20H20C20.55 20 21.0208 19.8042 21.4125 19.4125C21.8042 19.0208 22 18.55 22 18V12H2V18C2 18.55 2.19583 19.0208 2.5875 19.4125ZM6 15C5.44772 15 5 15.4477 5 16C5 16.5523 5.44772 17 6 17H8C8.55228 17 9 16.5523 9 16C9 15.4477 8.55228 15 8 15H6Z" fill="white"/>
<path d="M2 6V8H22V6C22 5.45 21.8042 4.97917 21.4125 4.5875C21.0208 4.19583 20.55 4 20 4H4C3.45 4 2.97917 4.19583 2.5875 4.5875C2.19583 4.97917 2 5.45 2 6Z" fill="white"/>
</svg>
