<svg width="20" height="20" viewBox="0 0 20 20" fill="none" xmlns="http://www.w3.org/2000/svg">
<path d="M7.49935 18.3332H12.4993C16.666 18.3332 18.3327 16.6665 18.3327 12.4998V7.49984C18.3327 3.33317 16.666 1.6665 12.4993 1.6665H7.49935C3.33268 1.6665 1.66602 3.33317 1.66602 7.49984V12.4998C1.66602 16.6665 3.33268 18.3332 7.49935 18.3332Z" stroke="#201B53" stroke-width="1.5" stroke-linecap="round" stroke-linejoin="round"/>
<path d="M13.5657 11.3417C12.624 12.2834 11.274 12.575 10.0824 12.2L7.92402 14.35C7.77402 14.5084 7.46569 14.6084 7.24069 14.575L6.24069 14.4417C5.90736 14.4 5.60736 14.0834 5.55736 13.7584L5.42403 12.7584C5.39069 12.5417 5.49902 12.2334 5.64902 12.075L7.79902 9.92503C7.43236 8.73337 7.71569 7.38337 8.65736 6.4417C10.0074 5.0917 12.2074 5.0917 13.5657 6.4417C14.9157 7.78337 14.9157 9.98337 13.5657 11.3417Z" stroke="#201B53" stroke-width="1.5" stroke-miterlimit="10" stroke-linecap="round" stroke-linejoin="round"/>
<path d="M8.70833 13.5668L8 12.8501" stroke="#201B53" stroke-width="1.5" stroke-miterlimit="10" stroke-linecap="round" stroke-linejoin="round"/>
<path d="M11.1621 8.91667H11.1696" stroke="#201B53" stroke-width="2" stroke-linecap="round" stroke-linejoin="round"/>
</svg>
