<svg width="18" height="16" viewBox="0 0 18 16" fill="none" xmlns="http://www.w3.org/2000/svg">
<path fill-rule="evenodd" clip-rule="evenodd" d="M8.99404 10.9106H9H8.98819H8.99404ZM7.97378 10.5723C8.27876 10.8006 8.64203 10.9094 8.99404 10.9106C9.34605 10.9094 9.70943 10.8006 10.0144 10.5723L15.5583 6.59715C15.5936 6.57295 15.6172 6.47626 15.6172 6.47626V0.144993C15.6172 0.0724965 15.5583 0 15.4757 0H2.50063C2.42985 0 2.35908 0.060408 2.35908 0.144993V6.47626C2.35908 6.52466 2.41805 6.59715 2.41805 6.59715L7.97378 10.5723ZM16.6474 5.77573L16.6553 5.77585H16.6435L16.6474 5.77573ZM16.726 5.75173C16.726 5.75173 16.6731 5.77343 16.6474 5.77573C16.633 5.77516 16.6022 5.77285 16.5845 5.76386C16.5373 5.73965 16.5019 5.69132 16.5019 5.6309V4.65221C16.5019 4.65221 16.5256 4.54347 16.5727 4.5193C16.6199 4.49514 16.6789 4.49514 16.7142 4.5193L17.4691 4.95428C17.4691 4.95428 17.54 5.02678 17.54 5.07511C17.54 5.12344 17.5164 5.17177 17.4809 5.20801L16.726 5.75173ZM1.31462 5.777L1.32104 5.77723H1.30925L1.31462 5.777ZM1.34462 5.77124C1.33462 5.77377 1.32462 5.77631 1.31462 5.777C1.29869 5.77619 1.25731 5.77239 1.23848 5.75305L0.49536 5.20934C0.49536 5.20934 0.436376 5.12476 0.436376 5.07643C0.436376 5.0281 0.471769 4.97977 0.50715 4.95561L1.25027 4.52063C1.25027 4.52063 1.34463 4.49646 1.39182 4.52063C1.439 4.54479 1.46259 4.59312 1.46259 4.65354V5.63224C1.46259 5.63224 1.4272 5.74098 1.38003 5.76513C1.36822 5.76513 1.35642 5.76813 1.34462 5.77124ZM0 14.1875C0 15.1784 0.790301 16 1.76933 16H16.2071H16.2189C17.1979 16 18 15.1905 18 14.1875V6.26135C18 6.20096 17.9646 6.15256 17.9174 6.12848C17.8703 6.09218 17.7641 6.12848 17.7641 6.12848L16.3957 7.09509C16.3604 7.13128 16.3133 7.16758 16.3133 7.16758L10.5334 11.3119C9.60154 11.9765 8.37484 11.9765 7.47832 11.3119L0.235913 6.12848C0.18873 6.10428 0.129746 6.10428 0.0825638 6.12848C0.0353813 6.15256 0 6.26135 0 6.26135V14.1875Z" fill="#C91717"/>
<path d="M8.97983 5.76013C9.12655 5.76079 9.26821 5.70659 9.37701 5.60813C9.48581 5.50974 9.55387 5.37414 9.56784 5.22814L9.89828 1.92403C9.91 1.8071 9.89709 1.68901 9.86034 1.57738C9.82359 1.46576 9.76386 1.36309 9.68497 1.276C9.60604 1.18891 9.50974 1.11935 9.40227 1.07181C9.2948 1.02427 9.17855 0.999804 9.06103 1H8.89863C8.78122 1 8.66513 1.02461 8.55783 1.07223C8.45052 1.11986 8.3544 1.18945 8.27564 1.27652C8.19688 1.36358 8.13726 1.46619 8.10059 1.57772C8.06394 1.68924 8.05106 1.80722 8.06281 1.92403L8.39321 5.22814C8.40716 5.37394 8.47503 5.50928 8.58353 5.60767C8.69203 5.70606 8.83335 5.76046 8.97983 5.76013Z" fill="url(#paint0_linear_2624_110)"/>
<path d="M8.98002 8.00009C9.52128 8.00009 9.96005 7.56134 9.96005 7.02006C9.96005 6.47878 9.52128 6.04004 8.98002 6.04004C8.43877 6.04004 8 6.47878 8 7.02006C8 7.56134 8.43877 8.00009 8.98002 8.00009Z" fill="url(#paint1_linear_2624_110)"/>
<defs>
<linearGradient id="paint0_linear_2624_110" x1="7.94884" y1="1.72466" x2="9.97388" y2="4.6723" gradientUnits="userSpaceOnUse">
<stop stop-color="white"/>
<stop offset="1" stop-color="white"/>
</linearGradient>
<linearGradient id="paint1_linear_2624_110" x1="8.35813" y1="6.39817" x2="9.56132" y2="7.60139" gradientUnits="userSpaceOnUse">
<stop stop-color="white"/>
<stop offset="1" stop-color="white"/>
</linearGradient>
</defs>
</svg>
