<svg width="759" height="797" viewBox="0 0 759 797" fill="none" xmlns="http://www.w3.org/2000/svg">
<g clip-path="url(#clip0_2803_100)">
<path d="M641.236 749.789V579.551H513.33L508.589 694.92C507.377 724.419 498.65 754.714 474.941 772.307C449.273 791.354 421.492 798.061 396.677 796.837V534.747C394.466 503.904 424.637 468.2 455.772 468.2H641.236V296.568H759.229C759.229 296.568 759.229 494.523 759.229 638.55C759.229 664.83 753.215 691.559 735.885 711.315C691.593 761.806 650.085 749.789 641.236 749.789Z" fill="white"/>
<path d="M447.725 407.938C409.608 407.938 310.683 407.938 310.683 407.938V796.826H193.741V407.938C188.44 407.938 145.548 407.938 104.688 407.938C59.2551 407.938 19.2665 377.489 8.23209 333.416C3.64219 315.083 0.0546875 299.74 0.0546875 296.568H324.387C375.173 296.568 422.722 325.647 439.284 373.656C444.22 387.964 447.725 400.681 447.725 407.938Z" fill="#CD4236"/>
<path d="M427.043 287.285C392.197 270.164 356.457 259.2 318.03 252.896C257.184 242.92 193.231 243.029 131.617 243.212V241.732V178.601V175.971C196.593 188.378 266.868 197.093 329.304 219.714C365.739 232.907 405.883 253.792 427.024 287.285H427.043Z" fill="#CD4236"/>
<path d="M434.938 287.285C469.783 270.164 505.523 259.2 543.949 252.896C604.796 242.92 668.748 243.029 730.362 243.212V241.732V178.601V175.971C665.386 188.378 595.112 197.093 532.675 219.714C496.24 232.907 456.096 253.792 434.955 287.285H434.938Z" fill="#CD4236"/>
<path d="M184.023 127.548V124.809C265.517 142.533 368.463 164.404 410.617 244.381L387.411 229.233C324.701 195.74 253.603 182.456 184.023 170.452V127.548Z" fill="#CD4236"/>
<path d="M677.953 127.548V124.809C596.459 142.533 493.513 164.404 451.359 244.381L474.564 229.233C537.275 195.74 608.372 182.456 677.953 170.452V127.548Z" fill="#CD4236"/>
<mask id="mask0_2803_100" style="mask-type:luminance" maskUnits="userSpaceOnUse" x="350" y="0" width="170" height="169">
<path d="M519.37 0H350.922V168.448H519.37V0Z" fill="white"/>
</mask>
<g mask="url(#mask0_2803_100)">
<path d="M405.062 106.876V61.5871C405.065 59.537 405.589 57.5211 406.587 55.7308C407.586 53.9405 409.026 52.4351 410.77 51.3576C412.515 50.28 414.505 49.666 416.553 49.5737C418.601 49.4815 420.639 49.9141 422.473 50.8305L467.761 73.4748C469.757 74.4751 471.435 76.011 472.608 77.9107C473.781 79.8103 474.402 81.9989 474.402 84.2314C474.402 86.4639 473.781 88.6525 472.608 90.5521C471.435 92.4518 469.757 93.9877 467.761 94.988L422.473 117.632C420.639 118.549 418.601 118.981 416.553 118.889C414.505 118.797 412.515 118.183 410.77 117.105C409.026 116.028 407.586 114.522 406.587 112.732C405.589 110.942 405.065 108.926 405.062 106.876Z" fill="white"/>
<path fill-rule="evenodd" clip-rule="evenodd" d="M448.261 1.0139C445.896 0.643728 443.482 1.22806 441.548 2.63833C439.614 4.04861 438.32 6.16931 437.95 8.53391C437.579 10.8985 438.164 13.3133 439.574 15.2471C440.984 17.1809 443.105 18.4752 445.47 18.8454C461.884 21.4886 476.704 30.2116 486.981 43.2805C497.259 56.3494 502.243 72.8072 500.942 89.3825C499.642 105.958 492.152 121.437 479.961 132.742C467.771 144.048 451.772 150.353 435.146 150.404C421.876 150.409 408.912 146.425 397.935 138.969C386.958 131.514 378.476 120.93 373.59 108.592C372.661 106.438 370.929 104.731 368.762 103.832C366.595 102.933 364.163 102.913 361.982 103.777C359.801 104.641 358.042 106.32 357.078 108.459C356.114 110.597 356.02 113.028 356.818 115.234C364.046 133.444 377.395 148.565 394.568 157.996C411.74 167.426 431.663 170.578 450.908 166.907C470.153 163.236 487.516 152.972 500.012 137.882C512.507 122.792 519.352 103.819 519.37 84.2274C519.374 64.1599 512.213 44.7504 499.176 29.4945C486.139 14.2385 468.084 4.13869 448.261 1.0139ZM418.59 18.9416C420.802 18.255 422.666 16.7441 423.795 14.7215C424.924 12.699 425.232 10.3198 424.655 8.07645C424.078 5.8331 422.661 3.89739 420.697 2.67007C418.732 1.44274 416.371 1.01777 414.102 1.48315C410.256 2.47479 406.484 3.73729 402.816 5.2612C401.722 5.71626 400.728 6.38238 399.891 7.22153C399.055 8.06068 398.391 9.05643 397.939 10.1519C397.027 12.3644 397.03 14.8488 397.949 17.0586C398.404 18.1528 399.07 19.1467 399.909 19.9834C400.749 20.8202 401.744 21.4835 402.84 21.9354C405.052 22.8481 407.537 22.8446 409.747 21.9256C412.602 20.7384 415.55 19.7518 418.59 18.9657M389.063 35.5578C390.693 33.8731 391.602 31.6208 391.6 29.2773C391.598 26.9338 390.685 24.683 389.053 23.0011C387.421 21.3192 385.199 20.3381 382.856 20.2653C380.514 20.1926 378.235 21.0339 376.502 22.6114C370.795 28.1349 365.897 34.4379 361.955 41.3332C361.368 42.3626 360.988 43.4977 360.839 44.6737C360.69 45.8497 360.774 47.0436 361.086 48.1871C361.399 49.3306 361.933 50.4014 362.659 51.3384C363.385 52.2754 364.289 53.0602 365.318 53.648C366.348 54.2358 367.483 54.615 368.659 54.7641C369.835 54.9132 371.029 54.8293 372.172 54.517C373.316 54.2047 374.387 53.6702 375.324 52.9441C376.26 52.218 377.045 51.3144 377.633 50.285C380.737 44.8466 384.588 39.8894 389.063 35.5578ZM369.62 73.7234C369.808 72.5401 369.759 71.3311 369.475 70.1671C369.191 69.003 368.678 67.9071 367.966 66.9433C367.254 65.9796 366.357 65.1673 365.328 64.5538C364.299 63.9403 363.158 63.538 361.971 63.3702C360.785 63.2024 359.577 63.2726 358.418 63.5766C357.259 63.8807 356.172 64.4125 355.221 65.141C354.27 65.8695 353.473 66.7802 352.877 67.8199C352.282 68.8597 351.899 70.0076 351.752 71.1967C351.196 75.1267 350.919 79.0911 350.922 83.0603C350.922 85.4536 351.873 87.7489 353.565 89.4412C355.257 91.1335 357.553 92.0843 359.946 92.0843C362.339 92.0843 364.635 91.1335 366.327 89.4412C368.019 87.7489 368.97 85.4536 368.97 83.0603C368.97 79.8838 369.187 76.7715 369.62 73.7234Z" fill="#CD4236"/>
</g>
</g>
<defs>
<clipPath id="clip0_2803_100">
<rect width="759" height="797" fill="white"/>
</clipPath>
</defs>
</svg>
