<svg width="18" height="16" viewBox="0 0 18 16" fill="none" xmlns="http://www.w3.org/2000/svg">
<path d="M17 6.9999V10.9999C17 13.7999 15.4 14.9999 13 14.9999H5C2.6 14.9999 1 13.7999 1 10.9999V5.3999C1 2.5999 2.6 1.3999 5 1.3999H10.6" stroke="#201B53" stroke-miterlimit="10" stroke-linecap="round" stroke-linejoin="round"/>
<path d="M5 5.80029L7.504 7.80029C8.328 8.45629 9.68 8.45629 10.504 7.80029L11.448 7.04829" stroke="#201B53" stroke-miterlimit="10" stroke-linecap="round" stroke-linejoin="round"/>
<path d="M15 5C16.1046 5 17 4.10457 17 3C17 1.89543 16.1046 1 15 1C13.8954 1 13 1.89543 13 3C13 4.10457 13.8954 5 15 5Z" stroke="#201B53" stroke-miterlimit="10" stroke-linecap="round" stroke-linejoin="round"/>
</svg>
