<svg width="4" height="15" viewBox="0 0 4 15" fill="none" xmlns="http://www.w3.org/2000/svg">
<path d="M2 3.83336C3.10457 3.83336 4 2.97523 4 1.91668C4 0.858127 3.10457 0 2 0C0.89543 0 0 0.858127 0 1.91668C0 2.97523 0.89543 3.83336 2 3.83336Z" fill="#55597D"/>
<path d="M2 9.11705C3.10457 9.11705 4 8.25892 4 7.20037C4 6.14182 3.10457 5.28369 2 5.28369C0.89543 5.28369 0 6.14182 0 7.20037C0 8.25892 0.89543 9.11705 2 9.11705Z" fill="#55597D"/>
<path d="M2 14.4007C3.10457 14.4007 4 13.5426 4 12.4841C4 11.4255 3.10457 10.5674 2 10.5674C0.89543 10.5674 0 11.4255 0 12.4841C0 13.5426 0.89543 14.4007 2 14.4007Z" fill="#55597D"/>
</svg>
