<svg width="601" height="423" viewBox="0 0 601 423" fill="none" xmlns="http://www.w3.org/2000/svg">
<g clip-path="url(#clip0_305_210)">
<path opacity="0.4" d="M504.26 422.37H65.7002C32.5802 397.09 9.58025 361.04 3.36025 319.85C0.810254 302.77 2.25025 282.43 16.2103 272.18C37.6703 256.4 69.8903 276.29 94.1403 265.27C109.76 258.17 117.46 239.72 117.62 222.56C117.78 205.4 111.99 188.84 107.62 172.23C103.25 155.62 100.42 137.7 106.28 121.57C112.14 105.44 129.41 92.3601 146.03 96.6401C160.27 100.31 169.31 114.74 182.96 120.22C197.16 125.93 213.65 120.74 226.26 112.06C238.87 103.38 248.9 91.5001 260.69 81.7301C281.37 64.5801 308.69 54.0701 335.27 58.0701C361.85 62.0701 386.43 82.6601 390.58 109.21C393.97 130.93 384.84 156.03 398.15 173.52C413.15 193.25 444.55 187.71 466.25 199.69C483.91 209.44 493.34 232.05 487.84 251.46C482.22 271.28 463.12 287.92 466.23 308.28C468.46 322.89 481.41 332.97 490.52 344.59C508.08 366.92 516.01 396.53 504.26 422.37Z" fill="#EED5D5"/>
<path d="M483.67 422.37H107.93C96.5001 411.95 83.6801 402.37 77.1901 388.37C70.7001 374.37 70.7201 356.11 81.3901 344.92C94.2801 331.39 115.81 333.23 133.93 328.77C154.82 323.62 173.82 306.84 176.49 285.49C179.95 257.93 156.86 232.74 158.3 205C159.43 183.13 178 163.48 199.76 161.1C214.48 159.49 229.76 164.88 243.96 160.76C257.14 156.93 266.65 145.76 278.1 138.19C291.54 129.32 308.71 125.46 324.2 129.87C339.69 134.28 352.8 147.68 354.88 163.65C357.1 180.65 347.88 199.93 357.66 213.97C364.96 224.44 379.53 226.46 392.28 226.05C405.03 225.64 418.63 223.93 429.83 230.05C440.25 235.72 446.45 247.45 447.61 259.26C448.77 271.07 445.48 282.92 440.61 293.74C436.36 303.2 430.89 312.14 427.69 322C424.49 331.86 423.84 343.19 429.04 352.16C434.52 361.59 445.15 366.5 453.82 373.16C469.14 384.77 482.52 403.12 483.67 422.37Z" fill="#EED5D5"/>
<path d="M141.12 347.36C119.934 333.43 101.164 316.136 85.5497 296.16C79.0297 287.8 73.0297 278.91 69.0697 269.07C65.1097 259.23 63.2797 248.35 65.2197 237.93C66.6197 230.45 70.6797 222.67 77.8997 220.28C83.5397 218.41 89.8997 220.35 94.6097 223.99C99.3197 227.63 102.61 232.76 105.52 237.93C116.77 257.93 123.68 279.93 132 301.32C135.891 311.623 140.451 321.661 145.65 331.37C148.268 336.174 151.153 340.828 154.29 345.31C157.15 349.31 162.34 353.72 164.14 358.1C160.03 361.36 144.96 349.88 141.12 347.36Z" fill="#50B259"/>
<path d="M81.5801 231.62C92.1077 275.754 116.027 315.553 150.06 345.56" stroke="#248B2D" stroke-width="2.02" stroke-miterlimit="10"/>
<path d="M422.62 347.58C440.803 338.733 457.418 326.975 471.81 312.77C477.81 306.83 483.5 300.41 487.64 293.03C491.78 285.65 494.36 277.23 493.89 268.78C493.56 262.72 491.14 256.15 485.67 253.51C481.4 251.45 476.16 252.34 472.07 254.73C467.98 257.12 464.84 260.84 462.01 264.64C451.01 279.29 443.32 296.03 434.54 312.08C430.395 319.83 425.752 327.302 420.64 334.45C418.078 337.985 415.317 341.37 412.37 344.59C409.69 347.5 405.14 350.42 403.27 353.7C406.22 356.71 419.33 349.18 422.62 347.58Z" fill="#50B259"/>
<path d="M481.63 262.12C468.766 295.957 445.751 324.987 415.74 345.23" stroke="#248B2D" stroke-width="1.61" stroke-miterlimit="10"/>
<path d="M150.26 318.67C161.63 262.6 149.51 202.14 117.41 154.79" stroke="#248B2D" stroke-width="2.54" stroke-miterlimit="10"/>
<path d="M120.81 160.33C111.551 157.294 103.688 151.038 98.6492 142.698C93.6105 134.359 91.73 124.488 93.3495 114.88C103.07 117.49 112.2 123.53 117.35 132.16C122.5 140.79 123.05 150.52 120.81 160.33Z" fill="#248B2D"/>
<path d="M131 178.48C128.884 171.261 129.426 163.522 132.529 156.669C135.632 149.816 141.089 144.303 147.91 141.13C150.51 148.46 150.66 156.91 147.43 163.98C144.2 171.05 138.24 175.64 131 178.48Z" fill="#248B2D"/>
<path d="M131.65 177.77C125.982 172.822 118.726 170.072 111.202 170.021C103.678 169.969 96.3857 172.62 90.6504 177.49C96.2204 182.91 103.83 186.59 111.65 186.62C119.47 186.65 126.04 183.19 131.65 177.77Z" fill="#248B2D"/>
<path d="M142.55 207.28C141.721 199.802 143.602 192.275 147.852 186.067C152.102 179.859 158.439 175.382 165.71 173.45C166.99 181.12 165.66 189.45 161.25 195.87C156.84 202.29 150.17 205.77 142.55 207.28Z" fill="#248B2D"/>
<path d="M143.31 206.77C138.594 200.908 131.929 196.933 124.53 195.569C117.13 194.206 109.487 195.544 102.99 199.34C107.53 205.65 114.38 210.6 121.99 211.98C129.6 213.36 136.81 211.05 143.31 206.77Z" fill="#248B2D"/>
<path d="M150.2 236.09C150.021 228.57 152.547 221.235 157.318 215.419C162.09 209.603 168.79 205.693 176.2 204.4C176.81 212.15 174.76 220.4 169.81 226.4C164.86 232.4 157.92 235.23 150.2 236.09Z" fill="#248B2D"/>
<path d="M151 235.61C146.811 229.361 140.517 224.823 133.265 222.821C126.013 220.819 118.283 221.486 111.48 224.7C115.48 231.38 121.85 236.91 129.35 238.95C136.85 240.99 144.19 239.35 151 235.61Z" fill="#248B2D"/>
<path d="M154.62 267.77C155.613 260.311 159.25 253.456 164.869 248.452C170.488 243.447 177.717 240.626 185.24 240.5C184.64 248.25 181.34 256.04 175.52 261.19C169.7 266.34 162.39 268.14 154.62 267.77Z" fill="#248B2D"/>
<path d="M155.49 267.44C152.323 260.613 146.811 255.151 139.955 252.048C133.1 248.944 125.359 248.405 118.14 250.53C121.03 257.75 126.49 264.2 133.58 267.38C140.67 270.56 148.18 270.08 155.49 267.44Z" fill="#248B2D"/>
<path d="M415.02 338C402.71 282.13 413.82 221.48 445.12 173.59" stroke="#248B2D" stroke-width="2.54" stroke-miterlimit="10"/>
<path d="M441.81 179.19C451.02 176.006 458.782 169.621 463.682 161.197C468.582 152.773 470.295 142.87 468.51 133.29C458.83 136.06 449.8 142.29 444.77 150.97C439.74 159.65 439.41 169.42 441.81 179.19Z" fill="#50B259"/>
<path d="M431.92 197.51C433.924 190.259 433.258 182.528 430.042 175.727C426.827 168.925 421.276 163.504 414.4 160.45C411.92 167.82 411.92 176.27 415.26 183.29C418.6 190.31 424.64 194.77 431.92 197.51Z" fill="#50B259"/>
<path d="M431.26 196.85C436.84 191.798 444.049 188.918 451.574 188.735C459.099 188.551 466.44 191.076 472.26 195.85C466.79 201.37 459.26 205.17 451.47 205.33C443.68 205.49 436.96 202.13 431.26 196.85Z" fill="#50B259"/>
<path d="M420.86 226.5C421.567 219.009 419.561 211.513 415.208 205.376C410.855 199.239 404.444 194.869 397.14 193.06C395.99 200.75 397.45 209.06 401.97 215.4C406.49 221.74 413.21 225.09 420.86 226.5Z" fill="#50B259"/>
<path d="M420.09 225.96C424.711 220.021 431.31 215.937 438.687 214.451C446.064 212.964 453.729 214.174 460.29 217.86C455.85 224.25 449.08 229.31 441.46 230.86C433.84 232.41 426.63 230.17 420.09 225.96Z" fill="#50B259"/>
<path d="M413.7 255.44C413.753 247.915 411.103 240.62 406.233 234.884C401.362 229.147 394.594 225.349 387.16 224.18C386.68 231.94 388.87 240.11 393.92 246.02C398.97 251.93 405.96 254.7 413.7 255.44Z" fill="#50B259"/>
<path d="M412.89 254.96C416.974 248.642 423.191 244.001 430.409 241.879C437.627 239.758 445.366 240.297 452.22 243.4C448.36 250.14 442.06 255.78 434.59 257.94C427.12 260.1 419.81 258.59 412.89 254.96Z" fill="#50B259"/>
<path d="M409.81 287.21C408.692 279.77 404.941 272.978 399.239 268.069C393.538 263.16 386.264 260.46 378.74 260.46C379.48 268.2 382.9 275.93 388.81 280.98C394.72 286.03 402.04 287.68 409.81 287.21Z" fill="#50B259"/>
<path d="M408.93 286.87C411.983 279.993 417.403 274.441 424.204 271.222C431.005 268.003 438.736 267.332 445.99 269.33C443.23 276.6 437.87 283.14 430.83 286.44C423.79 289.74 416.28 289.39 408.93 286.87Z" fill="#50B259"/>
<path d="M141.42 375.63C144.53 369.98 148.65 364.74 151.36 358.93C144.003 349.776 135.614 341.501 126.36 334.27C120.402 329.534 114.211 325.098 107.81 320.98L90.1701 334.98C91.1701 326.82 91.7901 319.72 92.6401 311.98C79.5597 304.883 65.8305 299.053 51.6401 294.57C48.3801 299.83 45.6401 305.41 41.2001 309.92C41.1871 303.657 40.7428 297.402 39.8701 291.2C26.8077 287.828 13.4605 285.675 0.000136935 284.77C-0.0302294 290.193 0.270323 295.613 0.900131 301C4.41013 299.94 7.13013 297 10.9001 296.42C8.44013 302.36 6.23013 308.88 3.31013 314.91C6.52714 329.264 11.9768 343.025 19.4601 355.69C25.6401 352.05 31.4601 347.04 38.8901 343.95C37.5901 355.34 37.5701 367.26 36.5901 378.79C40.5131 383.064 44.7157 387.073 49.1701 390.79C57.032 397.322 65.6183 402.928 74.7601 407.5C76.6101 400.44 78.5301 393.41 83.1101 387.5C88.5101 397.76 94.3601 406.9 99.2601 417.04C119.742 422.919 141.312 423.946 162.26 420.04C165.72 419.38 168.61 413.86 169.69 410.51C170.77 407.16 170.55 403.51 170.07 400.05C168.438 389.2 164.584 378.803 158.75 369.51C152.64 370.93 146.47 372.63 141.42 375.63Z" fill="#50B259"/>
<path d="M147.27 409.4C99.1625 381.093 55.3999 345.979 17.3398 305.15" stroke="#248B2D" stroke-width="2.54" stroke-miterlimit="10"/>
<path d="M425.22 386.94C422.31 383.06 418.68 379.61 416.04 375.57C420.546 367.977 425.915 360.93 432.04 354.57C435.97 350.407 440.109 346.445 444.44 342.7L459.07 351.26C457.43 345.26 456.23 340.07 454.77 334.4C463.739 327.72 473.326 321.914 483.4 317.06C486.4 320.63 489.06 324.49 492.81 327.37C492.155 322.709 491.821 318.008 491.81 313.3C501.174 309.385 510.883 306.352 520.81 304.24C521.397 308.265 521.731 312.323 521.81 316.39C519.09 315.98 516.75 314.07 513.93 314.05C516.38 318.2 518.73 322.83 521.54 327.05C520.682 338.075 518.097 348.897 513.88 359.12C508.88 357.07 504.04 353.97 498.16 352.46C500.35 360.8 501.64 369.67 503.6 378.14C501.136 381.741 498.437 385.175 495.52 388.42C490.362 394.124 484.568 399.217 478.25 403.6C476.12 398.54 473.94 393.51 469.9 389.6C466.98 397.82 463.6 405.25 461.03 413.32C446.403 419.882 430.448 422.946 414.43 422.27C411.79 422.15 409.05 418.34 407.89 415.97C406.854 413.526 406.376 410.882 406.49 408.23C406.549 399.98 408.309 391.83 411.66 384.29C416.37 384.64 421.14 385.25 425.22 386.94Z" fill="#50B259"/>
<path d="M424.47 412.69C457.254 386.49 486.079 355.688 510.05 321.24" stroke="#248B2D" stroke-width="1.91" stroke-miterlimit="10"/>
<path d="M420.98 222.02H142.37C136.399 222.02 131.56 226.86 131.56 232.83V411.56C131.56 417.53 136.399 422.37 142.37 422.37H420.98C426.95 422.37 431.79 417.53 431.79 411.56V232.83C431.79 226.86 426.95 222.02 420.98 222.02Z" fill="#101439"/>
<path d="M428.057 324.335C429.221 319.429 426.187 314.508 421.28 313.345C416.374 312.181 411.454 315.215 410.29 320.122C409.127 325.028 412.161 329.949 417.067 331.112C421.974 332.275 426.894 329.241 428.057 324.335Z" fill="#1C2363"/>
<path d="M137.95 356.07C137.569 356.07 137.193 355.995 136.841 355.849C136.49 355.703 136.171 355.489 135.902 355.22C135.634 354.95 135.421 354.631 135.277 354.279C135.132 353.927 135.058 353.55 135.06 353.17V291.17C135.06 290.403 135.364 289.668 135.906 289.126C136.448 288.584 137.183 288.28 137.95 288.28C138.716 288.28 139.451 288.584 139.993 289.126C140.535 289.668 140.84 290.403 140.84 291.17V353.17C140.841 353.55 140.767 353.927 140.622 354.279C140.478 354.631 140.265 354.95 139.997 355.22C139.728 355.489 139.409 355.703 139.058 355.849C138.707 355.995 138.33 356.07 137.95 356.07Z" fill="#1C2363"/>
<path d="M406.51 229.41H144.95V414.97H406.51V229.41Z" fill="#DCE8F4"/>
<path d="M406.51 229.42H144.95V241.89H406.51V229.42Z" fill="#A6AFB8"/>
<path d="M152.55 236.17H149.24V240.38H152.55V236.17Z" fill="#FC6047"/>
<path d="M156.86 233.23H153.55V240.37H156.86V233.23Z" fill="#FC6047"/>
<path d="M161.4 231.2H158.09V240.37H161.4V231.2Z" fill="#FC6047"/>
<path d="M385.73 231.96V232.56C385.73 232.793 385.637 233.017 385.472 233.182C385.307 233.347 385.083 233.44 384.85 233.44H383.85C383.734 233.439 383.619 233.461 383.511 233.504C383.404 233.548 383.307 233.613 383.225 233.695C383.143 233.777 383.078 233.874 383.034 233.982C382.99 234.089 382.968 234.204 382.97 234.32V236.98C382.97 237.095 382.993 237.209 383.037 237.315C383.081 237.422 383.146 237.518 383.228 237.599C383.31 237.68 383.407 237.744 383.514 237.787C383.62 237.83 383.735 237.851 383.85 237.85H384.85C385.082 237.853 385.305 237.946 385.469 238.111C385.634 238.275 385.727 238.497 385.73 238.73V239.34C385.73 239.571 385.821 239.792 385.985 239.955C386.148 240.118 386.369 240.21 386.6 240.21H400.23C400.461 240.21 400.682 240.118 400.845 239.955C401.008 239.792 401.1 239.571 401.1 239.34V231.96C401.101 231.845 401.08 231.731 401.036 231.624C400.993 231.517 400.929 231.42 400.849 231.338C400.768 231.257 400.671 231.192 400.565 231.147C400.459 231.103 400.345 231.08 400.23 231.08H386.6C386.485 231.08 386.371 231.103 386.265 231.147C386.158 231.192 386.062 231.257 385.981 231.338C385.9 231.42 385.836 231.517 385.793 231.624C385.75 231.731 385.728 231.845 385.73 231.96Z" fill="#DCE8F4"/>
<path d="M400.27 231.53H397.83C397.653 231.53 397.51 231.673 397.51 231.85V239.43C397.51 239.607 397.653 239.75 397.83 239.75H400.27C400.446 239.75 400.59 239.607 400.59 239.43V231.85C400.59 231.673 400.446 231.53 400.27 231.53Z" fill="#B7FC47"/>
<path d="M396.5 231.53H394.06C393.884 231.53 393.74 231.673 393.74 231.85V239.43C393.74 239.607 393.884 239.75 394.06 239.75H396.5C396.677 239.75 396.82 239.607 396.82 239.43V231.85C396.82 231.673 396.677 231.53 396.5 231.53Z" fill="#B7FC47"/>
<path d="M392.73 231.53H390.29C390.113 231.53 389.97 231.673 389.97 231.85V239.43C389.97 239.607 390.113 239.75 390.29 239.75H392.73C392.906 239.75 393.05 239.607 393.05 239.43V231.85C393.05 231.673 392.906 231.53 392.73 231.53Z" fill="#B7FC47"/>
<path d="M378.89 235.65C378.89 236.344 378.684 237.023 378.299 237.6C377.913 238.177 377.365 238.627 376.723 238.893C376.082 239.159 375.376 239.228 374.695 239.093C374.014 238.957 373.389 238.623 372.898 238.132C372.407 237.641 372.073 237.016 371.938 236.335C371.802 235.654 371.872 234.948 372.137 234.307C372.403 233.666 372.853 233.117 373.43 232.732C374.007 232.346 374.686 232.14 375.38 232.14C376.311 232.14 377.204 232.51 377.862 233.168C378.52 233.826 378.89 234.719 378.89 235.65Z" fill="#DCE8F4"/>
<path d="M389.97 255.89H161.49V400.67H389.97V255.89Z" fill="#C3CED9"/>
<path d="M389.97 255.89H161.49V268.37H389.97V255.89Z" fill="#A7B1BA"/>
<path d="M385.35 274.85H235.77V280.79H385.35V274.85Z" fill="#E0EDFA"/>
<path d="M318.32 286.15H235.77V292.09H318.32V286.15Z" fill="#E0EDFA"/>
<path d="M280.19 297.46H235.77V303.4H280.19V297.46Z" fill="#E0EDFA"/>
<path d="M385.35 317.06H235.77V323H385.35V317.06Z" fill="#E0EDFA"/>
<path d="M318.32 328.36H235.77V334.3H318.32V328.36Z" fill="#E0EDFA"/>
<path d="M280.19 339.67H235.77V345.61H280.19V339.67Z" fill="#E0EDFA"/>
<path d="M385.35 358.28H235.77V364.22H385.35V358.28Z" fill="#E0EDFA"/>
<path d="M318.32 369.58H235.77V375.52H318.32V369.58Z" fill="#E0EDFA"/>
<path d="M280.19 380.89H235.77V386.83H280.19V380.89Z" fill="#E0EDFA"/>
<path d="M228.46 274.85H170.45V307.51H228.46V274.85Z" fill="#E0EDFA"/>
<path d="M170.45 307.5L199.46 291.18L228.46 307.5H170.45Z" fill="#CEDAE6"/>
<path d="M228.46 274.85L199.46 291.18L170.45 274.85H228.46Z" fill="#CEDAE6"/>
<path d="M228.46 316.87H170.45V349.53H228.46V316.87Z" fill="#E0EDFA"/>
<path d="M170.45 349.52L199.46 333.19L228.46 349.52H170.45Z" fill="#CEDAE6"/>
<path d="M228.46 316.87L199.46 333.19L170.45 316.87H228.46Z" fill="#CEDAE6"/>
<path d="M228.46 358.89H170.45V391.55H228.46V358.89Z" fill="#E0EDFA"/>
<path d="M170.45 391.54L199.46 375.21L228.46 391.54H170.45Z" fill="#CEDAE6"/>
<path d="M228.46 358.89L199.46 375.21L170.45 358.89H228.46Z" fill="#CEDAE6"/>
<g opacity="0.44">
<path d="M238.42 229.41L144.95 322.89V241.21L156.75 229.41H238.42Z" fill="white"/>
<path d="M295.14 229.41L144.95 379.6V337.82L253.36 229.41H295.14Z" fill="white"/>
</g>
<g opacity="0.44">
<path d="M406.51 249.61V331.28L322.81 414.97H241.15L406.51 249.61Z" fill="white"/>
<path d="M406.511 346.22V388L379.531 414.97H337.761L406.511 346.22Z" fill="white"/>
</g>
<path d="M189.08 224.33L266.62 164.24C269.004 162.393 271.934 161.391 274.95 161.391C277.966 161.391 280.896 162.393 283.28 164.24L360.81 224.33V325.03H189.08V224.33Z" fill="#EE8F23"/>
<path d="M340.96 170.96H208.95V316.14H340.96V170.96Z" fill="#FAFAFA"/>
<path d="M333.01 179.7H216.89V184.13H333.01V179.7Z" fill="#DBDBDB"/>
<path d="M315.57 188.59H216.89V193.02H315.57V188.59Z" fill="#DBDBDB"/>
<path d="M299.56 197.49H216.89V201.92H299.56V197.49Z" fill="#DBDBDB"/>
<path d="M299.56 214.57H216.89V219H299.56V214.57Z" fill="#DBDBDB"/>
<path d="M278.21 223.11H216.89V227.54H278.21V223.11Z" fill="#DBDBDB"/>
<path d="M336.27 241H274.95V245.43H336.27V241Z" fill="#DBDBDB"/>
<path d="M336.28 249.72H286.4V254.15H336.28V249.72Z" fill="#DBDBDB"/>
<path d="M274.95 274.71L189.08 224.39V325.03L274.95 274.71Z" fill="#FFAC42"/>
<path d="M274.95 274.71L360.83 224.39V325.03L274.95 274.71Z" fill="#FFAC42"/>
<path d="M266.62 264.94L189.08 325.03H360.81L283.27 264.94C280.887 263.095 277.959 262.094 274.945 262.094C271.931 262.094 269.003 263.095 266.62 264.94Z" fill="#FFBE6E"/>
<path d="M373.795 228.019C375.781 220.873 371.598 213.47 364.452 211.484C357.305 209.498 349.902 213.681 347.916 220.828C345.93 227.974 350.114 235.377 357.26 237.363C364.406 239.349 371.81 235.166 373.795 228.019Z" fill="#FC6D5F"/>
<path d="M357.81 217.58V230.53H354.14V220.41H351.74V217.58H357.81Z" fill="white"/>
<path d="M368.62 223.41C369.053 223.776 369.396 224.237 369.621 224.758C369.847 225.278 369.949 225.843 369.92 226.41C369.924 227.19 369.709 227.956 369.3 228.62C368.843 229.332 368.185 229.892 367.41 230.23C366.424 230.659 365.355 230.863 364.28 230.83C363.366 230.83 362.456 230.72 361.57 230.5C360.753 230.313 359.972 229.992 359.26 229.55L360.57 226.8C361.1 227.149 361.68 227.415 362.29 227.59C362.899 227.776 363.533 227.871 364.17 227.87C364.694 227.895 365.214 227.771 365.67 227.51C365.845 227.409 365.99 227.263 366.09 227.087C366.19 226.911 366.242 226.712 366.24 226.51C366.25 226.307 366.202 226.106 366.103 225.929C366.004 225.753 365.858 225.607 365.68 225.51C365.051 225.235 364.363 225.122 363.68 225.18H360.21L360.85 217.61H369.11V220.44H363.89L363.72 222.33H364.59C366.018 222.208 367.444 222.591 368.62 223.41Z" fill="white"/>
<path d="M139.45 105.03C141.609 105.09 143.709 105.744 145.52 106.92C147.321 108.1 148.752 109.764 149.65 111.72C150.316 113.026 150.701 114.457 150.78 115.92C150.842 117.096 150.568 118.264 149.99 119.29C149.426 120.251 148.577 121.013 147.56 121.47C146.776 121.871 145.9 122.057 145.02 122.01C144.206 121.927 143.443 121.575 142.85 121.01C142.792 121.907 142.478 122.768 141.947 123.492C141.415 124.217 140.688 124.775 139.85 125.1C138.883 125.571 137.799 125.752 136.73 125.62C135.608 125.493 134.54 125.064 133.64 124.38C132.637 123.621 131.842 122.62 131.33 121.47C130.765 120.349 130.486 119.105 130.52 117.85C130.55 116.724 130.897 115.629 131.52 114.69C132.109 113.78 132.94 113.053 133.92 112.59C134.554 112.252 135.254 112.057 135.971 112.019C136.688 111.981 137.405 112.101 138.07 112.37L137.49 111.14L141.56 109.21L145.18 116.82C145.338 117.243 145.639 117.596 146.03 117.82C146.185 117.901 146.356 117.943 146.53 117.943C146.705 117.943 146.876 117.901 147.03 117.82C148.077 117.32 147.987 115.78 146.76 113.2C146.083 111.708 145.007 110.431 143.65 109.51C142.31 108.625 140.746 108.139 139.14 108.11C137.35 108.087 135.58 108.495 133.98 109.3C132.339 110.039 130.916 111.189 129.85 112.64C128.867 113.988 128.284 115.586 128.17 117.25C128.061 118.976 128.405 120.7 129.17 122.25C129.893 123.84 131.012 125.218 132.42 126.25C133.76 127.227 135.355 127.793 137.01 127.88C138.795 127.962 140.571 127.587 142.17 126.79C143.895 125.987 145.414 124.8 146.61 123.32L148.81 125.56C148.136 126.373 147.364 127.098 146.51 127.72C145.575 128.433 144.57 129.05 143.51 129.56C141.315 130.663 138.876 131.193 136.42 131.1C134.19 130.997 132.032 130.273 130.19 129.01C128.317 127.7 126.828 125.911 125.88 123.83C124.874 121.791 124.438 119.517 124.62 117.25C124.81 115.017 125.624 112.882 126.97 111.09C128.465 109.118 130.432 107.553 132.69 106.54C134.789 105.498 137.108 104.98 139.45 105.03ZM140.73 119.64C140.937 118.812 140.823 117.937 140.41 117.19C140.095 116.405 139.49 115.772 138.72 115.42C138.376 115.294 138.01 115.237 137.643 115.254C137.277 115.271 136.917 115.36 136.586 115.518C136.254 115.675 135.957 115.897 135.713 116.17C135.468 116.444 135.28 116.763 135.16 117.11C135.012 117.933 135.125 118.781 135.484 119.537C135.843 120.292 136.429 120.915 137.16 121.32C137.501 121.466 137.869 121.534 138.239 121.52C138.609 121.506 138.972 121.411 139.3 121.24C139.64 121.092 139.944 120.873 140.19 120.597C140.437 120.32 140.621 119.994 140.73 119.64Z" fill="#EED5D5"/>
<path d="M367.31 110.34L366.02 114.5L369.72 115.18L369.02 119L364.85 118.23L363.47 122.53L359.47 121.79L360.85 117.49L357.21 116.82L355.84 121.12L351.84 120.38L353.22 116.08L349.49 115.39L350.19 111.58L354.39 112.35L355.68 108.19L351.95 107.5L352.65 103.69L356.85 104.46L358.23 100.16L362.23 100.9L360.85 105.2L364.49 105.87L365.86 101.57L369.86 102.31L368.48 106.61L372.21 107.29L371.51 111.11L367.31 110.34ZM363.31 109.6L359.67 108.93L358.38 113.09L362.02 113.76L363.31 109.6Z" fill="#EED5D5"/>
<path d="M174.49 367.67H124.71C117.453 367.67 110.494 364.787 105.363 359.656C100.232 354.525 97.3496 347.566 97.3496 340.31C97.3496 336.717 98.0574 333.16 99.4325 329.841C100.808 326.522 102.823 323.507 105.364 320.967C107.905 318.427 110.921 316.413 114.24 315.039C117.56 313.665 121.117 312.959 124.71 312.96H147.14C150.732 312.959 154.289 313.665 157.608 315.039C160.926 316.413 163.942 318.428 166.482 320.968C169.022 323.508 171.036 326.523 172.41 329.842C173.784 333.161 174.491 336.718 174.49 340.31V367.67Z" fill="#FFBE6E"/>
<path d="M135.92 319.63C131.828 319.63 127.827 320.844 124.425 323.117C121.022 325.391 118.37 328.623 116.804 332.404C115.239 336.186 114.83 340.346 115.629 344.36C116.428 348.374 118.399 352.06 121.294 354.953C124.189 357.847 127.876 359.816 131.89 360.614C135.904 361.411 140.065 361 143.845 359.432C147.626 357.865 150.856 355.211 153.128 351.807C155.401 348.404 156.612 344.402 156.61 340.31C156.603 334.826 154.42 329.569 150.541 325.692C146.662 321.815 141.404 319.635 135.92 319.63ZM117.92 340.31C117.925 338.963 118.083 337.621 118.39 336.31C120.041 335.566 121.755 334.971 123.51 334.53C122.887 337.922 122.799 341.391 123.25 344.81C121.61 344.38 119.91 343.86 118.17 343.24C118.006 342.272 117.919 341.292 117.91 340.31H117.92ZM126.24 333.89C132.286 332.801 138.482 332.848 144.51 334.03C145.343 337.952 145.492 341.988 144.95 345.96C138.641 346.99 132.193 346.81 125.95 345.43C125.293 341.602 125.388 337.682 126.23 333.89H126.24ZM147.32 334.63C149.418 335.127 151.487 335.735 153.52 336.45C153.801 337.718 153.945 339.012 153.95 340.31C153.942 341.316 153.848 342.32 153.67 343.31C151.744 344.179 149.733 344.849 147.67 345.31C148.057 341.751 147.936 338.155 147.31 334.63H147.32ZM152.53 333.3C150.53 332.67 148.59 332.15 146.72 331.74C146.112 329.227 145.306 326.766 144.31 324.38C147.99 326.322 150.889 329.472 152.52 333.3H152.53ZM140.73 322.97C142.045 325.598 143.091 328.352 143.85 331.19C138.272 330.203 132.569 330.142 126.97 331.01C127.781 328.274 128.923 325.648 130.37 323.19C132.166 322.603 134.042 322.303 135.93 322.3C137.55 322.303 139.162 322.528 140.72 322.97H140.73ZM126.45 325.02C125.499 327.135 124.727 329.326 124.14 331.57C122.573 331.923 121.029 332.377 119.52 332.93C120.994 329.667 123.402 326.914 126.44 325.02H126.45ZM118.96 346.31C120.62 346.84 122.22 347.31 123.78 347.66C124.476 350.597 125.605 353.415 127.13 356.02C123.321 353.876 120.416 350.428 118.95 346.31H118.96ZM131.48 357.77C129.31 354.933 127.677 351.724 126.66 348.3C130.114 348.967 133.623 349.302 137.14 349.3C139.557 349.302 141.97 349.125 144.36 348.77C143.517 352.021 142.05 355.078 140.04 357.77C137.224 358.449 134.284 358.422 131.48 357.69V357.77ZM144.22 356.3C145.616 353.799 146.627 351.102 147.22 348.3C149.109 347.897 150.964 347.352 152.77 346.67C151.195 350.815 148.152 354.238 144.22 356.29V356.3Z" fill="#FAFAFA"/>
<path d="M420.14 401.42H370.35V374.06C370.35 366.804 373.233 359.844 378.364 354.713C383.495 349.582 390.454 346.7 397.71 346.7H420.14C427.396 346.7 434.355 349.582 439.486 354.713C444.617 359.844 447.5 366.804 447.5 374.06C447.5 381.316 444.617 388.275 439.486 393.406C434.355 398.537 427.396 401.42 420.14 401.42Z" fill="#FFBE6E"/>
<path d="M429.42 366.23C429.42 358.49 417.11 351.84 408.93 358.52C400.75 351.84 388.44 358.52 388.44 366.23C388.44 366.23 385.8 381.4 408.93 392.41C432.06 381.4 429.42 366.23 429.42 366.23Z" stroke="#FAFAFA" stroke-width="3.81" stroke-linejoin="round"/>
<path d="M354.02 40.1501C353.7 40.0301 353.38 39.9301 353.02 39.8401C352.937 39.5217 352.837 39.2079 352.72 38.9001C352.178 37.4625 351.312 36.169 350.19 35.1201C349.071 36.1701 348.209 37.4635 347.67 38.9001C347.55 39.2201 347.45 39.5401 347.36 39.9001C347.04 39.9901 346.73 40.0901 346.41 40.2101C344.972 40.7519 343.679 41.6176 342.63 42.7401C343.68 43.859 344.973 44.7212 346.41 45.2601C346.72 45.3801 347.04 45.4801 347.35 45.5701C347.44 45.8801 347.54 46.2001 347.66 46.5701C348.202 48.0077 349.067 49.3012 350.19 50.3501C351.362 49.2856 352.26 47.9549 352.81 46.4701C352.92 46.1501 353.03 45.8401 353.11 45.5301C353.43 45.4401 353.74 45.3401 354.06 45.2201C355.487 44.6743 356.77 43.8088 357.81 42.6901C356.762 41.5591 355.464 40.6892 354.02 40.1501Z" fill="#EED5D5"/>
<path d="M13.6596 251.77C13.3496 251.65 13.0296 251.55 12.7096 251.46C12.6229 251.142 12.5194 250.828 12.3996 250.52C11.8633 249.082 11.0007 247.788 9.87957 246.74C8.7607 247.79 7.89845 249.084 7.35957 250.52C7.23971 250.831 7.13623 251.148 7.04957 251.47C6.72957 251.56 6.40957 251.66 6.09957 251.78C4.65935 252.323 3.36276 253.188 2.30957 254.31C3.3718 255.405 4.6673 256.246 6.09957 256.77C6.40957 256.89 6.72957 256.99 7.03957 257.08C7.12957 257.4 7.22957 257.71 7.34957 258.08C7.89135 259.518 8.75707 260.811 9.87957 261.86C11.0021 260.811 11.8678 259.518 12.4096 258.08C12.5296 257.77 12.6296 257.45 12.7196 257.14C13.0396 257.05 13.3496 256.95 13.6596 256.83C15.1008 256.29 16.3978 255.424 17.4496 254.3C16.4002 253.174 15.1024 252.307 13.6596 251.77Z" fill="#EED5D5"/>
<path d="M380.1 190.48C379.78 190.36 379.46 190.26 379.1 190.17C379.017 189.852 378.917 189.538 378.8 189.23C378.258 187.793 377.392 186.499 376.27 185.45C375.151 186.5 374.289 187.794 373.75 189.23C373.63 189.55 373.53 189.87 373.44 190.18C373.12 190.27 372.81 190.37 372.49 190.49C371.052 191.032 369.759 191.898 368.71 193.02C369.76 194.139 371.053 195.001 372.49 195.54C372.8 195.66 373.12 195.76 373.43 195.85C373.52 196.16 373.62 196.48 373.74 196.8C374.282 198.238 375.147 199.531 376.27 200.58C377.404 199.527 378.274 198.222 378.81 196.77C378.92 196.45 379.03 196.14 379.11 195.83C379.43 195.74 379.74 195.64 380.11 195.52C381.548 194.978 382.841 194.113 383.89 192.99C382.839 191.87 381.541 191.011 380.1 190.48Z" fill="#EED5D5"/>
<path d="M92.5504 204.09C92.3935 204.028 92.2332 203.974 92.0703 203.93C92.0295 203.771 91.9794 203.614 91.9203 203.46C91.6462 202.739 91.212 202.089 90.6503 201.56C90.0913 202.089 89.6603 202.739 89.3904 203.46C89.3304 203.62 89.2803 203.78 89.2303 203.94C89.0709 203.981 88.914 204.031 88.7603 204.09C88.0375 204.361 87.3871 204.796 86.8604 205.36C87.3907 205.918 88.0402 206.349 88.7603 206.62C88.914 206.679 89.0709 206.729 89.2303 206.77C89.2712 206.933 89.3213 207.093 89.3804 207.25C89.6557 207.971 90.0898 208.62 90.6503 209.15C91.2172 208.625 91.6524 207.974 91.9203 207.25C91.9803 207.09 92.0304 206.94 92.0804 206.78C92.1304 206.62 92.3904 206.68 92.5504 206.62C93.2713 206.35 93.9211 205.919 94.4503 205.36C93.9236 204.796 93.2732 204.361 92.5504 204.09Z" fill="#EED5D5"/>
<path d="M23.0198 403.98C22.8662 403.921 22.7093 403.871 22.5498 403.83C22.5498 403.67 22.4498 403.51 22.3898 403.36C22.1247 402.637 21.6931 401.986 21.1298 401.46C20.5655 401.987 20.1308 402.637 19.8598 403.36C19.7994 403.513 19.7493 403.67 19.7098 403.83C19.547 403.874 19.3867 403.928 19.2298 403.99C18.5115 404.259 17.8648 404.691 17.3398 405.25C17.8638 405.813 18.5105 406.248 19.2298 406.52L19.6998 406.67C19.6998 406.83 19.7998 406.99 19.8598 407.15C20.1282 407.871 20.5634 408.519 21.1298 409.04C21.6929 408.516 22.1275 407.869 22.3998 407.15C22.4589 406.993 22.509 406.833 22.5498 406.67C22.7097 406.631 22.8667 406.58 23.0198 406.52C23.7455 406.254 24.397 405.819 24.9198 405.25C24.393 404.686 23.7427 404.251 23.0198 403.98Z" fill="#EED5D5"/>
<path d="M292.09 103.77C291.933 103.711 291.773 103.661 291.61 103.62C291.56 103.46 291.51 103.3 291.45 103.14C291.181 102.422 290.75 101.775 290.19 101.25C289.63 101.776 289.196 102.422 288.92 103.14C288.861 103.297 288.811 103.457 288.77 103.62C288.608 103.664 288.447 103.718 288.29 103.78C287.572 104.049 286.925 104.481 286.4 105.04C286.925 105.599 287.572 106.031 288.29 106.3C288.45 106.36 288.61 106.42 288.76 106.46C288.91 106.5 288.86 106.78 288.92 106.94C289.189 107.661 289.624 108.309 290.19 108.83C290.753 108.306 291.188 107.659 291.46 106.94C291.519 106.783 291.57 106.623 291.61 106.46C291.773 106.419 291.933 106.369 292.09 106.31C292.81 106.038 293.456 105.603 293.98 105.04C293.456 104.477 292.81 104.042 292.09 103.77Z" fill="#EED5D5"/>
<path d="M108.44 39.3901L107.96 39.2301C107.96 39.0801 107.86 38.9201 107.8 38.7601C107.531 38.0418 107.099 37.3951 106.54 36.8701C105.979 37.398 105.548 38.0482 105.28 38.7701C105.213 38.9253 105.16 39.0859 105.12 39.2501C104.957 39.291 104.797 39.341 104.64 39.4001C103.921 39.6725 103.274 40.1071 102.75 40.6701C103.275 41.2296 103.922 41.6607 104.64 41.9301L105.12 42.0901C105.159 42.25 105.21 42.407 105.27 42.5601C105.541 43.283 105.976 43.9333 106.54 44.4601C107.104 43.9333 107.539 43.283 107.81 42.5601C107.87 42.407 107.921 42.25 107.96 42.0901C108.123 42.0493 108.283 41.9992 108.44 41.9401C109.159 41.6678 109.806 41.2332 110.33 40.6701C109.81 40.1 109.162 39.6614 108.44 39.3901Z" fill="#EED5D5"/>
<path d="M500.89 209.88L500.41 209.72C500.41 209.57 500.32 209.41 500.26 209.25C499.986 208.529 499.552 207.879 498.99 207.35C498.431 207.879 498 208.529 497.73 209.25C497.67 209.41 497.62 209.57 497.57 209.73C497.411 209.771 497.254 209.821 497.1 209.88C496.377 210.151 495.727 210.586 495.2 211.15C495.728 211.711 496.378 212.142 497.1 212.41L497.57 212.57C497.611 212.73 497.661 212.886 497.72 213.04C497.996 213.761 498.43 214.41 498.99 214.94C499.557 214.415 499.992 213.765 500.26 213.04C500.32 212.89 500.37 212.73 500.42 212.57L500.89 212.42C501.61 212.142 502.258 211.709 502.79 211.15C502.263 210.586 501.613 210.151 500.89 209.88Z" fill="#EED5D5"/>
<path d="M313.23 143.65L312.75 143.5C312.709 143.337 312.659 143.177 312.6 143.02C312.328 142.301 311.893 141.654 311.33 141.13C310.773 141.657 310.342 142.303 310.07 143.02C310.01 143.18 309.96 143.34 309.91 143.5C309.86 143.66 309.6 143.6 309.44 143.66C308.718 143.928 308.068 144.359 307.54 144.92C308.07 145.48 308.719 145.914 309.44 146.19C309.594 146.249 309.751 146.299 309.91 146.34C309.954 146.503 310.008 146.663 310.07 146.82C310.339 147.538 310.771 148.185 311.33 148.71C311.896 148.189 312.332 147.541 312.6 146.82C312.662 146.663 312.716 146.503 312.76 146.34C312.919 146.299 313.076 146.249 313.23 146.19C313.953 145.919 314.603 145.484 315.13 144.92C314.601 144.358 313.951 143.924 313.23 143.65Z" fill="#DBF6FF"/>
<path d="M241.74 68.6199C241.466 68.5119 241.185 68.4217 240.9 68.3499C240.828 68.0677 240.738 67.7904 240.63 67.5199C240.157 66.2532 239.397 65.1133 238.41 64.1899C237.428 65.1162 236.672 66.2555 236.2 67.5199C236.09 67.7999 236 68.0799 235.92 68.3499C235.65 68.4299 235.37 68.5199 235.09 68.6299C233.841 69.1092 232.719 69.8687 231.81 70.8499C232.736 71.8317 233.875 72.5878 235.14 73.0599C235.41 73.1679 235.687 73.2581 235.97 73.3299C236.041 73.6155 236.132 73.8961 236.24 74.1699C236.716 75.4349 237.475 76.574 238.46 77.4999C239.45 76.5769 240.213 75.4372 240.69 74.1699C240.798 73.8995 240.888 73.6222 240.96 73.3399C241.242 73.2681 241.519 73.1779 241.79 73.0699C243.055 72.5939 244.194 71.8345 245.12 70.8499C244.182 69.8531 243.025 69.0894 241.74 68.6199Z" fill="#EED5D5"/>
<path d="M71.9702 149.36C71.6902 149.25 71.4102 149.16 71.1302 149.08C71.0584 148.801 70.9682 148.527 70.8602 148.26C70.392 146.994 69.6353 145.854 68.6502 144.93C67.6626 145.854 66.9027 146.993 66.4302 148.26C66.3202 148.54 66.2302 148.81 66.1502 149.09C65.8802 149.17 65.6002 149.26 65.3202 149.37C64.0538 149.838 62.9137 150.595 61.9902 151.58C62.9136 152.568 64.0535 153.328 65.3202 153.8C65.5907 153.908 65.868 153.998 66.1502 154.07C66.222 154.356 66.3122 154.636 66.4202 154.91C66.8947 156.176 67.6583 157.312 68.6502 158.23C69.6363 157.309 70.3961 156.173 70.8702 154.91C70.9782 154.64 71.0684 154.362 71.1402 154.08C71.4202 154 71.6902 153.91 71.9702 153.81C73.2375 153.334 74.3772 152.571 75.3002 151.58C74.3798 150.589 73.239 149.829 71.9702 149.36Z" fill="#EED5D5"/>
<path d="M430.81 122.5C430.53 122.39 430.25 122.3 429.97 122.22C429.89 121.95 429.8 121.67 429.7 121.4C429.224 120.135 428.464 118.996 427.48 118.07C426.495 118.996 425.736 120.135 425.26 121.4C425.16 121.68 425.07 121.95 424.99 122.23C424.71 122.31 424.43 122.4 424.15 122.5C422.877 122.991 421.734 123.767 420.81 124.77C421.734 125.752 422.869 126.511 424.13 126.99C424.401 127.096 424.678 127.187 424.96 127.26C425.04 127.54 425.13 127.82 425.23 128.1C425.704 129.365 426.468 130.502 427.46 131.42C428.451 130.502 429.215 129.365 429.69 128.1C429.79 127.82 429.88 127.55 429.96 127.27L430.79 127C432.052 126.521 433.188 125.758 434.11 124.77C433.202 123.766 432.072 122.989 430.81 122.5Z" fill="#EED5D5"/>
</g>
<defs>
<clipPath id="clip0_305_210">
<rect width="600.3" height="422.37" fill="white"/>
</clipPath>
</defs>
</svg>
