<svg width="18" height="18" viewBox="0 0 18 18" fill="none" xmlns="http://www.w3.org/2000/svg">
<path d="M17.5173 13.2285L14.6785 10.3998C14.0343 9.75398 12.9884 9.75274 12.3426 10.397L12.3398 10.3998L10.7133 12.0263C10.6537 12.086 10.575 12.1228 10.4909 12.1302C10.4068 12.1376 10.3228 12.1151 10.2537 12.0667C9.36348 11.4446 8.53013 10.7447 7.76345 9.97548C7.07678 9.29038 6.4451 8.55229 5.87426 7.76807C5.82419 7.69989 5.80023 7.61603 5.80671 7.53169C5.8132 7.44736 5.8497 7.36814 5.9096 7.30842L7.57651 5.64151C8.22007 4.9967 8.22007 3.95263 7.57651 3.30783L4.73772 0.469042C4.08357 -0.156347 3.05317 -0.156347 2.39901 0.469042L1.49991 1.36815C0.142048 2.71073 -0.342695 4.70428 0.247178 6.52043C0.68736 7.84916 1.30953 9.11049 2.09594 10.2684C2.8039 11.33 3.61613 12.3183 4.52054 13.2184C5.50381 14.2087 6.593 15.0878 7.76848 15.84C9.06067 16.6832 10.4795 17.3142 11.9711 17.7089C12.3545 17.8035 12.7481 17.8509 13.143 17.8504C14.4968 17.8421 15.7921 17.2971 16.7445 16.335L17.5174 15.5621C18.1609 14.9174 18.1609 13.8733 17.5173 13.2285ZM16.802 14.8732L16.8 14.8752L16.805 14.8601L16.0322 15.6329C15.5439 16.1273 14.9365 16.4875 14.2684 16.6786C13.6004 16.8697 12.8943 16.8854 12.2185 16.724C10.8337 16.3533 9.51714 15.7633 8.31893 14.9763C7.20569 14.2648 6.17408 13.4331 5.24271 12.4961C4.38578 11.6454 3.61586 10.7114 2.94437 9.70781C2.2099 8.628 1.62853 7.45166 1.21684 6.21232C0.985441 5.49847 0.957387 4.73429 1.13582 4.0054C1.31426 3.27651 1.69213 2.6117 2.22711 2.08546L3.12621 1.18636C3.37619 0.935257 3.78239 0.934369 4.03343 1.18435L4.03544 1.18636L6.87423 4.02515C7.12533 4.27512 7.12622 4.68132 6.87624 4.93236L6.87423 4.93437L5.20731 6.60129C4.72902 7.07437 4.66888 7.82614 5.0659 8.36925C5.66881 9.19665 6.33596 9.97527 7.06116 10.6979C7.86971 11.5099 8.7487 12.2486 9.6878 12.9053C10.2304 13.2838 10.9661 13.22 11.4355 12.7538L13.0468 11.1172C13.2968 10.8661 13.703 10.8652 13.9541 11.1152L13.9561 11.1172L16.7999 13.9661C17.0511 14.216 17.052 14.6221 16.802 14.8732Z" fill="#201B53"/>
</svg>
