<svg width="24" height="24" viewBox="0 0 24 24" fill="none" xmlns="http://www.w3.org/2000/svg">
<g clip-path="url(#clip0_412_12)">
<path d="M17.4 17.4H16C15.6688 17.4 15.4 17.6688 15.4 18C15.4 18.3312 15.6688 18.6 16 18.6H17.4V20C17.4 20.3312 17.6688 20.6 18 20.6C18.3312 20.6 18.6 20.3312 18.6 20V18.6H20C20.3312 18.6 20.6 18.3312 20.6 18C20.6 17.6688 20.3312 17.4 20 17.4H18.6V16C18.6 15.6688 18.3312 15.4 18 15.4C17.6688 15.4 17.4 15.6688 17.4 16V17.4Z" fill="white" stroke="white" stroke-width="0.2"/>
<path d="M5 9.6H15C15.3312 9.6 15.6 9.33123 15.6 9C15.6 8.66877 15.3312 8.4 15 8.4H5C4.66877 8.4 4.4 8.66877 4.4 9C4.4 9.33123 4.66877 9.6 5 9.6Z" fill="white" stroke="white" stroke-width="0.2"/>
<path d="M5 12.6H15C15.3312 12.6 15.6 12.3312 15.6 12C15.6 11.6688 15.3312 11.4 15 11.4H5C4.66877 11.4 4.4 11.6688 4.4 12C4.4 12.3312 4.66877 12.6 5 12.6Z" fill="white" stroke="white" stroke-width="0.2"/>
<path d="M5 15.6H11C11.3312 15.6 11.6 15.3312 11.6 15C11.6 14.6688 11.3312 14.4 11 14.4H5C4.66877 14.4 4.4 14.6688 4.4 15C4.4 15.3312 4.66877 15.6 5 15.6Z" fill="white" stroke="white" stroke-width="0.2"/>
<path d="M5 18.6H11C11.3312 18.6 11.6 18.3312 11.6 18C11.6 17.6688 11.3312 17.4 11 17.4H5C4.66877 17.4 4.4 17.6688 4.4 18C4.4 18.3312 4.66877 18.6 5 18.6Z" fill="white" stroke="white" stroke-width="0.2"/>
<path d="M1.16133 1.16125L1.16125 1.16133C0.674039 1.64906 0.4 2.31047 0.4 3V3.02458V3.04927V3.0741V3.09904V3.12411V3.1493V3.17462V3.20005V3.22561V3.25128V3.27708V3.30299V3.32903V3.35518V3.38145V3.40784V3.43434V3.46096V3.4877V3.51455V3.54152V3.5686V3.5958V3.6231V3.65053V3.67806V3.70571V3.73347V3.76134V3.78932V3.81741V3.84561V3.87392V3.90233V3.93086V3.95949V3.98823V4.01708V4.04604V4.07509V4.10426V4.13353V4.1629V4.19238V4.22196V4.25164V4.28143V4.31132V4.34131V4.3714V4.40159V4.43188V4.46227V4.49275V4.52334V4.55403V4.58481V4.61569V4.64666V4.67773V4.7089V4.74016V4.77152V4.80297V4.83452V4.86615V4.89788V4.9297V4.96162V4.99362V5.02572V5.0579V5.09018V5.12254V5.155V5.18754V5.22017V5.25288V5.28568V5.31857V5.35155V5.38461V5.41775V5.45098V5.48429V5.51769V5.55117V5.58473V5.61837V5.6521V5.6859V5.71979V5.75376V5.7878V5.82192V5.85613V5.89041V5.92477V5.9592V5.99371V6.0283V6.06296V6.0977V6.13251V6.1674V6.20236V6.23739V6.2725V6.30768V6.34293V6.37825V6.41364V6.4491V6.48463V6.52023V6.5559V6.59164V6.62744V6.66331V6.69925V6.73526V6.77133V6.80747V6.84367V6.87993V6.91626V6.95265V6.98911V7.02563V7.06221V7.09885V7.13555V7.17231V7.20914V7.24602V7.28296V7.31996V7.35701V7.39413V7.4313V7.46853V7.50581V7.54315V7.58055V7.618V7.6555V7.69306V7.73067V7.76833V7.80605V7.84381V7.88163V7.9195V7.95742V7.99538V8.0334V8.07147V8.10958V8.14774V8.18595V8.22421V8.26251V8.30086V8.33925V8.37769V8.41618V8.4547V8.49327V8.53189V8.57054V8.60924V8.64798V8.68676V8.72558V8.76444V8.80334V8.84227V8.88125V8.92027V8.95932V8.99841V9.03753V9.07669V9.11589V9.15512V9.19439V9.23369V9.27303V9.3124V9.3518V9.39123V9.43069V9.47019V9.50972V9.54927V9.58886V9.62848V9.66812V9.70779V9.74749V9.78722V9.82697V9.86676V9.90656V9.94639V9.98625V10.0261V10.066V10.106V10.1459V10.1859V10.2259V10.2659V10.3059V10.346V10.3861V10.4262V10.4663V10.5064V10.5466V10.5868V10.6269V10.6671V10.7074V10.7476V10.7879V10.8281V10.8684V10.9087V10.949V10.9893V11.0297V11.07V11.1103V11.1507V11.1911V11.2315V11.2719V11.3123V11.3527V11.3931V11.4335V11.474V11.5144V11.5549V11.5953V11.6358V11.6762V11.7167V11.7572V11.7976V11.8381V11.8786V11.919V11.9595V12V12.0405V12.081V12.1214V12.1619V12.2024V12.2429V12.2833V12.3238V12.3642V12.4047V12.4452V12.4856V12.526V12.5665V12.6069V12.6473V12.6877V12.7281V12.7685V12.8089V12.8493V12.8897V12.93V12.9704V13.0107V13.051V13.0913V13.1316V13.1719V13.2121V13.2524V13.2926V13.3329V13.3731V13.4133V13.4534V13.4936V13.5337V13.5738V13.6139V13.654V13.6941V13.7341V13.7741V13.8141V13.8541V13.894V13.934V13.9739V14.0138V14.0536V14.0934V14.1332V14.173V14.2128V14.2525V14.2922V14.3319V14.3715V14.4111V14.4507V14.4903V14.5298V14.5693V14.6088V14.6482V14.6876V14.727V14.7663V14.8056V14.8449V14.8841V14.9233V14.9625V15.0016V15.0407V15.0797V15.1188V15.1577V15.1967V15.2356V15.2744V15.3132V15.352V15.3908V15.4295V15.4681V15.5067V15.5453V15.5838V15.6223V15.6607V15.6991V15.7375V15.7758V15.814V15.8523V15.8904V15.9285V15.9666V16.0046V16.0426V16.0805V16.1184V16.1562V16.194V16.2317V16.2693V16.3069V16.3445V16.382V16.4195V16.4569V16.4942V16.5315V16.5687V16.6059V16.643V16.68V16.717V16.754V16.7909V16.8277V16.8645V16.9012V16.9378V16.9744V17.0109V17.0473V17.0837V17.1201V17.1563V17.1925V17.2287V17.2647V17.3007V17.3367V17.3726V17.4084V17.4441V17.4798V17.5154V17.5509V17.5864V17.6218V17.6571V17.6923V17.7275V17.7626V17.7976V17.8326V17.8675V17.9023V17.937V17.9717V18.0063V18.0408V18.0752V18.1096V18.1439V18.1781V18.2122V18.2462V18.2802V18.3141V18.3479V18.3816V18.4153V18.4488V18.4823V18.5157V18.549V18.5823V18.6154V18.6485V18.6814V18.7143V18.7471V18.7798V18.8125V18.845V18.8775V18.9098V18.9421V18.9743V19.0064V19.0384V19.0703V19.1021V19.1339V19.1655V19.197V19.2285V19.2598V19.2911V19.3223V19.3533V19.3843V19.4152V19.446V19.4767V19.5072V19.5377V19.5681V19.5984V19.6286V19.6587V19.6887V19.7186V19.7484V19.778V19.8076V19.8371V19.8665V19.8957V19.9249V19.954V19.9829V20.0118V20.0405V20.0691V20.0977V20.1261V20.1544V20.1826V20.2107V20.2387V20.2665V20.2943V20.3219V20.3495V20.3769V20.4042V20.4314V20.4585V20.4855V20.5123V20.539V20.5657V20.5922V20.6186V20.6448V20.671V20.697V20.7229V20.7487V20.7744V20.8V20.8254V20.8507V20.8759V20.901V20.9259V20.9507V20.9754V21C0.4 22.4357 1.56427 23.6 3 23.6H3.02033H3.04075H3.06124H3.08182H3.10248H3.12322H3.14404H3.16495H3.18593H3.20699H3.22813H3.24935H3.27065H3.29203H3.31348H3.33502H3.35663H3.37831H3.40008H3.42192H3.44384H3.46583H3.4879H3.51004H3.53226H3.55456H3.57692H3.59937H3.62188H3.64447H3.66713H3.68987H3.71267H3.73555H3.7585H3.78152H3.80462H3.82778H3.85101H3.87432H3.89769H3.92113H3.94465H3.96823H3.99188H4.01559H4.03938H4.06323H4.08715H4.11114H4.13519H4.15931H4.18349H4.20775H4.23206H4.25644H4.28089H4.3054H4.32997H4.35461H4.37931H4.40407H4.4289H4.45379H4.47874H4.50375H4.52882H4.55396H4.57915H4.60441H4.62972H4.6551H4.68053H4.70603H4.73158H4.75719H4.78286H4.80858H4.83437H4.86021H4.88611H4.91206H4.93807H4.96414H4.99026H5.01644H5.04267H5.06896H5.0953H5.1217H5.14814H5.17465H5.2012H5.22781H5.25447H5.28118H5.30794H5.33476H5.36162H5.38854H5.41551H5.44252H5.46959H5.49671H5.52387H5.55109H5.57835H5.60566H5.63302H5.66042H5.68787H5.71537H5.74292H5.77051H5.79815H5.82583H5.85356H5.88134H5.90915H5.93702H5.96492H5.99287H6.02087H6.0489H6.07698H6.1051H6.13327H6.16147H6.18972H6.218H6.24633H6.2747H6.30311H6.33155H6.36004H6.38857H6.41713H6.44574H6.47438H6.50306H6.53177H6.56053H6.58932H6.61814H6.64701H6.67591H6.70484H6.73381H6.76282H6.79185H6.82093H6.85004H6.87918H6.90835H6.93756H6.9668H6.99607H7.02537H7.05471H7.08408H7.11347H7.1429H7.17236H7.20185H7.23137H7.26092H7.29049H7.3201H7.34973H7.3794H7.40909H7.4388H7.46855H7.49832H7.52812H7.55794H7.58779H7.61767H7.64757H7.67749H7.70744H7.73742H7.76741H7.79744H7.82748H7.85755H7.88764H7.91775H7.94789H7.97804H8.00822H8.03842H8.06864H8.09888H8.12914H8.15942H8.18971H8.22003H8.25037H8.28072H8.3111H8.34149H8.3719H8.40232H8.43276H8.46322H8.4937H8.52419H8.55469H8.58521H8.61575H8.6463H8.67686H8.70744H8.73803H8.76864H8.79926H8.82989H8.86053H8.89119H8.92185H8.95253H8.98322H9.01392H9.04463H9.07535H9.10608H9.13682H9.16757H9.19832H9.22909H9.25986H9.29064H9.32143H9.35223H9.38303H9.41384H9.44465H9.47547H9.5063H9.53713H9.56797H9.59881H9.62965H9.6605H9.69135H9.72221H9.75307H9.78393H9.81479H9.84566H9.87652H9.90739H9.93826H9.96913H10H10.0309H10.0617H10.0926H10.1235H10.1543H10.1852H10.2161H10.2469H10.2778H10.3086H10.3395H10.3703H10.4012H10.432H10.4629H10.4937H10.5245H10.5553H10.5862H10.617H10.6478H10.6786H10.7094H10.7401H10.7709H10.8017H10.8324H10.8632H10.8939H10.9247H10.9554H10.9861H11.0168H11.0475H11.0781H11.1088H11.1395H11.1701H11.2007H11.2314H11.262H11.2926H11.3231H11.3537H11.3843H11.4148H11.4453H11.4758H11.5063H11.5368H11.5672H11.5977H11.6281H11.6585H11.6889H11.7193H11.7496H11.78H11.8103H11.8406H11.8709H11.9011H11.9314H11.9616H11.9918H12.022H12.0521H12.0823H12.1124H12.1425H12.1725H12.2026H12.2326H12.2626H12.2926H12.3225H12.3524H12.3823H12.4122H12.4421H12.4719H12.5017H12.5315H12.5612H12.5909H12.6206H12.6503H12.6799H12.7095H12.7391H12.7686H12.7982H12.8276H12.8571H12.8865H12.9159H12.9453H12.9746H13.0039H13.0332H13.0624H13.0917H13.1208H13.15H13.1791H13.2081H13.2372H13.2662H13.2952H13.3241H13.353H13.3819H13.4107H13.4395H13.4682H13.4969H13.5256H13.5543H13.5829H13.6114H13.64H13.6684H13.6969H13.7253H13.7537H13.782H13.8103H13.8385H13.8667H13.8949H13.923H13.9511H13.9791H14.0071H14.0351H14.063H14.0908H14.1187H14.1464H14.1742H14.2019H14.2295H14.2571H14.2846H14.3121H14.3396H14.367H14.3943H14.4217H14.4489H14.4761H14.5033H14.5304H14.5575H14.5845H14.6115H14.6384H14.6652H14.6921H14.7188H14.7455H14.7722H14.7988H14.8254H14.8519H14.8783H14.9047H14.931H14.9573H14.9836H15.0097H15.0359H15.0619H15.0879H15.1139H15.1398H15.1656H15.1914H15.2171H15.2428H15.2684H15.294H15.3195H15.3449H15.3703H15.3956H15.4209H15.446H15.4712H15.4963H15.5213H15.5462H15.5711H15.5959H15.6207H15.6454H15.67H15.6946H15.7191H15.7436H15.7679H15.7923H15.8165H15.8407H15.8648H15.8889H15.9129H15.9368H15.9606H15.9844H16.0081H16.0318H16.0554H16.0789H16.1023H16.1257H16.149H16.1722H16.1954H16.2185H16.2415H16.2645H16.2873H16.3101H16.3329H16.3555H16.3781H16.4006H16.4231H16.4454H16.4677H16.49H16.5121H16.5342H16.5562H16.5781H16.5999H16.6217H16.6434H16.665H16.6865H16.708H16.7294H16.7507H16.7719H16.793H16.8141H16.8351H16.856H16.8768H16.8975H16.9182H16.9388H16.9593H16.9797H17C17.1378 23.6 17.2726 23.5893 17.4046 23.5688C17.6007 23.5893 17.7989 23.6 18 23.6C21.0907 23.6 23.6 21.0907 23.6 18C23.6 15.4651 21.9121 13.3214 19.6 12.6324V7.8285C19.6 7.13897 19.326 6.47756 18.8388 5.98983L18.8387 5.98978C17.6907 4.84229 15.1577 2.3093 14.0102 1.16131L14.0102 1.16125C13.5224 0.674041 12.861 0.4 12.1715 0.4H3C2.31047 0.4 1.64906 0.674041 1.16133 1.16125ZM2.01015 2.01027L2.01027 2.01015C2.27248 1.74747 2.62851 1.6 3 1.6H12.1715C12.2486 1.6 12.3249 1.6064 12.4 1.61885V5C12.4 6.43573 13.5643 7.6 15 7.6H18.3812C18.3936 7.67505 18.4 7.75141 18.4 7.8285V12.4141C18.2677 12.4047 18.1345 12.4 18 12.4C14.9093 12.4 12.4 14.9093 12.4 18C12.4 19.7843 13.2361 21.3745 14.5371 22.4H3C2.22673 22.4 1.6 21.7733 1.6 21V3C1.6 2.62851 1.74747 2.27248 2.01015 2.01027ZM18 13.6C20.4283 13.6 22.4 15.5717 22.4 18C22.4 20.4283 20.4283 22.4 18 22.4C15.5717 22.4 13.6 20.4283 13.6 18C13.6 15.5717 15.5717 13.6 18 13.6ZM13.6 2.44842L17.5516 6.4H15C14.2267 6.4 13.6 5.77327 13.6 5V2.44842Z" fill="white" stroke="white" stroke-width="0.2"/>
</g>
<defs>
<clipPath id="clip0_412_12">
<rect width="24" height="24" fill="white"/>
</clipPath>
</defs>
</svg>
