<svg width="400" height="320" viewBox="0 0 400 320" fill="none" xmlns="http://www.w3.org/2000/svg">
    <g clip-path="url(#clip0_1263_28)">
    <g opacity="0.2">
    <path d="M102.737 91.1307C98.3131 89.055 90.9963 92.4299 88.6627 97.3681C84.2091 106.794 98.6131 120.446 103.851 118.981C109.705 117.344 110.86 94.9413 102.737 91.1307Z" stroke="#0F31AC" stroke-width="20" stroke-miterlimit="10" stroke-linecap="round" stroke-dasharray="50 50"/>
    <path d="M80.6079 112.482C79.0287 111.57 62.3039 101.92 52.8383 109.558C46.1919 114.92 46.1287 126.385 51.1231 132.827C61.0151 145.588 91.6887 139.867 94.8711 130.736C97.0143 124.588 86.9527 116.143 80.6079 112.482Z" stroke="#0F31AC" stroke-width="20" stroke-miterlimit="10" stroke-linecap="round" stroke-dasharray="50 50"/>
    <path d="M102.128 270.054C142.839 259.974 189.097 249.712 260.928 251.46C301.1 252.438 310.203 240.002 340.648 224.54C367.785 210.76 381.113 183.357 372.928 167.827C364.664 152.148 339.492 158.39 318.878 135.051C309.49 124.421 311.142 116.97 305.722 105.183C288.558 67.8582 224.228 38.6846 192.505 54.1241C150.596 74.5209 186.424 162.653 139.577 186.728C109.944 201.957 87.5469 172.722 58.2877 195.039C43.7901 206.098 26.0589 221.61 24.6877 238.452C24.6877 238.452 22.7677 279.63 102.128 270.054Z" stroke="#0F31AC" stroke-width="20" stroke-miterlimit="10" stroke-linecap="round" stroke-dasharray="50 50"/>
    <path d="M327.053 224.191C327.053 224.191 319.678 233.944 312.302 247.326C305.653 259.394 300.596 275.655 299.479 289.231C296.347 289.083 292.907 288.944 289.188 288.813C267.161 288.033 235.361 287.544 200.001 287.544C159.803 287.544 124.205 288.177 102.337 289.149C101.585 289.182 100.848 289.216 100.128 289.25C72.8262 255.494 17.8494 196.685 68.443 172.492C68.443 172.492 72.1494 171.366 77.7062 168.947C95.2934 161.29 131.434 140.686 127.414 101.837C127.414 101.837 126.045 94.5873 126.045 84.5002C126.045 60.9137 133.53 21.8166 183.505 23.601C213.768 24.6831 241.639 40.0452 258.489 64.6341C275.017 88.7513 301.445 118.424 322.966 101.484C327.934 97.572 334.503 96.1227 340.636 97.8425C356.127 102.183 373.725 124.653 327.053 224.191Z" fill="#ACBCF8"/>
    </g>
    <path opacity="0.15" d="M367.239 290.544C367.239 292.14 292.363 293.434 200 293.434C147.886 293.434 101.339 293.023 70.6673 292.376C63.6025 292.227 57.3817 292.067 52.1281 291.895C48.6681 291.782 45.6281 291.664 43.0433 291.543C36.3937 291.233 32.7617 290.896 32.7617 290.544C32.7617 290.096 38.6561 289.672 49.1769 289.294C53.4857 289.139 58.5689 288.992 64.3417 288.855C94.7169 288.128 144.163 287.654 199.999 287.654C249.115 287.654 293.285 288.02 323.881 288.603C350.822 289.115 367.239 289.797 367.239 290.544Z" fill="#040C2B"/>
    <path d="M253.794 78.2906L242.838 98.7704C242.423 99.5461 241.457 99.8398 240.679 99.4256L222.525 89.7615C221.747 89.3473 221.453 88.3833 221.868 87.6076L234.84 63.3587C235.255 62.583 236.222 62.2893 237 62.7035L251.28 70.3055L251.325 70.4483L253.794 78.2906Z" fill="#E3E9F7"/>
    <path opacity="0.1" d="M253.795 78.2915L249.754 76.1408C249.121 75.804 248.882 75.0187 249.22 74.3875L251.326 70.4492L253.795 78.2915Z" fill="black"/>
    <path d="M236.043 82.2905L236.387 81.6473C236.685 81.091 237.062 80.6705 237.521 80.3864C237.979 80.1015 238.649 79.8964 239.529 79.7695C240.372 79.6594 240.963 79.5205 241.303 79.3513C241.643 79.183 241.903 78.93 242.083 78.594C242.285 78.2173 242.298 77.8566 242.125 77.5111C241.952 77.1655 241.616 76.8599 241.116 76.5941C240.245 76.1305 239.1 75.8855 237.681 75.86L237.749 73.4515C239.432 73.4164 240.999 73.7859 242.452 74.5592C243.649 75.196 244.446 75.9892 244.845 76.9381C245.244 77.8878 245.187 78.8398 244.676 79.7958C244.335 80.4335 243.895 80.9067 243.357 81.2155C242.818 81.5244 241.988 81.7526 240.865 81.8986C240.087 82.0136 239.567 82.1381 239.304 82.2737C239.041 82.4094 238.817 82.6512 238.631 82.9983L238.352 83.5194L236.043 82.2905ZM234.174 85.1147C234.434 84.6279 234.762 84.3294 235.157 84.2193C235.551 84.1092 235.998 84.1874 236.498 84.4531C236.981 84.7101 237.285 85.0357 237.413 85.4315C237.541 85.8274 237.478 86.2623 237.224 86.7379C236.979 87.196 236.653 87.4849 236.245 87.607C235.837 87.7283 235.394 87.662 234.918 87.409C234.43 87.1497 234.121 86.8193 233.993 86.4195C233.862 86.0189 233.923 85.5839 234.174 85.1147Z" fill="#CDD7FB"/>
    <path d="M104.563 187.056L91.6129 206.879C91.1225 207.63 90.1145 207.842 89.3617 207.352L71.7896 195.928C71.0368 195.439 70.824 194.433 71.3152 193.683L86.6497 170.212C87.1401 169.461 88.1481 169.248 88.9009 169.738L102.724 178.725L102.757 178.873L104.563 187.056Z" fill="#E3E9F7"/>
    <path opacity="0.1" d="M104.563 187.056L100.652 184.514C100.039 184.115 99.8665 183.297 100.266 182.685L102.756 178.873L104.563 187.056Z" fill="black"/>
    <path d="M90.4986 196.31L88.1554 194.787L88.2906 189.673L83.6546 191.861L81.457 190.433L87.9194 187.542L87.9682 180.914L90.2314 182.386L90.0474 187.214L94.3618 185.07L96.5722 186.507L90.4066 189.319L90.4986 196.31Z" fill="#CDD7FB"/>
    <path d="M329.678 124.28L338.174 146.371C338.496 147.208 338.077 148.147 337.238 148.468L317.656 155.961C316.817 156.282 315.876 155.864 315.554 155.027L305.495 128.87C305.173 128.033 305.593 127.095 306.431 126.774L321.836 120.879L321.976 120.94L329.678 124.28Z" fill="#E3E9F7"/>
    <path opacity="0.1" d="M329.68 124.28L325.321 125.948C324.638 126.209 323.873 125.869 323.61 125.187L321.977 120.939L329.68 124.28Z" fill="black"/>
    <path d="M327.69 143.311L326.032 143.945L323.715 142.668L322.848 145.164L321.292 145.759L322.575 142.318L319.52 140.717L321.121 140.104L323.287 141.333L324.044 138.985L325.608 138.387L324.409 141.682L327.69 143.311Z" fill="#CDD7FB"/>
    <path d="M326.977 128.468L311.84 134.261C311.66 134.33 311.456 134.24 311.387 134.06C311.317 133.879 311.408 133.677 311.588 133.607L326.725 127.814C326.906 127.745 327.109 127.835 327.179 128.016C327.248 128.196 327.158 128.399 326.977 128.468Z" fill="#CDD7FB"/>
    <path d="M327.63 130.101L312.493 135.894C312.312 135.963 312.109 135.873 312.039 135.693C311.97 135.512 312.06 135.31 312.241 135.24L327.378 129.447C327.558 129.378 327.762 129.468 327.831 129.648C327.901 129.83 327.81 130.032 327.63 130.101Z" fill="#CDD7FB"/>
    <path d="M328.286 131.734L313.149 137.527C312.968 137.596 312.765 137.506 312.695 137.325C312.626 137.145 312.716 136.942 312.897 136.873L328.034 131.08C328.215 131.011 328.418 131.101 328.487 131.281C328.557 131.462 328.467 131.664 328.286 131.734Z" fill="#CDD7FB"/>
    <path d="M328.938 133.365L313.801 139.157C313.62 139.227 313.417 139.137 313.348 138.956C313.278 138.776 313.368 138.573 313.549 138.504L328.686 132.711C328.867 132.641 329.07 132.732 329.14 132.912C329.209 133.093 329.119 133.295 328.938 133.365Z" fill="#CDD7FB"/>
    <path d="M329.469 135.05L314.333 140.843C314.152 140.912 313.949 140.822 313.879 140.642C313.809 140.461 313.9 140.259 314.081 140.189L329.217 134.396C329.398 134.327 329.601 134.417 329.671 134.598C329.741 134.779 329.65 134.981 329.469 135.05Z" fill="#CDD7FB"/>
    <path d="M108.057 245.033L117.611 266.69C117.973 267.51 117.6 268.468 116.778 268.829L97.5801 277.257C96.7577 277.618 95.7977 277.246 95.4353 276.426L84.1225 250.783C83.7609 249.963 84.1337 249.005 84.9561 248.644L100.058 242.014L100.201 242.067L108.057 245.033Z" fill="#E3E9F7"/>
    <path opacity="0.1" d="M108.055 245.033L103.782 246.909C103.113 247.203 102.331 246.9 102.037 246.232L100.199 242.068L108.055 245.033Z" fill="black"/>
    <path d="M106.993 264.139L105.368 264.853L102.991 263.689L102.245 266.224L100.721 266.893L101.836 263.395L98.707 261.943L100.277 261.253L102.5 262.377L103.143 259.996L104.677 259.322L103.638 262.672L106.993 264.139Z" fill="#CDD7FB"/>
    <path d="M105.562 249.348L90.7228 255.863C90.5452 255.941 90.338 255.86 90.2604 255.683C90.182 255.506 90.2628 255.299 90.4404 255.222L105.28 248.708C105.457 248.629 105.664 248.71 105.742 248.887C105.82 249.064 105.74 249.27 105.562 249.348Z" fill="#CDD7FB"/>
    <path d="M106.293 250.948L91.4533 257.462C91.2757 257.541 91.0685 257.46 90.9909 257.283C90.9125 257.106 90.9933 256.899 91.1709 256.822L106.01 250.307C106.188 250.229 106.395 250.31 106.473 250.487C106.55 250.663 106.469 250.87 106.293 250.948Z" fill="#CDD7FB"/>
    <path d="M107.027 252.546L92.1877 259.06C92.0101 259.138 91.8029 259.058 91.7253 258.88C91.6469 258.703 91.7277 258.497 91.9053 258.419L106.744 251.905C106.922 251.827 107.129 251.907 107.207 252.084C107.285 252.262 107.204 252.468 107.027 252.546Z" fill="#CDD7FB"/>
    <path d="M107.757 254.145L92.9181 260.66C92.7405 260.738 92.5333 260.657 92.4557 260.48C92.3773 260.303 92.4581 260.096 92.6357 260.019L107.475 253.504C107.653 253.426 107.86 253.507 107.937 253.684C108.016 253.86 107.935 254.067 107.757 254.145Z" fill="#CDD7FB"/>
    <path d="M108.367 255.804L93.5275 262.318C93.3499 262.396 93.1427 262.315 93.0651 262.138C92.9867 261.961 93.0675 261.754 93.2451 261.677L108.084 255.163C108.262 255.084 108.469 255.165 108.547 255.342C108.624 255.519 108.544 255.726 108.367 255.804Z" fill="#CDD7FB"/>
    <path d="M174.377 88.6994L183.932 110.356C184.293 111.176 183.92 112.134 183.098 112.495L163.9 120.923C163.078 121.284 162.118 120.912 161.756 120.092L150.443 94.4492C150.081 93.6289 150.454 92.6712 151.276 92.3097L166.378 85.6797L166.521 85.7332L174.377 88.6994Z" fill="#E3E9F7"/>
    <path opacity="0.1" d="M174.376 88.6991L170.103 90.5752C169.433 90.8689 168.652 90.5657 168.357 89.8985L166.52 85.7344L174.376 88.6991Z" fill="black"/>
    <path d="M173.314 107.805L171.688 108.519L169.311 107.355L168.566 109.89L167.042 110.559L168.156 107.061L165.027 105.609L166.598 104.92L168.82 106.043L169.463 103.662L170.997 102.988L169.959 106.338L173.314 107.805Z" fill="#CDD7FB"/>
    <path d="M171.882 93.0145L157.043 99.5288C156.866 99.607 156.658 99.5264 156.581 99.3492C156.502 99.1721 156.583 98.9654 156.761 98.888L171.6 92.3736C171.778 92.2954 171.985 92.376 172.062 92.5532C172.14 92.7304 172.06 92.9363 171.882 93.0145Z" fill="#CDD7FB"/>
    <path d="M172.613 94.6141L157.774 101.128C157.596 101.207 157.389 101.126 157.311 100.949C157.233 100.772 157.314 100.565 157.491 100.488L172.33 93.9732C172.508 93.895 172.715 93.9756 172.793 94.1528C172.87 94.3292 172.79 94.5359 172.613 94.6141Z" fill="#CDD7FB"/>
    <path d="M173.347 96.2117L158.508 102.726C158.33 102.804 158.123 102.724 158.046 102.546C157.967 102.369 158.048 102.163 158.226 102.085L173.065 95.5709C173.242 95.4927 173.45 95.5733 173.527 95.7505C173.606 95.9276 173.525 96.1343 173.347 96.2117Z" fill="#CDD7FB"/>
    <path d="M174.078 97.8113L159.238 104.326C159.061 104.404 158.854 104.323 158.776 104.146C158.698 103.969 158.778 103.762 158.956 103.685L173.795 97.1705C173.973 97.0923 174.18 97.1729 174.258 97.3501C174.336 97.5264 174.255 97.7331 174.078 97.8113Z" fill="#CDD7FB"/>
    <path d="M174.687 99.4695L159.848 105.984C159.67 106.062 159.463 105.981 159.385 105.804C159.307 105.627 159.388 105.42 159.565 105.343L174.405 98.8287C174.582 98.7505 174.789 98.8311 174.867 99.0083C174.945 99.1854 174.865 99.3921 174.687 99.4695Z" fill="#CDD7FB"/>
    <path d="M274.206 149.141H125.797V256.567H274.206V149.141Z" fill="#E3E9F7"/>
    <path d="M274.204 135.656H125.852V149.172H274.204V135.656Z" fill="#ACBCF8"/>
    <path d="M132.714 143.944C133.973 143.944 134.994 142.976 134.994 141.782C134.994 140.587 133.973 139.619 132.714 139.619C131.454 139.619 130.434 140.587 130.434 141.782C130.434 142.976 131.454 143.944 132.714 143.944Z" fill="#E3E9F7"/>
    <path d="M139.362 143.944C140.621 143.944 141.642 142.976 141.642 141.782C141.642 140.587 140.621 139.619 139.362 139.619C138.103 139.619 137.082 140.587 137.082 141.782C137.082 142.976 138.103 143.944 139.362 143.944Z" fill="#E3E9F7"/>
    <path d="M146.014 143.944C147.274 143.944 148.294 142.976 148.294 141.782C148.294 140.587 147.274 139.619 146.014 139.619C144.755 139.619 143.734 140.587 143.734 141.782C143.734 142.976 144.755 143.944 146.014 143.944Z" fill="#E3E9F7"/>
    <path d="M269.739 154.797H130.262V250.912H269.739V154.797Z" fill="#F4F6FC"/>
    <path d="M221.639 178.43V220.69C221.639 222.29 220.338 223.588 218.734 223.588H181.273C179.668 223.588 178.367 222.29 178.367 220.69V170.652C178.367 169.051 179.668 167.754 181.273 167.754H210.742L210.936 167.945L221.639 178.43Z" fill="#ACBCF8"/>
    <path opacity="0.15" d="M221.641 178.429H213.303C211.997 178.429 210.938 177.373 210.938 176.07V167.943L221.641 178.429Z" fill="black"/>
    <path d="M210.396 202.81C210.067 202.81 209.779 202.598 209.675 202.288C209.4 201.48 208.503 200.683 207.122 200.041C205.234 199.164 202.706 198.681 200.005 198.681C197.304 198.681 194.776 199.163 192.888 200.041C191.507 200.683 190.61 201.48 190.335 202.288C190.23 202.598 189.942 202.81 189.614 202.81C189.095 202.81 188.727 202.304 188.891 201.813C189.297 200.594 190.454 199.501 192.247 198.668C194.331 197.699 197.087 197.166 200.004 197.166C202.922 197.166 205.677 197.699 207.762 198.668C209.555 199.501 210.711 200.594 211.118 201.813C211.283 202.304 210.915 202.81 210.396 202.81Z" fill="white"/>
    <path d="M194.425 194.818C196.165 194.818 197.576 193.411 197.576 191.675C197.576 189.939 196.165 188.531 194.425 188.531C192.684 188.531 191.273 189.939 191.273 191.675C191.273 193.411 192.684 194.818 194.425 194.818Z" fill="white"/>
    <path d="M205.589 194.818C207.329 194.818 208.74 193.411 208.74 191.675C208.74 189.939 207.329 188.531 205.589 188.531C203.848 188.531 202.438 189.939 202.438 191.675C202.438 193.411 203.848 194.818 205.589 194.818Z" fill="white"/>
    <path d="M187.873 237.883H186.42L184.075 233.813H184.041C184.087 234.533 184.111 235.045 184.111 235.351V237.883H183.09V232.504H184.532L186.875 236.532H186.9C186.863 235.833 186.845 235.339 186.845 235.05V232.504H187.874V237.883H187.873Z" fill="black"/>
    <path d="M194.127 235.186C194.127 236.077 193.905 236.76 193.463 237.239C193.02 237.717 192.386 237.957 191.559 237.957C190.733 237.957 190.099 237.717 189.656 237.239C189.214 236.761 188.992 236.074 188.992 235.179C188.992 234.283 189.214 233.6 189.658 233.128C190.102 232.655 190.738 232.42 191.567 232.42C192.395 232.42 193.029 232.658 193.468 233.133C193.907 233.609 194.127 234.293 194.127 235.186ZM190.191 235.186C190.191 235.787 190.305 236.239 190.534 236.543C190.763 236.847 191.104 237 191.559 237C192.471 237 192.927 236.395 192.927 235.186C192.927 233.974 192.474 233.369 191.567 233.369C191.111 233.369 190.769 233.521 190.538 233.827C190.307 234.132 190.191 234.585 190.191 235.186Z" fill="black"/>
    <path d="M201.677 235.14C201.677 236.026 201.424 236.704 200.919 237.174C200.414 237.645 199.684 237.881 198.73 237.881H197.203V232.502H198.896C199.776 232.502 200.46 232.733 200.946 233.197C201.434 233.661 201.677 234.309 201.677 235.14ZM200.49 235.17C200.49 234.014 199.978 233.437 198.955 233.437H198.346V236.94H198.837C199.938 236.94 200.49 236.35 200.49 235.17Z" fill="black"/>
    <path d="M206.097 237.882L205.706 236.602H203.74L203.349 237.882H202.117L204.02 232.48H205.418L207.328 237.882H206.097ZM205.434 235.645C205.072 234.484 204.869 233.828 204.824 233.677C204.778 233.524 204.745 233.405 204.726 233.316C204.645 233.63 204.412 234.406 204.029 235.645H205.434Z" fill="black"/>
    <path d="M210.088 237.883H208.944V233.453H207.48V232.504H211.552V233.453H210.088V237.883H210.088Z" fill="black"/>
    <path d="M215.683 237.882L215.292 236.602H213.326L212.935 237.882H211.703L213.606 232.48H215.004L216.914 237.882H215.683ZM215.02 235.645C214.658 234.484 214.455 233.828 214.41 233.677C214.364 233.524 214.331 233.405 214.312 233.316C214.231 233.63 213.998 234.406 213.615 235.645H215.02Z" fill="black"/>
    <path d="M294.547 209.066H299.054C302.448 209.066 305.199 206.322 305.199 202.936C305.199 199.551 302.448 196.807 299.054 196.807H294.547C291.154 196.807 288.402 199.551 288.402 202.936C288.402 206.322 291.154 209.066 294.547 209.066Z" fill="white"/>
    <path d="M294.852 208.078H298.749C298.749 208.078 298.4 211.209 294.852 212.764C294.852 212.764 296.718 210.022 294.852 208.078Z" fill="white"/>
    <path d="M295.841 204.155V203.784C295.841 203.463 295.91 203.184 296.048 202.946C296.185 202.709 296.436 202.456 296.802 202.189C297.154 201.938 297.386 201.734 297.499 201.577C297.611 201.42 297.668 201.244 297.668 201.05C297.668 200.833 297.587 200.667 297.426 200.554C297.265 200.44 297.04 200.383 296.752 200.383C296.249 200.383 295.676 200.547 295.032 200.875L294.484 199.776C295.232 199.358 296.024 199.148 296.863 199.148C297.553 199.148 298.102 199.314 298.509 199.645C298.916 199.976 299.12 200.417 299.12 200.969C299.12 201.337 299.036 201.654 298.869 201.922C298.701 202.189 298.383 202.49 297.914 202.824C297.592 203.062 297.388 203.242 297.303 203.366C297.217 203.49 297.175 203.652 297.175 203.853V204.154H295.841V204.155ZM295.68 205.871C295.68 205.59 295.756 205.378 295.907 205.234C296.058 205.091 296.277 205.019 296.565 205.019C296.844 205.019 297.059 205.092 297.212 205.24C297.364 205.387 297.44 205.597 297.44 205.872C297.44 206.136 297.364 206.344 297.209 206.497C297.055 206.649 296.84 206.725 296.565 206.725C296.284 206.725 296.066 206.651 295.912 206.501C295.757 206.352 295.68 206.142 295.68 205.871Z" fill="#ACBCF8"/>
    <path opacity="0.67" d="M282.353 285.973L284.461 286.791L283.847 289.757L280.246 288.632L282.353 285.973Z" fill="#050505"/>
    <path d="M252.976 279.4C252.976 279.4 247.355 278.735 246.125 281.753C246.125 281.753 246.037 289.27 249.55 289.781C249.55 289.781 252.536 290.087 254.468 288.758L265.709 287.479L273.35 286.968L252.976 279.4Z" fill="#040C2B"/>
    <path d="M286.742 283.006C286.742 283.006 289.692 287.739 287.946 289.62C287.676 289.911 288.053 290.265 288.621 290.263L300.486 290.241C300.486 290.241 307.249 291.468 308.565 286.303C308.565 286.303 309.356 280.831 300.749 279.911C292.143 278.991 300.661 279.605 300.661 279.605C300.661 279.605 290.65 280.321 286.742 283.006Z" fill="#040C2B"/>
    <path d="M291.44 283.235L291.407 283.538L290.737 289.781L278.223 288.681L282.342 283.304L282.395 283.234C291.44 283.44 291.44 283.235 291.44 283.235Z" fill="#DE995F"/>
    <path opacity="0.38" d="M291.443 283.235L291.41 283.538L284.812 283.72L282.344 283.304L282.397 283.234C291.443 283.44 291.443 283.235 291.443 283.235Z" fill="#050505"/>
    <path d="M310.645 272.462L296.072 275.286L276.951 278.991L261.763 275.465L237.781 269.896C236.685 261.681 253.941 266.412 253.941 266.412L265.177 267.669H265.178L271.769 268.406L286.699 270.452L291.441 268.579L297.062 266.361C312.212 265.056 310.645 272.462 310.645 272.462Z" fill="#081956"/>
    <path opacity="0.3" d="M296.071 275.286L276.95 278.991L261.762 275.465L257.629 273.008L265.175 267.668H265.177L271.768 268.405L286.698 270.451L291.44 268.579L296.071 275.286Z" fill="black"/>
    <path d="M255.609 281.803L276.248 276.434C276.248 276.434 291.002 270.962 293.549 271.269C293.549 271.269 311.816 261.911 310.586 273.366C310.586 273.366 312.694 282.366 280.112 283.747L255.609 281.803Z" fill="#081956"/>
    <path opacity="0.13" d="M269.793 278.096L272.076 277.432C273.804 278.581 277.051 279.537 279.19 280.5C281.609 281.59 284.547 282.596 287.357 283.261C285.513 283.483 283.668 283.704 281.824 283.926L269.793 278.096Z" fill="black"/>
    <path d="M285.775 283.414C285.775 283.414 279.759 288.195 283.799 289.781C283.799 289.781 260.453 287.167 241.778 276.76C240.363 275.971 239.359 274.965 238.887 273.858C237.176 269.845 234.813 260.717 253.237 268.508C253.237 268.508 267.549 273.358 272.265 277.531C273.168 278.33 274.24 279.06 275.484 279.684C278.436 281.167 283.441 283.484 285.775 283.414Z" fill="#081956"/>
    <path d="M271.507 230.34L282.396 230.359L285.909 236.956C285.909 236.956 279.059 247.285 269.223 238.081C269.66 236.598 271.112 234.424 271.55 232.941C272.253 231.408 272.165 231.51 271.507 230.34Z" fill="#CC8B5B"/>
    <path d="M299.76 241.132L297.326 260.583L259.826 260.225C259.826 260.225 262.4 250.32 261.887 248.712C261.855 248.614 261.813 248.547 261.758 248.514L251.395 248.156C251.395 248.156 251.474 246.738 251.812 244.865C252.385 241.706 253.698 237.256 256.62 236.164C257.102 235.985 258.508 235.423 258.508 235.423C258.508 235.423 271.287 232.074 271.55 232.943C271.55 232.943 270.847 243.119 284.723 234.682C284.723 234.682 300.79 238.659 299.76 241.132Z" fill="white"/>
    <path d="M292.145 261.553L292.913 267.998L301.57 265.377C303.533 264.784 304.877 263.662 305.119 262.382C305.334 261.243 305.197 259.62 304.176 257.36L302.244 248.82C302.244 248.82 303.166 242.914 298.687 239.59C298.687 239.59 297.062 249.382 294.164 251.019L293.549 259.201L292.145 261.553Z" fill="white"/>
    <path opacity="0.1" d="M267.864 237.724L261.887 248.712C261.855 248.613 261.813 248.546 261.758 248.514L251.395 248.156C251.395 248.156 251.474 246.737 251.812 244.865L262.331 235.064C262.331 235.064 266.811 237.672 267.864 237.724Z" fill="black"/>
    <path d="M269.811 231.19C269.555 232.9 269.251 233.425 268.345 236.139L266.94 238.798L262.988 236.139L264.042 235.065L263.515 230.206L264.848 226.952C265.323 225.796 266.499 225.057 267.744 225.191C269.14 225.341 270.504 226.565 269.811 231.19Z" fill="#DE995F"/>
    <path opacity="0.13" d="M259.211 247.695L261.953 249.469L261.099 254.931L268.345 238.695L265.753 238L259.211 247.695Z" fill="black"/>
    <path d="M262.81 235.064C262.81 235.064 267.289 237.672 268.343 237.723L259.912 253.218C259.912 253.218 254.492 259.914 248.928 254.878C245.501 251.776 246.605 247.641 251.618 245.386C251.688 245.354 251.76 245.323 251.832 245.291L262.81 235.064Z" fill="white"/>
    <path opacity="0.13" d="M271.461 232.788C271.461 232.788 276.673 240.293 283.508 232.449L281.385 229.361L272.735 230.341L271.461 232.788Z" fill="black"/>
    <path d="M269.223 219.722C269.223 219.722 279.235 214.25 283.274 219.057C283.274 219.057 291.617 227.495 278.619 235.063C278.619 235.063 270.188 238.796 269.223 219.722Z" fill="#DE995F"/>
    <path d="M270.31 227.698L267.7 223.343C267.101 222.343 266.83 221.287 266.907 220.229C267.15 216.918 269.176 210.558 281.606 213.33C281.606 213.33 292.496 218.086 286.437 224.172L284.417 228.57C284.417 228.57 284.68 220.644 281.606 220.234C281.606 220.234 274.581 221.768 270.014 221.666C270.014 221.667 269.882 227.112 270.31 227.698Z" fill="black"/>
    <path d="M272.738 226.781C274.048 226.781 275.11 226.163 275.11 225.4C275.11 224.638 274.048 224.02 272.738 224.02C271.429 224.02 270.367 224.638 270.367 225.4C270.367 226.163 271.429 226.781 272.738 226.781Z" stroke="black" stroke-width="2.0633" stroke-miterlimit="10"/>
    <path d="M279.938 226.576C281.247 226.576 282.309 225.958 282.309 225.195C282.309 224.433 281.247 223.814 279.938 223.814C278.628 223.814 277.566 224.433 277.566 225.195C277.566 225.958 278.628 226.576 279.938 226.576Z" stroke="black" stroke-width="2.0633" stroke-miterlimit="10"/>
    <path d="M275.082 225.195C275.082 225.195 276.162 225.911 277.567 225.195" stroke="black" stroke-width="2.0633" stroke-miterlimit="10"/>
    <path d="M270.365 225.4L269.18 224.607" stroke="black" stroke-width="2.0633" stroke-miterlimit="10"/>
    <path d="M282.309 225.194L285.295 224.836" stroke="black" stroke-width="2.0633" stroke-miterlimit="10"/>
    <path opacity="0.13" d="M292.891 261.322C292.891 261.322 295.525 259.277 298.687 259.072C298.687 259.072 297.984 258.611 296.052 259.072C296.052 259.072 297.809 257.998 299.828 258.407C299.828 258.408 295.613 256.822 292.891 261.322Z" fill="black"/>
    <path d="M258.049 254.996L293.241 254.559C293.749 254.552 294.165 254.962 294.165 255.468V270.069C294.165 270.568 293.762 270.973 293.263 270.979L258.773 271.362C258.282 271.368 257.875 270.985 257.852 270.496L257.15 255.949C257.125 255.435 257.533 255.002 258.049 254.996Z" fill="#829CF8"/>
    <path opacity="0.13" d="M258.727 270.529C258.727 270.529 252.845 266.868 242.129 265.774C242.129 265.774 247.486 265.415 259.254 269.456L258.727 270.529Z" fill="black"/>
    <path opacity="0.13" d="M294.208 270.989C294.208 270.989 304.84 265.561 309.075 268.466C309.075 268.466 306.855 265.261 292.891 270.682L294.208 270.989Z" fill="black"/>
    <path opacity="0.13" d="M294.121 250.993C294.121 250.993 300.005 246.595 299.83 244.346C299.83 244.346 298.249 246.34 297.81 246.698C297.81 246.698 300.005 243.988 299.127 242.914C299.127 242.914 297.902 246.318 296.978 246.381L294.121 250.993Z" fill="black"/>
    <path opacity="0.13" d="M294.078 250.967C294.078 250.967 298.469 242.376 297.591 241.916C297.591 241.916 297.415 243.604 294.078 250.967Z" fill="black"/>
    </g>
    <defs>
    <clipPath id="clip0_1263_28">
    <rect width="400" height="319.212" fill="white"/>
    </clipPath>
    </defs>
    </svg>
    