<svg class="fr-svg" focusable="false" viewBox="0 0 24 24" xmlns="http://www.w3.org/2000/svg"><path d="M8.9749 7.47489a1.5 1.5 0 1 1 -1.5 1.5A1.5 1.5 0 0 1 8.9749 7.47489Zm3.78866 -3.12713L16.5362 8.12041l0.33565 0.33564 2.77038 2.77038a2.01988 2.01988 0 0 1 0.59 1.42 1.95518 1.95518 0 0 1 -0.5854 1.40455l0.00044 0.00043 -5.59583 5.59583 -0.00043 -0.00044a1.95518 1.95518 0 0 1 -1.40455 0.5854 1.98762 1.98762 0 0 1 -1.41 -0.58L8.45605 16.87185l-0.33564 -0.33565L4.35777 12.77357a1.99576 1.99576 0 0 1 -0.59 -1.42V9.36358l0 -3.59582a2.00579 2.00579 0 0 1 2 -2l3.59582 0h1.98995A1.98762 1.98762 0 0 1 12.76356 4.34776ZM15.46186 9.866l-0.33564 -0.33564L11.36359 5.76776H5.76776v5.59583L9.866 15.46186l2.7794 2.7794 5.5878 -5.60385 -0.001 -0.001Z"></path></svg>