<svg width="20" height="20" viewBox="0 0 20 20" fill="none" xmlns="http://www.w3.org/2000/svg">
<g clip-path="url(#clip0_291_2)">
<path d="M12.4993 18.3327H7.49935C3.33268 18.3327 1.66602 16.666 1.66602 12.4993V7.49936C1.66602 3.33269 3.33268 1.66602 7.49935 1.66602H12.4993C16.666 1.66602 18.3327 3.33269 18.3327 7.49936V12.4993C18.3327 16.666 16.666 18.3327 12.4993 18.3327Z" stroke="#201B53" stroke-width="1.5" stroke-linecap="round" stroke-linejoin="round"/>
<path d="M12.773 5.06547C12.477 4.91489 12.115 5.03288 11.9644 5.32899L7.49181 14.126C7.34127 14.422 7.45926 14.784 7.75533 14.9346C7.83958 14.9776 7.93281 15 8.02739 15C8.24653 15 8.45778 14.8798 8.56394 14.671L13.0366 5.87408C13.1871 5.578 13.0691 5.21601 12.773 5.06547ZM9.56154 7.96237C9.56154 6.70473 8.53836 5.68156 7.28073 5.68156C6.02318 5.68156 5 6.70473 5 7.96237C5 9.21996 6.02318 10.2431 7.28077 10.2431C8.5384 10.2431 9.56154 9.21996 9.56154 7.96237ZM7.28077 9.04039C6.68637 9.04039 6.20275 8.55676 6.20275 7.96237C6.20275 7.36793 6.68637 6.8843 7.28077 6.8843C7.87521 6.8843 8.35883 7.36789 8.35883 7.96237C8.35879 8.55676 7.87521 9.04039 7.28077 9.04039ZM13.2747 9.75695C12.0171 9.75695 10.9939 10.7801 10.9939 12.0377C10.9939 13.2953 12.0171 14.3185 13.2747 14.3185C14.5323 14.3185 15.5555 13.2953 15.5555 12.0377C15.5555 10.7801 14.5324 9.75695 13.2747 9.75695ZM13.2747 13.1157C12.6803 13.1157 12.1967 12.6321 12.1967 12.0377C12.1967 11.4433 12.6803 10.9597 13.2747 10.9597C13.8691 10.9597 14.3528 11.4433 14.3528 12.0377C14.3528 12.6321 13.8692 13.1157 13.2747 13.1157Z" fill="#201B53"/>
</g>
<defs>
<clipPath id="clip0_291_2">
<rect width="20" height="20" fill="white"/>
</clipPath>
</defs>
</svg>
