<svg width="20" height="20" viewBox="0 0 20 20" fill="none" xmlns="http://www.w3.org/2000/svg">
<path d="M9.99915 19.7656C9.93823 19.7656 9.87767 19.7563 9.81961 19.7379C1.72648 17.1744 0.942927 13.0708 1.71142 10.0796C2.48268 7.07543 2.64399 5.31967 1.38524 4.06091C1.32952 4.00524 1.28541 3.93905 1.25549 3.86618C1.22558 3.79332 1.21043 3.71524 1.21095 3.63647C1.21147 3.5577 1.22763 3.47982 1.2585 3.40736C1.28937 3.33489 1.33434 3.26928 1.39078 3.21435L4.28283 0.402756C4.35467 0.332868 4.44301 0.282276 4.53964 0.255683C4.63628 0.22909 4.73806 0.22736 4.83554 0.250653C4.93303 0.273945 5.02304 0.321505 5.09721 0.388911C5.17138 0.456317 5.22731 0.541381 5.25979 0.636196C5.2808 0.695646 5.81188 2.17912 7.28902 2.08281C7.74932 2.05107 8.19269 1.89652 8.573 1.63527C8.9533 1.37402 9.25663 1.01562 9.45141 0.597356C9.49752 0.490486 9.57385 0.399416 9.67102 0.335341C9.76819 0.271267 9.88196 0.236979 9.99835 0.236693H10.0023C10.1191 0.236927 10.2332 0.271662 10.3303 0.336535C10.4274 0.401408 10.5032 0.493526 10.5481 0.601319C10.7434 1.01855 11.0468 1.37591 11.4269 1.63634C11.8069 1.89677 12.2497 2.05079 12.7093 2.08242C14.2078 2.17952 14.7337 0.651653 14.7385 0.636196C14.771 0.541381 14.8269 0.456317 14.9011 0.388911C14.9753 0.321505 15.0653 0.273945 15.1627 0.250653C15.2602 0.22736 15.362 0.22909 15.4586 0.255683C15.5553 0.282276 15.6436 0.332868 15.7155 0.402756L18.6075 3.21435C18.664 3.26926 18.709 3.33485 18.7399 3.4073C18.7708 3.47975 18.787 3.55762 18.7875 3.63639C18.7881 3.71515 18.773 3.79324 18.7431 3.86612C18.7132 3.939 18.6691 4.00521 18.6135 4.06091C17.3543 5.31967 17.5156 7.07543 18.2869 10.0796C19.055 13.0708 18.2718 17.1744 10.1787 19.7375C10.1206 19.756 10.0601 19.7655 9.99915 19.7656ZM2.62338 3.67449C3.97092 5.44689 3.53297 7.76742 2.86316 10.3757C1.94169 13.9657 4.34149 16.7139 9.99915 18.5465C15.6564 16.7139 18.057 13.9657 17.1351 10.3753C16.4653 7.76742 16.027 5.4465 17.3745 3.67409L15.4582 1.81093C15.1609 2.28204 14.7436 2.66552 14.2491 2.92199C13.7545 3.17845 13.2006 3.29864 12.6443 3.27023C12.1334 3.24573 11.6336 3.11326 11.1776 2.88153C10.7217 2.64981 10.32 2.3241 9.99915 1.92587C9.67824 2.3241 9.27659 2.64981 8.82066 2.88153C8.36473 3.11326 7.86487 3.24573 7.35402 3.27023C6.79825 3.29536 6.24565 3.17382 5.75171 2.91781C5.25778 2.6618 4.8399 2.28034 4.54005 1.81172L2.62338 3.67449Z" fill="#F47817"/>
<path opacity="0.4" d="M9.99907 10.6419C9.66323 10.642 9.3349 10.5424 9.05562 10.3559C8.77634 10.1694 8.55866 9.90419 8.4301 9.59393C8.30154 9.28366 8.26789 8.94224 8.33339 8.61284C8.39889 8.28345 8.5606 7.98087 8.79808 7.7434C9.03556 7.50592 9.33813 7.3442 9.66753 7.2787C9.99692 7.2132 10.3383 7.24686 10.6486 7.37541C10.9589 7.50397 11.224 7.72166 11.4106 8.00094C11.5971 8.28021 11.6966 8.60854 11.6966 8.94438C11.6959 9.39439 11.5169 9.82579 11.1987 10.144C10.8805 10.4622 10.4491 10.6412 9.99907 10.6419ZM9.99907 8.43549C9.8984 8.43541 9.79998 8.46519 9.71624 8.52106C9.6325 8.57693 9.56721 8.65638 9.52863 8.74936C9.49006 8.84234 9.47992 8.94468 9.49951 9.04342C9.5191 9.14216 9.56754 9.23287 9.63869 9.30408C9.70985 9.37529 9.80052 9.4238 9.89925 9.44347C9.99797 9.46314 10.1003 9.45308 10.1933 9.41458C10.2863 9.37607 10.3658 9.31084 10.4218 9.22715C10.4777 9.14345 10.5076 9.04505 10.5076 8.94438C10.5075 8.80952 10.4539 8.6802 10.3585 8.5848C10.2632 8.4894 10.1339 8.4357 9.99907 8.43549Z" fill="#F47817"/>
<path opacity="0.4" d="M9.9988 13.5567C9.84113 13.5567 9.68992 13.494 9.57843 13.3825C9.46694 13.271 9.4043 13.1198 9.4043 12.9622V10.4617C9.4043 10.304 9.46694 10.1528 9.57843 10.0413C9.68992 9.92982 9.84113 9.86719 9.9988 9.86719C10.1565 9.86719 10.3077 9.92982 10.4192 10.0413C10.5307 10.1528 10.5933 10.304 10.5933 10.4617V12.9622C10.5933 13.1198 10.5307 13.271 10.4192 13.3825C10.3077 13.494 10.1565 13.5567 9.9988 13.5567Z" fill="#F47817"/>
</svg>
