<svg width="512" height="512" viewBox="0 0 512 512" fill="none" xmlns="http://www.w3.org/2000/svg">
<g clip-path="url(#clip0_1357_27)">
<path d="M506.145 273.726L449.577 217.157C445.826 213.406 440.739 211.299 435.434 211.299C430.129 211.299 425.042 213.406 421.291 217.157L248.429 390.02C234.423 404.026 224.967 421.696 221.082 441.119L211.69 488.078C210.378 494.635 212.431 501.414 217.159 506.142C220.947 509.93 226.05 512 231.302 512C232.606 512 233.92 511.872 235.224 511.611L282.183 502.219H282.184C301.607 498.334 319.276 488.878 333.283 474.872L506.145 302.01C513.955 294.2 513.955 281.537 506.145 273.726ZM304.997 446.588C296.594 454.992 285.992 460.666 274.339 462.996L256.797 466.504L260.305 448.962C262.636 437.308 268.31 426.706 276.714 418.302L435.434 259.582L463.718 287.866L304.997 446.588Z" fill="black"/>
<path d="M149.729 472H60C48.972 472 40 463.028 40 452V60C40 48.972 48.972 40 60 40H240V100C240 133.084 266.916 160 300 160H360V173.602C360 184.648 368.954 193.602 380 193.602C391.046 193.602 400 184.648 400 173.602V139.999C400 134.585 397.716 129.394 394.132 125.848L274.143 5.858C270.452 2.168 265.283 0 260 0H60C26.916 0 0 26.916 0 60V452C0 485.084 26.916 512 60 512H149.729C160.775 512 169.729 503.046 169.729 492C169.729 480.954 160.774 472 149.729 472ZM300 120C288.972 120 280 111.028 280 100V68.284L331.716 120H300Z" fill="black"/>
<path d="M320 212C320 200.954 311.046 192 300 192H100C88.954 192 80 200.954 80 212C80 223.046 88.954 232 100 232H300C311.046 232 320 223.046 320 212Z" fill="black"/>
<path d="M100 272C88.954 272 80 280.954 80 292C80 303.046 88.954 312 100 312H261.602C272.648 312 281.602 303.046 281.602 292C281.602 280.954 272.648 272 261.602 272H100Z" fill="black"/>
<path d="M185.972 352H100C88.954 352 80 360.954 80 372C80 383.046 88.954 392 100 392H185.972C197.018 392 205.972 383.046 205.972 372C205.972 360.954 197.018 352 185.972 352Z" fill="black"/>
</g>
<defs>
<clipPath id="clip0_1357_27">
<rect width="512" height="512" fill="white"/>
</clipPath>
</defs>
</svg>
