<svg width="52" height="47" viewBox="0 0 52 47" fill="none" xmlns="http://www.w3.org/2000/svg">
<path d="M30.8751 4.5823L30.8535 17.0887L26.6415 27.8779C24.6543 27.7483 22.5915 28.1263 21.0687 29.0119C20.2803 29.4763 19.7295 30.0055 19.4163 30.5779L0.213867 29.8435L0.224678 17.3371C0.926704 14.1727 3.36751 11.1271 7.54711 8.6971C13.8651 5.02508 22.6779 3.65345 30.8751 4.5823Z" fill="#497BFE"/>
<path d="M51.8378 26.204L51.827 31.8848C51.8162 35.708 49.2998 39.5096 44.2994 42.4256C40.8542 44.4236 36.6854 45.7412 32.2682 46.3784L29.417 35.2112L29.4278 29.5304C29.903 29.3684 30.3566 29.1632 30.767 28.9256C32.117 28.148 32.7758 27.1112 32.7542 26.096L51.2437 22.9856C51.665 24.0872 51.8485 25.2212 51.827 26.3444C51.827 26.3012 51.8378 26.2472 51.8378 26.204Z" fill="#E93565"/>
<path d="M30.8738 4.58374L30.8576 17.0862L26.6445 27.8818L26.6606 15.3794L30.8738 4.58374Z" fill="#566DF9"/>
<path d="M30.8744 4.58363L26.6613 15.3793C24.6706 15.2504 22.6059 15.6287 21.0853 16.5124C20.3005 16.9685 19.7493 17.5068 19.4307 18.0797L0.230469 17.3359C0.92904 14.1757 3.36675 11.1234 7.54532 8.6951C13.8695 5.01989 22.6793 3.64928 30.8744 4.58363Z" fill="#57B3FE"/>
<path d="M44.1916 3.69773C41.1382 1.93489 37.5176 0.701697 33.6745 0L29.4136 10.9163L29.3975 28.4173C29.8698 28.5807 30.3146 28.7795 30.7223 29.0148C31.3051 29.3513 31.7616 29.733 32.0886 30.1404L50.4646 27.0517L50.4807 9.55072C49.24 7.41162 47.1406 5.40033 44.1916 3.69773Z" fill="#78E75A"/>
<path d="M32.1047 12.6394L32.0886 30.1404C31.7616 29.733 31.3051 29.3513 30.7223 29.0148C30.3146 28.7794 29.8698 28.5807 29.3975 28.4173L29.4136 10.9163C29.886 11.0797 30.3307 11.2784 30.7384 11.5138C31.3212 11.8503 31.7777 12.232 32.1047 12.6394Z" fill="#72D561"/>
<path d="M50.4809 9.55078L50.4648 27.0518L32.0889 30.1405L32.105 12.6394L50.4809 9.55078Z" fill="#5EC363"/>
<path d="M26.6607 15.3793L26.6446 27.8817C24.654 27.7529 22.5893 28.1312 21.0686 29.0149C20.2839 29.4709 19.7326 30.0092 19.4141 30.5821L19.4302 18.0797C19.7487 17.5068 20.3 16.9685 21.0848 16.5124C22.6054 15.6287 24.6701 15.2505 26.6607 15.3793Z" fill="#497BFE"/>
<path d="M19.4302 18.0797L19.4141 30.5822L0.213867 29.8384L0.229978 17.3359L19.4302 18.0797Z" fill="#5094FF"/>
<path d="M32.7511 26.1544L32.735 31.8372C32.7351 31.8167 32.7349 31.7962 32.7344 31.7756L32.7505 26.0928C32.751 26.1133 32.7512 26.1339 32.7511 26.1544Z" fill="#FF5230"/>
<path d="M51.8402 26.2041L51.8241 31.8869C51.8132 35.703 49.3054 39.5134 44.2955 42.4248C40.8569 44.4231 36.6833 45.7402 32.2734 46.3765L32.2895 40.6937C36.6994 40.0574 40.873 38.7403 44.3117 36.742C49.3215 33.8305 51.8293 30.0202 51.8402 26.2041Z" fill="#DF3260"/>
<path d="M51.2487 22.9824C53.048 27.7911 50.739 33.0064 44.311 36.7419C40.8724 38.7402 36.6988 40.0574 32.2889 40.6937L29.4316 29.529C29.9075 29.3646 30.3589 29.1628 30.7698 28.9239C32.1124 28.1437 32.775 27.1158 32.7504 26.0927L51.2487 22.9824Z" fill="#F45170"/>
<path d="M32.2894 40.6937L32.2733 46.3765L29.416 35.2119L29.4321 29.5291L32.2894 40.6937Z" fill="#E93565"/>
<path d="M3.51391e-05 31.7409L0.0161449 23.9636C0.00518946 27.8283 11.897 26.3514 17.005 29.3005C22.961 32.7392 21.729 39.5076 29.4517 38.911L29.4356 46.6883C21.7128 47.2849 13.6043 45.865 7.64825 42.4263C2.54023 39.4772 -0.0109211 35.6056 3.51391e-05 31.7409Z" fill="#FEBC1F"/>
<path d="M26.643 27.9658L29.4434 38.9111C21.7207 39.5077 13.6121 38.0878 7.65606 34.6491C2.44482 31.6404 -0.10517 27.6716 0.0116506 23.7295L19.1403 24.4702C19.3067 25.3333 19.965 26.1697 21.108 26.8296C22.6255 27.7057 24.672 28.084 26.643 27.9658Z" fill="#FFD06C"/>
<path d="M44.1921 3.69774C47.141 5.40032 49.2405 7.41162 50.4812 9.55072L32.1052 12.6394C31.7782 12.232 31.3217 11.8503 30.7389 11.5138C30.3312 11.2784 29.8864 11.0797 29.4141 10.9163L33.675 0C37.518 0.701712 41.1387 1.93486 44.1921 3.69774Z" fill="#78E75A"/>
<path d="M21.7794 9.69383C21.8017 9.83927 21.7163 9.96811 21.5125 10.0866C21.3158 10.2009 21.0865 10.2549 20.8389 10.2404C20.5985 10.2258 20.3793 10.1614 20.1777 10.045C19.9797 9.93071 19.8642 9.80188 19.8383 9.66265C19.8196 9.52343 19.9121 9.39043 20.1088 9.27613C20.3126 9.15768 20.5348 9.10782 20.7787 9.11612C21.0228 9.12859 21.242 9.19716 21.44 9.31144C21.6415 9.42782 21.7606 9.55458 21.7794 9.69383ZM20.8767 9.95149C20.9916 9.95981 21.0884 9.94111 21.1742 9.89124C21.2636 9.83929 21.2991 9.78109 21.2844 9.71875L21.2808 9.71667C21.2661 9.64602 21.2011 9.57952 21.0895 9.51509C20.9815 9.45275 20.8665 9.41535 20.7445 9.40703C20.6332 9.39664 20.5329 9.41745 20.4435 9.4694C20.3577 9.51927 20.3257 9.57536 20.3404 9.64185C20.3588 9.71043 20.4237 9.77693 20.5317 9.83927C20.6433 9.9037 20.7583 9.9411 20.8767 9.95149Z" fill="white"/>
<path d="M18.9494 9.75825C18.9681 9.90163 18.8791 10.0325 18.6789 10.1489C18.4786 10.2653 18.2529 10.3172 18.0089 10.3048C17.7685 10.2902 17.5492 10.2258 17.3477 10.1094C17.1497 9.99514 17.0342 9.8663 17.0083 9.72707C16.9896 9.58785 17.0785 9.45693 17.2788 9.34056C17.479 9.22419 17.7048 9.17223 17.9487 9.18055C18.1892 9.19509 18.412 9.26159 18.6099 9.37588C18.8115 9.49225 18.9235 9.61902 18.9494 9.75825ZM18.0467 10.0159C18.1544 10.0242 18.2547 10.0035 18.3406 9.95358C18.43 9.90163 18.4655 9.84343 18.4508 9.7811C18.436 9.71044 18.3639 9.64394 18.2559 9.5816C18.148 9.51928 18.0365 9.47978 17.9145 9.47149C17.8032 9.46107 17.7029 9.48188 17.6135 9.53382C17.5277 9.5837 17.4921 9.64187 17.5105 9.70631C17.5252 9.77694 17.5937 9.84138 17.7017 9.9037C17.8097 9.96604 17.9247 10.0076 18.0467 10.0159Z" fill="white"/>
<path d="M19.1111 8.49275C19.1471 8.51352 19.1724 8.54056 19.1797 8.57379L20.0782 10.7786L20.0787 10.8534L20.0145 10.9199C19.9715 10.9448 19.9142 10.9573 19.8461 10.9594C19.7851 10.9614 19.7241 10.9469 19.6772 10.9199L19.6159 10.8555L18.7172 8.6299C18.699 8.57795 18.7203 8.53639 18.7811 8.50107C18.8276 8.47405 18.8813 8.45534 18.9423 8.45327C18.9996 8.44911 19.0643 8.46575 19.1111 8.49275Z" fill="white"/>
<path d="M15.9751 12.9916C16.0327 13.0249 16.0617 13.0623 16.0583 13.1101C16.0586 13.1558 16.0301 13.1932 15.9729 13.2264L14.8536 13.8769C14.8 13.908 14.7283 13.9247 14.653 13.9268C14.5777 13.9247 14.513 13.908 14.4554 13.8748C14.3978 13.8416 14.3653 13.8021 14.3615 13.7584C14.3577 13.7148 14.3933 13.6732 14.4469 13.6421L14.8295 13.4197L13.1127 12.4285L12.9599 12.6883C12.9349 12.7194 12.9136 12.7485 12.8886 12.763C12.8278 12.7984 12.7525 12.8171 12.6772 12.815C12.5983 12.815 12.5336 12.7984 12.4724 12.7631C12.3824 12.7111 12.3606 12.6488 12.396 12.5781L12.6304 12.1459C12.6553 12.1106 12.6839 12.0815 12.7268 12.0565L12.8054 12.0108C12.8626 11.9776 12.9414 11.9568 13.0275 11.9568C13.1065 11.9568 13.1891 11.9755 13.2503 12.0108L15.2586 13.1703L15.5662 12.9916C15.6234 12.9584 15.6879 12.9418 15.7668 12.9418C15.8493 12.9397 15.9176 12.9584 15.9751 12.9916Z" fill="white"/>
<path d="M18.0521 11.6264C18.1216 11.8737 17.9901 12.096 17.654 12.2914C17.325 12.4826 16.938 12.5615 16.5145 12.52C16.0981 12.4826 15.6848 12.3434 15.2708 12.1044C14.8641 11.8696 14.6188 11.6285 14.5529 11.3875C14.4761 11.1402 14.6148 10.9178 14.9438 10.7266C15.2799 10.5313 15.6597 10.4523 16.0869 10.4918C16.5033 10.5334 16.9238 10.6726 17.3305 10.9074C17.7444 11.1464 17.9826 11.3874 18.0521 11.6264ZM16.5699 12.1709C16.8355 12.2041 17.0614 12.1688 17.2509 12.0587C17.4476 11.9444 17.5078 11.8134 17.4495 11.6597C17.3876 11.4997 17.2073 11.3334 16.9014 11.1568C16.6027 10.9843 16.3115 10.8784 16.0386 10.8451C15.7694 10.8098 15.5472 10.8472 15.3505 10.9615C15.161 11.0716 15.0971 11.2004 15.159 11.3563C15.2173 11.5142 15.4012 11.6826 15.6999 11.855C16.0059 12.0317 16.2934 12.1355 16.5699 12.1709Z" fill="white"/>
<path d="M35.231 7.7848C35.3858 7.87415 35.4833 7.98428 35.5199 8.10898C35.5636 8.23366 35.575 8.35624 35.547 8.48092C35.5226 8.59937 35.4804 8.75315 35.4133 8.93395C35.3603 9.09395 35.3216 9.22073 35.3077 9.30799C35.2937 9.36201 35.3012 9.4119 35.3086 9.45346L36.4815 8.77185C36.5387 8.73861 36.6067 8.71989 36.6857 8.71992C36.7646 8.72405 36.84 8.73859 36.894 8.76976C36.9516 8.80302 36.9733 8.84457 36.9736 8.89029C36.9774 8.93809 36.949 8.97551 36.8918 9.00875L35.4972 9.81919C35.4257 9.86075 35.3468 9.87738 35.2536 9.88153C35.1675 9.88153 35.0813 9.86075 35.0129 9.82127C34.8797 9.74438 34.793 9.64464 34.7565 9.53243C34.7237 9.42645 34.7194 9.31214 34.7439 9.20203C34.7684 9.09188 34.8071 8.9568 34.8672 8.79265C34.9202 8.64926 34.9554 8.53704 34.9729 8.45185C34.994 8.36874 34.9971 8.28768 34.9787 8.21078C34.9604 8.14223 34.9134 8.08611 34.8378 8.04248C34.7155 7.97182 34.5789 7.93856 34.4283 7.94273C34.2741 7.94896 34.1021 8.00299 33.9126 8.11312C33.7017 8.23573 33.5446 8.37704 33.445 8.53496C33.4024 8.60561 33.3022 8.64304 33.1874 8.64719C33.1156 8.6472 33.0509 8.62639 33.0005 8.59731C32.9214 8.55159 32.8959 8.49549 32.9243 8.43316C33.0486 8.21081 33.2663 8.01338 33.5595 7.84298C33.7205 7.74946 33.903 7.6809 34.1038 7.6435C34.2972 7.60193 34.4981 7.59362 34.6955 7.61648C34.893 7.63933 35.0762 7.69543 35.231 7.7848Z" fill="white"/>
<path d="M38.9059 7.44589C38.9755 7.6932 38.844 7.91554 38.5079 8.11087C38.1789 8.30205 37.7919 8.38104 37.3683 8.33945C36.952 8.30207 36.535 8.16076 36.1211 7.92178C35.7144 7.68698 35.4691 7.44592 35.4031 7.20486C35.33 6.95967 35.465 6.73522 35.794 6.54404C36.1301 6.34871 36.5136 6.27183 36.9407 6.3113C37.3535 6.35079 37.7741 6.49002 38.1808 6.72483C38.5947 6.96381 38.8364 7.20693 38.9059 7.44589ZM37.4237 7.99036C37.6894 8.02361 37.9116 7.9862 38.1012 7.87606C38.2978 7.76177 38.3617 7.63294 38.3034 7.47915C38.2451 7.32124 38.0576 7.15083 37.7517 6.9742C37.4565 6.80379 37.1617 6.69573 36.8889 6.66249C36.6196 6.62716 36.401 6.66665 36.2043 6.78094C36.0148 6.89108 35.9474 7.01783 36.0092 7.1737C36.0675 7.33161 36.255 7.50202 36.5502 7.67242C36.8561 7.84906 37.1509 7.95712 37.4237 7.99036Z" fill="white"/>
<path d="M42.6341 5.5135C42.6528 5.65688 42.5675 5.78572 42.3636 5.90417C42.1669 6.01847 41.9376 6.0725 41.6936 6.06002C41.4568 6.04756 41.234 5.98107 41.0324 5.86469C40.8345 5.7504 40.7153 5.61948 40.6967 5.48443C40.6707 5.34104 40.7633 5.20804 40.9599 5.09374C41.1638 4.97529 41.3859 4.92542 41.6371 4.9379C41.8739 4.94619 42.0931 5.01477 42.2947 5.13114C42.4963 5.24751 42.6154 5.37427 42.6341 5.5135ZM41.7315 5.77119C41.8463 5.7795 41.9431 5.76078 42.0289 5.71091C42.1183 5.65896 42.1539 5.60079 42.1356 5.53636C42.1208 5.46571 42.0559 5.39922 41.9443 5.33479C41.8327 5.27036 41.7177 5.23296 41.5956 5.22464C41.4844 5.21426 41.3841 5.23506 41.2947 5.28701C41.2088 5.33688 41.1768 5.39298 41.1916 5.45947C41.2135 5.53013 41.2748 5.59453 41.3864 5.65897C41.498 5.7234 41.613 5.76079 41.7315 5.77119Z" fill="white"/>
<path d="M39.8002 5.5757C39.8225 5.72114 39.7336 5.85206 39.5333 5.96843C39.3331 6.0848 39.1073 6.13675 38.8597 6.12223C38.6228 6.10974 38.4001 6.04325 38.1985 5.92688C38.0005 5.81258 37.885 5.68375 37.8627 5.54661C37.8404 5.4053 37.9294 5.27437 38.1296 5.158C38.3298 5.04163 38.5556 4.98968 38.8032 5.00008C39.04 5.01254 39.2628 5.07903 39.4608 5.19332C39.6623 5.3097 39.7778 5.43853 39.8002 5.5757ZM38.8976 5.83336C39.0124 5.84584 39.1127 5.82504 39.1986 5.77517C39.288 5.72322 39.3235 5.66505 39.3016 5.59855C39.2869 5.52789 39.222 5.46556 39.1068 5.39904C39.0024 5.33878 38.8873 5.29722 38.7653 5.28891C38.6541 5.27852 38.5537 5.29932 38.4643 5.35126C38.3785 5.40114 38.3429 5.45932 38.3613 5.52373C38.376 5.59438 38.4481 5.66089 38.5525 5.72115C38.6677 5.78766 38.7755 5.82505 38.8976 5.83336Z" fill="white"/>
<path d="M39.9615 4.31023C39.9975 4.331 40.0228 4.35804 40.0338 4.39336L40.9323 6.59815L40.9291 6.67087L40.8685 6.73944C40.8256 6.76438 40.7718 6.77893 40.7037 6.78102C40.6355 6.77893 40.578 6.76645 40.5277 6.73737L40.4663 6.67296L39.5713 4.44947C39.553 4.39752 39.5707 4.35387 39.6315 4.31855C39.678 4.29153 39.7317 4.27282 39.7927 4.27075C39.8573 4.27076 39.9148 4.28323 39.9615 4.31023Z" fill="white"/>
<path d="M17.4083 30.0253C17.427 30.1687 17.3381 30.2996 17.1379 30.416C16.9376 30.5323 16.7119 30.5843 16.4678 30.5718C16.2274 30.5573 16.0082 30.4928 15.8066 30.3765C15.6087 30.2622 15.4931 30.1333 15.4672 29.9941C15.4449 29.8528 15.5339 29.7219 15.7341 29.6055C15.9344 29.4892 16.1601 29.4372 16.4077 29.4476C16.6481 29.4621 16.871 29.5287 17.0689 29.6429C17.2704 29.7593 17.3824 29.8861 17.4083 30.0253ZM16.5057 30.283C16.6134 30.2913 16.7137 30.2705 16.7995 30.2206C16.8889 30.1687 16.9245 30.1105 16.9097 30.0481C16.895 29.9775 16.8228 29.911 16.7149 29.8487C16.6033 29.7842 16.4955 29.7468 16.3735 29.7385C16.2586 29.7261 16.1618 29.7489 16.0724 29.8009C15.9866 29.8507 15.9475 29.9068 15.9694 29.9733C15.9842 30.044 16.049 30.1063 16.1606 30.1708C16.2686 30.2331 16.3836 30.2746 16.5057 30.283Z" fill="white"/>
<path d="M20.2384 29.9607C20.2607 30.1061 20.1753 30.235 19.9715 30.3534C19.7748 30.4677 19.5455 30.5217 19.2979 30.5072C19.0575 30.4926 18.8382 30.4282 18.6367 30.3119C18.4387 30.1975 18.3232 30.0687 18.2973 29.9295C18.2786 29.7903 18.3711 29.6573 18.5678 29.543C18.7716 29.4245 18.9937 29.3747 19.2377 29.383C19.4818 29.3954 19.701 29.464 19.899 29.5783C20.1005 29.6947 20.216 29.8194 20.2384 29.9607ZM19.3357 30.2183C19.4506 30.2267 19.5437 30.2059 19.6296 30.156C19.7189 30.1041 19.7581 30.0479 19.7398 29.9835C19.725 29.9129 19.6601 29.8464 19.5486 29.782C19.4406 29.7196 19.3255 29.6822 19.2035 29.6739C19.0923 29.6635 18.9919 29.6843 18.9025 29.7362C18.8167 29.7861 18.7847 29.8422 18.7995 29.9087C18.8177 29.9773 18.8827 30.0438 18.9907 30.1061C19.1023 30.1705 19.2173 30.2079 19.3357 30.2183Z" fill="white"/>
<path d="M17.5701 28.7597L17.6387 28.8407L18.5372 31.0455L18.5377 31.1203L18.4735 31.1868C18.4306 31.2118 18.3732 31.2242 18.3051 31.2263C18.2441 31.2284 18.183 31.2138 18.1362 31.1868L18.0749 31.1224L17.1762 28.8968C17.158 28.8449 17.1793 28.8033 17.2401 28.768C17.2866 28.741 17.3403 28.7223 17.4012 28.7202C17.4586 28.716 17.5197 28.7306 17.5701 28.7597Z" fill="white"/>
<path d="M16.5114 31.8934C16.581 32.1407 16.4495 32.3631 16.1134 32.5584C15.7844 32.7496 15.3974 32.8285 14.9738 32.787C14.5574 32.7496 14.1369 32.6062 13.7302 32.3714C13.3235 32.1366 13.0782 31.8955 13.0086 31.6524C12.9355 31.4072 13.0706 31.1828 13.3995 30.9916C13.7357 30.7962 14.1191 30.7193 14.5462 30.7588C14.9626 30.8004 15.3831 30.9396 15.7898 31.1744C16.1965 31.4092 16.4419 31.6544 16.5114 31.8934ZM15.0292 32.4379C15.2949 32.4711 15.5207 32.4358 15.7102 32.3257C15.9069 32.2114 15.9671 32.0804 15.9089 31.9267C15.847 31.7667 15.6667 31.6004 15.3607 31.4238C15.062 31.2513 14.7708 31.1453 14.498 31.1121C14.2287 31.0768 14.0065 31.1142 13.8099 31.2285C13.6203 31.3386 13.5565 31.4675 13.6183 31.6233C13.6766 31.7812 13.8605 31.9496 14.1593 32.122C14.4652 32.2987 14.7528 32.4025 15.0292 32.4379Z" fill="white"/>
<path d="M13.9513 32.8057C14.2104 32.9553 14.337 33.1278 14.3201 33.321C14.3033 33.5184 14.125 33.7138 13.7853 33.9112C13.4814 34.0878 13.1412 34.2021 12.772 34.2499H12.6356C12.5889 34.2437 12.5422 34.2291 12.499 34.2042C12.4415 34.171 12.4125 34.1335 12.4087 34.0899C12.3975 34.0213 12.4869 33.9527 12.6123 33.9257C12.8954 33.878 13.1282 33.7969 13.3141 33.6888C13.5322 33.5621 13.6643 33.4436 13.7032 33.3376C13.742 33.2358 13.6769 33.1402 13.5078 33.0426C13.3674 32.9615 13.2201 32.9262 13.0551 32.9345C12.883 32.9428 12.7182 32.9927 12.5573 33.0862C12.3678 33.1964 12.2394 33.3293 12.1721 33.481L12.158 33.5184C12.1438 33.5476 12.1152 33.5725 12.0723 33.5974C11.9936 33.6431 11.9041 33.6702 11.8037 33.6785C11.6997 33.6805 11.5991 33.6598 11.5235 33.6161L11.4371 33.5579L10.6334 32.9034C10.5757 32.8576 10.5467 32.8119 10.5501 32.7641C10.5498 32.7142 10.5854 32.6685 10.6462 32.6332L11.8083 31.9578C11.862 31.9267 11.9372 31.908 12.0161 31.908C12.095 31.908 12.1669 31.9246 12.2245 31.9578C12.2821 31.9911 12.3038 32.0326 12.3077 32.0763C12.3044 32.1199 12.2723 32.1636 12.2187 32.1947L11.2139 32.7787L11.7508 33.2005C11.8433 33.0592 11.9896 32.9325 12.1863 32.8182C12.3758 32.708 12.5692 32.6374 12.7806 32.602C12.9957 32.5688 13.2002 32.5667 13.3977 32.6062C13.5988 32.6394 13.7821 32.708 13.9513 32.8057Z" fill="white"/>
<path d="M45.2578 29.3186C45.2729 29.4599 45.1876 29.5887 44.9837 29.7071C44.7871 29.8214 44.5578 29.8755 44.3173 29.8651L44.3102 29.8609C44.0769 29.8505 43.8541 29.784 43.6562 29.6698C43.4546 29.5534 43.3355 29.4225 43.3168 29.2874C43.2908 29.144 43.3834 29.011 43.58 28.8967C43.7839 28.7783 44.006 28.7284 44.2572 28.7409C44.494 28.7492 44.7132 28.8177 44.9184 28.9362C45.1164 29.0505 45.2355 29.1772 45.2578 29.3186ZM44.3516 29.5742C44.4664 29.5825 44.5632 29.5638 44.649 29.5139C44.7384 29.4619 44.774 29.4038 44.7557 29.3393C44.7409 29.2687 44.676 29.2022 44.568 29.1399C44.4564 29.0754 44.3378 29.0359 44.2158 29.0276C44.1045 29.0172 44.0042 29.038 43.9148 29.09C43.829 29.1399 43.797 29.196 43.8117 29.2625C43.8336 29.3331 43.8986 29.3996 44.0102 29.464C44.1181 29.5264 44.2332 29.5638 44.3516 29.5742Z" fill="white"/>
<path d="M42.4239 29.3807C42.4426 29.5241 42.3537 29.655 42.1534 29.7714C41.9532 29.8878 41.7274 29.9397 41.4834 29.9273C41.243 29.9127 41.0202 29.8462 40.8222 29.7319C40.6207 29.6156 40.5051 29.4867 40.4829 29.3496C40.4605 29.2083 40.5495 29.0774 40.7497 28.961C40.95 28.8446 41.1757 28.7927 41.4233 28.8031C41.6601 28.8155 41.8829 28.882 42.0845 28.9984C42.2825 29.1127 42.398 29.2415 42.4239 29.3807ZM41.5177 29.6363C41.6325 29.6488 41.7329 29.628 41.8187 29.5781C41.9081 29.5262 41.9437 29.468 41.9217 29.4015C41.907 29.3309 41.8421 29.2685 41.7305 29.2041C41.6225 29.1418 41.5075 29.1002 41.3855 29.0919C41.2742 29.0815 41.1775 29.1044 41.0881 29.1563C41.0023 29.2062 40.9631 29.2623 40.9814 29.3267C40.9961 29.3974 41.0682 29.4639 41.1762 29.5262C41.2878 29.5906 41.3957 29.628 41.5177 29.6363Z" fill="white"/>
<path d="M42.5816 28.1132L42.6539 28.1963L43.5524 30.4011L43.5528 30.4759L43.4886 30.5424C43.4457 30.5674 43.392 30.5819 43.3238 30.584C43.2557 30.5819 43.1982 30.5694 43.1514 30.5424L43.0864 30.4759L42.1914 28.2524C42.1732 28.2005 42.1909 28.1568 42.2516 28.1215C42.2981 28.0945 42.3554 28.0779 42.4128 28.0737C42.4774 28.0737 42.5349 28.0862 42.5816 28.1132Z" fill="white"/>
<path d="M41.5267 31.2489C41.5963 31.4962 41.4648 31.7185 41.1286 31.9139C40.7997 32.105 40.4127 32.184 39.9891 32.1425C39.5727 32.1051 39.1558 31.9637 38.7455 31.7269C38.3352 31.49 38.0899 31.2489 38.0239 31.0079C37.9544 30.7647 38.0858 30.5382 38.4148 30.347C38.7509 30.1517 39.138 30.0769 39.5615 30.1143C39.9743 30.1538 40.3948 30.293 40.8052 30.5299C41.2155 30.7668 41.4572 31.0099 41.5267 31.2489ZM40.0445 31.7933C40.3102 31.8266 40.5324 31.7892 40.7219 31.679C40.9186 31.5648 40.9824 31.4359 40.9242 31.2821C40.8659 31.1242 40.6784 30.9538 40.3761 30.7793C40.0773 30.6068 39.7861 30.5008 39.5097 30.4655C39.2404 30.4302 39.0218 30.4696 38.8251 30.5839C38.6356 30.6941 38.5682 30.8208 38.63 30.9767C38.6919 31.1367 38.8758 31.305 39.1746 31.4775C39.4769 31.652 39.7717 31.7601 40.0445 31.7933Z" fill="white"/>
<path d="M37.3938 31.2656C37.4514 31.2989 37.4982 31.3425 37.5344 31.3924L38.6173 33.2107C38.6426 33.246 38.6392 33.2772 38.625 33.3104C38.6073 33.3416 38.5824 33.3727 38.543 33.3956C38.4822 33.4309 38.407 33.4496 38.328 33.4496C38.2419 33.4496 38.1773 33.433 38.1161 33.3977L38.0296 33.3187L37.0731 31.6563L35.843 32.3711C35.7858 32.4044 35.7105 32.4189 35.6316 32.4189C35.5527 32.4231 35.4808 32.4023 35.4269 32.3712C35.3692 32.3379 35.3368 32.2984 35.3401 32.2506C35.3398 32.2049 35.3647 32.1613 35.4219 32.128L36.8952 31.2719C36.9667 31.2303 37.0526 31.2095 37.1423 31.2074C37.2392 31.2054 37.3254 31.2261 37.3938 31.2656Z" fill="white"/>
</svg>
