<svg width="20" height="20" viewBox="0 0 20 20" fill="none" xmlns="http://www.w3.org/2000/svg">
<path opacity="0.4" d="M9.96974 5.57288H12.2503C13.0055 5.57123 13.0075 4.41829 12.2503 4.41607C12.2503 4.41607 11.2669 4.41607 11.2669 4.41607V3.89188C11.2669 3.57218 11.0077 3.31348 10.6882 3.31348C10.3688 3.31348 10.1098 3.57218 10.1098 3.89188V4.41607C7.6592 4.3217 7.51967 7.91261 9.9698 7.9961C9.96974 7.99609 11.039 7.99609 11.039 7.99609C11.8665 8.01036 11.8747 9.23932 11.039 9.25344H8.75843C7.99969 9.26464 7.99728 10.3982 8.75846 10.4103C8.75843 10.4103 10.1098 10.4103 10.1098 10.4103V10.9344C10.1126 11.6887 11.2637 11.6925 11.2669 10.9344C11.2669 10.9344 11.2669 10.3873 11.2669 10.3873C13.4611 10.0712 13.2564 6.88295 11.039 6.83927H9.96976C9.13856 6.82505 9.13781 5.58734 9.96974 5.57288Z" fill="white" stroke="white" stroke-width="0.2"/>
<path d="M6.06806 13.032C6.56696 13.048 6.84628 12.3831 6.47276 12.0402C2.79291 8.49773 5.39398 2.1238 10.5048 2.15701C13.6831 2.15697 16.2684 4.74229 16.2684 7.92071C16.2829 8.41773 16.0167 9.19238 16.7237 9.29837C17.4862 9.35901 17.4111 8.44842 17.4252 7.92071C17.4252 4.10457 14.3208 1.00015 10.5047 1.00015C4.36802 0.960905 1.24532 8.61378 5.66335 12.8671C5.77604 12.9773 5.92205 13.032 6.06806 13.032Z" fill="white" stroke="white" stroke-width="0.2"/>
<path d="M18.9927 10.678C18.9775 10.3936 18.7251 10.2056 18.4563 10.1693C18.4563 10.1692 14.3357 9.97097 14.3357 9.97097C13.5823 9.95092 13.5171 11.0752 14.2804 11.1267C14.2804 11.1267 16.8437 11.25 16.8437 11.25L11.5363 15.367L9.34921 12.4354C9.16555 12.1776 8.76918 12.1258 8.52651 12.3275C8.52651 12.3275 2.22108 17.3202 2.22108 17.3202C1.63086 17.7911 2.34408 18.6953 2.93903 18.2274C2.939 18.2274 8.77787 13.6041 8.77787 13.6041L10.9613 16.5311C11.0542 16.656 11.1935 16.7379 11.3471 16.7588C11.4996 16.7785 11.6566 16.7373 11.7798 16.6424L17.5567 12.1612L17.0543 14.6796C16.9095 15.4181 18.0347 15.6502 18.1886 14.9055C18.1886 14.9055 18.9957 10.86 18.9957 10.86C19.0011 10.7999 19.0027 10.7391 18.9927 10.678Z" fill="white" stroke="white" stroke-width="0.2"/>
</svg>
