<svg width="58" height="58" viewBox="0 0 58 58" fill="none" xmlns="http://www.w3.org/2000/svg">
<path d="M29.3633 39.875V44.95" stroke="black" stroke-width="4.35" stroke-linecap="round" stroke-linejoin="round"/>
<path d="M17.2754 53.166H41.4421V50.7493C41.4421 48.091 39.2671 45.916 36.6087 45.916H22.1087C19.4504 45.916 17.2754 48.091 17.2754 50.7493V53.166Z" stroke="black" stroke-width="4.35" stroke-miterlimit="10"/>
<path d="M14.8633 53.166H43.8633" stroke="black" stroke-width="4.35" stroke-linecap="round" stroke-linejoin="round"/>
<path d="M29.0046 38.6673C19.6521 38.6673 12.0879 31.1031 12.0879 21.7506V14.5007C12.0879 9.15982 16.4137 4.83398 21.7546 4.83398H36.2546C41.5954 4.83398 45.9212 9.15982 45.9212 14.5007V21.7506C45.9212 31.1031 38.3571 38.6673 29.0046 38.6673Z" stroke="black" stroke-width="4.35" stroke-linecap="round" stroke-linejoin="round"/>
<path d="M13.2169 28.1534C11.4044 27.5734 9.8094 26.5101 8.55273 25.2534C6.37773 22.8367 4.92773 19.9367 4.92773 16.5534C4.92773 13.1701 7.58607 10.5117 10.9694 10.5117H12.5402C12.0569 11.6234 11.8152 12.8559 11.8152 14.1367V21.3867C11.8152 23.8034 12.3227 26.0751 13.2169 28.1534Z" stroke="black" stroke-width="4.35" stroke-linecap="round" stroke-linejoin="round"/>
<path d="M44.7793 28.1534C46.5918 27.5734 48.1868 26.5101 49.4435 25.2534C51.6185 22.8367 53.0685 19.9367 53.0685 16.5534C53.0685 13.1701 50.4101 10.5117 47.0268 10.5117H45.456C45.9393 11.6234 46.181 12.8559 46.181 14.1367V21.3867C46.181 23.8034 45.6735 26.0751 44.7793 28.1534Z" stroke="black" stroke-width="4.35" stroke-linecap="round" stroke-linejoin="round"/>
</svg>
