<svg width="20" height="20" viewBox="0 0 20 20" fill="none" xmlns="http://www.w3.org/2000/svg">
<g clip-path="url(#clip0_291_2)">
<path d="M12.4993 18.3327H7.49935C3.33268 18.3327 1.66602 16.666 1.66602 12.4993V7.49936C1.66602 3.33269 3.33268 1.66602 7.49935 1.66602H12.4993C16.666 1.66602 18.3327 3.33269 18.3327 7.49936V12.4993C18.3327 16.666 16.666 18.3327 12.4993 18.3327Z" stroke="#201B53" stroke-width="1.5" stroke-linecap="round" stroke-linejoin="round"/>
<path d="M10.8153 16C10.609 16 10.4715 15.9313 10.334 15.7938L6.20904 11.6687C6.00279 11.4625 5.93404 11.1875 6.07154 10.9125C6.14029 10.6375 6.41529 10.5 6.69029 10.5H8.75279C9.30279 10.5 9.85279 10.2938 10.1965 9.88125C10.609 9.5375 10.8153 8.9875 10.8153 8.4375C10.8153 7.8875 10.609 7.3375 10.1965 6.99375C9.85279 6.58125 9.30279 6.375 8.75279 6.375H6.69029C6.27779 6.375 6.00279 6.1 6.00279 5.6875C6.00279 5.275 6.27779 5 6.69029 5H14.2528C14.6653 5 14.9403 5.275 14.9403 5.6875C14.9403 6.1 14.6653 6.375 14.2528 6.375H11.5028C11.9153 6.99375 12.1903 7.68125 12.1903 8.4375C12.1903 9.33125 11.8465 10.225 11.159 10.8438C10.5403 11.5312 9.64654 11.875 8.75279 11.875H8.34029L11.2965 14.8312C11.5715 15.1062 11.5715 15.5188 11.2965 15.7938C11.159 15.9313 11.0215 16 10.8153 16Z" fill="#201B53"/>
<path d="M14.252 9.125H6.68945C6.27695 9.125 6.00195 8.85 6.00195 8.4375C6.00195 8.025 6.27695 7.75 6.68945 7.75H14.252C14.6645 7.75 14.9395 8.025 14.9395 8.4375C14.9395 8.85 14.6645 9.125 14.252 9.125Z" fill="#201B53"/>
</g>
<defs>
<clipPath id="clip0_291_2">
<rect width="20" height="20" fill="white"/>
</clipPath>
</defs>
</svg>
