<svg width="18" height="18" viewBox="0 0 18 18" fill="none" xmlns="http://www.w3.org/2000/svg">
<path fill-rule="evenodd" clip-rule="evenodd" d="M4.5 5.625C4.5 5.31436 4.75186 5.0625 5.0625 5.0625H14.0625C14.3732 5.0625 14.625 5.31436 14.625 5.625C14.625 5.93568 14.3732 6.1875 14.0625 6.1875H5.0625C4.75186 6.1875 4.5 5.93568 4.5 5.625Z" fill="#55597D"/>
<path fill-rule="evenodd" clip-rule="evenodd" d="M4.5 2.8125C4.5 2.50184 4.75186 2.25 5.0625 2.25H14.0625C14.3732 2.25 14.625 2.50184 14.625 2.8125C14.625 3.12316 14.3732 3.375 14.0625 3.375H5.0625C4.75186 3.375 4.5 3.12316 4.5 2.8125Z" fill="#55597D"/>
<path fill-rule="evenodd" clip-rule="evenodd" d="M7.03126 2.8125C7.03126 2.50184 7.28312 2.25 7.59376 2.25C8.71264 2.25 9.78571 2.69448 10.5769 3.48564C11.368 4.27683 11.8125 5.34987 11.8125 6.46875C11.8125 7.58763 11.368 8.66071 10.5769 9.45186C9.78571 10.243 8.71264 10.6875 7.59376 10.6875H6.51748L11.6284 15.3338C11.8582 15.5428 11.8752 15.8985 11.6662 16.1284C11.4573 16.3582 11.1015 16.3751 10.8716 16.1662L4.68416 10.5412C4.51221 10.3849 4.45406 10.1389 4.53787 9.92215C4.62168 9.70545 4.83012 9.5625 5.06254 9.5625H7.59376C8.4143 9.5625 9.20117 9.23653 9.78139 8.65638C10.3615 8.07616 10.6875 7.28926 10.6875 6.46875C10.6875 5.64824 10.3615 4.86134 9.78139 4.28115C9.20117 3.70093 8.4143 3.375 7.59376 3.375C7.28312 3.375 7.03126 3.12316 7.03126 2.8125Z" fill="#55597D"/>
</svg>
