<svg width="202" height="196" viewBox="0 0 202 196" fill="none" xmlns="http://www.w3.org/2000/svg">
<path d="M198.521 86.2434L192.723 77.2799L194.023 66.7533C195.062 58.2844 191.024 49.9937 183.686 45.5218L174.549 39.9617L171.091 29.8901C168.322 21.8269 161.064 16.0887 152.507 15.2081L141.821 14.11L134.303 6.54145C128.266 0.456947 119.199 -1.59101 111.091 1.30779L101.005 4.91891L90.9085 1.29789C82.8013 -1.6009 73.7344 0.447053 67.6965 6.53155L60.1891 14.1001L49.5028 15.1983C40.9458 16.0788 33.6883 21.817 30.9193 29.8802L27.4605 39.9518L18.3137 45.5119C10.9762 49.9838 6.9376 58.2745 7.97724 66.7434L9.27678 77.2799L3.47879 86.2434C-1.1596 93.4063 -1.1596 102.597 3.47879 109.76L9.27678 118.724L7.97724 129.25C6.9376 137.719 10.9762 146.01 18.3137 150.482L27.4505 156.042L30.9093 166.114C33.6783 174.177 40.9358 179.915 49.4928 180.796L60.1791 181.894L67.6965 189.462C73.7344 195.547 82.8013 197.595 90.9085 194.696L100.995 191.085L111.082 194.696C119.189 197.595 128.256 195.547 134.293 189.462L141.801 181.894L152.487 180.796C161.044 179.915 168.302 174.177 171.071 166.114L174.53 156.042L183.666 150.482C191.014 146.02 195.052 137.719 194.003 129.26L192.703 118.724L198.501 109.76C203.16 102.587 203.16 93.4063 198.521 86.2434Z" fill="#27AE61"/>
</svg>
