<svg width="20" height="20" viewBox="0 0 20 20" fill="none" xmlns="http://www.w3.org/2000/svg">
<mask id="path-1-outside-1_350_18" maskUnits="userSpaceOnUse" x="0" y="0" width="20" height="20" fill="black">
<rect fill="white" width="20" height="20"/>
<path d="M10.84 19H9.16C8.59225 19 8.113 18.5748 8.0455 18.01L7.86625 16.603C7.5085 16.4868 7.1635 16.3435 6.83575 16.1763L5.71525 17.047C5.26075 17.3987 4.621 17.3583 4.2265 16.9525L3.04525 15.7712C2.6425 15.3805 2.602 14.7407 2.95375 14.287L3.8245 13.1658C3.6565 12.838 3.51325 12.493 3.39775 12.1353L1.98775 11.956C1.42525 11.887 1 11.4077 1 10.84V9.16C1 8.59225 1.42525 8.113 1.99 8.0455L3.397 7.86625C3.51325 7.5085 3.6565 7.1635 3.82375 6.83575L2.95375 5.71525C2.60125 5.26075 2.6425 4.62025 3.049 4.22575L4.23025 3.0445C4.621 2.64175 5.2615 2.602 5.7145 2.953L6.835 3.8245C7.16275 3.65725 7.50775 3.514 7.86625 3.39775L8.0455 1.98775C8.113 1.42525 8.59225 1 9.16 1H10.84C11.4077 1 11.887 1.42525 11.9545 1.99L12.1338 3.397C12.4923 3.51325 12.8372 3.6565 13.165 3.82375L14.2855 2.953C14.7408 2.60125 15.3797 2.64175 15.7742 3.04825L16.9555 4.2295C17.3583 4.62025 17.3987 5.26 17.047 5.71375L16.1763 6.835C16.3443 7.16275 16.4875 7.50775 16.603 7.8655L18.013 8.04475C18.5748 8.113 19 8.59225 19 9.16V10.84C19 11.4077 18.5748 11.887 18.01 11.9545L16.603 12.1338C16.4868 12.4915 16.3435 12.8365 16.1763 13.1642L17.047 14.2847C17.3995 14.7392 17.3582 15.379 16.9517 15.7735L15.7705 16.9548C15.3798 17.3575 14.7393 17.3988 14.2863 17.0463L13.165 16.1755C12.8372 16.3435 12.4922 16.4867 12.1345 16.6022L11.9553 18.0123C11.887 18.5748 11.4077 19 10.84 19ZM6.7975 15.355C6.85975 15.355 6.9235 15.3707 6.9805 15.4022C7.39375 15.6332 7.8415 15.8192 8.311 15.9542C8.455 15.9955 8.56075 16.1185 8.5795 16.267L8.7895 17.917C8.812 18.1052 8.97475 18.25 9.16 18.25H10.84C11.0252 18.25 11.188 18.1053 11.2097 17.9208L11.4205 16.2678C11.4393 16.1193 11.545 15.9963 11.689 15.955C12.1585 15.82 12.6062 15.634 13.0195 15.403C13.1507 15.3295 13.3143 15.3423 13.432 15.4345L14.7445 16.4545C14.8953 16.5715 15.1068 16.5618 15.2358 16.429L16.4245 15.2402C16.5602 15.1082 16.5707 14.8967 16.4537 14.7452L15.4338 13.4327C15.3415 13.3142 15.3287 13.1515 15.4022 13.0203C15.6332 12.607 15.8192 12.1593 15.9542 11.6898C15.9955 11.5458 16.1185 11.44 16.267 11.4213L17.917 11.2112C18.1052 11.188 18.25 11.0252 18.25 10.84V9.16C18.25 8.97475 18.1053 8.812 17.9208 8.79025L16.2678 8.5795C16.1193 8.56075 15.9963 8.455 15.955 8.311C15.82 7.8415 15.634 7.39375 15.403 6.9805C15.3295 6.84925 15.3415 6.6865 15.4345 6.568L16.4545 5.2555C16.5723 5.104 16.5617 4.8925 16.4297 4.765L15.241 3.57625C15.1098 3.43975 14.8975 3.42925 14.746 3.547L13.4335 4.567C13.3142 4.65925 13.1515 4.672 13.0203 4.5985C12.6085 4.3675 12.1608 4.18225 11.6898 4.0465C11.5458 4.00525 11.44 3.88225 11.4213 3.73375L11.2112 2.08375C11.188 1.89475 11.0252 1.75 10.84 1.75H9.16C8.97475 1.75 8.812 1.89475 8.79025 2.07925L8.5795 3.73225C8.56075 3.88075 8.455 4.00375 8.311 4.04575C7.84 4.18075 7.39225 4.36675 6.9805 4.597C6.84925 4.67125 6.6865 4.65775 6.56725 4.56625L5.25475 3.54625C5.10325 3.4285 4.8925 3.439 4.76425 3.571L3.5755 4.7605C3.43975 4.8925 3.42925 5.104 3.54625 5.2555L4.56625 6.568C4.6585 6.6865 4.67125 6.84925 4.59775 6.9805C4.366 7.39375 4.18075 7.8415 4.04575 8.311C4.0045 8.455 3.8815 8.56075 3.733 8.5795L2.083 8.7895C1.89475 8.812 1.75 8.97475 1.75 9.16V10.84C1.75 11.0252 1.89475 11.188 2.07925 11.2097L3.73225 11.4205C3.88075 11.4393 4.00375 11.545 4.045 11.689C4.18 12.1585 4.366 12.6062 4.597 13.0195C4.6705 13.1507 4.6585 13.3135 4.5655 13.432L3.5455 14.7445C3.42775 14.896 3.43825 15.1075 3.57025 15.235L4.759 16.4238C4.89025 16.5595 5.101 16.57 5.254 16.453L6.5665 15.433C6.63475 15.382 6.71575 15.355 6.7975 15.355Z"/>
</mask>
<path d="M10.84 19H9.16C8.59225 19 8.113 18.5748 8.0455 18.01L7.86625 16.603C7.5085 16.4868 7.1635 16.3435 6.83575 16.1763L5.71525 17.047C5.26075 17.3987 4.621 17.3583 4.2265 16.9525L3.04525 15.7712C2.6425 15.3805 2.602 14.7407 2.95375 14.287L3.8245 13.1658C3.6565 12.838 3.51325 12.493 3.39775 12.1353L1.98775 11.956C1.42525 11.887 1 11.4077 1 10.84V9.16C1 8.59225 1.42525 8.113 1.99 8.0455L3.397 7.86625C3.51325 7.5085 3.6565 7.1635 3.82375 6.83575L2.95375 5.71525C2.60125 5.26075 2.6425 4.62025 3.049 4.22575L4.23025 3.0445C4.621 2.64175 5.2615 2.602 5.7145 2.953L6.835 3.8245C7.16275 3.65725 7.50775 3.514 7.86625 3.39775L8.0455 1.98775C8.113 1.42525 8.59225 1 9.16 1H10.84C11.4077 1 11.887 1.42525 11.9545 1.99L12.1338 3.397C12.4923 3.51325 12.8372 3.6565 13.165 3.82375L14.2855 2.953C14.7408 2.60125 15.3797 2.64175 15.7742 3.04825L16.9555 4.2295C17.3583 4.62025 17.3987 5.26 17.047 5.71375L16.1763 6.835C16.3443 7.16275 16.4875 7.50775 16.603 7.8655L18.013 8.04475C18.5748 8.113 19 8.59225 19 9.16V10.84C19 11.4077 18.5748 11.887 18.01 11.9545L16.603 12.1338C16.4868 12.4915 16.3435 12.8365 16.1763 13.1642L17.047 14.2847C17.3995 14.7392 17.3582 15.379 16.9517 15.7735L15.7705 16.9548C15.3798 17.3575 14.7393 17.3988 14.2863 17.0463L13.165 16.1755C12.8372 16.3435 12.4922 16.4867 12.1345 16.6022L11.9553 18.0123C11.887 18.5748 11.4077 19 10.84 19ZM6.7975 15.355C6.85975 15.355 6.9235 15.3707 6.9805 15.4022C7.39375 15.6332 7.8415 15.8192 8.311 15.9542C8.455 15.9955 8.56075 16.1185 8.5795 16.267L8.7895 17.917C8.812 18.1052 8.97475 18.25 9.16 18.25H10.84C11.0252 18.25 11.188 18.1053 11.2097 17.9208L11.4205 16.2678C11.4393 16.1193 11.545 15.9963 11.689 15.955C12.1585 15.82 12.6062 15.634 13.0195 15.403C13.1507 15.3295 13.3143 15.3423 13.432 15.4345L14.7445 16.4545C14.8953 16.5715 15.1068 16.5618 15.2358 16.429L16.4245 15.2402C16.5602 15.1082 16.5707 14.8967 16.4537 14.7452L15.4338 13.4327C15.3415 13.3142 15.3287 13.1515 15.4022 13.0203C15.6332 12.607 15.8192 12.1593 15.9542 11.6898C15.9955 11.5458 16.1185 11.44 16.267 11.4213L17.917 11.2112C18.1052 11.188 18.25 11.0252 18.25 10.84V9.16C18.25 8.97475 18.1053 8.812 17.9208 8.79025L16.2678 8.5795C16.1193 8.56075 15.9963 8.455 15.955 8.311C15.82 7.8415 15.634 7.39375 15.403 6.9805C15.3295 6.84925 15.3415 6.6865 15.4345 6.568L16.4545 5.2555C16.5723 5.104 16.5617 4.8925 16.4297 4.765L15.241 3.57625C15.1098 3.43975 14.8975 3.42925 14.746 3.547L13.4335 4.567C13.3142 4.65925 13.1515 4.672 13.0203 4.5985C12.6085 4.3675 12.1608 4.18225 11.6898 4.0465C11.5458 4.00525 11.44 3.88225 11.4213 3.73375L11.2112 2.08375C11.188 1.89475 11.0252 1.75 10.84 1.75H9.16C8.97475 1.75 8.812 1.89475 8.79025 2.07925L8.5795 3.73225C8.56075 3.88075 8.455 4.00375 8.311 4.04575C7.84 4.18075 7.39225 4.36675 6.9805 4.597C6.84925 4.67125 6.6865 4.65775 6.56725 4.56625L5.25475 3.54625C5.10325 3.4285 4.8925 3.439 4.76425 3.571L3.5755 4.7605C3.43975 4.8925 3.42925 5.104 3.54625 5.2555L4.56625 6.568C4.6585 6.6865 4.67125 6.84925 4.59775 6.9805C4.366 7.39375 4.18075 7.8415 4.04575 8.311C4.0045 8.455 3.8815 8.56075 3.733 8.5795L2.083 8.7895C1.89475 8.812 1.75 8.97475 1.75 9.16V10.84C1.75 11.0252 1.89475 11.188 2.07925 11.2097L3.73225 11.4205C3.88075 11.4393 4.00375 11.545 4.045 11.689C4.18 12.1585 4.366 12.6062 4.597 13.0195C4.6705 13.1507 4.6585 13.3135 4.5655 13.432L3.5455 14.7445C3.42775 14.896 3.43825 15.1075 3.57025 15.235L4.759 16.4238C4.89025 16.5595 5.101 16.57 5.254 16.453L6.5665 15.433C6.63475 15.382 6.71575 15.355 6.7975 15.355Z" fill="#201B53"/>
<path d="M10.84 19H9.16C8.59225 19 8.113 18.5748 8.0455 18.01L7.86625 16.603C7.5085 16.4868 7.1635 16.3435 6.83575 16.1763L5.71525 17.047C5.26075 17.3987 4.621 17.3583 4.2265 16.9525L3.04525 15.7712C2.6425 15.3805 2.602 14.7407 2.95375 14.287L3.8245 13.1658C3.6565 12.838 3.51325 12.493 3.39775 12.1353L1.98775 11.956C1.42525 11.887 1 11.4077 1 10.84V9.16C1 8.59225 1.42525 8.113 1.99 8.0455L3.397 7.86625C3.51325 7.5085 3.6565 7.1635 3.82375 6.83575L2.95375 5.71525C2.60125 5.26075 2.6425 4.62025 3.049 4.22575L4.23025 3.0445C4.621 2.64175 5.2615 2.602 5.7145 2.953L6.835 3.8245C7.16275 3.65725 7.50775 3.514 7.86625 3.39775L8.0455 1.98775C8.113 1.42525 8.59225 1 9.16 1H10.84C11.4077 1 11.887 1.42525 11.9545 1.99L12.1338 3.397C12.4923 3.51325 12.8372 3.6565 13.165 3.82375L14.2855 2.953C14.7408 2.60125 15.3797 2.64175 15.7742 3.04825L16.9555 4.2295C17.3583 4.62025 17.3987 5.26 17.047 5.71375L16.1763 6.835C16.3443 7.16275 16.4875 7.50775 16.603 7.8655L18.013 8.04475C18.5748 8.113 19 8.59225 19 9.16V10.84C19 11.4077 18.5748 11.887 18.01 11.9545L16.603 12.1338C16.4868 12.4915 16.3435 12.8365 16.1763 13.1642L17.047 14.2847C17.3995 14.7392 17.3582 15.379 16.9517 15.7735L15.7705 16.9548C15.3798 17.3575 14.7393 17.3988 14.2863 17.0463L13.165 16.1755C12.8372 16.3435 12.4922 16.4867 12.1345 16.6022L11.9553 18.0123C11.887 18.5748 11.4077 19 10.84 19ZM6.7975 15.355C6.85975 15.355 6.9235 15.3707 6.9805 15.4022C7.39375 15.6332 7.8415 15.8192 8.311 15.9542C8.455 15.9955 8.56075 16.1185 8.5795 16.267L8.7895 17.917C8.812 18.1052 8.97475 18.25 9.16 18.25H10.84C11.0252 18.25 11.188 18.1053 11.2097 17.9208L11.4205 16.2678C11.4393 16.1193 11.545 15.9963 11.689 15.955C12.1585 15.82 12.6062 15.634 13.0195 15.403C13.1507 15.3295 13.3143 15.3423 13.432 15.4345L14.7445 16.4545C14.8953 16.5715 15.1068 16.5618 15.2358 16.429L16.4245 15.2402C16.5602 15.1082 16.5707 14.8967 16.4537 14.7452L15.4338 13.4327C15.3415 13.3142 15.3287 13.1515 15.4022 13.0203C15.6332 12.607 15.8192 12.1593 15.9542 11.6898C15.9955 11.5458 16.1185 11.44 16.267 11.4213L17.917 11.2112C18.1052 11.188 18.25 11.0252 18.25 10.84V9.16C18.25 8.97475 18.1053 8.812 17.9208 8.79025L16.2678 8.5795C16.1193 8.56075 15.9963 8.455 15.955 8.311C15.82 7.8415 15.634 7.39375 15.403 6.9805C15.3295 6.84925 15.3415 6.6865 15.4345 6.568L16.4545 5.2555C16.5723 5.104 16.5617 4.8925 16.4297 4.765L15.241 3.57625C15.1098 3.43975 14.8975 3.42925 14.746 3.547L13.4335 4.567C13.3142 4.65925 13.1515 4.672 13.0203 4.5985C12.6085 4.3675 12.1608 4.18225 11.6898 4.0465C11.5458 4.00525 11.44 3.88225 11.4213 3.73375L11.2112 2.08375C11.188 1.89475 11.0252 1.75 10.84 1.75H9.16C8.97475 1.75 8.812 1.89475 8.79025 2.07925L8.5795 3.73225C8.56075 3.88075 8.455 4.00375 8.311 4.04575C7.84 4.18075 7.39225 4.36675 6.9805 4.597C6.84925 4.67125 6.6865 4.65775 6.56725 4.56625L5.25475 3.54625C5.10325 3.4285 4.8925 3.439 4.76425 3.571L3.5755 4.7605C3.43975 4.8925 3.42925 5.104 3.54625 5.2555L4.56625 6.568C4.6585 6.6865 4.67125 6.84925 4.59775 6.9805C4.366 7.39375 4.18075 7.8415 4.04575 8.311C4.0045 8.455 3.8815 8.56075 3.733 8.5795L2.083 8.7895C1.89475 8.812 1.75 8.97475 1.75 9.16V10.84C1.75 11.0252 1.89475 11.188 2.07925 11.2097L3.73225 11.4205C3.88075 11.4393 4.00375 11.545 4.045 11.689C4.18 12.1585 4.366 12.6062 4.597 13.0195C4.6705 13.1507 4.6585 13.3135 4.5655 13.432L3.5455 14.7445C3.42775 14.896 3.43825 15.1075 3.57025 15.235L4.759 16.4238C4.89025 16.5595 5.101 16.57 5.254 16.453L6.5665 15.433C6.63475 15.382 6.71575 15.355 6.7975 15.355Z" stroke="#201B53" stroke-width="0.2" mask="url(#path-1-outside-1_350_18)"/>
<path d="M6.19902 10.0005C6.19902 12.0959 7.90366 13.8005 9.99902 13.8005C12.0944 13.8005 13.799 12.0959 13.799 10.0005C13.799 7.90512 12.0944 6.20049 9.99902 6.20049C7.90366 6.20049 6.19902 7.90512 6.19902 10.0005ZM7.04902 10.0005C7.04902 8.3736 8.37214 7.05049 9.99902 7.05049C11.6259 7.05049 12.949 8.3736 12.949 10.0005C12.949 11.6274 11.6259 12.9505 9.99902 12.9505C8.37214 12.9505 7.04902 11.6274 7.04902 10.0005Z" fill="#201B53" stroke="#201B53" stroke-width="0.1"/>
</svg>
