<svg width="50" height="50" viewBox="0 0 50 50" fill="none" xmlns="http://www.w3.org/2000/svg">
<g clip-path="url(#clip0_1334_2)">
<path d="M17.0535 23.9643C16.4815 23.3922 15.554 23.3922 14.9819 23.9643L10.1583 28.7879L8.26431 26.894C7.69233 26.3219 6.76479 26.3219 6.19272 26.894C5.62065 27.466 5.62065 28.3935 6.19272 28.9655L9.12261 31.8952C9.40864 32.1813 9.78355 32.3242 10.1583 32.3242C10.5332 32.3242 10.9082 32.1813 11.1941 31.8952L17.0535 26.0359C17.6255 25.4638 17.6255 24.5363 17.0535 23.9643Z" fill="black"/>
<path d="M17.0535 35.683C16.4815 35.1109 15.554 35.1109 14.9819 35.683L10.1583 40.5067L8.26431 38.6127C7.69233 38.0406 6.76479 38.0406 6.19272 38.6127C5.62065 39.1848 5.62065 40.1122 6.19272 40.6843L9.12261 43.614C9.40864 43.9 9.78355 44.043 10.1583 44.043C10.5332 44.043 10.9082 43.9 11.1941 43.614L17.0535 37.7546C17.6255 37.1825 17.6255 36.2551 17.0535 35.683Z" fill="black"/>
<path d="M15.5887 18.1049L13.6948 16.211L15.5886 14.3171C16.1607 13.745 16.1607 12.8176 15.5886 12.2455C15.0167 11.6734 14.0891 11.6734 13.517 12.2455L11.6231 14.1395L9.72915 12.2455C9.15718 11.6734 8.22964 11.6734 7.65757 12.2455C7.0855 12.8176 7.0855 13.745 7.65757 14.3171L9.55151 16.211L7.65767 18.1048C7.0856 18.6769 7.0856 19.6044 7.65767 20.1765C8.22964 20.7484 9.15718 20.7485 9.72925 20.1765L11.6232 18.2825L13.5171 20.1765C14.0891 20.7484 15.0167 20.7485 15.5887 20.1765C16.1608 19.6044 16.1608 18.677 15.5887 18.1049Z" fill="black"/>
<path d="M48.7148 14.6113C47.001 12.8984 44.2139 12.8984 42.5 14.6113C42.2334 14.8779 35.6943 21.418 35.3535 21.7578V7.32422C35.3535 4.90137 33.3818 2.92969 30.959 2.92969H26.3125C25.708 1.22461 24.0791 0 22.1699 0H13.1855C11.2764 0 9.64746 1.22461 9.04297 2.92969H4.39648C1.97363 2.92969 0.00195312 4.90137 0.00195312 7.32422V45.6055C0.00195312 48.0283 1.97363 50 4.39648 50H30.959C33.3818 50 35.3535 48.0283 35.3535 45.6055V34.1875L43.5361 26.0049L44.5713 27.041C45.1445 27.6133 45.1445 28.54 44.5713 29.1123L38.3564 35.3271C37.7852 35.8994 37.7852 36.8271 38.3564 37.3994C38.9287 37.9707 39.8564 37.9717 40.4287 37.3994L46.6436 31.1846C48.3604 29.4668 48.3613 26.6875 46.6436 24.9697L45.6074 23.9336L48.7148 20.8262C50.4276 19.1133 50.4276 16.3252 48.7148 14.6113ZM13.1854 2.92969H22.1698C22.9774 2.92969 23.6347 3.58691 23.6347 4.39453C23.6347 5.20215 22.9774 5.85938 22.1698 5.85938H13.1854C12.3778 5.85938 11.7206 5.20215 11.7206 4.39453C11.7206 3.58691 12.3778 2.92969 13.1854 2.92969ZM32.4238 45.6055C32.4238 46.4131 31.7666 47.0703 30.959 47.0703H4.39648C3.58887 47.0703 2.93164 46.4131 2.93164 45.6055V7.32422C2.93164 6.5166 3.58887 5.85938 4.39648 5.85938H9.04297C9.64746 7.56445 11.2764 8.78906 13.1855 8.78906H22.1699C24.0791 8.78906 25.708 7.56445 26.3125 5.85938H30.959C31.7666 5.85938 32.4238 6.5166 32.4238 7.32422V24.6875L21.7842 35.3271C21.623 35.4883 21.502 35.6846 21.4297 35.9004L19.3584 42.1152C19.1826 42.6416 19.3203 43.2217 19.7119 43.6143C20.1055 44.0068 20.6855 44.1426 21.2109 43.9678L27.4258 41.8965C27.6416 41.8242 27.8379 41.7031 27.999 41.542L30.0703 39.4707L32.4238 37.1172V45.6055ZM24.8916 36.3633L26.9629 38.4346L26.1719 39.2266L23.0645 40.2617L24.1006 37.1543L24.8916 36.3633ZM29.0341 36.3633L26.9628 34.292L39.3925 21.8623L41.4638 23.9336L29.0341 36.3633ZM46.6435 18.7549L43.536 21.8623L41.4638 19.79L44.5712 16.6826C45.1425 16.1123 46.0722 16.1123 46.6435 16.6826C47.2147 17.2539 47.2147 18.1836 46.6435 18.7549Z" fill="black"/>
</g>
<defs>
<clipPath id="clip0_1334_2">
<rect width="50" height="50" fill="white"/>
</clipPath>
</defs>
</svg>
