<svg width="20" height="20" viewBox="0 0 20 20" fill="none" xmlns="http://www.w3.org/2000/svg">
<path d="M10.0007 9.99983C11.1057 9.99983 12.1655 9.56084 12.9469 8.77944C13.7283 7.99804 14.1673 6.93823 14.1673 5.83316C14.1673 4.72809 13.7283 3.66829 12.9469 2.88688C12.1655 2.10548 11.1057 1.6665 10.0007 1.6665C8.89557 1.6665 7.83577 2.10548 7.05436 2.88688C6.27296 3.66829 5.83398 4.72809 5.83398 5.83316C5.83398 6.93823 6.27296 7.99804 7.05436 8.77944C7.83577 9.56084 8.89557 9.99983 10.0007 9.99983Z" stroke="#CD4236" stroke-width="1.5" stroke-linecap="round" stroke-linejoin="round"/>
<path opacity="0.4" d="M17.1585 18.3333C17.1585 15.1083 13.9501 12.5 10.0001 12.5C6.05013 12.5 2.8418 15.1083 2.8418 18.3333" stroke="#CD4236" stroke-width="1.5" stroke-linecap="round" stroke-linejoin="round"/>
</svg>
