<svg width="18" height="17" viewBox="0 0 18 17" fill="none" xmlns="http://www.w3.org/2000/svg">
<path d="M13.8792 6.99241C13.7195 6.69237 13.4811 6.44148 13.1896 6.26665C12.8981 6.09181 12.5645 5.99963 12.2246 6H5.77509C5.43519 5.99964 5.10162 6.09182 4.81014 6.26666C4.51866 6.44149 4.28028 6.69238 4.12056 6.99241L1.72046 11.4927C1.57604 11.7643 1.50035 12.0672 1.5 12.3749V14.9998C1.5 15.8271 2.17309 16.4998 2.99998 16.4998H14.9997C15.8266 16.4998 16.4997 15.8271 16.4997 14.9998V12.3749C16.4993 12.0671 16.4236 11.7641 16.2792 11.4923L13.8792 6.99241ZM15.7497 14.9998C15.7497 15.4132 15.4135 15.7498 14.9998 15.7498H2.99998C2.58616 15.7498 2.25001 15.4132 2.25001 14.9998V12.3748C2.25042 12.1901 2.29593 12.0084 2.38258 11.8453L4.78268 7.34537C4.87842 7.16534 5.02139 7.0148 5.19623 6.90989C5.37107 6.80498 5.57119 6.74967 5.77509 6.7499H12.2246C12.4285 6.74967 12.6287 6.80497 12.8035 6.90988C12.9783 7.01479 13.1213 7.16534 13.2171 7.34537L15.6172 11.8449C15.7036 12.0079 15.7497 12.1913 15.7497 12.3748V14.9998Z" fill="#201B53"/>
<path d="M6.74901 9.74997C7.16322 9.74997 7.499 9.41419 7.499 8.99999C7.499 8.58578 7.16322 8.25 6.74901 8.25C6.3348 8.25 5.99902 8.58578 5.99902 8.99999C5.99902 9.41419 6.3348 9.74997 6.74901 9.74997Z" fill="#201B53"/>
<path d="M6.74901 12C7.16322 12 7.499 11.6642 7.499 11.25C7.499 10.8358 7.16322 10.5 6.74901 10.5C6.3348 10.5 5.99902 10.8358 5.99902 11.25C5.99902 11.6642 6.3348 12 6.74901 12Z" fill="#201B53"/>
<path d="M6.74901 14.2495C7.16322 14.2495 7.499 13.9137 7.499 13.4995C7.499 13.0853 7.16322 12.7495 6.74901 12.7495C6.3348 12.7495 5.99902 13.0853 5.99902 13.4995C5.99902 13.9137 6.3348 14.2495 6.74901 14.2495Z" fill="#201B53"/>
<path d="M8.99999 14.2495C9.41419 14.2495 9.74997 13.9137 9.74997 13.4995C9.74997 13.0853 9.41419 12.7495 8.99999 12.7495C8.58578 12.7495 8.25 13.0853 8.25 13.4995C8.25 13.9137 8.58578 14.2495 8.99999 14.2495Z" fill="#201B53"/>
<path d="M11.249 14.2495C11.6632 14.2495 11.999 13.9137 11.999 13.4995C11.999 13.0853 11.6632 12.7495 11.249 12.7495C10.8348 12.7495 10.499 13.0853 10.499 13.4995C10.499 13.9137 10.8348 14.2495 11.249 14.2495Z" fill="#201B53"/>
<path d="M8.99999 12C9.41419 12 9.74997 11.6642 9.74997 11.25C9.74997 10.8358 9.41419 10.5 8.99999 10.5C8.58578 10.5 8.25 10.8358 8.25 11.25C8.25 11.6642 8.58578 12 8.99999 12Z" fill="#201B53"/>
<path d="M11.249 12C11.6632 12 11.999 11.6642 11.999 11.25C11.999 10.8358 11.6632 10.5 11.249 10.5C10.8348 10.5 10.499 10.8358 10.499 11.25C10.499 11.6642 10.8348 12 11.249 12Z" fill="#201B53"/>
<path d="M8.99999 9.74997C9.41419 9.74997 9.74997 9.41419 9.74997 8.99999C9.74997 8.58578 9.41419 8.25 8.99999 8.25C8.58578 8.25 8.25 8.58578 8.25 8.99999C8.25 9.41419 8.58578 9.74997 8.99999 9.74997Z" fill="#201B53"/>
<path d="M11.249 9.74997C11.6632 9.74997 11.999 9.41419 11.999 8.99999C11.999 8.58578 11.6632 8.25 11.249 8.25C10.8348 8.25 10.499 8.58578 10.499 8.99999C10.499 9.41419 10.8348 9.74997 11.249 9.74997Z" fill="#201B53"/>
<path d="M17.692 3.78579C15.371 1.3447 12.2839 0 8.99946 0C5.71534 0 2.62826 1.3447 0.307611 3.78583C0.103287 4.00077 0 4.283 0 4.56522C0 4.84742 0.103252 5.12958 0.307611 5.34438L2.0361 7.16332C2.4426 7.59032 3.164 7.59032 3.5705 7.16332C4.14874 6.55506 4.80608 6.05371 5.52089 5.67508C5.87906 5.49052 6.11048 5.10198 6.10718 4.73467L6.36867 2.76375C8.2524 2.16097 9.76522 2.16136 11.6314 2.7634L11.8892 4.68525C11.8892 5.10089 12.1096 5.48029 12.47 5.67839C13.1885 6.05888 13.8458 6.56019 14.4244 7.1681C14.6276 7.38234 14.9001 7.4999 15.1916 7.4999C15.4827 7.4999 15.7552 7.38234 15.9585 7.16849L17.6921 5.3448C17.8898 5.13678 17.9933 4.8657 17.9997 4.59261C18.0064 4.30128 17.9029 4.00769 17.692 3.78579ZM17.1486 4.82766L15.415 6.6517C15.2937 6.77879 15.0883 6.7784 14.9678 6.65135C14.3332 5.98449 13.611 5.43409 12.8259 5.01845C12.7091 4.95401 12.6391 4.82949 12.6358 4.63578L12.3436 2.43195C12.3344 2.36283 12.3061 2.29764 12.2619 2.24369C12.2178 2.18974 12.1594 2.14917 12.0935 2.12652C10.9996 1.7519 10.005 1.56477 9.00747 1.56477C8.01029 1.56477 7.01057 1.7519 5.90722 2.12617C5.84098 2.14862 5.78235 2.18916 5.73795 2.2432C5.69355 2.29724 5.66517 2.36262 5.65599 2.43195L5.36048 4.68521C5.36048 4.82218 5.28686 4.95218 5.1737 5.0104C4.38344 5.42896 3.66127 5.97939 3.02699 6.64622C2.90613 6.77292 2.70033 6.77257 2.5795 6.64657L0.85101 4.82763C0.71552 4.68553 0.71552 4.44496 0.85101 4.30286C3.02886 2.01156 5.92261 0.749973 8.99946 0.749973C12.0763 0.749973 14.9704 2.01153 17.1486 4.30289C17.2841 4.44496 17.2841 4.68556 17.1486 4.82766Z" fill="#201B53"/>
</svg>
