<svg width="20" height="19" viewBox="0 0 20 19" fill="none" xmlns="http://www.w3.org/2000/svg">
<path d="M3.10676 16.634L3.10705 16.634L3.10676 16.6286V13.3956C3.10676 13.2169 2.96188 13.072 2.78309 13.072C2.6043 13.072 2.45942 13.2169 2.45942 13.3956V16.3071H1.96715C1.75781 16.3071 1.58734 16.1367 1.58734 15.9273V3.26441C1.58734 3.05504 1.75778 2.88461 1.96715 2.88461H2.45942V12.2608C2.45942 12.4395 2.6043 12.5845 2.78309 12.5845C2.96188 12.5845 3.10676 12.4395 3.10676 12.2608V2.56409L3.10705 2.56411L3.10676 2.55869V2.25371C3.10676 1.88631 3.40576 1.58734 3.77312 1.58734H6.95206C7.31945 1.58734 7.61842 1.88634 7.61842 2.25371V2.55647C7.61835 2.5576 7.61828 2.55921 7.61828 2.56094C7.61828 2.56267 7.61835 2.56428 7.61842 2.5654V16.6263C7.61835 16.6274 7.61828 16.6291 7.61828 16.6308C7.61828 16.6325 7.61835 16.6341 7.61842 16.6352V16.9672C7.61842 17.3346 7.31942 17.6336 6.95206 17.6336H3.77312C3.40573 17.6336 3.10676 17.3346 3.10676 16.9672V16.634ZM18.7363 14.0589C18.6505 14.0589 18.5682 14.093 18.5075 14.1537C18.4468 14.2144 18.4127 14.2967 18.4127 14.3826V15.9273C18.4127 16.1367 18.2422 16.3071 18.0329 16.3071H8.26577V2.88461H12.9201C13.0059 2.88461 13.0882 2.85051 13.1489 2.78981C13.2096 2.72911 13.2437 2.64678 13.2437 2.56094C13.2437 2.47509 13.2096 2.39277 13.1489 2.33207C13.0882 2.27137 13.0059 2.23727 12.9201 2.23727H8.26566C8.25683 1.52036 7.67102 0.94 6.95206 0.94H3.77312C3.05416 0.94 2.46835 1.5204 2.45952 2.23727H1.96715C1.40073 2.23727 0.94 2.69799 0.94 3.26441V15.9273C0.94 16.4938 1.40073 16.9545 1.96715 16.9545H2.45942V16.9672C2.45942 17.6917 3.04868 18.2809 3.77312 18.2809H6.95206C7.67651 18.2809 8.26577 17.6916 8.26577 16.9672V16.9545H18.0329C18.5993 16.9545 19.06 16.4938 19.06 15.9273V14.3826C19.06 14.2967 19.0259 14.2144 18.9652 14.1537C18.9045 14.093 18.8222 14.0589 18.7363 14.0589Z" fill="#201B53" stroke="#201B53" stroke-width="0.12"/>
<path d="M18.0328 2.23736H14.0621C13.9762 2.23736 13.8939 2.27146 13.8332 2.33216C13.7725 2.39286 13.7384 2.47519 13.7384 2.56104C13.7384 2.64688 13.7725 2.72921 13.8332 2.78991C13.8939 2.85061 13.9762 2.88471 14.0621 2.88471H18.0328C18.2421 2.88471 18.4126 3.05514 18.4126 3.26451V13.2666C18.4126 13.4454 18.5574 13.5903 18.7362 13.5903C18.915 13.5903 19.0599 13.4454 19.0599 13.2666V3.26451C19.0599 2.69809 18.5992 2.23736 18.0328 2.23736ZM5.37598 5.17453C5.29013 5.17453 5.20781 5.20863 5.14711 5.26933C5.08641 5.33003 5.0523 5.41236 5.0523 5.4982V14.3825C5.0523 14.5613 5.19718 14.7062 5.37598 14.7062C5.55477 14.7062 5.69965 14.5613 5.69965 14.3825V5.4982C5.69965 5.41236 5.66555 5.33003 5.60485 5.26933C5.54415 5.20863 5.46182 5.17453 5.37598 5.17453Z" fill="#201B53" stroke="#201B53" stroke-width="0.12"/>
<path d="M17.377 4.18945H9.68457C9.61464 4.18945 9.54757 4.21723 9.49813 4.26668C9.44868 4.31613 9.4209 4.38319 9.4209 4.45312V6.39294C9.4209 6.46287 9.44868 6.52994 9.49813 6.57939C9.54757 6.62883 9.61464 6.65661 9.68457 6.65661H17.377C17.4469 6.65661 17.514 6.62883 17.5634 6.57939C17.6129 6.52994 17.6406 6.46287 17.6406 6.39294V4.45312C17.6406 4.38319 17.6129 4.31613 17.5634 4.26668C17.514 4.21723 17.4469 4.18945 17.377 4.18945ZM17.1133 6.12927H9.94824V4.7168H17.1133V6.12927ZM11.0856 7.39542C10.5841 7.39542 10.1761 7.80345 10.1761 8.30502C10.1761 8.80659 10.5841 9.21458 11.0856 9.21458C11.5872 9.21458 11.9952 8.80656 11.9952 8.30502C11.9952 7.80348 11.5871 7.39542 11.0856 7.39542ZM11.0856 8.6872C10.8749 8.6872 10.7034 8.51575 10.7034 8.30498C10.7034 8.09422 10.8749 7.92273 11.0856 7.92273C11.2964 7.92273 11.4678 8.09419 11.4678 8.30498C11.4678 8.51578 11.2964 8.6872 11.0856 8.6872ZM13.46 7.39542C12.9585 7.39542 12.5504 7.80345 12.5504 8.30502C12.5504 8.80659 12.9585 9.21458 13.46 9.21458C13.9615 9.21458 14.3696 8.80656 14.3696 8.30502C14.3696 7.80348 13.9615 7.39542 13.46 7.39542ZM13.46 8.6872C13.2492 8.6872 13.0778 8.51575 13.0778 8.30498C13.0778 8.09422 13.2492 7.92273 13.46 7.92273C13.6708 7.92273 13.8422 8.09419 13.8422 8.30498C13.8422 8.51578 13.6708 8.6872 13.46 8.6872ZM15.8343 7.39542C15.3328 7.39542 14.9248 7.80345 14.9248 8.30502C14.9248 8.80659 15.3328 9.21458 15.8343 9.21458C16.3359 9.21458 16.7439 8.80656 16.7439 8.30502C16.7439 7.80348 16.3359 7.39542 15.8343 7.39542ZM15.8343 8.6872C15.6236 8.6872 15.4521 8.51575 15.4521 8.30498C15.4521 8.09422 15.6236 7.92273 15.8343 7.92273C16.0451 7.92273 16.2166 8.09419 16.2166 8.30498C16.2166 8.51578 16.0451 8.6872 15.8343 8.6872ZM11.0856 9.43659C10.5841 9.43659 10.1761 9.84462 10.1761 10.3462C10.1761 10.8477 10.5841 11.2557 11.0856 11.2557C11.5872 11.2557 11.9952 10.8477 11.9952 10.3462C11.9952 9.84462 11.5871 9.43659 11.0856 9.43659ZM11.0856 10.7284C10.8749 10.7284 10.7034 10.5569 10.7034 10.3462C10.7034 10.1354 10.8749 9.96394 11.0856 9.96394C11.2964 9.96394 11.4678 10.1354 11.4678 10.3462C11.4678 10.5569 11.2964 10.7284 11.0856 10.7284ZM13.46 9.43659C12.9585 9.43659 12.5504 9.84462 12.5504 10.3462C12.5504 10.8477 12.9585 11.2557 13.46 11.2557C13.9615 11.2557 14.3696 10.8477 14.3696 10.3462C14.3696 9.84462 13.9615 9.43659 13.46 9.43659ZM13.46 10.7284C13.2492 10.7284 13.0778 10.5569 13.0778 10.3462C13.0778 10.1354 13.2492 9.96394 13.46 9.96394C13.6708 9.96394 13.8422 10.1354 13.8422 10.3462C13.8422 10.5569 13.6708 10.7284 13.46 10.7284ZM15.8343 9.43659C15.3328 9.43659 14.9248 9.84462 14.9248 10.3462C14.9248 10.8477 15.3328 11.2557 15.8343 11.2557C16.3359 11.2557 16.7439 10.8477 16.7439 10.3462C16.7439 9.84462 16.3359 9.43659 15.8343 9.43659ZM15.8343 10.7284C15.6236 10.7284 15.4521 10.5569 15.4521 10.3462C15.4521 10.1354 15.6236 9.96394 15.8343 9.96394C16.0451 9.96394 16.2166 10.1354 16.2166 10.3462C16.2166 10.5569 16.0451 10.7284 15.8343 10.7284ZM11.0856 11.4777C10.5841 11.4777 10.1761 11.8858 10.1761 12.3873C10.1761 12.8888 10.5841 13.2969 11.0856 13.2969C11.5872 13.2969 11.9952 12.8888 11.9952 12.3873C11.9952 11.8858 11.5871 11.4777 11.0856 11.4777ZM11.0856 12.7695C10.8749 12.7695 10.7034 12.5981 10.7034 12.3873C10.7034 12.1766 10.8749 12.0051 11.0856 12.0051C11.2964 12.0051 11.4678 12.1766 11.4678 12.3873C11.4678 12.5981 11.2964 12.7695 11.0856 12.7695ZM13.46 11.4777C12.9585 11.4777 12.5504 11.8858 12.5504 12.3873C12.5504 12.8888 12.9585 13.2969 13.46 13.2969C13.9615 13.2969 14.3696 12.8888 14.3696 12.3873C14.3696 11.8858 13.9615 11.4777 13.46 11.4777ZM13.46 12.7695C13.2492 12.7695 13.0778 12.5981 13.0778 12.3873C13.0778 12.1766 13.2492 12.0051 13.46 12.0051C13.6708 12.0051 13.8422 12.1766 13.8422 12.3873C13.8422 12.5981 13.6708 12.7695 13.46 12.7695ZM15.8343 11.4777C15.3328 11.4777 14.9248 11.8858 14.9248 12.3873C14.9248 12.8888 15.3328 13.2969 15.8343 13.2969C16.3359 13.2969 16.7439 12.8888 16.7439 12.3873C16.7439 11.8858 16.3359 11.4777 15.8343 11.4777ZM15.8343 12.7695C15.6236 12.7695 15.4521 12.5981 15.4521 12.3873C15.4521 12.1766 15.6236 12.0051 15.8343 12.0051C16.0451 12.0051 16.2166 12.1766 16.2166 12.3873C16.2166 12.5981 16.0451 12.7695 15.8343 12.7695ZM11.0856 13.5287C10.5841 13.5287 10.1761 13.9367 10.1761 14.4383C10.1761 14.9398 10.5841 15.3479 11.0856 15.3479C11.5872 15.3479 11.9952 14.9398 11.9952 14.4383C11.9952 13.9367 11.5871 13.5287 11.0856 13.5287ZM11.0856 14.8205C10.8749 14.8205 10.7034 14.649 10.7034 14.4382C10.7034 14.2274 10.8749 14.056 11.0856 14.056C11.2964 14.056 11.4678 14.2275 11.4678 14.4382C11.4678 14.649 11.2964 14.8205 11.0856 14.8205ZM13.46 13.5287C12.9585 13.5287 12.5504 13.9367 12.5504 14.4383C12.5504 14.9398 12.9585 15.3479 13.46 15.3479C13.9615 15.3479 14.3696 14.9398 14.3696 14.4383C14.3696 13.9367 13.9615 13.5287 13.46 13.5287ZM13.46 14.8205C13.2492 14.8205 13.0778 14.649 13.0778 14.4382C13.0778 14.2274 13.2492 14.056 13.46 14.056C13.6708 14.056 13.8422 14.2275 13.8422 14.4382C13.8422 14.649 13.6708 14.8205 13.46 14.8205ZM15.8343 13.5287C15.3328 13.5287 14.9248 13.9367 14.9248 14.4383C14.9248 14.9398 15.3328 15.3479 15.8343 15.3479C16.3359 15.3479 16.7439 14.9398 16.7439 14.4383C16.7439 13.9367 16.3359 13.5287 15.8343 13.5287ZM15.8343 14.8205C15.6236 14.8205 15.4521 14.649 15.4521 14.4382C15.4521 14.2274 15.6236 14.056 15.8343 14.056C16.0451 14.056 16.2166 14.2275 16.2166 14.4382C16.2166 14.649 16.0451 14.8205 15.8343 14.8205Z" fill="#201B53"/>
</svg>
