<svg width="22" height="20" viewBox="0 0 22 20" fill="none" xmlns="http://www.w3.org/2000/svg">
<g clip-path="url(#clip0_2018_30)">
<path d="M19.0949 6.53701H18.4545C18.8161 6.14985 19.0381 5.63067 19.0381 5.06037C19.0381 3.86625 18.0666 2.89476 16.8725 2.89476C15.6784 2.89476 14.7069 3.86625 14.7069 5.06037C14.7069 5.63067 14.9289 6.14985 15.2905 6.53701H13.2341V2.89776C13.2341 1.85133 12.3827 1 11.3363 1H2.89776C1.85133 1 1 1.85133 1 2.89776V11.4713C1 12.5178 1.85133 13.3691 2.89776 13.3691H11.3364C12.3828 13.3691 13.2341 12.5178 13.2341 11.4713V8.84404H14.3067V18.2999C14.3067 19.1019 14.9593 19.7545 15.7613 19.7545C16.2065 19.7545 16.6055 19.5535 16.8725 19.2375C17.1396 19.5535 17.5386 19.7545 17.9837 19.7545C18.7858 19.7545 19.4383 19.1019 19.4383 18.2999V13.9275C20.3255 13.7654 21 12.9867 21 12.0535V8.44203C20.9999 7.39165 20.1453 6.53701 19.0949 6.53701ZM15.3936 5.06037C15.3936 4.24488 16.057 3.58145 16.8725 3.58145C17.688 3.58145 18.3514 4.24488 18.3514 5.06037C18.3514 5.84904 17.7308 6.49538 16.9523 6.53701H16.7927C16.0142 6.49543 15.3936 5.84904 15.3936 5.06037ZM11.3364 12.6824H2.89776C2.22995 12.6824 1.68669 12.1391 1.68669 11.4713V2.89776C1.68669 2.22995 2.22995 1.68669 2.89776 1.68669H11.3364C12.0042 1.68669 12.5474 2.22995 12.5474 2.89776V6.20989L10.9039 5.02591C10.3877 4.65415 9.66546 4.77157 9.2937 5.28762C8.92194 5.80371 9.03932 6.52603 9.55541 6.89783L11.9567 8.62765C12.1319 8.75392 12.3341 8.82572 12.5474 8.84082V11.4713C12.5474 12.1391 12.0041 12.6824 11.3364 12.6824ZM20.3132 12.0535C20.3132 12.606 19.9433 13.0736 19.4382 13.2222V8.76065C19.4382 8.66959 19.4021 8.58226 19.3377 8.51787C19.2733 8.45348 19.186 8.41731 19.0949 8.41731C19.0038 8.41731 18.9165 8.45348 18.8521 8.51787C18.7877 8.58226 18.7516 8.66959 18.7516 8.76065V18.2998C18.7516 18.7232 18.4071 19.0677 17.9837 19.0677C17.5602 19.0677 17.2158 18.7233 17.2158 18.2998V13.6151C17.2158 13.524 17.1796 13.4367 17.1152 13.3723C17.0509 13.3079 16.9635 13.2717 16.8725 13.2717C16.7814 13.2717 16.6941 13.3079 16.6297 13.3723C16.5653 13.4367 16.5291 13.524 16.5291 13.6151V18.2998C16.5291 18.7232 16.1847 19.0677 15.7612 19.0677C15.3378 19.0677 14.9933 18.7233 14.9933 18.2998V8.50065C14.9933 8.40959 14.9572 8.32226 14.8928 8.25787C14.8284 8.19348 14.741 8.15731 14.65 8.15731H12.6522L12.6424 8.15744C12.5406 8.16071 12.4405 8.1301 12.3579 8.0704L9.95666 6.34058C9.74782 6.19015 9.70031 5.89783 9.85078 5.68891C10.0012 5.48007 10.2935 5.43256 10.5024 5.58303L12.69 7.15894C12.7484 7.20104 12.8186 7.22369 12.8907 7.22371H16.7849C16.814 7.22487 16.8431 7.22594 16.8725 7.22594C16.9019 7.22594 16.9309 7.22487 16.96 7.22371H19.0949C19.7667 7.22371 20.3132 7.77023 20.3132 8.44203V12.0535Z" fill="#F47817"/>
<path d="M9.21295 5.22907L9.29409 5.28752M9.21295 5.22907C8.80891 5.78997 8.93645 6.57478 9.49735 6.97887M9.21295 5.22907C9.61699 4.66821 10.4018 4.54064 10.9627 4.94467M9.49735 6.97887L9.5558 6.89773M9.49735 6.97887L11.8986 8.70868C12.0635 8.8275 12.2505 8.90196 12.4478 8.93049V11.4712C12.4478 12.0838 11.9493 12.5823 11.3368 12.5823H2.89815C2.28557 12.5823 1.78708 12.0838 1.78708 11.4712V2.89766C1.78708 2.28508 2.28557 1.78659 2.89815 1.78659H11.3368C11.9493 1.78659 12.4478 2.28508 12.4478 2.89766V6.01451L10.9627 4.94467M10.9627 4.94467L10.9048 5.02501M10.0155 6.25934L12.4169 7.98926C12.4816 8.03599 12.5599 8.05995 12.6396 8.05739L12.6415 8.05735L12.6513 8.05722L12.6526 8.0572L14.6504 8.05721C14.768 8.05721 14.8807 8.10392 14.9639 8.18706C15.047 8.2702 15.0937 8.38297 15.0937 8.50055V18.2997C15.0937 18.6679 15.3934 18.9676 15.7616 18.9676C16.1298 18.9676 16.4295 18.6679 16.4295 18.2997V13.615C16.4295 13.4974 16.4762 13.3846 16.5594 13.3015C16.6425 13.2184 16.7553 13.1716 16.8729 13.1716C16.9904 13.1716 17.1032 13.2184 17.1864 13.3015C17.2695 13.3846 17.3162 13.4974 17.3162 13.615V18.2997C17.3162 18.6679 17.6159 18.9676 17.9841 18.9676C18.3523 18.9676 18.652 18.6679 18.652 18.2997V8.76055C18.652 8.64297 18.6987 8.5302 18.7818 8.44706C18.8649 8.36392 18.9777 8.31721 19.0953 8.31721C19.2129 8.31721 19.3257 8.36392 19.4088 8.44706C19.4919 8.5302 19.5386 8.64297 19.5386 8.76055V13.0797C19.9355 12.9076 20.2136 12.5122 20.2136 12.0534V8.44193C20.2136 7.82536 19.7118 7.32361 19.0953 7.32361H16.9624C16.9339 7.32474 16.9038 7.32584 16.8729 7.32584C16.842 7.32584 16.8118 7.32474 16.7833 7.32361H12.8911C12.7981 7.32359 12.7073 7.29433 12.6319 7.23998L10.4444 5.66407C10.2803 5.54587 10.0505 5.58324 9.93231 5.74725C9.8141 5.91138 9.85148 6.1412 10.0155 6.25934ZM10.0155 6.25934L9.95705 6.34048M19.0953 6.43691H18.6706C18.9637 6.05522 19.1385 5.57786 19.1385 5.06027C19.1385 3.81093 18.1222 2.79466 16.8729 2.79466C15.6236 2.79466 14.6073 3.81093 14.6073 5.06027C14.6073 5.57786 14.7821 6.05522 15.0752 6.43691H13.3345V2.89766C13.3345 1.796 12.4384 0.899902 11.3367 0.899902H2.89815C1.79649 0.899902 0.900391 1.796 0.900391 2.89766V11.4712C0.900391 12.5729 1.79649 13.469 2.89815 13.469H11.3368C12.4384 13.469 13.3345 12.5729 13.3345 11.4712V8.94394H14.2071V18.2998C14.2071 19.1571 14.9044 19.8544 15.7617 19.8544C16.1968 19.8544 16.5907 19.6746 16.873 19.386C17.1552 19.6746 17.5491 19.8544 17.9841 19.8544C18.8414 19.8544 19.5387 19.1571 19.5387 18.2998V14.0089C20.4317 13.8066 21.1004 13.0068 21.1004 12.0534V8.44193C21.1003 7.33632 20.201 6.43691 19.0953 6.43691ZM15.494 5.06027C15.494 4.30001 16.1126 3.68135 16.8729 3.68135C17.6331 3.68135 18.2518 4.30001 18.2518 5.06027C18.2518 5.79457 17.6745 6.3968 16.95 6.43691H16.7958C16.0713 6.39684 15.494 5.79458 15.494 5.06027Z" stroke="#F47817" stroke-width="0.2"/>
<path d="M7.97031 3.7752C7.97031 3.45763 7.71288 3.2002 7.39531 3.2002C7.07775 3.2002 6.82031 3.45763 6.82031 3.7752V8.1252C6.82031 8.44276 7.07775 8.7002 7.39531 8.7002C7.71288 8.7002 7.97031 8.44276 7.97031 8.1252V3.7752Z" fill="#F47817" fill-opacity="0.4"/>
<path d="M6.6002 5.575C6.6002 5.25744 6.34276 5 6.0252 5C5.70763 5 5.4502 5.25744 5.4502 5.575V7.925C5.4502 8.24256 5.70763 8.5 6.0252 8.5C6.34276 8.5 6.6002 8.24256 6.6002 7.925V5.575Z" fill="#F47817" fill-opacity="0.4"/>
<path d="M5.30039 5.3748C5.30039 5.05724 5.04295 4.7998 4.72539 4.7998C4.40783 4.7998 4.15039 5.05724 4.15039 5.3748V7.7248C4.15039 8.04237 4.40783 8.2998 4.72539 8.2998C5.04295 8.2998 5.30039 8.04237 5.30039 7.7248V5.3748Z" fill="#F47817" fill-opacity="0.4"/>
<path d="M3.9498 6.6751C3.9498 6.35753 3.69237 6.1001 3.3748 6.1001C3.05724 6.1001 2.7998 6.35753 2.7998 6.6751V7.7251C2.7998 8.04266 3.05724 8.3001 3.3748 8.3001C3.69237 8.3001 3.9498 8.04266 3.9498 7.7251V6.6751Z" fill="#F47817" fill-opacity="0.4"/>
</g>
<defs>
<clipPath id="clip0_2018_30">
<rect width="22" height="20" fill="white"/>
</clipPath>
</defs>
</svg>
