<svg width="22" height="20" viewBox="0 0 22 20" fill="none" xmlns="http://www.w3.org/2000/svg">
<path d="M19.0949 6.53701H18.4545C18.8161 6.14985 19.0381 5.63067 19.0381 5.06037C19.0381 3.86625 18.0666 2.89476 16.8725 2.89476C15.6784 2.89476 14.7069 3.86625 14.7069 5.06037C14.7069 5.63067 14.9289 6.14985 15.2905 6.53701H13.2341V2.89776C13.2341 1.85133 12.3827 1 11.3363 1H2.89776C1.85133 1 1 1.85133 1 2.89776V11.4713C1 12.5178 1.85133 13.3691 2.89776 13.3691H11.3364C12.3828 13.3691 13.2341 12.5178 13.2341 11.4713V8.84404H14.3067V18.2999C14.3067 19.1019 14.9593 19.7545 15.7613 19.7545C16.2065 19.7545 16.6055 19.5535 16.8725 19.2375C17.1396 19.5535 17.5386 19.7545 17.9837 19.7545C18.7858 19.7545 19.4383 19.1019 19.4383 18.2999V13.9275C20.3255 13.7654 21 12.9867 21 12.0535V8.44203C20.9999 7.39165 20.1453 6.53701 19.0949 6.53701ZM15.3936 5.06037C15.3936 4.24488 16.057 3.58145 16.8725 3.58145C17.688 3.58145 18.3514 4.24488 18.3514 5.06037C18.3514 5.84904 17.7308 6.49538 16.9523 6.53701H16.7927C16.0142 6.49543 15.3936 5.84904 15.3936 5.06037ZM11.3364 12.6824H2.89776C2.22995 12.6824 1.68669 12.1391 1.68669 11.4713V2.89776C1.68669 2.22995 2.22995 1.68669 2.89776 1.68669H11.3364C12.0042 1.68669 12.5474 2.22995 12.5474 2.89776V6.20989L10.9039 5.02591C10.3877 4.65415 9.66546 4.77157 9.2937 5.28762C8.92194 5.80371 9.03932 6.52603 9.55541 6.89783L11.9567 8.62765C12.1319 8.75392 12.3341 8.82572 12.5474 8.84082V11.4713C12.5474 12.1391 12.0041 12.6824 11.3364 12.6824ZM20.3132 12.0535C20.3132 12.606 19.9433 13.0736 19.4382 13.2222V8.76065C19.4382 8.66959 19.4021 8.58226 19.3377 8.51787C19.2733 8.45348 19.186 8.41731 19.0949 8.41731C19.0038 8.41731 18.9165 8.45348 18.8521 8.51787C18.7877 8.58226 18.7516 8.66959 18.7516 8.76065V18.2998C18.7516 18.7232 18.4071 19.0677 17.9837 19.0677C17.5602 19.0677 17.2158 18.7233 17.2158 18.2998V13.6151C17.2158 13.524 17.1796 13.4367 17.1152 13.3723C17.0509 13.3079 16.9635 13.2717 16.8725 13.2717C16.7814 13.2717 16.6941 13.3079 16.6297 13.3723C16.5653 13.4367 16.5291 13.524 16.5291 13.6151V18.2998C16.5291 18.7232 16.1847 19.0677 15.7612 19.0677C15.3378 19.0677 14.9933 18.7233 14.9933 18.2998V8.50065C14.9933 8.40959 14.9572 8.32226 14.8928 8.25787C14.8284 8.19348 14.741 8.15731 14.65 8.15731H12.6522L12.6424 8.15744C12.5406 8.16071 12.4405 8.1301 12.3579 8.0704L9.95666 6.34058C9.74782 6.19015 9.70031 5.89783 9.85078 5.68891C10.0012 5.48007 10.2935 5.43256 10.5024 5.58303L12.69 7.15894C12.7484 7.20104 12.8186 7.22369 12.8907 7.22371H16.7849C16.814 7.22487 16.8431 7.22594 16.8725 7.22594C16.9019 7.22594 16.9309 7.22487 16.96 7.22371H19.0949C19.7667 7.22371 20.3132 7.77023 20.3132 8.44203V12.0535Z" fill="white"/>
<path d="M9.21256 5.22917L9.2937 5.28762L9.21256 5.22917C8.80852 5.79007 8.93606 6.57488 9.49696 6.97897L9.55541 6.89783L9.49696 6.97897L11.8982 8.70878C12.0631 8.8276 12.2501 8.90206 12.4474 8.93059V11.4713C12.4474 12.0839 11.9489 12.5824 11.3364 12.5824H2.89776C2.28518 12.5824 1.78669 12.0839 1.78669 11.4713V2.89776C1.78669 2.28518 2.28518 1.78669 2.89776 1.78669H11.3364C11.9489 1.78669 12.4474 2.28518 12.4474 2.89776V6.01461L10.9623 4.94477L10.9044 5.02511L10.9623 4.94476C10.4014 4.54073 9.6166 4.66831 9.21256 5.22917ZM19.5382 13.0798V8.76065C19.5382 8.64307 19.4915 8.5303 19.4084 8.44716C19.3253 8.36402 19.2125 8.31731 19.0949 8.31731C18.9773 8.31731 18.8645 8.36402 18.7814 8.44716C18.6983 8.5303 18.6516 8.64307 18.6516 8.76065V18.2998C18.6516 18.668 18.3519 18.9677 17.9837 18.9677C17.6155 18.9677 17.3158 18.668 17.3158 18.2998V13.6151C17.3158 13.4975 17.2691 13.3847 17.186 13.3016C17.1028 13.2185 16.99 13.1717 16.8725 13.1717C16.7549 13.1717 16.6421 13.2185 16.559 13.3016C16.4758 13.3847 16.4291 13.4975 16.4291 13.6151V18.2998C16.4291 18.668 16.1294 18.9677 15.7612 18.9677C15.393 18.9677 15.0933 18.668 15.0933 18.2998V8.50065C15.0933 8.38307 15.0466 8.2703 14.9635 8.18716C14.8803 8.10402 14.7676 8.05731 14.65 8.05731L12.6522 8.0573L12.6509 8.05732L12.6411 8.05745V8.05743L12.6392 8.05749C12.5595 8.06005 12.4812 8.03609 12.4165 7.98936L12.4164 7.98926L10.0151 6.25944L9.95666 6.34058L10.0151 6.25944C9.85109 6.1413 9.81371 5.91148 9.93192 5.74735C10.0501 5.58334 10.2799 5.54597 10.444 5.66417L12.6315 7.24008L12.6316 7.24009C12.707 7.29444 12.7977 7.32369 12.8907 7.32371H12.8907H16.7829C16.8114 7.32484 16.8416 7.32594 16.8725 7.32594C16.9034 7.32594 16.9335 7.32484 16.962 7.32371H19.0949C19.7114 7.32371 20.2132 7.82546 20.2132 8.44203V12.0535C20.2132 12.5123 19.9351 12.9077 19.5382 13.0798ZM19.0949 6.43701H18.6702C18.9633 6.05532 19.1381 5.57796 19.1381 5.06037C19.1381 3.81103 18.1218 2.79476 16.8725 2.79476C15.6232 2.79476 14.6069 3.81103 14.6069 5.06037C14.6069 5.57796 14.7817 6.05532 15.0748 6.43701H13.3341V2.89776C13.3341 1.7961 12.438 0.9 11.3363 0.9H2.89776C1.7961 0.9 0.9 1.7961 0.9 2.89776V11.4713C0.9 12.573 1.7961 13.4691 2.89776 13.4691H11.3364C12.438 13.4691 13.3341 12.573 13.3341 11.4713V8.94404H14.2067V18.2999C14.2067 19.1572 14.904 19.8545 15.7613 19.8545C16.1964 19.8545 16.5903 19.6747 16.8726 19.3861C17.1548 19.6747 17.5487 19.8545 17.9837 19.8545C18.841 19.8545 19.5383 19.1572 19.5383 18.2999V14.009C20.4313 13.8067 21.1 13.0069 21.1 12.0535V8.44203C21.0999 7.33642 20.2006 6.43701 19.0949 6.43701ZM15.4936 5.06037C15.4936 4.30011 16.1122 3.68145 16.8725 3.68145C17.6327 3.68145 18.2514 4.30011 18.2514 5.06037C18.2514 5.79467 17.6741 6.3969 16.9496 6.43701H16.7954C16.0709 6.39694 15.4936 5.79468 15.4936 5.06037Z" stroke="white" stroke-width="0.2"/>
<rect x="6.82031" y="3.2002" width="1.15" height="5.5" rx="0.575" fill="white" fill-opacity="0.4"/>
<rect x="5.4502" y="5" width="1.15" height="3.5" rx="0.575" fill="white" fill-opacity="0.4"/>
<rect x="4.15039" y="4.7998" width="1.15" height="3.5" rx="0.575" fill="white" fill-opacity="0.4"/>
<rect x="2.7998" y="6.1001" width="1.15" height="2.2" rx="0.575" fill="white" fill-opacity="0.4"/>
</svg>
