<svg width="17" height="20" viewBox="0 0 17 20" fill="none" xmlns="http://www.w3.org/2000/svg">
<path d="M14.6875 2.5H11.25V1.875C11.25 0.841133 10.4089 0 9.375 0H6.875C5.84113 0 5 0.841133 5 1.875V2.5H1.5625C0.700938 2.5 0 3.20094 0 4.0625V6.25C0 6.59516 0.279844 6.875 0.625 6.875H0.966563L1.50652 18.2142C1.55422 19.2156 2.37687 20 3.37937 20H12.8706C13.8732 20 14.6958 19.2156 14.7435 18.2142L15.2834 6.875H15.625C15.9702 6.875 16.25 6.59516 16.25 6.25V4.0625C16.25 3.20094 15.5491 2.5 14.6875 2.5ZM6.25 1.875C6.25 1.53039 6.53039 1.25 6.875 1.25H9.375C9.71961 1.25 10 1.53039 10 1.875V2.5H6.25V1.875ZM1.25 4.0625C1.25 3.8902 1.3902 3.75 1.5625 3.75H14.6875C14.8598 3.75 15 3.8902 15 4.0625V5.625H1.25V4.0625ZM13.4949 18.1547C13.4874 18.3152 13.4184 18.4667 13.3021 18.5775C13.1858 18.6884 13.0313 18.7502 12.8706 18.75H3.37937C3.21871 18.7502 3.06416 18.6884 2.94789 18.5775C2.83161 18.4667 2.76257 18.3152 2.75512 18.1547L2.21797 6.875H14.032L13.4949 18.1547Z" fill="#4A4674"/>
<path opacity="0.4" d="M8.125 17.5C8.47016 17.5 8.75 17.2202 8.75 16.875V8.75C8.75 8.40484 8.47016 8.125 8.125 8.125C7.77984 8.125 7.5 8.40484 7.5 8.75V16.875C7.5 17.2202 7.7798 17.5 8.125 17.5ZM11.25 17.5C11.5952 17.5 11.875 17.2202 11.875 16.875V8.75C11.875 8.40484 11.5952 8.125 11.25 8.125C10.9048 8.125 10.625 8.40484 10.625 8.75V16.875C10.625 17.2202 10.9048 17.5 11.25 17.5ZM5 17.5C5.34516 17.5 5.625 17.2202 5.625 16.875V8.75C5.625 8.40484 5.34516 8.125 5 8.125C4.65484 8.125 4.375 8.40484 4.375 8.75V16.875C4.375 17.2202 4.6548 17.5 5 17.5Z" fill="#4A4674"/>
</svg>
