<svg width="20" height="20" viewBox="0 0 20 20" fill="none" xmlns="http://www.w3.org/2000/svg">
<path d="M8.37428 2.10922L3.35762 5.38422C1.74928 6.43422 1.74928 8.78422 3.35762 9.83422L8.37428 13.1092C9.27428 13.7009 10.7576 13.7009 11.6576 13.1092L16.6493 9.83422C18.2493 8.78422 18.2493 6.44255 16.6493 5.39255L11.6576 2.11755C10.7576 1.51755 9.27428 1.51755 8.37428 2.10922Z" stroke="#F47817" stroke-width="1.5" stroke-linecap="round" stroke-linejoin="round"/>
<path opacity="0.4" d="M4.69193 10.8983L4.68359 14.8067C4.68359 15.865 5.50026 16.9983 6.50026 17.3317L9.15859 18.215C9.61693 18.365 10.3752 18.365 10.8419 18.215L13.5002 17.3317C14.5002 16.9983 15.3169 15.865 15.3169 14.8067V10.94M17.8311 12.5V7.5" stroke="#F47817" stroke-width="1.5" stroke-linecap="round" stroke-linejoin="round"/>
</svg>
