<svg width="20" height="20" viewBox="0 0 20 20" fill="none" xmlns="http://www.w3.org/2000/svg">
<g clip-path="url(#clip0_171_9)">
<path d="M12.3667 18.9493L12.4076 18.9055L12.3667 18.9493C12.5335 19.105 12.7939 19.0948 12.9484 18.9293C13.1035 18.7631 13.0945 18.5027 12.9283 18.3476L12.8889 18.3898L12.9283 18.3476L10.4116 15.9986V15.962C10.4116 15.6262 10.4116 14.09 10.4115 13.765H17.9453C18.56 13.765 19.06 13.2651 19.06 12.6504V12.6446C19.06 12.0486 18.5899 11.5604 18.001 11.5313V3.17373C18.5899 3.14463 19.06 2.65644 19.06 2.06042V2.05469C19.06 1.44 18.56 0.94 17.9453 0.94H2.05469C1.44 0.94 0.94 1.44 0.94 2.05469V2.06042C0.94 2.65644 1.41009 3.14463 1.99901 3.17373V11.5313C1.41009 11.5604 0.94 12.0486 0.94 12.6446V12.6504C0.94 13.2651 1.44 13.765 2.05469 13.765H9.58848C9.58841 14.0992 9.58844 15.7144 9.58844 15.9986L7.07171 18.3475C6.90552 18.5026 6.89655 18.7631 7.05167 18.9293C7.20679 19.0954 7.46722 19.1044 7.63337 18.9493L10 16.7404L12.3667 18.9493ZM1.76313 2.06042V2.05469C1.76313 1.89397 1.89397 1.76313 2.05469 1.76313H17.9453C18.106 1.76313 18.2369 1.89397 18.2369 2.05469V2.06042C18.2369 2.22113 18.106 2.35198 17.9453 2.35198H2.05469C1.89397 2.35198 1.76313 2.22113 1.76313 2.06042ZM18.2369 12.6446V12.6504C18.2369 12.8111 18.106 12.9419 17.9453 12.9419H2.05469C1.89397 12.9419 1.76313 12.8111 1.76313 12.6504V12.6446C1.76313 12.4839 1.89397 12.3531 2.05469 12.3531H17.9453C18.106 12.3531 18.2369 12.4839 18.2369 12.6446ZM17.1779 11.5299H2.82214V3.17511H17.1779L17.1779 11.5299Z" fill="white" stroke="white" stroke-width="0.12"/>
<path opacity="0.4" d="M4.17554 5.94082H8.41151C8.63882 5.94082 8.82308 5.75653 8.82308 5.52926C8.82308 5.302 8.63882 5.1177 8.41151 5.1177H4.17554C3.94823 5.1177 3.76397 5.302 3.76397 5.52926C3.76397 5.75653 3.94823 5.94082 4.17554 5.94082ZM4.17554 7.82348H8.41151C8.63882 7.82348 8.82308 7.63918 8.82308 7.41191C8.82308 7.18465 8.63882 7.00035 8.41151 7.00035H4.17554C3.94823 7.00035 3.76397 7.18461 3.76397 7.41191C3.76397 7.63922 3.94823 7.82348 4.17554 7.82348ZM4.17554 9.70616H8.41151C8.63882 9.70616 8.82308 9.52191 8.82308 9.2946C8.82308 9.0673 8.63882 8.88304 8.41151 8.88304H4.17554C3.94823 8.88304 3.76397 9.06734 3.76397 9.2946C3.76397 9.52187 3.94823 9.70616 4.17554 9.70616ZM13.0005 10.5888C14.7846 10.5888 16.236 9.13739 16.236 7.35329C16.236 5.56913 14.7846 4.11773 13.0005 4.11773C11.2163 4.11773 9.7649 5.56913 9.7649 7.35329C9.76494 9.13739 11.2163 10.5888 13.0005 10.5888ZM15.4129 7.35326C15.4129 8.68341 14.3306 9.76566 13.0005 9.76566C11.8107 9.76566 10.8195 8.89963 10.6236 7.76482H13.0005C13.2278 7.76482 13.412 7.58052 13.412 7.35326V4.97645C14.5468 5.17238 15.4129 6.16349 15.4129 7.35326ZM10.6237 6.94173C10.7965 5.94083 11.5881 5.14925 12.5889 4.97645V6.94173H10.6237Z" fill="white" stroke="white" stroke-width="0.12"/>
</g>
<defs>
<clipPath id="clip0_171_9">
<rect width="20" height="20" fill="white"/>
</clipPath>
</defs>
</svg>
