<svg width="64" height="64" viewBox="0 0 64 64" fill="none" xmlns="http://www.w3.org/2000/svg">
<g clip-path="url(#clip0_169_1429)">
<path fill-rule="evenodd" clip-rule="evenodd" d="M25.2306 10.4416C26.6585 10.4416 28.458 10.2576 29.4075 12.1786L33.0802 19.6272H59.2896V5.15319C59.2896 2.88994 57.4385 1.03882 55.1754 1.03882H9.69335C7.4301 1.03882 5.5791 2.88994 5.5791 5.15319V10.4416H25.2306Z" fill="#EFF6FF"/>
<path fill-rule="evenodd" clip-rule="evenodd" d="M29.4074 10.8795C28.4579 8.96209 26.6584 9.14246 25.2305 9.14246H4.74363C2.1345 9.14246 0 11.277 0 13.8898V53.5362C0 56.1455 2.1345 58.28 4.74363 58.28H18.2237H57.5636H59.2565C61.8656 58.28 64.0001 56.1455 64.0001 53.5362V22.6707C64.0001 19.6162 61.8546 18.3355 59.2896 18.3281H33.0801L29.4074 10.8795Z" fill="#FFD772"/>
<path fill-rule="evenodd" clip-rule="evenodd" d="M59.2899 18.3284H43.749C43.9845 18.7552 44.209 19.1895 44.4335 19.6275C46.2146 23.1679 47.5836 27.1166 48.4448 31.3525H50.9766C51.3594 31.3525 51.6721 31.6654 51.6721 32.048V58.2801H57.5639H59.2568C61.8659 58.2801 64.0004 56.1456 64.0004 53.5364V22.6709C64.0004 19.6164 61.8549 18.3356 59.2899 18.3284Z" fill="#FBBA58"/>
<path fill-rule="evenodd" clip-rule="evenodd" d="M43.009 31.3523H20.9913L17.7344 47.4825L20.9913 62.9613H43.009L45.7139 46.5035L43.009 31.3523Z" fill="#EFF6FF"/>
<path fill-rule="evenodd" clip-rule="evenodd" d="M43.0089 31.3523H36.9736C41.1358 39.8682 41.0621 54.6073 37.2533 62.9612H43.0089C43.0089 52.4249 43.0089 41.8887 43.0089 31.3523Z" fill="#D9EEFF"/>
<path fill-rule="evenodd" clip-rule="evenodd" d="M20.991 31.3523H13.0236C12.6409 31.3523 12.3281 31.6652 12.3281 32.0478V62.2657C12.3281 62.6484 12.6409 62.9612 13.0236 62.9612H20.991V31.3523Z" fill="#375E7D"/>
<path fill-rule="evenodd" clip-rule="evenodd" d="M43.0088 31.3523H50.9762C51.3589 31.3523 51.6717 31.6652 51.6717 32.0478V62.2657C51.6717 62.6484 51.3589 62.9612 50.9762 62.9612H43.0088V31.3523Z" fill="#375E7D"/>
<path d="M47.8441 36.8336H46.8359C46.3024 36.8336 45.8701 36.4012 45.8701 35.8678C45.8701 35.3345 46.3025 34.9021 46.8359 34.9021H47.8441C48.3776 34.9021 48.8099 35.3345 48.8099 35.8678C48.8099 36.4012 48.3776 36.8336 47.8441 36.8336Z" fill="#2B4D66"/>
<path d="M47.8441 41.3492H46.8359C46.3024 41.3492 45.8701 40.9168 45.8701 40.3835C45.8701 39.85 46.3025 39.4177 46.8359 39.4177H47.8441C48.3776 39.4177 48.8099 39.8501 48.8099 40.3835C48.8099 40.9168 48.3776 41.3492 47.8441 41.3492Z" fill="#2B4D66"/>
<path d="M47.8441 45.8648H46.8359C46.3024 45.8648 45.8701 45.4325 45.8701 44.8991C45.8701 44.3656 46.3025 43.9333 46.8359 43.9333H47.8441C48.3776 43.9333 48.8099 44.3657 48.8099 44.8991C48.8099 45.4325 48.3776 45.8648 47.8441 45.8648Z" fill="#2B4D66"/>
<path d="M47.8441 50.3805H46.8359C46.3024 50.3805 45.8701 49.9481 45.8701 49.4147C45.8701 48.8813 46.3025 48.449 46.8359 48.449H47.8441C48.3776 48.449 48.8099 48.8813 48.8099 49.4147C48.8099 49.9481 48.3776 50.3805 47.8441 50.3805Z" fill="#2B4D66"/>
<path d="M47.8441 54.8959H46.8359C46.3024 54.8959 45.8701 54.4635 45.8701 53.9301C45.8701 53.3966 46.3025 52.9644 46.8359 52.9644H47.8441C48.3776 52.9644 48.8099 53.3967 48.8099 53.9301C48.8099 54.4635 48.3776 54.8959 47.8441 54.8959Z" fill="#2B4D66"/>
<path d="M47.8441 59.4115H46.8359C46.3024 59.4115 45.8701 58.9791 45.8701 58.4457C45.8701 57.9122 46.3025 57.48 46.8359 57.48H47.8441C48.3776 57.48 48.8099 57.9124 48.8099 58.4457C48.8099 58.9791 48.3776 59.4115 47.8441 59.4115Z" fill="#2B4D66"/>
<path d="M17.1635 36.8336H16.1552C15.6217 36.8336 15.1895 36.4012 15.1895 35.8678C15.1895 35.3345 15.6218 34.9021 16.1552 34.9021H17.1635C17.697 34.9021 18.1292 35.3345 18.1292 35.8678C18.1292 36.4012 17.6968 36.8336 17.1635 36.8336Z" fill="#2B4D66"/>
<path d="M17.1635 41.3492H16.1552C15.6217 41.3492 15.1895 40.9168 15.1895 40.3835C15.1895 39.85 15.6218 39.4177 16.1552 39.4177H17.1635C17.697 39.4177 18.1292 39.8501 18.1292 40.3835C18.1292 40.9168 17.6968 41.3492 17.1635 41.3492Z" fill="#2B4D66"/>
<path d="M17.1635 45.8648H16.1552C15.6217 45.8648 15.1895 45.4325 15.1895 44.8991C15.1895 44.3656 15.6218 43.9333 16.1552 43.9333H17.1635C17.697 43.9333 18.1292 44.3657 18.1292 44.8991C18.1292 45.4325 17.6968 45.8648 17.1635 45.8648Z" fill="#2B4D66"/>
<path d="M17.1635 50.3805H16.1552C15.6217 50.3805 15.1895 49.9481 15.1895 49.4147C15.1895 48.8813 15.6218 48.449 16.1552 48.449H17.1635C17.697 48.449 18.1292 48.8813 18.1292 49.4147C18.1292 49.9481 17.6968 50.3805 17.1635 50.3805Z" fill="#2B4D66"/>
<path d="M17.1635 54.8959H16.1552C15.6217 54.8959 15.1895 54.4635 15.1895 53.9301C15.1895 53.3966 15.6218 52.9644 16.1552 52.9644H17.1635C17.697 52.9644 18.1292 53.3967 18.1292 53.9301C18.1292 54.4635 17.6968 54.8959 17.1635 54.8959Z" fill="#2B4D66"/>
<path d="M17.1635 59.4115H16.1552C15.6217 59.4115 15.1895 58.9791 15.1895 58.4457C15.1895 57.9122 15.6218 57.48 16.1552 57.48H17.1635C17.697 57.48 18.1292 57.9124 18.1292 58.4457C18.1292 58.9791 17.6968 59.4115 17.1635 59.4115Z" fill="black"/>
<path d="M17.1635 59.4115H16.1552C15.6217 59.4115 15.1895 58.9791 15.1895 58.4457C15.1895 57.9122 15.6218 57.48 16.1552 57.48H17.1635C17.697 57.48 18.1292 57.9124 18.1292 58.4457C18.1292 58.9791 17.6968 59.4115 17.1635 59.4115Z" fill="#2B4D66"/>
<path fill-rule="evenodd" clip-rule="evenodd" d="M47.2339 12.9294H30.416L33.0804 18.3282H43.7489H59.2898V5.15319C59.2898 2.88994 57.4386 1.03882 55.1755 1.03882H49.902C54.0494 8.36232 51.8929 12.9294 47.2339 12.9294Z" fill="#D9EEFF"/>
<path fill-rule="evenodd" clip-rule="evenodd" d="M36.3702 47.4902L27.633 52.6065C27.378 52.7456 27.0625 52.5613 27.0625 52.2665V42.047C27.0625 41.7495 27.387 41.5627 27.6445 41.7147L31.3314 43.8756L33.2822 45.0178L36.3676 46.8258C36.6214 46.9738 36.6226 47.3395 36.3702 47.4902Z" fill="#EB5468"/>
<path fill-rule="evenodd" clip-rule="evenodd" d="M36.3702 47.4902L27.633 52.6065C27.378 52.7456 27.0625 52.5614 27.0625 52.2665V51.0521C29.3045 49.9227 30.9708 47.1876 31.3314 43.8755L33.2822 45.0177L36.3676 46.8257C36.6214 46.9739 36.6226 47.3395 36.3702 47.4902Z" fill="#E5384F"/>
</g>
<defs>
<clipPath id="clip0_169_1429">
<rect width="64" height="64" fill="white"/>
</clipPath>
</defs>
</svg>
