<svg width="64" height="64" viewBox="0 0 64 64" fill="none" xmlns="http://www.w3.org/2000/svg">
<g clip-path="url(#clip0_169_1419)">
<path d="M40.6667 0H7.33333C3.28 0 0 3.28 0 7.33333V51.3333C0 55.3867 3.28 58.6667 7.33333 58.6667H40.56C40.1867 57.3867 40 56.0533 40 54.6667V40.6667C40 35.6 43.3867 31.28 48 29.84V7.33333C48 3.28 44.72 0 40.6667 0Z" fill="#ECEFF1"/>
<path d="M37.3333 39.9998H10.6667C9.192 39.9998 8 38.8052 8 37.3332C8 35.8612 9.192 34.6665 10.6667 34.6665H37.3333C38.808 34.6665 40 35.8612 40 37.3332C40 38.8052 38.808 39.9998 37.3333 39.9998Z" fill="#90A4AE"/>
<path d="M37.3333 29.3333H10.6667C9.192 29.3333 8 28.1387 8 26.6667C8 25.1947 9.192 24 10.6667 24H37.3333C38.808 24 40 25.1947 40 26.6667C40 28.1387 38.808 29.3333 37.3333 29.3333Z" fill="#90A4AE"/>
<path d="M24 18.6666H10.6667C9.192 18.6666 8 17.4719 8 15.9999C8 14.5279 9.192 13.3333 10.6667 13.3333H24C25.4747 13.3333 26.6667 14.5279 26.6667 15.9999C26.6667 17.4719 25.4747 18.6666 24 18.6666Z" fill="#90A4AE"/>
<path d="M54.6663 64.0001C49.5197 64.0001 45.333 59.8134 45.333 54.6667V40.6667C45.333 37.3574 48.0263 34.6667 51.333 34.6667C54.6397 34.6667 57.333 37.3574 57.333 40.6667V54.0001C57.333 55.1041 56.437 56.0001 55.333 56.0001C54.229 56.0001 53.333 55.1041 53.333 54.0001V40.6667C53.333 39.5627 52.4343 38.6667 51.333 38.6667C50.2317 38.6667 49.333 39.5627 49.333 40.6667V54.6667C49.333 57.6081 51.725 60.0001 54.6663 60.0001C57.6077 60.0001 59.9997 57.6081 59.9997 54.6667V36.6667C59.9997 35.5627 60.8957 34.6667 61.9997 34.6667C63.1037 34.6667 63.9997 35.5627 63.9997 36.6667V54.6667C63.9997 59.8134 59.813 64.0001 54.6663 64.0001Z" fill="#2196F3"/>
</g>
<defs>
<clipPath id="clip0_169_1419">
<rect width="64" height="64" fill="white"/>
</clipPath>
</defs>
</svg>
