<svg width="18" height="17" viewBox="0 0 18 17" fill="none" xmlns="http://www.w3.org/2000/svg">
<path d="M17.7169 12.9677L10.8418 1.06284C10.6553 0.739691 10.3869 0.471351 10.0637 0.284785C9.74057 0.0982187 9.374 0 9.00085 0C8.6277 0 8.26113 0.0982187 7.93797 0.284785C7.61481 0.471351 7.34644 0.739691 7.15985 1.06284L0.284812 12.9677C0.0981586 13.291 -7.21698e-05 13.6577 3.97823e-08 14.031C7.22494e-05 14.4043 0.0984449 14.771 0.285223 15.0942C0.472002 15.4175 0.7406 15.6858 1.064 15.8723C1.3874 16.0587 1.7542 16.1568 2.12751 16.1565H15.8742C16.2474 16.1565 16.6139 16.0582 16.9371 15.8716C17.2603 15.685 17.5286 15.4167 17.7152 15.0935C17.9018 14.7703 18 14.4038 18 14.0306C18 13.6574 17.9018 13.2908 17.7152 12.9677H17.7169Z" fill="url(#paint0_linear_2589_147)"/>
<path d="M9.0004 11.0546C9.22318 11.0556 9.43829 10.9733 9.60349 10.8238C9.76869 10.6744 9.87204 10.4685 9.89326 10.2468L10.395 5.22973C10.4128 5.05218 10.3932 4.87287 10.3374 4.70337C10.2816 4.53388 10.1909 4.37798 10.0711 4.24574C9.95126 4.11351 9.80503 4.00788 9.64184 3.93569C9.47866 3.86351 9.30214 3.82636 9.1237 3.82666H8.8771C8.69883 3.82666 8.52255 3.86402 8.35962 3.93634C8.19668 4.00866 8.05072 4.11433 7.93114 4.24653C7.81155 4.37873 7.72101 4.53453 7.66534 4.70388C7.60968 4.87323 7.59013 5.05236 7.60796 5.22973L8.10966 10.2468C8.13084 10.4682 8.23389 10.6737 8.39865 10.8231C8.5634 10.9725 8.77798 11.0551 9.0004 11.0546Z" fill="url(#paint1_linear_2589_147)"/>
<path d="M9.0008 14.4557C9.82266 14.4557 10.4889 13.7895 10.4889 12.9676C10.4889 12.1457 9.82266 11.4795 9.0008 11.4795C8.17894 11.4795 7.5127 12.1457 7.5127 12.9676C7.5127 13.7895 8.17894 14.4557 9.0008 14.4557Z" fill="url(#paint2_linear_2589_147)"/>
<defs>
<linearGradient id="paint0_linear_2589_147" x1="3.95575" y1="6.94553" x2="16.6654" y2="15.8967" gradientUnits="userSpaceOnUse">
<stop stop-color="#FED200"/>
<stop offset="1" stop-color="#F59815"/>
</linearGradient>
<linearGradient id="paint1_linear_2589_147" x1="7.43491" y1="4.92701" x2="10.5098" y2="9.4028" gradientUnits="userSpaceOnUse">
<stop stop-color="#3E4154"/>
<stop offset="1" stop-color="#1B2129"/>
</linearGradient>
<linearGradient id="paint2_linear_2589_147" x1="8.05649" y1="12.0233" x2="9.88346" y2="13.8503" gradientUnits="userSpaceOnUse">
<stop stop-color="#3E4154"/>
<stop offset="1" stop-color="#1B2129"/>
</linearGradient>
</defs>
</svg>
