<svg width="126" height="162" viewBox="0 0 126 162" fill="none" xmlns="http://www.w3.org/2000/svg">
<g clip-path="url(#clip0_1722_2)">
<g filter="url(#filter0_d_1722_2)">
<path d="M111 5H15C12.2386 5 10 7.23858 10 10V142C10 144.761 12.2386 147 15 147H111C113.761 147 116 144.761 116 142V10C116 7.23858 113.761 5 111 5Z" fill="white"/>
<path d="M111 5.5H15C12.5147 5.5 10.5 7.51472 10.5 10V142C10.5 144.485 12.5147 146.5 15 146.5H111C113.485 146.5 115.5 144.485 115.5 142V10C115.5 7.51472 113.485 5.5 111 5.5Z" stroke="#E3E1E6"/>
</g>
<path d="M104 131H22C19.7909 131 18 132.791 18 135C18 137.209 19.7909 139 22 139H104C106.209 139 108 137.209 108 135C108 132.791 106.209 131 104 131Z" fill="#F45624"/>
<path d="M104 13H70C67.7909 13 66 14.7909 66 17C66 19.2091 67.7909 21 70 21H104C106.209 21 108 19.2091 108 17C108 14.7909 106.209 13 104 13Z" fill="#BBB7C1"/>
<path d="M104 50H22C19.7909 50 18 51.7909 18 54C18 56.2091 19.7909 58 22 58H104C106.209 58 108 56.2091 108 54C108 51.7909 106.209 50 104 50Z" fill="#E3E1E6"/>
<path d="M104 62H22C19.7909 62 18 63.7909 18 66C18 68.2091 19.7909 70 22 70H104C106.209 70 108 68.2091 108 66C108 63.7909 106.209 62 104 62Z" fill="#E3E1E6"/>
<path d="M104 74H22C19.7909 74 18 75.7909 18 78C18 80.2091 19.7909 82 22 82H104C106.209 82 108 80.2091 108 78C108 75.7909 106.209 74 104 74Z" fill="#E3E1E6"/>
<path d="M104 86H70C67.7909 86 66 87.7909 66 90C66 92.2091 67.7909 94 70 94H104C106.209 94 108 92.2091 108 90C108 87.7909 106.209 86 104 86Z" fill="#BBB7C1"/>
</g>
<defs>
<filter id="filter0_d_1722_2" x="0" y="0" width="126" height="162" filterUnits="userSpaceOnUse" color-interpolation-filters="sRGB">
<feFlood flood-opacity="0" result="BackgroundImageFix"/>
<feColorMatrix in="SourceAlpha" type="matrix" values="0 0 0 0 0 0 0 0 0 0 0 0 0 0 0 0 0 0 127 0" result="hardAlpha"/>
<feOffset dy="5"/>
<feGaussianBlur stdDeviation="5"/>
<feColorMatrix type="matrix" values="0 0 0 0 0.027451 0 0 0 0 0.184314 0 0 0 0 0.298039 0 0 0 0.15 0"/>
<feBlend mode="normal" in2="BackgroundImageFix" result="effect1_dropShadow_1722_2"/>
<feBlend mode="normal" in="SourceGraphic" in2="effect1_dropShadow_1722_2" result="shape"/>
</filter>
<clipPath id="clip0_1722_2">
<rect width="126" height="162" fill="white"/>
</clipPath>
</defs>
</svg>
